<svg width="109" height="104" viewBox="0 0 109 104" fill="none" xmlns="http://www.w3.org/2000/svg">
<path d="M102.18 22.7393C87.5069 13.4716 53.896 6.38301 28.8255 0.551636L0 31.5513L24.7429 31.0224C12.4227 50.9373 14.9333 97.767 46.0883 103.992C44.4842 100.916 41.6995 95.2651 45.3096 88.2689C47.8807 83.2925 62.1745 55.9359 62.1745 55.9359H65.5961C70.2296 55.9359 71.7547 57.6787 69.6996 60.1357C82.0507 59.9782 89.6349 55.3057 93.0382 50.3127C90.4475 45.5699 82.2055 39.9862 78.8637 37.723H96.1451C101.1 37.723 102.218 39.8004 101.051 42.062C109.139 40.4713 113.273 29.7453 102.18 22.7393" fill="#A5ACAF"/>
<path d="M100.206 23.6845C80.2203 12.4689 30.7327 4.99335 30.7327 4.99335L9.53369 27.7129H31.5129C15.2847 49.1664 18.8806 92.473 42.7451 101.476C41.0524 97.4493 40.1949 92.7754 43.2456 86.8285C46.6884 80.1222 52.168 68.8491 60.018 53.7994H66.424C71.7407 53.7994 73.4401 56.0485 72.7191 57.7842C77.0911 57.7842 85.0844 57.3553 90.8847 50.3127C86.053 43.5587 70.0763 35.6835 70.0763 35.6835H97.4847C101.512 35.6835 103.525 37.1167 102.969 39.5443C109.971 36.1235 108.15 28.1417 100.206 23.6845Z" fill="#FFFFFE"/>
<path d="M67.7665 36.4202C67.7665 36.4202 85.4315 45.0674 88.8658 50.3124C87.0566 52.7203 84.2901 54.4067 80.5859 55.2536C82.9533 53.4351 83.4018 51.6866 81.9467 51.6866H76.7102C75.8162 52.5669 75.3396 54.1577 76.5388 55.7612C74.5145 55.3182 72.5646 53.6514 72.4142 51.6866H61.327C62.8074 48.723 67.0793 40.253 68.2714 37.9197L67.7668 36.4202H67.7665ZM99.3755 25.1907C107.11 29.4371 106.6 35.2867 104.313 37.2178C104.353 35.1292 102.302 33.575 98.6021 33.575H62.4638L66.348 35.6567C66.348 35.6567 43.0895 81.993 41.3042 85.6497C39.2434 89.8748 38.6783 94.619 40.4538 98.5713C35.8527 95.6528 32.2398 90.9566 29.6968 85.232L27.6316 85.0914L49.5702 52.8836C49.5239 52.6768 49.483 52.4672 49.4465 52.259L27.297 78.3837C26.1627 74.1698 25.509 69.6281 25.3684 64.9698L22.8591 64.3411L50.0694 42.8595C50.137 42.6317 50.2086 42.4053 50.2817 42.1789L25.6074 57.1623C25.9798 53.0299 26.7572 48.8991 27.9564 44.9116L25.4036 43.4658L54.4441 33.7821C54.5735 33.5837 54.7057 33.387 54.8378 33.1927L30.4616 38.1761C31.7774 35.242 33.3477 32.439 35.1905 29.8439L32.9328 27.7131H62.0845C62.1659 27.5499 62.246 27.3897 62.3261 27.2322L18.9229 23.9114L31.2641 10.6184L29.3338 8.16119C29.3338 8.16119 82.5677 15.9659 99.3752 25.1913L99.3755 25.1907Z" fill="black"/>
<path d="M101.286 28.5242L101.75 30.5777C98.5869 31.1725 92.9904 31.6466 91.4089 31.7747C91.3315 31.9322 91.2514 32.0897 91.1699 32.2515H99.5005C102.805 32.2515 104.197 33.8196 104.491 34.7213C104.924 33.4878 104.525 30.1796 101.286 28.5242ZM92.0217 24.4651C93.8688 25.0812 98.0258 27.4019 99.6002 29.2177H96.613C95.4351 27.2795 92.0217 24.4651 92.0217 24.4651Z" fill="#FFFFFE"/>
<path d="M29.5384 50.1296L47.2919 40.4304C47.3875 40.1898 47.4873 39.9478 47.5914 39.7075L30.5057 45.8497C30.1261 47.259 29.8043 48.6895 29.5384 50.1299V50.1296ZM37.4768 30.8927C36.6937 31.966 35.967 33.0826 35.291 34.236L52.6565 31.1319C52.8083 30.9322 52.9631 30.7325 53.1176 30.5371L37.4768 30.8927ZM48.4938 62.8444C48.3786 62.6376 48.266 62.4281 48.1565 62.2199L33.7403 83.9688C34.4967 85.4021 35.333 86.7424 36.2425 87.9732L48.4938 62.8444ZM29.2376 69.7461L45.2633 51.8596C45.2507 51.6037 45.2423 51.349 45.2366 51.0945L28.7188 65.1428C28.8299 66.6997 29.0054 68.2385 29.2376 69.7464V69.7461ZM79.1412 49.2699L66.5596 47.3909L65.283 49.8637H78.8444L79.1412 49.2699ZM87.8317 26.763L30.2286 18.788L33.7528 14.9694C53.1554 17.9694 76.3605 22.7123 88.1423 26.1455C88.0426 26.3466 87.9371 26.5534 87.8317 26.763Z" fill="#A71930"/>
</svg>
