<svg width="142" height="69" viewBox="0 0 142 69" fill="none" xmlns="http://www.w3.org/2000/svg">
<path d="M141.025 41.8958C140.454 38.419 138.161 33.3127 130.469 28.7185C129.949 28.4081 129.403 28.1058 128.841 27.8085C130.28 27.325 131.768 26.8261 131.768 26.8261L123.243 23.5057C122.513 23.2212 121.748 22.9653 120.973 22.7165L122.131 21.5421L115.595 20.6274C112.77 20.2314 110.542 20.1404 108.835 20.1652C108.818 19.8903 108.797 19.6368 108.769 19.4092C108.769 19.4069 107.677 11.2314 107.677 11.2314C107.677 11.2314 105.148 14.681 104.896 15.0236C104.359 14.129 103.749 13.2875 103.049 12.4971C103.049 12.496 95.9992 4.53263 95.9992 4.53263C95.9992 4.53263 96.2804 6.87527 96.5057 8.74523C94.2196 7.15245 91.706 5.72948 88.9251 4.53846C77.5816 -0.321295 63.2369 -1.33083 49.5671 1.76429C38.1334 4.35464 21.625 11.108 7.91374 28.5668L0 38.644L11.9116 33.9039C12.0064 33.8659 21.2016 30.2847 28.617 29.2408C31.3824 28.851 33.4998 28.82 31.781 32.6037C30.4263 35.59 27.349 39.9485 27.3169 39.9923L21.3522 48.6582L31.3016 45.2074C36.0872 43.5449 40.3827 42.7259 42.555 42.6489C43.3308 42.6632 43.4732 43.1749 43.2287 43.7319C43.1586 43.9251 43.1184 44.0257 42.5809 44.8506L36.3423 53.7453L46.5753 50.0835C54.0015 47.422 63.7648 45.6693 67.2573 47.0024C67.542 47.1104 68.4649 47.5997 67.5502 48.9398L63.531 55.3269C63.531 55.3269 69.4648 54.4274 70.3083 54.2973C70.7746 60.1298 73.7034 63.3104 74.0643 63.6778L78.3753 68.0943L79.889 62.1136C80.9755 57.8096 83.0232 55.4644 84.85 54.187C84.85 54.1893 85.201 56.6446 85.201 56.6446L89.1977 55.2047C92.5574 53.9912 95.2169 52.5338 97.1315 50.871C99.6644 50.6708 105.852 50.3023 111.795 50.89C122.039 51.9018 128.91 50.5416 130.773 50.0996C133.264 49.5105 135.364 50.5737 135.386 50.5854L138.432 52.2397L140.075 49.1586C140.269 48.7889 141.198 46.8656 141.198 44.0144C141.198 43.308 141.141 42.5946 141.025 41.8943" fill="#FFFFFE"/>
<path d="M139.598 42.4863C139.092 39.4067 137.005 34.8539 129.93 30.6258C128.038 29.5002 125.983 28.5367 123.903 27.7177L126.409 26.8762L122.967 25.535C121.262 24.8703 119.471 24.3227 117.624 23.8783C117.979 23.5191 118.363 23.127 118.363 23.127L115.726 22.7561C111.664 22.1886 108.86 22.2537 107.21 22.4078C107.225 22.0524 107.237 21.6766 107.237 21.2976C107.237 20.7668 107.217 20.244 107.161 19.8212L106.719 16.5186C106.719 16.5186 105.115 18.7072 104.883 19.0238C104.353 17.5521 103.483 15.7282 101.896 13.9318L99.0466 10.7121L99.3693 13.3996C96.8082 11.0225 93.2634 8.52348 88.4043 6.4414C77.3811 1.71907 63.4041 0.743966 50.0654 3.76439C38.8856 6.29668 22.7412 12.9053 9.31826 29.9953L5.93604 34.3051L11.0289 32.2764C11.1237 32.2396 20.5964 28.4915 28.2969 27.463C31.3161 27.0624 33.4003 27.4192 34.1632 28.4714C34.8752 29.4573 34.6461 31.4078 33.5403 33.6935C32.0266 36.8301 28.9326 41.3333 28.9017 41.3805L26.351 45.0837L30.6051 43.6097C36.2103 41.6627 43.2773 40.2231 44.9153 41.293C45.2938 41.5407 45.4977 41.8322 45.5774 42.2398C45.8397 43.6 44.6673 45.662 44.2358 46.2806L41.5655 50.0809L45.943 48.5167C52.9361 46.0115 65.4742 43.1393 69.3498 46.1064C71.1424 47.4797 69.4674 50.1935 69.3924 50.3073L67.6724 53.0435L70.8658 52.5566L72.4283 52.3147C72.4186 52.5647 72.4023 52.8183 72.4023 53.0564C72.4023 59.2314 75.5295 62.515 75.6801 62.6714L77.5247 64.5604L78.1724 61.9995C79.9875 54.8114 84.283 52.3229 86.677 51.4791C86.7435 51.9555 87.0767 54.2839 87.0767 54.2839L88.785 53.6676C92.9752 52.1568 95.3216 50.499 96.6098 49.2549C98.5375 49.0865 105.6 48.5535 112.381 49.2216C122.367 50.2099 129.004 48.898 130.802 48.4715C134.113 47.6895 136.803 49.1198 136.832 49.1338L138.146 49.8507L138.852 48.5295C138.897 48.4467 139.748 46.7935 139.748 44.2945C139.748 43.7328 139.704 43.1288 139.598 42.4863Z" fill="#9E7C0C"/>
<path d="M129.052 32.1182C126.098 30.0315 122.119 28.5134 118.259 27.428C119.866 26.9089 121.476 26.9434 121.476 26.9434C119.003 25.9989 116.42 25.4086 114.018 25.0366L114.917 24.2307C110.517 23.4818 107.446 23.5387 105.624 23.7283C105.853 22.8276 106.039 21.4519 105.804 19.6152C105.804 19.6152 105.27 21.1984 103.976 22.1819C103.805 20.1273 103.148 17.155 100.915 15.1383L101.329 18.7656C99.3625 15.8067 95.6196 12.023 88.5433 8.71664C69.3073 -0.264399 35.4122 3.14 16.8062 27.1447C16.8062 27.1447 24.0415 23.5328 34.0656 23.2933C39.3175 23.1702 40.5937 26.1077 38.6803 31.0585C36.7561 36.0344 33.3835 40.3999 33.3835 40.3999C33.3835 40.3999 56.0679 32.3703 48.9063 43.5248C48.9063 43.5248 66.0307 38.4018 71.1674 44.4112C73.5555 47.1996 70.7747 51.0995 70.7747 51.0995L75.6327 50.0497C74.0574 56.2128 76.8155 60.1494 76.8155 60.1494C78.8203 52.0924 85.8111 49.9464 88.2859 49.5399L88.8211 51.7227C92.9683 50.2247 94.9188 48.6311 96.0337 47.3181C104.816 45.9389 110.78 47.1179 117.55 47.4865C127.411 48.0245 132.509 46.3086 134.138 46.3194C135.334 46.3302 136.751 47.3718 136.751 47.3718C136.751 47.3718 140.85 40.4609 129.052 32.1182" fill="black"/>
<path d="M120.956 45.2255C114.127 45.2588 108.044 43.5228 99.7968 44.5393L97.034 42.3233C96.2879 44.237 95.2641 45.5383 95.2641 45.5383C96.1753 43.9102 95.2439 41.9761 94.8582 41.0293C91.4605 39.2244 85.9005 35.7712 90.6232 34.6444C87.6812 34.2059 78.7186 33.3218 67.4891 36.5249C67.4891 36.5249 77.8704 29.5985 97.8349 32.8538C92.4409 29.6376 80.6215 29.7704 80.6215 29.7704C91.392 27.0805 104.39 31.3346 109.216 32.9107L104.719 29.6627L110.4 30.1543L107.346 27.6956C107.346 27.6956 119.432 28.5522 127.299 33.7913C136.492 39.1713 135.367 44.8203 135.367 44.8203C133.21 40.3077 117.251 37.2243 98.8109 35.0488C93.8866 34.4705 91.8069 34.7918 92.0146 35.9399C92.2116 37.0206 95.054 39.1549 97.9011 40.2747C95.8654 38.3219 97.6341 37.8242 97.6341 37.8242C100.87 37.5598 121.763 39.5141 132.433 44.0821C129.542 44.7564 125.867 45.1984 120.956 45.2255ZM59.8707 34.2178C59.7662 34.2841 59.6583 34.3541 59.5538 34.4241C59.4388 34.5058 59.3224 34.584 59.2075 34.6622L59.0403 34.776C58.5396 34.8031 58.0462 34.8198 57.5657 34.8198L53.1418 35.0745C50.5153 35.2084 46.0821 35.7406 44.6075 35.9276L44.1091 35.988C47.5459 23.9731 50.648 19.7617 52.7252 17.7021C53.9602 16.1971 56.1442 15.1768 57.8951 14.5819C46.1305 15.1424 34.6934 17.5609 34.6934 17.5609C42.0901 11.8267 59.2404 7.82005 69.1271 8.82725C79.0127 9.83562 78.3398 13.8411 77.3233 16.1256C76.4999 17.972 72.4618 20.4745 68.6644 21.2827C72.5957 21.7948 74.8225 24.826 73.4144 27.8523C73.2934 28.1116 73.1536 28.3629 73.0039 28.6047C68.8079 29.6003 65.0841 31.1785 62.0283 32.9028C61.9215 32.9656 61.8159 33.0271 61.7091 33.0878C61.5667 33.1707 61.4232 33.2538 61.282 33.3379L60.9569 33.531C60.8242 33.6115 60.6935 33.6932 60.5642 33.7741C60.4563 33.8429 59.9923 34.1367 59.8701 34.2173L59.8707 34.2178Z" fill="#FFFFFE"/>
<path d="M83.2016 9.48693C104.563 15.8551 101.328 28.0962 101.328 28.0962C101.328 28.0962 99.6033 28.2053 97.5688 24.4061C95.648 20.8202 92.8106 20.3604 92.8106 20.3604C92.8106 20.3604 94.9066 20.1672 97.85 21.4481C97.85 21.4481 93.7145 15.2506 81.9085 15.7282C81.9085 15.7282 87.8638 16.4606 90.3859 19.7868C90.3859 19.7868 82.3654 18.5249 75.1513 22.254C75.1513 22.254 81.5858 21.1911 86.5208 24.5126C86.5208 24.5126 79.1206 23.9591 75.0588 28.1709C78.6736 27.5036 82.593 27.2868 86.6988 27.7726C89.3857 28.1802 91.6706 28.7241 93.3515 29.1912C89.1698 28.7302 84.7343 28.7433 80.6212 29.7706C80.6212 29.7706 92.4403 29.6379 97.8346 32.8541C77.8704 29.5988 67.4888 36.5252 67.4888 36.5252C78.7182 33.3221 87.6809 34.2062 90.6228 34.6447C85.9002 35.7715 91.4602 39.2246 94.8579 41.0295C95.2433 41.9763 96.1747 43.9102 95.2649 45.5363C93.0323 48.5961 90.5376 49.2181 90.5376 49.2181C92.0146 45.4878 90.2103 42.8239 90.2103 42.8239C90.2103 42.8239 88.9612 46.668 83.5445 48.929C77.6046 51.4128 76.6828 55.0352 76.6828 55.0352C76.6828 55.0352 76.4669 51.7242 79.6058 48.2416C80.6142 47.1182 81.3556 46.1843 81.8242 45.3667L75.1831 47.1845C79.6376 34.2502 53.927 39.4522 53.927 39.4522C54.8723 38.1133 56.6959 36.3866 59.2072 34.6625C59.3221 34.5843 59.4385 34.5061 59.5535 34.4244C59.6579 34.3544 59.7659 34.2846 59.8704 34.2181C59.9926 34.1376 60.1149 34.0571 60.2392 33.98L60.5642 33.7749C60.6934 33.6944 60.8239 33.6127 60.9569 33.5319L61.282 33.3387C61.4232 33.2547 61.5667 33.1715 61.7091 33.0887C61.8159 33.0283 61.9215 32.9667 62.0283 32.9037C65.0843 31.1796 68.8079 29.6011 73.0039 28.6056C73.1533 28.3637 73.2933 28.1125 73.4144 27.8531C74.8225 24.8266 72.596 21.7953 68.6644 21.2836C72.4618 20.4754 76.4999 17.9725 77.3233 16.1265C78.3398 13.8419 79.0127 9.83647 69.1271 8.82811C59.2404 7.82091 42.0901 11.8272 34.6933 17.5617C34.6933 17.5617 46.1305 15.1432 57.8951 14.5827C56.1441 15.1777 53.9602 16.198 52.7251 17.7029C50.648 19.7626 47.5456 23.974 44.1091 35.9889L44.6075 35.9285L40.2075 36.6171C40.2075 36.6171 46.9349 25.8702 42.4947 21.2996C38.6772 17.3689 25.9507 21.3696 25.9507 21.3696C38.5932 9.27539 61.3712 2.9807 83.2016 9.48751V9.48693ZM60.7982 31.034C60.1292 31.2035 59.4826 31.2628 58.9381 31.2628H56.4114C56.4114 31.2628 57.4256 28.1035 59.0569 24.6538H60.0475C62.4024 24.6538 63.7083 25.9764 62.2422 29.1308C61.8672 29.9355 61.3654 30.5552 60.7985 31.034H60.7982ZM65.1838 20.1261C64.4707 20.3371 63.6783 20.459 62.8339 20.459H61.0617C62.159 17.9349 63.0358 16.3943 63.6441 15.4773C65.9526 15.4974 66.891 16.6482 65.669 19.268C65.5161 19.5998 65.3522 19.8831 65.1838 20.1258V20.1261Z" fill="#241773"/>
<path d="M65.6699 19.268C65.517 19.5997 65.353 19.883 65.1846 20.1258C66.6 19.705 67.6947 18.9231 68.2334 17.9903C69.4174 15.9248 68.5097 14.4435 66.5997 14.241L64.6151 14.2469C64.6151 14.2469 64.2723 14.529 63.6447 15.477C65.9532 15.4971 66.8915 16.6479 65.6696 19.2677M62.2424 29.1304C61.8675 29.9352 61.3656 30.5549 60.7987 31.0337C62.2958 30.664 63.914 29.768 64.8047 27.8531C66.2735 24.6973 64.9649 23.375 62.6124 23.375H59.6871C59.4688 23.8027 59.2576 24.2304 59.0571 24.6535H60.0477C62.4026 24.6535 63.7086 25.9761 62.2424 29.1304Z" fill="black"/>
<path d="M76.422 12.9648C75.498 11.449 73.2414 10.5521 69.2354 10.3482C69.2354 10.3482 65.1794 9.79845 60.0475 10.4844C58.0164 10.7558 48.144 11.7595 39.7378 15.8586C47.0893 14.0703 55.7777 13.415 61.2787 13.216C63.5919 13.1343 66.1333 13.2066 66.1333 13.2066C67.7786 13.2066 69.3042 13.6924 69.8892 14.6512C70.4955 15.6429 70.6627 16.8328 69.5228 18.2855C68.8952 19.0867 68.1584 19.9302 66.0198 20.8L68.4849 20.2751C72.1697 19.4882 75.5137 17.4204 76.2825 15.8171C76.8436 14.6462 76.8757 13.7079 76.4226 12.9648" fill="#9E7C0C"/>
<path d="M58.5898 22.3503H62.6493C64.7442 22.3503 65.7076 23.2081 66.1488 23.9311C66.8403 25.0629 66.7171 26.588 65.8605 28.4982C64.2079 32.1824 60.2042 32.5142 59.0024 32.5142L54.3959 32.6895C56.3925 26.3616 58.5898 22.3503 58.5898 22.3503ZM60.7014 33.6874C63.6317 31.8813 67.2984 30.1619 71.485 28.9971C71.7496 28.6453 71.9772 28.273 72.1587 27.8796C72.5797 26.9778 72.6285 25.8568 72.3282 24.9704C71.8763 23.6253 70.9759 22.7296 68.1381 22.0658C64.4037 21.1949 58.949 21.5788 58.949 21.5788C60.2042 18.5345 61.1414 16.7547 62.0797 15.2118C61.273 15.1595 57.2051 15.5911 54.0817 18.5677C51.3615 20.9696 48.423 27.2089 46.0859 34.6388C50.1063 34.2169 53.7508 34.0261 53.7508 34.0261L57.573 33.8613C58.5779 33.8613 59.6347 33.8067 60.7014 33.6871V33.6874Z" fill="#9E7C0C"/>
<path d="M94.7454 23.5316C95.3576 24.9797 94.5141 26.5876 92.8603 27.1245C91.2077 27.6625 89.3701 26.9206 88.758 25.4725C88.1459 24.0233 88.9905 22.4127 90.6431 21.8784C92.2946 21.3416 94.1333 22.0812 94.7454 23.5316ZM94.5949 24.4145C94.2629 23.5459 93.2484 23.1097 92.3266 23.4418C91.4073 23.77 90.9267 24.7393 91.2602 25.6067C91.5937 26.4765 92.6079 26.9115 93.5296 26.5833C94.4513 26.2527 94.9296 25.2823 94.5949 24.4148V24.4145Z" fill="#C60C30"/>
<path d="M90.4935 25.661C90.0331 24.5733 90.6986 23.3501 91.9763 22.9344C92.4697 22.7745 92.9812 22.7567 93.4486 22.8597C92.8105 22.4567 91.9457 22.3313 91.1354 22.5953C89.8542 23.0099 89.1899 24.2307 89.6526 25.3257C89.9351 25.9965 90.5805 26.4622 91.3324 26.6232C90.9621 26.3898 90.6645 26.0628 90.4935 25.661Z" fill="#FFFFFE"/>
</svg>
