<svg width="128" height="69" viewBox="0 0 128 69" fill="none" xmlns="http://www.w3.org/2000/svg">
<path d="M98.5474 34.1757C98.5474 34.1757 100.04 30.8905 99.3674 26.8612C99.3674 26.8612 96.5325 25.8162 91.382 26.8612C91.382 26.8612 88.9179 32.3818 85.7812 35.0693C85.7812 35.0693 88.1725 29.4712 86.7508 25.2934C86.7508 25.2934 91.0813 23.5771 96.3848 23.9498C101.684 24.3225 102.876 25.4437 102.876 25.4437C102.876 25.4437 101.533 31.787 98.5471 34.1757H98.5474ZM95.1255 45.7407C97.5896 43.9398 97.3273 40.4104 97.3273 40.4104C97.9242 41.8079 98.2585 43.6754 97.9242 45.0093C97.5899 46.3403 96.7259 47.6739 93.1253 48.0045C89.5258 48.3399 87.4599 47.2055 87.4599 47.2055C89.0619 45.6077 90.6158 41.2767 90.6158 41.2767C91.4169 44.3451 90.7362 45.7644 90.7362 45.7644C92.4693 46.2956 95.1258 45.7407 95.1258 45.7407H95.1255ZM100.795 45.1578C101.663 51.4911 96.0305 54.1494 92.9009 54.1494C89.7697 54.1494 85.4658 52.8202 83.8236 47.5028C82.1814 42.1835 82.1814 35.6134 84.293 32.4065C84.293 32.4065 82.8868 38.7417 83.668 42.3409C84.4499 45.9384 85.9362 48.9886 88.8303 49.5379C91.7263 50.0836 96.0305 49.9277 97.5933 48.1267C99.1606 46.3276 99.7848 43.7476 98.2212 40.2264C96.6547 36.7092 93.5262 32.1705 98.6951 27.6374C98.6951 27.6374 96.4224 30.3722 97.2826 34.3633C98.1418 38.3508 99.9252 38.8263 100.795 45.1578ZM80.576 18.9638C68.7867 17.3421 59.1162 19.7499 59.1162 19.7499C68.6127 16.69 77.2472 17.0724 81.5035 17.56C81.1053 18.0483 80.7991 18.5183 80.5757 18.9638H80.576ZM80.0227 21.8955C68.5005 21.0975 59.363 23.9214 59.363 23.9214C67.6712 20.7266 75.447 20.3056 80.0663 20.4341C79.9607 20.9889 79.9662 21.4836 80.0227 21.8955ZM60.6152 38.554C56.2163 33.159 58.068 25.9494 58.068 25.9494C58.068 25.9494 58.2331 32.1334 63.6304 37.5965C69.0299 43.0616 75.7303 44.5401 75.7303 44.5401C75.7303 44.5401 65.0145 43.9524 60.6149 38.554H60.6152ZM84.2893 15.0693C83.6832 15.4901 83.1612 15.9028 82.7065 16.311C70.0899 13.3312 59.056 15.4428 59.056 15.4428C72.7188 11.8598 84.2893 15.0693 84.2893 15.0693ZM74.4503 8.46742L74.4529 8.46479L74.4566 8.46295C74.6461 8.382 78.4864 6.77765 82.4066 7.66866C86.428 8.58412 88.9231 11.3089 88.9231 11.3089C88.9231 11.3089 85.3118 10.2266 78.6192 10.3459C78.6192 10.3459 78.3558 9.85861 79.0447 8.83828C79.0447 8.83828 77.9721 8.52498 74.449 8.46742H74.4498H74.4503ZM104.064 9.58237C106.122 9.16867 108 10.2263 108.882 11.049C108.882 11.049 104.125 10.169 101.895 12.2233C101.895 12.2233 102.012 9.99134 104.064 9.58237ZM126.74 25.2734C122.09 22.7381 116.818 21.9501 112.773 21.7924C112.773 21.7924 111.127 21.8224 110.873 21.8153C110.956 21.1422 110.935 20.539 110.828 20.0059C111.832 19.976 113.103 19.9357 113.289 19.9265L113.442 19.9174C121.548 19.6521 125.834 21.794 125.834 21.794L125.423 21.4815C121.475 19.6521 117.298 18.9827 113.685 18.8805H113.54C113.54 18.8805 111.795 18.8778 110.467 18.9023C110.104 18.1353 109.572 17.5568 109.036 17.1339C110.743 17.1239 112.721 17.1294 113.86 17.1804L113.943 17.1831C120.18 17.2488 123.581 18.7262 123.581 18.7262L123.172 18.4045C120.078 17.0845 116.917 16.4868 113.954 16.2892C113.954 16.2892 110.09 16.0823 107.111 16.0997C107.974 16.7528 108.634 17.693 108.698 19.0439C108.9 23.2054 104.601 24.8826 104.601 24.8826C105.611 24.2102 107.423 21.9309 106.954 18.9756C106.482 16.024 102.657 14.6209 102.657 14.6209C102.657 14.6209 98.1757 16.5622 97.2035 20.2172C97.2035 20.2172 97.2792 16.413 90.932 13.9486C90.932 13.9486 93.9183 13.0539 97.1304 13.2763C100.34 13.5023 102.657 14.6209 102.657 14.6209C102.657 14.6209 103.248 13.0568 106.397 12.5219C109.549 11.9871 112.957 12.758 112.957 12.758C112.328 11.6102 111.603 9.93563 108.435 8.64195C105.269 7.34827 102.428 8.51894 102.428 8.51894C102.428 8.51894 102.222 6.99028 99.9207 5.50158C96.18 3.08296 86.2871 1.64157 84.3789 1.53775C82.4744 1.43761 85.8096 2.66479 87.1456 3.42728C88.6647 4.29174 90.3643 5.76126 90.5101 7.15613C90.5474 7.53146 90.4591 7.85764 90.2914 8.12994C90.1566 7.74016 89.8751 7.24182 89.3802 6.60575C86.6701 3.12659 79.7972 1.62159 74.6385 1.96512C69.4806 2.30944 65.3817 4.25994 65.3817 4.25994C65.4408 4.73646 63.4798 6.3989 58.0704 6.9958C52.9162 7.56064 49.2782 6.61863 47.9698 6.42466L47.8705 6.40547C47.3401 6.33976 46.9419 6.36368 46.7753 6.74532L46.7579 6.79815L46.7469 6.86911C46.724 7.1351 46.8872 7.50229 46.8872 7.50229L46.8115 7.35746C47.1787 8.0616 49.3713 12.103 52.2609 14.1773C52.2609 14.1773 53.9877 13.8111 56.0363 13.5906C56.0363 13.5906 24.3748 28.9957 11.5476 53.0644C17.1366 52.4084 24.4904 51.9857 32.4733 52.6891L32.4194 52.6835H32.4149C33.5677 50.7449 39.3525 39.9194 53.1093 33.2684C53.1093 33.2684 42.9376 40.3379 39.3225 53.5656C43.9216 54.3455 48.6193 55.5553 53.2195 57.3455C68.0051 63.1058 80.4685 69.1284 94.5186 69.0043L96.907 68.8995L96.9026 68.8884C93.17 61.1111 89.4956 57.5565 89.4956 57.5565C92.274 58.0549 94.5186 57.2632 94.5596 57.2495C94.7683 57.1738 94.9486 57.0992 95.1 57.0301C99.6957 54.5531 100.462 50.3606 100.839 47.3572C101.271 43.8843 100.655 41.6634 100.655 41.6634C100.655 41.6634 108.611 31.2232 110.63 23.0115C110.63 23.0115 111.649 22.8722 112.433 22.8884C121.913 22.9952 127.093 25.6288 127.093 25.6288L126.74 25.2726L126.74 25.2734ZM116.48 7.50518C116.51 7.43868 116.532 7.37665 116.551 7.31567L116.592 7.16349L116.592 7.15613C116.408 6.63414 116.046 6.59577 115.278 6.65596C114.162 6.86833 113.131 7.00395 112.261 7.08963H112.263L112.121 7.10514L112.02 7.11434L111.643 7.14904L111.589 7.15088C110.47 7.24287 109.761 7.24734 109.761 7.24734C112.622 9.40995 112.956 12.759 112.956 12.759L113.103 12.6342C115.298 11.0408 116.48 7.50518 116.48 7.50518H116.48Z" fill="black"/>
<path d="M86.7509 25.2937C88.1726 29.4714 85.7813 35.0696 85.7813 35.0696C88.918 32.3821 91.3821 26.8615 91.3821 26.8615C96.5326 25.8164 99.3676 26.8615 99.3676 26.8615C100.04 30.8907 98.5475 34.1759 98.5475 34.1759C101.534 31.7873 102.876 25.444 102.876 25.444C102.876 25.444 101.684 24.3225 96.3852 23.95C91.0814 23.5773 86.7512 25.2937 86.7512 25.2937H86.7509ZM104.064 9.58263C102.012 9.9916 101.895 12.2236 101.895 12.2236C104.125 10.1693 108.883 11.0493 108.883 11.0493C108 10.2266 106.122 9.16893 104.064 9.58263ZM95.1257 45.7412C95.1257 45.7412 92.4692 46.2961 90.736 45.7649C90.736 45.7649 91.4168 44.3456 90.6157 41.2772C90.6157 41.2772 89.062 45.6082 87.4598 47.206C87.4598 47.206 89.5257 48.3402 93.1252 48.0051C96.7258 47.6744 97.5895 46.3408 97.9241 45.0098C98.2584 43.6761 97.9241 41.8084 97.3272 40.4109C97.3272 40.4109 97.5898 43.94 95.1254 45.7412H95.1257ZM82.407 7.66866C78.4868 6.77765 74.6465 8.382 74.457 8.46295C74.6429 8.38358 78.3099 6.85308 82.1337 7.6111C79.9611 7.19923 79.0454 8.83828 79.0454 8.83828C78.3565 9.85861 78.6198 10.3459 78.6198 10.3459C85.3122 10.2266 88.9238 11.3089 88.9238 11.3089C88.9238 11.3089 86.4284 8.58412 82.407 7.66866Z" fill="#BFC0BF"/>
<path d="M110.63 23.0125C108.611 31.2243 100.655 41.6644 100.655 41.6644L100.659 41.6607C106.672 36.5328 110.679 27.4628 112.433 22.8895C111.649 22.8732 110.63 23.0125 110.63 23.0125ZM110.872 21.8155C111.127 21.8229 112.772 21.7927 112.772 21.7927C112.925 21.2807 113.11 20.6283 113.289 19.9271C113.103 19.9363 111.832 19.9762 110.828 20.0064C110.934 20.5395 110.955 21.1422 110.872 21.8155ZM97.2825 34.3636C96.4222 30.3724 98.695 27.6376 98.695 27.6376C93.5263 32.1708 96.6546 36.7094 98.2211 40.2267C99.7849 43.7476 99.1607 46.3276 97.5932 48.127C96.0303 49.928 91.7264 50.0838 88.8302 49.5382C85.9359 48.9889 84.4498 45.9389 83.6678 42.3412C82.887 38.7419 84.2929 32.4068 84.2929 32.4068C82.1815 35.6134 82.1815 42.1838 83.8234 47.503C85.4656 52.8205 89.7696 54.1496 92.9007 54.1496C96.0301 54.1496 101.663 51.4913 100.795 45.158C99.925 38.8266 98.142 38.3511 97.2825 34.3636ZM116.644 6.74374L116.632 6.64071L116.624 6.58788L116.596 6.49852L116.579 6.45199L116.542 6.37446L116.522 6.33713L116.472 6.26801L116.445 6.23804L116.391 6.18153L116.363 6.15604L116.3 6.10873L116.27 6.0877L116.206 6.05222L116.176 6.03487L116.11 6.0057L116.082 5.99203L116.02 5.97021L115.992 5.96207L115.932 5.94577L115.912 5.93946L115.857 5.92947L115.841 5.9258L115.798 5.92027L115.788 5.91765L115.739 5.91213C111.788 5.95497 108.544 4.61477 108.544 4.61477L108.278 4.5191C99.4942 1.30593 90.3778 0.385999 82.2609 0.53345L82.2582 0.525303C78.6332 0.558946 75.9867 0.855161 75.9867 0.855161C64.3323 1.84001 55.9778 4.63211 55.9778 4.63211C55.9778 4.63211 52.8056 5.52497 48.5826 5.31444C48.5826 5.31444 47.0143 5.2871 46.7044 6.28561C46.4392 6.92142 46.4027 7.6776 46.9996 9.33294C47.6885 11.2424 50.4443 14.8317 50.4651 14.8583C42.1295 18.2436 20.4219 30.4155 0.974365 54.8906C0.974365 54.8906 5.08433 53.8229 11.548 53.066C24.3752 28.9973 56.0367 13.5922 56.0367 13.5922C53.9881 13.8127 52.2613 14.1788 52.2613 14.1788C49.3717 12.1045 47.1791 8.06318 46.8119 7.35904L46.8876 7.50386C46.8876 7.50386 46.7244 7.13668 46.7473 6.87069L46.7583 6.79972L46.7756 6.74689C46.9423 6.36526 47.3407 6.3416 47.8709 6.40705L47.9702 6.42623C49.2789 6.62021 52.9165 7.56221 58.0708 6.99738C63.4802 6.40074 65.4412 4.73804 65.3821 4.26152C65.3821 4.26152 69.481 2.31101 74.6389 1.9667C79.7976 1.62317 86.6705 3.12817 89.3806 6.60733C89.8755 7.24313 90.157 7.74147 90.2918 8.13152C90.4595 7.85922 90.5478 7.53304 90.5105 7.15771C90.3646 5.76284 88.6651 4.29358 87.146 3.42885C85.81 2.66637 82.4748 1.43918 84.3793 1.53932C86.2875 1.64314 96.1804 3.08428 99.9211 5.50315C102.223 6.99186 102.429 8.52051 102.429 8.52051C102.429 8.52051 105.269 7.34984 108.435 8.64352C111.604 9.9372 112.328 11.6115 112.957 12.7595C112.957 12.7595 112.623 9.41074 109.762 7.24786C109.762 7.24786 110.471 7.24339 111.59 7.1514L111.644 7.14956L112.02 7.11487L112.121 7.10567L112.264 7.09016H112.262C113.131 7.00447 114.163 6.86885 115.279 6.65648C116.046 6.59629 116.409 6.63466 116.592 7.15666L116.593 7.16402L116.551 7.3162C116.533 7.37717 116.51 7.43921 116.481 7.5057C116.481 7.5057 115.299 11.0414 113.104 12.6347L112.957 12.7595C112.957 12.7595 109.55 11.9889 106.398 12.5235C103.249 13.0584 102.657 14.6225 102.657 14.6225C102.657 14.6225 106.483 16.0255 106.955 18.9772C107.423 21.9325 105.611 24.2118 104.602 24.8842C104.602 24.8842 108.9 23.207 108.698 19.0455C108.634 17.6945 107.975 16.7544 107.112 16.1012C110.091 16.0839 113.954 16.2907 113.954 16.2907C113.973 15.1382 113.781 14.1891 113.342 13.3672C115.628 11.3831 116.473 8.36044 116.594 7.16874L116.595 7.16691V7.16428C116.606 7.12406 116.627 7.01577 116.631 6.99212L116.637 6.92378C116.643 6.88357 116.645 6.84362 116.645 6.80524V6.74427L116.644 6.74374ZM90.9318 13.9497C97.2788 16.414 97.2034 20.2183 97.2034 20.2183C98.1756 16.5633 102.656 14.622 102.656 14.622C102.656 14.622 100.34 13.5034 97.1303 13.2773C93.9179 13.055 90.9318 13.9497 90.9318 13.9497ZM109.036 17.1344C109.572 17.5571 110.103 18.1356 110.467 18.9028C111.795 18.8781 113.54 18.881 113.54 18.881C113.665 18.3198 113.776 17.755 113.853 17.2267L113.86 17.1812C112.72 17.1302 110.743 17.1247 109.036 17.1347V17.1344ZM94.5598 57.2503C94.5188 57.264 92.2741 58.0556 89.4957 57.5573C89.4957 57.5573 93.1699 61.1122 96.9027 68.8892L96.9072 68.9003L97.053 68.8911C96.6922 65.3465 95.1785 59.4103 94.8286 58.3124L94.5598 57.2503ZM63.6308 37.5962C58.2332 32.1329 58.0684 25.9492 58.0684 25.9492C58.0684 25.9492 56.2167 33.1588 60.6155 38.5537C65.0152 43.9524 75.731 44.5398 75.731 44.5398C75.731 44.5398 69.0302 43.0614 63.6311 37.5962H63.6308ZM32.4148 52.6843H32.4193L32.4732 52.6898C32.6745 52.7072 33.3187 52.7674 33.3545 52.7726C33.442 52.78 34.5483 52.8956 34.5582 52.8964C36.1284 53.0723 37.7186 53.2928 39.3224 53.5661C42.9375 40.3384 53.1092 33.2689 53.1092 33.2689C39.3526 39.9202 33.5676 50.7456 32.4148 52.6841V52.6843ZM59.0561 15.4426C59.0561 15.4426 70.09 13.3309 82.7066 16.3107C83.1613 15.9025 83.6836 15.4899 84.2894 15.0691C84.2894 15.0691 72.7189 11.8596 59.0561 15.4426ZM59.1163 19.7497C59.1163 19.7497 68.7868 17.3418 80.5761 18.9635C80.7992 18.518 81.1054 18.0481 81.5039 17.5597C77.2473 17.0724 68.6126 16.6897 59.1163 19.7497ZM82.1334 7.61057C78.3097 6.85255 74.6426 8.38305 74.4567 8.46243L74.4531 8.46426L74.4504 8.46689H74.4496C77.9727 8.52419 79.0453 8.83776 79.0453 8.83776C79.0453 8.83776 79.9611 7.19897 82.1337 7.61057H82.1334ZM59.3631 23.9211C59.3631 23.9211 68.5006 21.097 80.0228 21.8952C79.9663 21.4833 79.9608 20.9887 80.0665 20.4338C75.4471 20.3053 67.6711 20.7264 59.3631 23.9211Z" fill="#0085CA"/>
</svg>
