<svg width="102" height="103" viewBox="0 0 102 103" fill="none" xmlns="http://www.w3.org/2000/svg">
<path d="M50.8169 102.174C78.8254 102.174 101.531 79.4683 101.531 51.4597C101.531 23.4512 78.8254 0.74585 50.8169 0.74585C22.8084 0.74585 0.103027 23.4512 0.103027 51.4597C0.103027 79.4683 22.8084 102.174 50.8169 102.174Z" fill="black"/>
<path d="M50.8168 79.8596C66.5015 79.8596 79.2166 67.1446 79.2166 51.4598C79.2166 35.7751 66.5015 23.0601 50.8168 23.0601C35.132 23.0601 22.417 35.7751 22.417 51.4598C22.417 67.1446 35.132 79.8596 50.8168 79.8596Z" fill="#0085CA"/>
<path d="M50.8166 99.1308C24.5301 99.1308 3.14551 77.7462 3.14551 51.4598C3.14551 25.1733 24.5301 3.7887 50.8166 3.7887C77.103 3.7887 98.4876 25.1733 98.4876 51.4598C98.4876 77.7462 77.103 99.1308 50.8166 99.1308ZM97.4734 51.4598C97.4734 25.7374 76.5389 4.80297 50.8166 4.80297C25.0942 4.80297 4.15979 25.7374 4.15979 51.4598C4.15979 77.1821 25.0942 98.1165 50.8166 98.1165C76.5389 98.1165 97.4734 77.1821 97.4734 51.4598Z" fill="white"/>
<path d="M50.8168 83.9167C32.9193 83.9167 18.3599 69.3573 18.3599 51.4598C18.3599 33.5624 32.9193 19.0029 50.8168 19.0029C68.7142 19.0029 83.2737 33.5624 83.2737 51.4598C83.2737 69.3573 68.7142 83.9167 50.8168 83.9167ZM82.2594 51.4598C82.2594 34.1221 68.1545 20.0172 50.8168 20.0172C33.479 20.0172 19.3741 34.1221 19.3741 51.4598C19.3741 68.7976 33.479 82.9025 50.8168 82.9025C68.1545 82.9025 82.2594 68.7976 82.2594 51.4598Z" fill="white"/>
<path d="M63.8463 65.8335L63.2398 67.5771C63.203 67.6841 63.1441 67.7822 63.0667 67.8648C62.9894 67.9474 62.8955 68.0127 62.7911 68.0565C61.7286 68.4949 58.0851 69.746 51.1868 69.746C44.1994 69.746 39.9962 68.3722 38.805 67.9206C38.6952 67.8794 38.596 67.8142 38.5145 67.7297C38.4331 67.6453 38.3716 67.5437 38.3344 67.4324L37.7498 65.7268C37.7339 65.6817 37.7306 65.633 37.7405 65.5861C37.7503 65.5393 37.7727 65.496 37.8055 65.461C37.8382 65.426 37.8799 65.4007 37.926 65.3878C37.9721 65.3749 38.0209 65.3749 38.067 65.3878C42.2232 66.5121 46.5115 67.0734 50.8171 67.0568C55.1045 67.0723 59.3767 66.5459 63.5321 65.4901C63.5785 65.4774 63.6275 65.4778 63.6738 65.4911C63.72 65.5045 63.7616 65.5303 63.7941 65.5658C63.8266 65.6013 63.8486 65.6451 63.8579 65.6923C63.8671 65.7396 63.8631 65.7884 63.8463 65.8335ZM50.8171 65.0283C57.7095 65.0283 63.0045 63.5521 64.4411 63.1093C64.5613 63.0718 64.671 63.0065 64.7611 62.9186C64.8513 62.8307 64.9194 62.7228 64.96 62.6036L72.1549 41.7539C72.1236 41.6547 72.0723 41.5629 72.0042 41.4843C71.9361 41.4056 71.8526 41.3417 71.7589 41.2965C71.5912 41.2151 71.399 41.2 71.2207 41.2541C71.0424 41.3083 70.8912 41.4279 70.7972 41.5888C69.2012 44.2896 67.5965 45.1212 67.0675 45.3887L67.0499 45.3974C66.8881 45.4822 66.7585 45.6178 66.6812 45.7834C66.6038 45.9489 66.5829 46.1352 66.6217 46.3138C66.6217 46.3138 66.6217 46.3299 66.6217 46.3372V46.3576C66.6509 46.4863 66.6904 46.6748 66.7255 46.9159C66.7488 47.1249 66.7722 47.3836 66.7942 47.6715C66.8448 48.2827 66.8242 48.8978 66.7328 49.5042C65.2304 50.4323 63.2003 51.3297 61.5912 50.7524C60.3168 50.2905 59.3376 48.2795 58.9868 44.104C59.3943 43.3109 59.9385 42.596 60.5945 41.9922L60.6091 41.979C60.7432 41.8545 60.8329 41.6896 60.8646 41.5094C60.8962 41.3292 60.8681 41.1435 60.7845 40.9808C60.7809 40.9738 60.778 40.9664 60.7757 40.9589L60.7655 40.9399C60.7056 40.8244 60.6193 40.6476 60.5214 40.4284C60.4454 40.234 60.3563 39.9899 60.2613 39.7166C59.9894 38.8397 59.7556 37.5375 59.8857 35.7048C59.9048 35.5185 59.8574 35.3314 59.7517 35.1767C59.646 35.0221 59.4889 34.9099 59.3084 34.8601C59.121 34.8155 58.9236 34.845 58.7575 34.9425C58.5913 35.04 58.4693 35.1979 58.4169 35.3833C57.5765 38.4159 56.2422 39.6465 55.8037 40.0601L55.7891 40.0732C55.6548 40.1976 55.5649 40.3625 55.5333 40.5428C55.5016 40.723 55.5298 40.9087 55.6137 41.0714L55.6225 41.0933L55.6327 41.1123C55.6926 41.2278 55.7789 41.4046 55.8768 41.6239C55.9528 41.8182 56.0419 42.0623 56.1369 42.3356C56.2887 42.8314 56.3968 43.3395 56.4599 43.8541C54.3247 47.8279 52.7623 49.2149 50.8171 49.2266C48.8718 49.2149 47.3095 47.8279 45.1713 43.8497C45.2344 43.3351 45.3425 42.827 45.4943 42.3312C45.5893 42.0579 45.6785 41.8139 45.7545 41.6195C45.8509 41.3959 45.9386 41.2234 45.9985 41.108L46.0088 41.089L46.0175 41.067C46.1014 40.9043 46.1297 40.7187 46.098 40.5384C46.0663 40.3581 45.9764 40.1932 45.8421 40.0688L45.8275 40.0557C45.3891 39.6494 44.0547 38.4188 43.2144 35.3789C43.1625 35.193 43.0408 35.0344 42.8746 34.9363C42.7084 34.8382 42.5107 34.8083 42.3229 34.8528C42.1423 34.9026 41.9852 35.0148 41.8795 35.1694C41.7739 35.3241 41.7264 35.5112 41.7456 35.6975C41.8771 37.5302 41.6418 38.8353 41.37 39.7093C41.275 39.9811 41.1858 40.2267 41.1098 40.421C41.0134 40.6447 40.9257 40.8171 40.8658 40.9326L40.8555 40.9516C40.8532 40.9591 40.8503 40.9665 40.8468 40.9735C40.7631 41.1362 40.735 41.3219 40.7667 41.5021C40.7983 41.6823 40.888 41.8472 41.0221 41.9717L41.0367 41.9849C41.6924 42.5891 42.2365 43.3039 42.6444 44.0967C42.2966 48.2795 41.3174 50.2905 40.04 50.7524C38.4324 51.3297 36.4009 50.4323 34.8985 49.5042C34.8067 48.8978 34.7866 48.2827 34.8385 47.6715C34.859 47.3792 34.8824 47.1249 34.9058 46.9159C34.9409 46.6748 34.9803 46.4863 35.0095 46.3576V46.3372C35.0095 46.3299 35.0095 46.3211 35.0095 46.3138C35.0483 46.1352 35.0274 45.9489 34.9501 45.7834C34.8727 45.6178 34.7432 45.4822 34.5813 45.3974L34.5638 45.3887C34.0362 45.1154 32.43 44.2838 30.834 41.5888C30.7401 41.4279 30.5888 41.3083 30.4105 41.2541C30.2322 41.2 30.04 41.2151 29.8724 41.2965C29.7787 41.3417 29.6952 41.4056 29.6271 41.4843C29.5589 41.5629 29.5076 41.6547 29.4763 41.7539L36.6172 62.4604C36.6572 62.5771 36.7237 62.6829 36.8114 62.7696C36.8991 62.8563 37.0057 62.9216 37.1229 62.9602C38.561 63.4308 43.9291 65.0283 50.8171 65.0283ZM40.5998 57.8669C40.9429 57.8669 41.2783 57.9687 41.5636 58.1593C41.8489 58.3499 42.0712 58.6208 42.2025 58.9378C42.3338 59.2548 42.3682 59.6036 42.3012 59.9402C42.2343 60.2767 42.0691 60.5858 41.8265 60.8284C41.5838 61.071 41.2747 61.2362 40.9382 61.3032C40.6017 61.3701 40.2529 61.3358 39.9359 61.2045C39.6189 61.0732 39.348 60.8508 39.1573 60.5655C38.9667 60.2802 38.865 59.9448 38.865 59.6017C38.8642 59.3733 38.9085 59.1471 38.9953 58.9358C39.0821 58.7246 39.2098 58.5326 39.3709 58.3707C39.5321 58.2089 39.7236 58.0805 39.9344 57.9928C40.1453 57.9051 40.3714 57.8598 40.5998 57.8596V57.8669ZM61.0344 57.8669C61.3776 57.8681 61.7127 57.971 61.9974 58.1626C62.282 58.3543 62.5035 58.6261 62.6336 58.9436C62.7638 59.2611 62.7969 59.6101 62.7287 59.9464C62.6605 60.2828 62.4941 60.5913 62.2506 60.833C62.007 61.0748 61.6972 61.2388 61.3603 61.3045C61.0235 61.3701 60.6748 61.3344 60.3583 61.2018C60.0417 61.0692 59.7716 60.8457 59.5822 60.5596C59.3927 60.2735 59.2923 59.9376 59.2938 59.5944C59.2939 59.3662 59.3391 59.1402 59.4268 58.9294C59.5144 58.7186 59.6427 58.5272 59.8044 58.3661C59.966 58.205 60.1579 58.0773 60.3689 57.9904C60.58 57.9035 60.8061 57.859 61.0344 57.8596V57.8669ZM47.4103 58.6722C47.7535 58.6719 48.0891 58.7734 48.3745 58.9639C48.66 59.1543 48.8826 59.4251 49.0141 59.7421C49.1456 60.0591 49.1802 60.4079 49.1134 60.7445C49.0467 61.0812 48.8816 61.3904 48.639 61.6332C48.3964 61.8759 48.0873 62.0413 47.7508 62.1084C47.4142 62.1754 47.0653 62.1411 46.7483 62.0099C46.4312 61.8786 46.1602 61.6563 45.9695 61.371C45.7788 61.0856 45.677 60.7502 45.677 60.407C45.6764 60.1788 45.7208 59.9527 45.8076 59.7417C45.8944 59.5306 46.0219 59.3387 46.1829 59.177C46.3438 59.0152 46.5351 58.8867 46.7457 58.7989C46.9563 58.711 47.1821 58.6655 47.4103 58.6649V58.6722ZM54.2224 58.6722C54.5655 58.6722 54.9009 58.774 55.1862 58.9646C55.4715 59.1552 55.6938 59.4261 55.8251 59.7431C55.9564 60.0601 55.9908 60.4089 55.9238 60.7454C55.8569 61.082 55.6917 61.3911 55.4491 61.6337C55.2064 61.8763 54.8973 62.0415 54.5608 62.1085C54.2243 62.1754 53.8755 62.1411 53.5585 62.0097C53.2415 61.8784 52.9706 61.6561 52.7799 61.3708C52.5893 61.0855 52.4876 60.7501 52.4876 60.407C52.4868 60.1786 52.5311 59.9523 52.6179 59.7411C52.7047 59.5299 52.8324 59.3378 52.9935 59.176C53.1547 59.0142 53.3462 58.8857 53.557 58.798C53.7679 58.7103 53.994 58.6651 54.2224 58.6649V58.6722Z" fill="white"/>
<path d="M22.6097 26.9667C22.6608 27.7661 22.3642 28.7453 21.651 29.5725C20.5987 30.7943 18.8025 30.7973 17.4272 29.612C16.0125 28.3931 15.8006 26.5765 16.8792 25.3225C17.4108 24.7153 18.1019 24.2693 18.8741 24.0349L18.8858 24.0042L17.6874 22.9709C17.1103 23.3242 16.5941 23.7684 16.1587 24.2863C14.4049 26.3324 14.2938 29.1326 16.451 30.9902C18.2997 32.5832 20.8354 32.5028 22.5264 30.5415C23.1613 29.8393 23.6003 28.9825 23.7994 28.057L22.6404 26.9477L22.6097 26.9667Z" fill="white"/>
<path d="M29.2394 20.5082L26.8134 17.6189C26.1323 16.8048 25.7903 16.2261 25.498 15.4734L23.7661 16.9217C24.456 17.3397 24.9646 17.7855 25.6456 18.5995L26.4217 19.5276L23.7647 21.7491L22.9886 20.8225C22.3076 20.0084 21.9583 19.4282 21.6733 18.6755L19.9414 20.1239C20.6312 20.5433 21.1398 20.9891 21.8209 21.8031L24.1973 24.6428C24.8783 25.4569 25.2276 26.0356 25.5126 26.7898L27.1875 25.28C26.4977 24.8606 25.9891 24.4148 25.308 23.6008L24.5773 22.7239L27.2357 20.5024L27.9796 21.3954C28.6607 22.2094 29.0027 22.7896 29.295 23.5423L31.1204 22.1933C30.4291 21.7681 29.9176 21.3223 29.2394 20.5082Z" fill="white"/>
<path d="M44.9121 12.8763C45.8226 12.1835 46.2406 11.3329 46.055 10.3084C45.8124 8.96238 44.4795 8.02703 42.2244 8.43332L40.1257 8.81185C40.5218 9.51775 40.7454 10.1564 40.9339 11.2014L41.5901 14.8449C41.7787 15.8884 41.7933 16.5651 41.6676 17.3645L43.9125 16.8457C43.5164 16.1398 43.2928 15.5026 43.1043 14.4576L42.8602 13.0955C43.8145 14.0878 44.6651 14.9165 45.4412 15.58C46.0009 16.0506 46.4818 16.3298 46.8048 16.3897L48.256 16.2436L48.2487 16.2012C46.8603 14.9501 45.8767 14.0338 44.9121 12.8763ZM42.8324 12.9391L42.1937 9.39352C43.3103 9.19184 44.3188 9.70044 44.5102 10.7644C44.6564 11.5697 44.1215 12.3764 42.8324 12.9333V12.9391Z" fill="white"/>
<path d="M51.9584 15.1285L52.1586 10.0995C52.201 9.03988 52.334 8.37636 52.6292 7.62369L50.3288 7.53162C50.5641 8.30621 50.643 8.97704 50.6006 10.0381L50.4545 13.6918C50.4121 14.7514 50.2806 15.4149 49.9839 16.1764L54.4751 16.3327L55.3271 14.4752L55.3067 14.4533C54.5628 14.7865 53.0428 15.0875 51.9584 15.1285Z" fill="white"/>
<path d="M63.1067 9.22263C60.609 8.49189 58.1098 9.86715 57.4185 12.2406C56.7828 14.4212 57.8643 16.97 60.5739 17.7592C63.1008 18.49 65.5985 17.2448 66.341 14.6974C67.0834 12.15 65.5415 9.93877 63.1067 9.22263ZM64.5857 14.6302C64.1312 16.1896 62.734 17.1527 61.2155 16.7099C59.3813 16.1764 58.6506 14.1713 59.1782 12.3575C59.6795 10.6359 61.1439 9.90223 62.4885 10.2939C64.2203 10.7908 65.125 12.7682 64.5857 14.6302Z" fill="white"/>
<path d="M74.1846 16.2581L75.6622 15.1372L69.7577 11.7684L68.4029 13.0735L68.4117 13.1028C69.3789 13.1369 70.3225 13.4106 71.1578 13.8993L68.7201 18.1786C68.1939 19.1008 67.7803 19.64 67.1621 20.1603L69.1629 21.3003C69.3091 20.5067 69.5502 19.8724 70.0749 18.9502L72.5126 14.671C73.3384 15.1533 73.8295 15.6399 74.1846 16.2581Z" fill="white"/>
<path d="M81.1089 22.0165L82.7954 21.2317L77.7284 16.701L76.1296 17.6905V17.7212C77.0682 17.9577 77.9332 18.4243 78.6463 19.0789L75.3696 22.7268C74.6622 23.5175 74.1448 23.9501 73.4287 24.3344L75.1445 25.8705C75.4573 25.1251 75.8241 24.5551 76.5315 23.7659L79.8154 20.1122C80.514 20.7567 80.8911 21.3369 81.1089 22.0165Z" fill="white"/>
<path d="M38.5823 16.3386L34.8862 12.9129C34.3157 12.4106 33.7842 11.8659 33.296 11.2833L32.0757 11.8416C32.1861 12.5998 32.235 13.3657 32.2218 14.1318V19.247C32.2218 20.3314 32.1429 20.9526 31.9763 21.5649L31.9895 21.5942L34.1145 20.3753C34.0626 20.2942 34.0162 20.2098 33.9756 20.1225C33.8383 19.8199 33.7696 19.4282 33.7447 18.8173L37.2406 17.2199C37.7039 17.6701 37.9363 17.9507 38.0751 18.259C38.1173 18.3463 38.1477 18.4386 38.1658 18.5338L40.4515 17.692L40.4384 17.6628C39.753 17.3232 39.1264 16.8762 38.5823 16.3386ZM36.2614 16.2743L33.717 17.4362L33.6541 13.7927L36.2614 16.2743Z" fill="white"/>
<path d="M84.3753 23.1272C83.9252 23.798 83.4561 24.2862 82.6098 24.9248L79.7029 27.1244C78.8553 27.7645 78.259 28.0817 77.4888 28.3316L81.0139 33.1107L82.9138 32.6152V32.5845C81.9259 32.016 81.0139 31.1844 80.0303 29.8428L79.5524 29.1866L81.6862 27.5789L82.1758 28.2264C82.7238 29.0053 83.1491 29.7785 83.2675 30.2885L84.9921 30.0883L82.5806 26.9066L84.6706 25.3238L85.1719 25.9669C85.7543 26.729 86.1335 27.6267 86.2738 28.5757L88.0408 28.1854L84.3753 23.1272Z" fill="white"/>
<path d="M18.4026 73.4685L20.0337 72.3446C20.3932 72.8649 20.6797 73.4802 20.7177 73.8938L21.9205 73.7476L19.8817 70.7896C19.5244 71.2732 19.0816 71.6873 18.5751 72.0114L16.4106 73.5021C15.9277 73.8612 15.3827 74.1283 14.803 74.2898L15.7296 75.6359C16.0874 75.1522 16.5307 74.7381 17.0376 74.4141L17.7508 73.923C18.1352 74.4813 18.3354 74.9124 18.3676 75.3085L19.5514 75.1419L18.4026 73.4685Z" fill="white"/>
<path d="M24.7625 76.8123C23.4749 75.4896 21.4507 75.4633 20.1939 76.6881C19.0393 77.8134 18.8157 79.766 20.2143 81.2012C21.518 82.5399 23.4983 82.6393 24.8473 81.3268C26.1962 80.0144 26.0194 78.1028 24.7625 76.8123ZM23.7906 80.6619C22.9649 81.4672 21.765 81.5738 20.9816 80.7686C20.036 79.7981 20.2845 78.3045 21.2447 77.3691C22.1566 76.4791 23.3171 76.5375 24.0113 77.2507C24.9043 78.1671 24.7727 79.706 23.7906 80.6619Z" fill="white"/>
<path d="M30.6117 81.6938C29.0786 80.6707 27.0939 81.058 26.1161 82.5166C25.2202 83.8553 25.4044 85.8094 27.069 86.9259C28.6197 87.9651 30.5766 87.6567 31.626 86.09C32.6753 84.5232 32.1097 82.6949 30.6117 81.6938ZM30.4553 85.6588C29.8137 86.6161 28.6621 86.9742 27.7296 86.3443C26.6043 85.5901 26.5385 84.0775 27.2912 82.9638C28 81.9072 29.1473 81.723 29.973 82.2769C31.0297 82.9901 31.2182 84.5218 30.4553 85.6588Z" fill="white"/>
<path d="M34.3444 84.0511L33.4894 85.0742L33.4967 85.0932C34.1823 85.0425 34.8697 85.1625 35.4975 85.4425L34.0755 88.7279C33.8599 89.2898 33.5395 89.8056 33.1313 90.2479L34.6308 90.8983C34.6774 90.2975 34.8339 89.7105 35.0927 89.1664L36.5147 85.8824C37.0318 86.0864 37.4824 86.4293 37.8169 86.8733L38.7771 85.9657L34.3444 84.0511Z" fill="white"/>
<path d="M54.0808 93.1226L53.7885 89.5654C53.718 88.968 53.7571 88.3627 53.904 87.7794L52.2759 87.9153C52.5173 88.4663 52.656 89.0567 52.6851 89.6574L52.9043 92.2779C52.9749 92.8753 52.9357 93.4805 52.7889 94.0639L55.9486 93.7993L56.4031 92.3627L56.3871 92.3495C55.8872 92.655 54.8423 92.9999 54.0808 93.1226Z" fill="white"/>
<path d="M59.8241 92.2736L59.0349 88.7908C58.8819 88.2091 58.8363 87.6044 58.9004 87.0063L57.3074 87.3673C57.6225 87.8794 57.8418 88.4444 57.9548 89.0349L58.5394 91.5998C58.6921 92.1816 58.7371 92.7864 58.6724 93.3843L61.7649 92.6828L62.0163 91.1979L61.9973 91.1862C61.5457 91.5589 60.5592 92.0441 59.8241 92.2736Z" fill="white"/>
<path d="M71.1701 87.2314C70.9086 87.8731 70.4127 88.3914 69.7832 88.6812C68.7353 89.1956 67.5456 88.7031 66.98 87.547C66.3954 86.3559 66.7798 85.102 67.8569 84.5758C68.3819 84.3228 68.9664 84.2192 69.5464 84.2762L69.5639 84.2587L69.07 83.2502C68.5854 83.3245 68.1157 83.4755 67.6786 83.6975C65.9248 84.5554 65.0479 86.372 65.9336 88.1843C66.695 89.7407 68.3947 90.3853 70.0798 89.5595C70.7021 89.2736 71.2399 88.8316 71.6407 88.2763L71.1935 87.2284L71.1701 87.2314Z" fill="white"/>
<path d="M76.307 83.886C76.0352 84.4019 75.3103 85.2291 74.7184 85.7216L72.6548 82.8088C72.2904 82.3302 72.017 81.7887 71.848 81.2114L70.5137 82.1512C71.0021 82.5022 71.4217 82.9402 71.7516 83.4431L73.2715 85.5871C73.6353 86.0662 73.9087 86.6075 74.0783 87.1846L76.6666 85.3518L76.3275 83.8903L76.307 83.886Z" fill="white"/>
<path d="M79.0986 77.2479C78.6647 76.8317 78.311 76.3393 78.0551 75.7952L76.8859 76.9337C77.4225 77.2054 77.9045 77.5734 78.3079 78.0196L79.8235 79.5804C79.9485 79.7043 80.0471 79.8521 80.1135 80.0151C80.18 80.178 80.2128 80.3527 80.2101 80.5286C80.2073 80.7045 80.1691 80.8781 80.0976 81.0389C80.0262 81.1997 79.923 81.3444 79.7943 81.4643C79.293 81.9524 78.6251 81.9466 77.9192 81.2188L76.5088 79.7573C76.0749 79.3411 75.7212 78.8487 75.4653 78.3046L74.2961 79.4431C74.8327 79.7147 75.3148 80.0828 75.7182 80.529L77.1183 81.97C78.2349 83.1216 79.2974 83.2546 80.1611 82.4157C80.5616 82.027 80.8305 81.4614 80.9752 80.6926C81.1266 80.8336 81.2584 80.9944 81.3669 81.1705L82.3563 80.2118C81.8197 79.9401 81.3377 79.572 80.9343 79.1259L79.0986 77.2479Z" fill="white"/>
<path d="M42.1942 86.904L40.1203 86.3398C40.1599 86.9401 40.0885 87.5426 39.9099 88.117L39.22 90.6556C39.0817 91.2415 38.8375 91.7972 38.4995 92.2954L40.5865 92.864C41.7864 93.1899 42.9761 92.7792 43.2523 91.7693C43.4277 91.1219 43.1968 90.5899 42.6049 89.9834C43.1602 89.8065 43.568 89.4572 43.701 88.9705C43.948 88.0834 43.3634 87.2211 42.1942 86.904ZM42.1459 91.4741C41.9866 92.0587 41.3202 92.4138 40.4477 92.1771L39.9873 92.0514L40.6172 89.751C41.9194 90.109 42.3257 90.831 42.1503 91.4741H42.1459ZM42.6092 88.7279C42.4748 89.2219 41.7323 89.4587 40.7707 89.1971L41.2866 87.2971L41.7455 87.4228C42.3637 87.5894 42.7598 88.1726 42.6092 88.7279Z" fill="white"/>
<path d="M85.4804 73.3822C84.944 72.9788 84.3653 72.9963 83.5805 73.3237C83.6214 72.7391 83.446 72.2334 83.0426 71.9294C82.3119 71.3785 81.2888 71.6035 80.5654 72.5681L79.2749 74.2868C79.8487 74.4706 80.3838 74.7585 80.8533 75.136L82.955 76.7144C83.4489 77.0585 83.8755 77.4905 84.2133 77.9888L85.514 76.2584C86.2594 75.2631 86.3179 74.0062 85.4804 73.3822ZM80.5961 73.5605L80.8884 73.179C81.2728 72.6675 81.9611 72.5155 82.4186 72.859C82.8263 73.1659 82.7737 73.9434 82.1731 74.7414L80.5961 73.5605ZM84.8227 76.14L84.5304 76.52L82.6305 75.0907C83.4416 74.0106 84.2615 73.901 84.795 74.3015C85.2831 74.661 85.3664 75.4122 84.8227 76.1356V76.14Z" fill="white"/>
<path d="M48.9636 89.3943C48.7783 88.8858 48.6317 88.364 48.5251 87.8334L47.5562 87.7589C47.36 88.2683 47.1219 88.7606 46.8444 89.2306L45.1169 92.31C44.862 92.8059 44.5366 93.2622 44.1509 93.6648V93.6867L45.8331 93.8168C45.8287 93.7487 45.8287 93.6803 45.8331 93.6122C45.8535 93.3491 45.9675 93.0481 46.2145 92.5892L46.2481 92.5263L48.8993 92.7295L48.9139 92.7748C49.0907 93.3184 49.1521 93.6107 49.1317 93.8723C49.1277 93.9409 49.1149 94.0087 49.0937 94.074L50.7992 94.2056V94.1836C50.4826 93.7383 50.2398 93.2448 50.0802 92.7222L48.9636 89.3943ZM46.71 91.6509L47.8514 89.5083H47.8967L48.6128 91.7912L46.71 91.6509Z" fill="white"/>
<path d="M88.2314 38.8734C88.4244 38.8129 88.6336 38.8313 88.813 38.9248C88.9925 39.0182 89.1276 39.1789 89.1887 39.3718C89.2203 39.4673 89.2324 39.5682 89.2243 39.6685C89.2163 39.7688 89.1882 39.8664 89.1417 39.9557C89.0952 40.0449 89.0314 40.1239 88.9538 40.1881C88.8763 40.2522 88.7867 40.3001 88.6903 40.329C88.5959 40.3608 88.496 40.3729 88.3967 40.3646C88.2974 40.3563 88.2009 40.3278 88.113 40.2808C88.0225 40.2355 87.9421 40.1722 87.8768 40.0948C87.8115 40.0174 87.7626 39.9275 87.733 39.8307C87.6749 39.6376 87.6945 39.4295 87.7876 39.2507C87.8807 39.0718 88.0399 38.9365 88.2314 38.8734Z" fill="#0085CA"/>
<path d="M88.0848 42.476L89.8166 43.8133C90.1776 44.0953 90.3691 44.1596 90.6132 44.1056C90.885 44.0515 91.0326 43.8133 90.9668 43.4771C90.9084 43.1848 90.6862 42.9934 90.4159 43.0474C90.3317 43.0659 90.2522 43.1012 90.182 43.1512L89.8269 42.2261C89.9549 42.1423 90.0978 42.0838 90.2478 42.0536C90.4091 42.0228 90.5752 42.0287 90.7339 42.071C90.8925 42.1132 91.0396 42.1907 91.1642 42.2977C91.4707 42.5589 91.6722 42.9223 91.7312 43.3207C91.9154 44.2546 91.5719 44.8991 90.9011 45.0321C90.4129 45.1301 90.0242 44.9795 89.4586 44.5513L88.5408 43.86L88.855 45.4516L88.0687 45.608L87.4739 42.6002L88.0848 42.476Z" fill="#0085CA"/>
<path d="M90.5691 50.9716C90.2968 50.9977 90.022 50.9685 89.7613 50.8856C89.5005 50.8027 89.2593 50.6679 89.0521 50.4893C88.6696 50.1113 88.4419 49.6042 88.4132 49.0673C88.3846 48.5303 88.5571 48.0019 88.8971 47.5853C89.2508 47.1936 89.7375 46.9803 90.3586 46.9481C90.9798 46.916 91.4898 47.0767 91.8815 47.4304C92.2628 47.8098 92.489 48.3177 92.516 48.8549C92.543 49.3921 92.3689 49.9201 92.0277 50.3359C91.8398 50.5345 91.6138 50.6931 91.3632 50.8024C91.1125 50.9116 90.8425 50.9692 90.5691 50.9716ZM89.2537 49.022C89.2554 49.1613 89.2891 49.2983 89.3522 49.4225C89.4153 49.5467 89.5061 49.6547 89.6177 49.7381C89.8789 49.9187 90.1963 49.9996 90.5121 49.9661C90.8331 49.9669 91.144 49.8535 91.389 49.646C91.4896 49.5507 91.5674 49.4339 91.6164 49.3044C91.6655 49.1748 91.6847 49.0358 91.6725 48.8977C91.6713 48.7598 91.6384 48.624 91.5763 48.5008C91.5143 48.3777 91.4246 48.2704 91.3145 48.1875C91.0548 48.0052 90.7387 47.9218 90.4229 47.9522C90.1045 47.9517 89.7968 48.0676 89.5577 48.2781C89.4537 48.3703 89.3728 48.4856 89.3215 48.6148C89.2702 48.7441 89.25 48.8835 89.2625 49.022H89.2537Z" fill="#0085CA"/>
<path d="M89.1077 52.7123L90.4231 54.4573C90.6978 54.8271 90.8615 54.9382 91.1129 54.9557C91.3891 54.9747 91.5952 54.7847 91.6186 54.4442C91.6405 54.1519 91.4724 53.9034 91.2006 53.8844C91.1146 53.879 91.0284 53.8919 90.9478 53.9224L90.8615 52.9359C91.0067 52.8892 91.1595 52.8708 91.3117 52.8818C91.4754 52.8943 91.6343 52.9435 91.7765 53.0257C91.9187 53.1079 92.0405 53.2211 92.133 53.3568C92.3606 53.6912 92.4588 54.0969 92.4093 54.4982C92.342 55.4482 91.8407 55.9787 91.1597 55.9305C90.6642 55.8954 90.3252 55.6455 89.894 55.0858L89.1954 54.1636L89.0814 55.7814L88.282 55.7244L88.4968 52.667L89.1077 52.7123Z" fill="#0085CA"/>
<path d="M88.6313 57.655L89.7186 59.5549C89.9422 59.9554 90.0942 60.0869 90.3383 60.1395C90.6087 60.1936 90.8381 60.0314 90.9053 59.7011C90.9638 59.4088 90.8323 59.1472 90.5619 59.0916C90.4776 59.0735 90.3904 59.0735 90.3061 59.0916L90.3339 58.1008C90.4841 58.0723 90.6382 58.0723 90.7884 58.1008C90.9497 58.1354 91.1012 58.2059 91.2315 58.3071C91.3618 58.4083 91.4676 58.5376 91.5411 58.6853C91.7235 59.0469 91.7687 59.4623 91.6682 59.8545C91.4812 60.7884 90.9156 61.2503 90.2462 61.1144C89.7595 61.0164 89.4555 60.7256 89.1004 60.1147L88.5231 59.1048L88.203 60.6949L87.4167 60.5371L88.0218 57.5322L88.6313 57.655Z" fill="#0085CA"/>
<path d="M88.6401 62.7804C88.8325 62.8425 88.9924 62.9782 89.085 63.1578C89.1776 63.3375 89.1952 63.5465 89.1341 63.7392C89.1047 63.8355 89.0564 63.925 88.9918 64.0022C88.9273 64.0795 88.8479 64.1431 88.7584 64.1892C88.6689 64.2352 88.571 64.2628 88.4706 64.2704C88.3702 64.278 88.2693 64.2653 88.1739 64.2332C87.9815 64.1712 87.8217 64.0354 87.7293 63.8557C87.637 63.6759 87.6197 63.4669 87.6814 63.2744C87.7103 63.1789 87.7589 63.0906 87.8241 63.0151C87.8893 62.9395 87.9696 62.8785 88.0599 62.836C88.1474 62.7868 88.2442 62.7565 88.3441 62.7469C88.444 62.7374 88.5448 62.7488 88.6401 62.7804Z" fill="#0085CA"/>
<path d="M15.0233 63.4133L11.2103 64.4495L10.9516 63.4952L13.4361 61.6098L10.3334 61.2386L10.0732 60.2842L13.8907 59.248L14.1245 60.1089L12.036 60.6759L12.6586 60.7066L14.3481 60.9332L14.5644 61.7297L13.2213 62.779L12.6995 63.1195L14.788 62.5525L15.0233 63.4133Z" fill="#0085CA"/>
<path d="M13.6946 57.8641L9.788 58.4882L9.64185 57.5835L13.5484 56.9595L13.6946 57.8641Z" fill="#0085CA"/>
<path d="M13.3264 55.5432L9.38036 55.7902L9.32336 54.8768L11.4732 53.2925C11.5666 53.224 11.6642 53.1615 11.7655 53.1054L9.21667 53.2633L9.16113 52.3732L13.1072 52.1262L13.1642 53.0397L11.0055 54.6239C10.9093 54.6932 10.8088 54.7561 10.7045 54.8125L13.2709 54.6531L13.3264 55.5432Z" fill="#0085CA"/>
<path d="M9.96765 50.8751L9.16675 50.8313L9.34067 47.5839L10.1416 47.6262L10.0787 48.7954L13.2253 48.9635L13.1771 49.8769L10.0305 49.706L9.96765 50.8751Z" fill="#0085CA"/>
<path d="M13.4173 46.7159L9.51514 46.0714L9.98574 43.2229L10.7764 43.353L10.4563 45.2982L11.1637 45.4151L11.456 43.6263L12.2247 43.7534L11.9325 45.5423L12.7743 45.6811L13.0987 43.714L13.8909 43.8455L13.4173 46.7159Z" fill="#0085CA"/>
<path d="M14.1436 42.6718L10.3438 41.58L10.696 40.3524C10.8772 39.7181 11.187 39.2533 11.6196 38.9552C12.0522 38.657 12.5857 38.603 13.2039 38.7798C13.8221 38.9566 14.2401 39.2884 14.4491 39.7663C14.6581 40.2442 14.68 40.8084 14.4973 41.4441L14.1436 42.6718ZM13.7257 41.1343C13.9332 40.4123 13.6511 39.8613 12.9496 39.6596C12.2481 39.4579 11.7176 39.7765 11.51 40.4985L11.3873 40.9282L13.6029 41.564L13.7257 41.1343Z" fill="#0085CA"/>
</svg>
