<svg width="125" height="83" viewBox="0 0 125 83" fill="none" xmlns="http://www.w3.org/2000/svg">
<path d="M38.7812 5.85589C24.6232 11.7148 18.1845 20.6027 15.2837 27.0236C13.4183 31.1962 11.5873 34.3267 9.52128 36.8819C7.40279 39.0876 3.53003 41.5204 1.26625 42.3781L0.84334 42.5383L0.766602 44.0807L1.35145 44.1966C4.28331 44.7798 7.93544 46.9841 9.11981 48.4934C10.6422 50.0243 11.7021 51.0831 14.3727 55.8194C14.4103 55.8767 15.7399 57.9825 15.7399 57.9825C16.6055 59.4399 17.5007 60.9479 19.8985 63.6027C21.7424 66.1941 30.5741 74.345 40.1848 77.8513C46.9372 81.199 55.8047 82.8539 67.2252 82.885C83.9982 82.9815 96.6945 79.3118 108.389 70.9942C113.239 67.2365 114.807 65.7235 118.895 60.8661C121.634 57.6278 124.612 51.9176 124.739 45.6095L124.756 44.9036L101.026 44.8774L100.896 45.4036C98.9667 53.1494 91.1656 57.9805 86.6869 60.1715C75.0001 65.1414 60.2818 65.2021 49.2255 60.3086C38.8895 55.1279 33.3948 48.1205 33.7822 40.5902C34.1758 32.9147 40.7093 25.5771 50.4246 21.901C69.2165 15.0129 87.2799 20.9353 94.1023 27.3432L94.3015 27.5294L121.951 27.5032L121.577 26.5589C115.89 12.1406 95.3222 4.01248 86.2521 2.33608C65.9478 -2.31365 48.4119 1.10431 38.7818 5.85533" fill="#0B162A"/>
<path d="M13.7501 34.7938C15.1941 32.5114 15.7673 31.2241 16.5562 29.4399L17.4023 27.5675C19.9487 22.1481 24.2331 17.1812 29.7882 13.2064C35.2174 9.56776 41.2315 6.65311 46.272 5.21708C68.1772 -1.14826 90.5738 4.31513 100.286 9.54011C104.124 11.3014 114.511 17.469 118.712 25.4794H95.3138C79.021 12.8009 57.0425 16.0245 46.2034 21.3164C41.8243 23.7491 39.2795 25.7113 36.0929 29.1096C31.1455 35.0991 28.4848 45.3022 37.1824 54.4468C41.1139 58.2716 45.0456 60.8626 49.9456 62.8722C61.2778 67.5694 77.1804 67.0466 88.6139 61.5979C95.9184 57.7861 100.768 52.7295 102.73 46.9541H122.467C121.768 51.9683 120.308 57.1541 112.824 64.4016L111.991 65.1484C108.366 68.4208 103.399 72.9058 93.697 76.4479C77.1477 82.8705 52.3973 82.1285 38.5104 74.8011C38.5022 74.7977 37.6381 74.3616 37.6381 74.3616C34.5183 72.7997 30.2438 70.6626 24.8586 65.6534C21.1001 62.2028 18.482 58.793 15.189 53.0714C11.5989 46.5001 7.10379 44.1035 4.68652 43.0856C6.79345 42.0236 10.9114 39.4961 13.7501 34.7938Z" fill="#FFFFFE"/>
<path d="M14.6055 38.4291C16.9511 35.8329 18.8033 29.162 22.511 24.0956C27.7752 16.6731 34.7432 12.7863 39.9275 10.3064C51.7842 4.49823 68.8317 2.843 85.5082 6.84609C91.5598 8.28071 97.6131 10.4308 101.935 13.2473C106.26 15.8172 111.324 19.5243 114.166 23.1319H96.3523C91.0667 18.9067 85.2602 16.8548 80.0725 15.7421C74.2674 14.2604 65.1257 13.4696 54.2556 16.0657C47.8316 17.6702 43.3856 19.8936 39.062 22.9832C30.5406 29.0382 21.152 44.9513 37.8271 58.7913C43.2628 63.3854 47.8316 64.8705 52.8966 66.6254C62.2852 69.3425 74.0209 68.8245 80.8142 66.9701C91.0669 64.2516 94.8954 60.6686 98.2307 57.8273C101.319 54.8618 103.913 51.2774 104.63 49.4247L119.255 49.4001C118.241 54.8618 114.288 59.3093 110.46 63.0164C106.074 67.1515 102.801 69.318 96.3278 72.5562C81.1849 79.8202 58.9499 79.5736 45.2394 74.6067C38.1981 72.0351 36.2215 70.875 30.9099 67.1924C26.5863 63.709 23.7444 61.4103 19.6691 55.1087C17.817 52.0191 16.9511 50.2905 14.8524 47.4495C13.3692 45.8419 12.3812 44.3582 9.78735 43.1231C12.1654 41.4566 13.4606 40.2197 14.6055 38.4291Z" fill="#C83803"/>
</svg>
