<svg width="105" height="99" viewBox="0 0 105 99" fill="none" xmlns="http://www.w3.org/2000/svg">
<path d="M104.652 37.6747H65.238L52.6829 0.128601L40.1268 37.6747H0.714111L33.0058 60.7931L20.6095 98.3607L52.6829 75.4499L84.7587 98.3167L72.3588 60.7942L104.652 37.6747Z" fill="#FFFFFE"/>
<path d="M52.6827 4.59674L41.1346 39.0763H5.07422L34.658 60.2539L23.2803 94.7324L52.6888 73.7298L82.0874 94.7324L70.705 60.2539L100.29 39.0763H64.2295L52.6827 4.59674Z" fill="#002244"/>
<path d="M52.6826 14.0995L43.3965 42.0272H14.1873L38.1507 59.1817L28.935 87.108L52.7542 70.0978L76.4289 87.108L67.2131 59.1828L91.1779 42.0272H61.9676L52.6826 14.0995Z" fill="#FFFFFE"/>
<path d="M52.683 22.313L45.3843 44.3757H22.3119L41.2412 57.9281L33.9592 79.9908L52.7785 66.5518L71.4057 79.9908L64.1226 57.9292L83.0528 44.3757H59.9806L52.683 22.313Z" fill="#002244"/>
</svg>
