<svg width="44" height="44" viewBox="0 0 44 44" fill="none" xmlns="http://www.w3.org/2000/svg">
<path d="M1.00112 21.9994C1.0466 21.9994 1.09202 21.9963 1.13711 21.9904C8.48285 20.9937 15.6472 18.9465 22.4106 15.9116C29.2406 12.8386 35.5864 8.78681 41.2481 3.8839L40.0301 8.75777C39.966 9.01488 40.0065 9.28694 40.1428 9.51418C40.2791 9.74143 40.5001 9.90528 40.7571 9.96974C40.8366 9.98941 40.9182 9.99949 41.0001 9.99974C41.223 9.99946 41.4394 9.92472 41.6149 9.78739C41.7905 9.65006 41.9151 9.45802 41.9691 9.24176L43.969 1.24197C44.0057 1.09467 44.0085 0.940943 43.977 0.792439C43.9454 0.643935 43.8805 0.504553 43.7872 0.384863C43.6938 0.265172 43.5744 0.168314 43.438 0.101631C43.3016 0.0349492 43.1518 0.000193716 43 0H35.0002C34.735 0 34.4807 0.105354 34.2931 0.292886C34.1056 0.480417 34.0003 0.734764 34.0003 0.999974C34.0003 1.26518 34.1056 1.51953 34.2931 1.70706C34.4807 1.89459 34.735 1.99995 35.0002 1.99995H40.3691C34.7461 6.94138 28.4168 11.0155 21.5906 14.0876C15.0018 17.044 8.02228 19.038 0.866122 20.0085C0.614708 20.0424 0.385601 20.1707 0.225208 20.3672C0.0648157 20.5638 -0.0148701 20.814 0.00229239 21.0671C0.0194549 21.3202 0.132182 21.5573 0.317641 21.7305C0.503099 21.9036 0.747422 21.9997 1.00112 21.9994Z" fill="white"/>
<path d="M42.9999 41.9989H41.9999V14.9996C41.9999 14.7344 41.8945 14.4801 41.707 14.2925C41.5195 14.105 41.2651 13.9996 40.9999 13.9996H31.0002C30.735 13.9996 30.4806 14.105 30.2931 14.2925C30.1056 14.4801 30.0002 14.7344 30.0002 14.9996V41.9989H28.0002V20.9995C28.0002 20.7342 27.8949 20.4799 27.7074 20.2924C27.5198 20.1048 27.2655 19.9995 27.0003 19.9995H17.0005C16.7353 19.9995 16.481 20.1048 16.2934 20.2924C16.1059 20.4799 16.0006 20.7342 16.0006 20.9995V41.9989H14.0006V26.9993C14.0006 26.7341 13.8953 26.4797 13.7077 26.2922C13.5202 26.1047 13.2658 25.9993 13.0006 25.9993H3.0009C2.73569 25.9993 2.48134 26.1047 2.29381 26.2922C2.10628 26.4797 2.00092 26.7341 2.00092 26.9993V41.9989H1.00095C0.735741 41.9989 0.481394 42.1043 0.293862 42.2918C0.106331 42.4793 0.000976563 42.7337 0.000976562 42.9989C0.000976563 43.2641 0.106331 43.5184 0.293862 43.706C0.481394 43.8935 0.735741 43.9989 1.00095 43.9989H42.9999C43.2651 43.9989 43.5194 43.8935 43.7069 43.706C43.8945 43.5184 43.9998 43.2641 43.9998 42.9989C43.9998 42.7337 43.8945 42.4793 43.7069 42.2918C43.5194 42.1043 43.2651 41.9989 42.9999 41.9989ZM32.0001 15.9996H39.9999V41.9989H32.0001V15.9996ZM18.0005 21.9994H26.0003V41.9989H18.0005V21.9994ZM4.00087 27.9993H12.0007V41.9989H4.00087V27.9993Z" fill="white"/>
</svg>
