<svg width="787" height="452" viewBox="0 0 787 452" fill="none" xmlns="http://www.w3.org/2000/svg">
<path d="M431.93 205.697V213.466C431.93 216.199 429.712 218.417 426.98 218.417H409.951C407.218 218.417 405 216.199 405 213.466V205.697C405 203.234 406.802 201.19 409.156 200.811V197.273C409.156 195.383 410.688 193.851 412.578 193.851H424.349C426.239 193.851 427.771 195.383 427.771 197.273V200.811C430.129 201.193 431.927 203.234 431.927 205.697H431.93Z" fill="white"/>
<path d="M470.659 205.697V213.466C470.659 216.199 468.441 218.417 465.708 218.417H448.679C445.946 218.417 443.729 216.199 443.729 213.466V205.697C443.729 203.234 445.53 201.19 447.884 200.811V197.273C447.884 195.383 449.416 193.851 451.306 193.851H463.077C464.968 193.851 466.5 195.383 466.5 197.273V200.811C468.857 201.193 470.655 203.234 470.655 205.697H470.659Z" fill="white"/>
<g style="mix-blend-mode:luminosity">
<g clip-path="url(#clip0_83_458)">
<path d="M26.9302 283.239V291.008C26.9302 293.741 24.7124 295.959 21.9795 295.959H4.95068C2.21774 295.959 0 293.741 0 291.008V283.239C0 280.776 1.80149 278.732 4.1557 278.354V274.815C4.1557 272.925 5.68765 271.393 7.57785 271.393H19.3489C21.2391 271.393 22.7711 272.925 22.7711 274.815V278.354C25.1287 278.732 26.9268 280.776 26.9268 283.239H26.9302Z" fill="#7D79A3"/>
<path d="M65.6587 283.239V291.008C65.6587 293.741 63.441 295.959 60.708 295.959H43.6792C40.9463 295.959 38.7285 293.741 38.7285 291.008V283.239C38.7285 280.776 40.53 278.732 42.8842 278.354V274.815C42.8842 272.925 44.4162 271.393 46.3064 271.393H58.0774C59.9676 271.393 61.4996 272.925 61.4996 274.815V278.354C63.8572 278.732 65.6553 280.776 65.6553 283.239H65.6587Z" fill="#7D79A3"/>
<path d="M104.391 283.239V291.008C104.391 293.741 102.173 295.959 99.44 295.959H82.4111C79.6782 295.959 77.4604 293.741 77.4604 291.008V283.239C77.4604 280.776 79.2619 278.732 81.6162 278.354V274.815C81.6162 272.925 83.1481 271.393 85.0383 271.393H96.8094C98.6996 271.393 100.232 272.925 100.232 274.815V278.354C102.589 278.732 104.387 280.776 104.387 283.239H104.391Z" fill="#7D79A3"/>
<path d="M143.119 283.239V291.008C143.119 293.741 140.902 295.959 138.169 295.959H121.14C118.407 295.959 116.189 293.741 116.189 291.008V283.239C116.189 280.776 117.991 278.732 120.345 278.354V274.815C120.345 272.925 121.877 271.393 123.767 271.393H135.538C137.428 271.393 138.96 272.925 138.96 274.815V278.354C141.318 278.732 143.116 280.776 143.116 283.239H143.119Z" fill="#443D6B"/>
<path d="M181.851 283.239V291.008C181.851 293.741 179.634 295.959 176.901 295.959H159.872C157.139 295.959 154.921 293.741 154.921 291.008V283.239C154.921 280.776 156.723 278.732 159.077 278.354V274.815C159.077 272.925 160.609 271.393 162.499 271.393H174.27C176.16 271.393 177.692 272.925 177.692 274.815V278.354C180.05 278.732 181.848 280.776 181.848 283.239H181.851Z" fill="#443D6B"/>
<path d="M220.58 283.239V291.008C220.58 293.741 218.362 295.959 215.629 295.959H198.6C195.867 295.959 193.65 293.741 193.65 291.008V283.239C193.65 280.776 195.451 278.732 197.805 278.354V274.815C197.805 272.925 199.337 271.393 201.228 271.393H212.999C214.889 271.393 216.421 272.925 216.421 274.815V278.354C218.778 278.732 220.576 280.776 220.576 283.239H220.58Z" fill="#443D6B"/>
<path d="M259.308 283.239V291.008C259.308 293.741 257.091 295.959 254.358 295.959H237.329C234.596 295.959 232.378 293.741 232.378 291.008V283.239C232.378 280.776 234.18 278.732 236.534 278.354V274.815C236.534 272.925 238.066 271.393 239.956 271.393H251.727C253.617 271.393 255.149 272.925 255.149 274.815V278.354C257.507 278.732 259.305 280.776 259.305 283.239H259.308Z" fill="#443D6B"/>
<path d="M298.04 283.239V291.008C298.04 293.741 295.823 295.959 293.09 295.959H276.061C273.328 295.959 271.11 293.741 271.11 291.008V283.239C271.11 280.776 272.912 278.732 275.266 278.354V274.815C275.266 272.925 276.798 271.393 278.688 271.393H290.459C292.349 271.393 293.881 272.925 293.881 274.815V278.354C296.239 278.732 298.037 280.776 298.037 283.239H298.04Z" fill="#443D6B"/>
<path d="M336.769 283.239V291.008C336.769 293.741 334.551 295.959 331.818 295.959H314.789C312.056 295.959 309.839 293.741 309.839 291.008V283.239C309.839 280.776 311.64 278.732 313.994 278.354V274.815C313.994 272.925 315.526 271.393 317.416 271.393H329.188C331.078 271.393 332.61 272.925 332.61 274.815V278.354C334.967 278.732 336.765 280.776 336.765 283.239H336.769Z" fill="#443D6B"/>
<path d="M26.9302 244.467V252.235C26.9302 254.968 24.7124 257.186 21.9795 257.186H4.95068C2.21774 257.186 0 254.968 0 252.235V244.467C0 242.003 1.80149 239.959 4.1557 239.581V236.043C4.1557 234.152 5.68765 232.62 7.57785 232.62H19.3489C21.2391 232.62 22.7711 234.152 22.7711 236.043V239.581C25.1287 239.959 26.9268 242.003 26.9268 244.467H26.9302Z" fill="#7D79A3"/>
<path d="M65.6587 244.467V252.235C65.6587 254.968 63.441 257.186 60.708 257.186H43.6792C40.9463 257.186 38.7285 254.968 38.7285 252.235V244.467C38.7285 242.003 40.53 239.959 42.8842 239.581V236.043C42.8842 234.152 44.4162 232.62 46.3064 232.62H58.0774C59.9676 232.62 61.4996 234.152 61.4996 236.043V239.581C63.8572 239.959 65.6553 242.003 65.6553 244.467H65.6587Z" fill="#7D79A3"/>
<path d="M104.391 244.467V252.235C104.391 254.968 102.173 257.186 99.44 257.186H82.4111C79.6782 257.186 77.4604 254.968 77.4604 252.235V244.467C77.4604 242.003 79.2619 239.959 81.6162 239.581V236.043C81.6162 234.152 83.1481 232.62 85.0383 232.62H96.8094C98.6996 232.62 100.232 234.152 100.232 236.043V239.581C102.589 239.959 104.387 242.003 104.387 244.467H104.391Z" fill="#443D6B"/>
<path d="M143.119 244.467V252.235C143.119 254.968 140.902 257.186 138.169 257.186H121.14C118.407 257.186 116.189 254.968 116.189 252.235V244.467C116.189 242.003 117.991 239.959 120.345 239.581V236.043C120.345 234.152 121.877 232.62 123.767 232.62H135.538C137.428 232.62 138.96 234.152 138.96 236.043V239.581C141.318 239.959 143.116 242.003 143.116 244.467H143.119Z" fill="#443D6B"/>
<path d="M181.851 244.467V252.235C181.851 254.968 179.634 257.186 176.901 257.186H159.872C157.139 257.186 154.921 254.968 154.921 252.235V244.467C154.921 242.003 156.723 239.959 159.077 239.581V236.043C159.077 234.152 160.609 232.62 162.499 232.62H174.27C176.16 232.62 177.692 234.152 177.692 236.043V239.581C180.05 239.959 181.848 242.003 181.848 244.467H181.851Z" fill="#443D6B"/>
<path d="M220.58 244.467V252.235C220.58 254.968 218.362 257.186 215.629 257.186H198.6C195.867 257.186 193.65 254.968 193.65 252.235V244.467C193.65 242.003 195.451 239.959 197.805 239.581V236.043C197.805 234.152 199.337 232.62 201.228 232.62H212.999C214.889 232.62 216.421 234.152 216.421 236.043V239.581C218.778 239.959 220.576 242.003 220.576 244.467H220.58Z" fill="#443D6B"/>
<path d="M259.308 244.467V252.235C259.308 254.968 257.091 257.186 254.358 257.186H237.329C234.596 257.186 232.378 254.968 232.378 252.235V244.467C232.378 242.003 234.18 239.959 236.534 239.581V236.043C236.534 234.152 238.066 232.62 239.956 232.62H251.727C253.617 232.62 255.149 234.152 255.149 236.043V239.581C257.507 239.959 259.305 242.003 259.305 244.467H259.308Z" fill="#443D6B"/>
<path d="M298.04 244.467V252.235C298.04 254.968 295.823 257.186 293.09 257.186H276.061C273.328 257.186 271.11 254.968 271.11 252.235V244.467C271.11 242.003 272.912 239.959 275.266 239.581V236.043C275.266 234.152 276.798 232.62 278.688 232.62H290.459C292.349 232.62 293.881 234.152 293.881 236.043V239.581C296.239 239.959 298.037 242.003 298.037 244.467H298.04Z" fill="#443D6B"/>
<path d="M336.769 244.467V252.235C336.769 254.968 334.551 257.186 331.818 257.186H314.789C312.056 257.186 309.839 254.968 309.839 252.235V244.467C309.839 242.003 311.64 239.959 313.994 239.581V236.043C313.994 234.152 315.526 232.62 317.416 232.62H329.188C331.078 232.62 332.61 234.152 332.61 236.043V239.581C334.967 239.959 336.765 242.003 336.765 244.467H336.769Z" fill="#443D6B"/>
<path d="M26.9302 205.697V213.466C26.9302 216.199 24.7124 218.417 21.9795 218.417H4.95068C2.21774 218.417 0 216.199 0 213.466V205.697C0 203.234 1.80149 201.19 4.1557 200.811V197.273C4.1557 195.383 5.68765 193.851 7.57785 193.851H19.3489C21.2391 193.851 22.7711 195.383 22.7711 197.273V200.811C25.1287 201.193 26.9268 203.234 26.9268 205.697H26.9302Z" fill="#7D79A3"/>
<path d="M65.6587 205.697V213.466C65.6587 216.199 63.441 218.417 60.708 218.417H43.6792C40.9463 218.417 38.7285 216.199 38.7285 213.466V205.697C38.7285 203.234 40.53 201.19 42.8842 200.811V197.273C42.8842 195.383 44.4162 193.851 46.3064 193.851H58.0774C59.9676 193.851 61.4996 195.383 61.4996 197.273V200.811C63.8572 201.193 65.6553 203.234 65.6553 205.697H65.6587Z" fill="#7D79A3"/>
<path d="M104.391 205.697V213.466C104.391 216.199 102.173 218.417 99.44 218.417H82.4111C79.6782 218.417 77.4604 216.199 77.4604 213.466V205.697C77.4604 203.234 79.2619 201.19 81.6162 200.811V197.273C81.6162 195.383 83.1481 193.851 85.0383 193.851H96.8094C98.6996 193.851 100.232 195.383 100.232 197.273V200.811C102.589 201.193 104.387 203.234 104.387 205.697H104.391Z" fill="#7D79A3"/>
<path d="M143.119 205.697V213.466C143.119 216.199 140.902 218.417 138.169 218.417H121.14C118.407 218.417 116.189 216.199 116.189 213.466V205.697C116.189 203.234 117.991 201.19 120.345 200.811V197.273C120.345 195.383 121.877 193.851 123.767 193.851H135.538C137.428 193.851 138.96 195.383 138.96 197.273V200.811C141.318 201.193 143.116 203.234 143.116 205.697H143.119Z" fill="#7D79A3"/>
<path d="M181.851 205.697V213.466C181.851 216.199 179.634 218.417 176.901 218.417H159.872C157.139 218.417 154.921 216.199 154.921 213.466V205.697C154.921 203.234 156.723 201.19 159.077 200.811V197.273C159.077 195.383 160.609 193.851 162.499 193.851H174.27C176.16 193.851 177.692 195.383 177.692 197.273V200.811C180.05 201.193 181.848 203.234 181.848 205.697H181.851Z" fill="#443D6B"/>
<path d="M220.58 205.697V213.466C220.58 216.199 218.362 218.417 215.629 218.417H198.6C195.867 218.417 193.65 216.199 193.65 213.466V205.697C193.65 203.234 195.451 201.19 197.805 200.811V197.273C197.805 195.383 199.337 193.851 201.228 193.851H212.999C214.889 193.851 216.421 195.383 216.421 197.273V200.811C218.778 201.193 220.576 203.234 220.576 205.697H220.58Z" fill="#443D6B"/>
<path d="M259.308 205.697V213.466C259.308 216.199 257.091 218.417 254.358 218.417H237.329C234.596 218.417 232.378 216.199 232.378 213.466V205.697C232.378 203.234 234.18 201.19 236.534 200.811V197.273C236.534 195.383 238.066 193.851 239.956 193.851H251.727C253.617 193.851 255.149 195.383 255.149 197.273V200.811C257.507 201.193 259.305 203.234 259.305 205.697H259.308Z" fill="#443D6B"/>
<path d="M298.04 205.697V213.466C298.04 216.199 295.823 218.417 293.09 218.417H276.061C273.328 218.417 271.11 216.199 271.11 213.466V205.697C271.11 203.234 272.912 201.19 275.266 200.811V197.273C275.266 195.383 276.798 193.851 278.688 193.851H290.459C292.349 193.851 293.881 195.383 293.881 197.273V200.811C296.239 201.193 298.037 203.234 298.037 205.697H298.04Z" fill="#443D6B"/>
<path d="M336.769 205.697V213.466C336.769 216.199 334.551 218.417 331.818 218.417H314.789C312.056 218.417 309.839 216.199 309.839 213.466V205.697C309.839 203.234 311.64 201.19 313.994 200.811V197.273C313.994 195.383 315.526 193.851 317.416 193.851H329.188C331.078 193.851 332.61 195.383 332.61 197.273V200.811C334.967 201.193 336.765 203.234 336.765 205.697H336.769Z" fill="#443D6B"/>
<path d="M26.9302 128.158V135.927C26.9302 138.66 24.7124 140.878 21.9795 140.878H4.95068C2.21774 140.878 0 138.66 0 135.927V128.158C0 125.695 1.80149 123.651 4.1557 123.272V119.734C4.1557 117.844 5.68765 116.312 7.57785 116.312H19.3489C21.2391 116.312 22.7711 117.844 22.7711 119.734V123.272C25.1287 123.654 26.9268 125.695 26.9268 128.158H26.9302Z" fill="#7D79A3"/>
<path d="M65.6587 128.158V135.927C65.6587 138.66 63.441 140.878 60.708 140.878H43.6792C40.9463 140.878 38.7285 138.66 38.7285 135.927V128.158C38.7285 125.695 40.53 123.651 42.8842 123.272V119.734C42.8842 117.844 44.4162 116.312 46.3064 116.312H58.0774C59.9676 116.312 61.4996 117.844 61.4996 119.734V123.272C63.8572 123.654 65.6553 125.695 65.6553 128.158H65.6587Z" fill="#7D79A3"/>
<path d="M104.391 128.158V135.927C104.391 138.66 102.173 140.878 99.44 140.878H82.4111C79.6782 140.878 77.4604 138.66 77.4604 135.927V128.158C77.4604 125.695 79.2619 123.651 81.6162 123.272V119.734C81.6162 117.844 83.1481 116.312 85.0383 116.312H96.8094C98.6996 116.312 100.232 117.844 100.232 119.734V123.272C102.589 123.654 104.387 125.695 104.387 128.158H104.391Z" fill="#7D79A3"/>
<path d="M143.119 128.158V135.927C143.119 138.66 140.902 140.878 138.169 140.878H121.14C118.407 140.878 116.189 138.66 116.189 135.927V128.158C116.189 125.695 117.991 123.651 120.345 123.272V119.734C120.345 117.844 121.877 116.312 123.767 116.312H135.538C137.428 116.312 138.96 117.844 138.96 119.734V123.272C141.318 123.654 143.116 125.695 143.116 128.158H143.119Z" fill="#443D6B"/>
<path d="M181.851 128.158V135.927C181.851 138.66 179.634 140.878 176.901 140.878H159.872C157.139 140.878 154.921 138.66 154.921 135.927V128.158C154.921 125.695 156.723 123.651 159.077 123.272V119.734C159.077 117.844 160.609 116.312 162.499 116.312H174.27C176.16 116.312 177.692 117.844 177.692 119.734V123.272C180.05 123.654 181.848 125.695 181.848 128.158H181.851Z" fill="#443D6B"/>
<path d="M220.58 128.158V135.927C220.58 138.66 218.362 140.878 215.629 140.878H198.6C195.867 140.878 193.65 138.66 193.65 135.927V128.158C193.65 125.695 195.451 123.651 197.805 123.272V119.734C197.805 117.844 199.337 116.312 201.228 116.312H212.999C214.889 116.312 216.421 117.844 216.421 119.734V123.272C218.778 123.654 220.576 125.695 220.576 128.158H220.58Z" fill="#443D6B"/>
<path d="M259.308 128.158V135.927C259.308 138.66 257.091 140.878 254.358 140.878H237.329C234.596 140.878 232.378 138.66 232.378 135.927V128.158C232.378 125.695 234.18 123.651 236.534 123.272V119.734C236.534 117.844 238.066 116.312 239.956 116.312H251.727C253.617 116.312 255.149 117.844 255.149 119.734V123.272C257.507 123.654 259.305 125.695 259.305 128.158H259.308Z" fill="#443D6B"/>
<path d="M298.04 128.158V135.927C298.04 138.66 295.823 140.878 293.09 140.878H276.061C273.328 140.878 271.11 138.66 271.11 135.927V128.158C271.11 125.695 272.912 123.651 275.266 123.272V119.734C275.266 117.844 276.798 116.312 278.688 116.312H290.459C292.349 116.312 293.881 117.844 293.881 119.734V123.272C296.239 123.654 298.037 125.695 298.037 128.158H298.04Z" fill="#443D6B"/>
<path d="M336.769 128.158V135.927C336.769 138.66 334.551 140.878 331.818 140.878H314.789C312.056 140.878 309.839 138.66 309.839 135.927V128.158C309.839 125.695 311.64 123.651 313.994 123.272V119.734C313.994 117.844 315.526 116.312 317.416 116.312H329.188C331.078 116.312 332.61 117.844 332.61 119.734V123.272C334.967 123.654 336.765 125.695 336.765 128.158H336.769Z" fill="#443D6B"/>
<path d="M26.9302 89.3886V97.1575C26.9302 99.8905 24.7124 102.108 21.9795 102.108H4.95068C2.21774 102.108 0 99.8905 0 97.1575V89.3886C0 86.9252 1.80149 84.8815 4.1557 84.5028V80.9646C4.1557 79.0744 5.68765 77.5425 7.57785 77.5425H19.3489C21.2391 77.5425 22.7711 79.0744 22.7711 80.9646V84.5028C25.1287 84.8815 26.9268 86.9252 26.9268 89.3886H26.9302Z" fill="#7D79A3"/>
<path d="M65.6587 89.3886V97.1575C65.6587 99.8905 63.441 102.108 60.708 102.108H43.6792C40.9463 102.108 38.7285 99.8905 38.7285 97.1575V89.3886C38.7285 86.9252 40.53 84.8815 42.8842 84.5028V80.9646C42.8842 79.0744 44.4162 77.5425 46.3064 77.5425H58.0774C59.9676 77.5425 61.4996 79.0744 61.4996 80.9646V84.5028C63.8572 84.8815 65.6553 86.9252 65.6553 89.3886H65.6587Z" fill="#7D79A3"/>
<path d="M104.391 89.3886V97.1575C104.391 99.8905 102.173 102.108 99.44 102.108H82.4111C79.6782 102.108 77.4604 99.8905 77.4604 97.1575V89.3886C77.4604 86.9252 79.2619 84.8815 81.6162 84.5028V80.9646C81.6162 79.0744 83.1481 77.5425 85.0383 77.5425H96.8094C98.6996 77.5425 100.232 79.0744 100.232 80.9646V84.5028C102.589 84.8815 104.387 86.9252 104.387 89.3886H104.391Z" fill="#7D79A3"/>
<path d="M143.119 89.3886V97.1575C143.119 99.8905 140.902 102.108 138.169 102.108H121.14C118.407 102.108 116.189 99.8905 116.189 97.1575V89.3886C116.189 86.9252 117.991 84.8815 120.345 84.5028V80.9646C120.345 79.0744 121.877 77.5425 123.767 77.5425H135.538C137.428 77.5425 138.96 79.0744 138.96 80.9646V84.5028C141.318 84.8815 143.116 86.9252 143.116 89.3886H143.119Z" fill="#7D79A3"/>
<path d="M181.851 89.3886V97.1575C181.851 99.8905 179.634 102.108 176.901 102.108H159.872C157.139 102.108 154.921 99.8905 154.921 97.1575V89.3886C154.921 86.9252 156.723 84.8815 159.077 84.5028V80.9646C159.077 79.0744 160.609 77.5425 162.499 77.5425H174.27C176.16 77.5425 177.692 79.0744 177.692 80.9646V84.5028C180.05 84.8815 181.848 86.9252 181.848 89.3886H181.851Z" fill="#443D6B"/>
<path d="M220.58 89.3886V97.1575C220.58 99.8905 218.362 102.108 215.629 102.108H198.6C195.867 102.108 193.65 99.8905 193.65 97.1575V89.3886C193.65 86.9252 195.451 84.8815 197.805 84.5028V80.9646C197.805 79.0744 199.337 77.5425 201.228 77.5425H212.999C214.889 77.5425 216.421 79.0744 216.421 80.9646V84.5028C218.778 84.8815 220.576 86.9252 220.576 89.3886H220.58Z" fill="#443D6B"/>
<path d="M259.308 89.3886V97.1575C259.308 99.8905 257.091 102.108 254.358 102.108H237.329C234.596 102.108 232.378 99.8905 232.378 97.1575V89.3886C232.378 86.9252 234.18 84.8815 236.534 84.5028V80.9646C236.534 79.0744 238.066 77.5425 239.956 77.5425H251.727C253.617 77.5425 255.149 79.0744 255.149 80.9646V84.5028C257.507 84.8815 259.305 86.9252 259.305 89.3886H259.308Z" fill="#443D6B"/>
<path d="M298.04 89.3886V97.1575C298.04 99.8905 295.823 102.108 293.09 102.108H276.061C273.328 102.108 271.11 99.8905 271.11 97.1575V89.3886C271.11 86.9252 272.912 84.8815 275.266 84.5028V80.9646C275.266 79.0744 276.798 77.5425 278.688 77.5425H290.459C292.349 77.5425 293.881 79.0744 293.881 80.9646V84.5028C296.239 84.8815 298.037 86.9252 298.037 89.3886H298.04Z" fill="#443D6B"/>
<path d="M336.769 89.3886V97.1575C336.769 99.8905 334.551 102.108 331.818 102.108H314.789C312.056 102.108 309.839 99.8905 309.839 97.1575V89.3886C309.839 86.9252 311.64 84.8815 313.994 84.5028V80.9646C313.994 79.0744 315.526 77.5425 317.416 77.5425H329.188C331.078 77.5425 332.61 79.0744 332.61 80.9646V84.5028C334.967 84.8815 336.765 86.9252 336.765 89.3886H336.769Z" fill="#443D6B"/>
<path d="M26.9302 50.6157V58.3846C26.9302 61.1175 24.7124 63.3353 21.9795 63.3353H4.95068C2.21774 63.3353 0 61.1175 0 58.3846V50.6157C0 48.1523 1.80149 46.1085 4.1557 45.7298V42.1917C4.1557 40.3015 5.68765 38.7695 7.57785 38.7695H19.3489C21.2391 38.7695 22.7711 40.3015 22.7711 42.1917V45.7298C25.1287 46.112 26.9268 48.1523 26.9268 50.6157H26.9302Z" fill="#7D79A3"/>
<path d="M65.6587 50.6157V58.3846C65.6587 61.1175 63.441 63.3353 60.708 63.3353H43.6792C40.9463 63.3353 38.7285 61.1175 38.7285 58.3846V50.6157C38.7285 48.1523 40.53 46.1085 42.8842 45.7298V42.1917C42.8842 40.3015 44.4162 38.7695 46.3064 38.7695H58.0774C59.9676 38.7695 61.4996 40.3015 61.4996 42.1917V45.7298C63.8572 46.112 65.6553 48.1523 65.6553 50.6157H65.6587Z" fill="#7D79A3"/>
<path d="M104.391 50.6157V58.3846C104.391 61.1175 102.173 63.3353 99.44 63.3353H82.4111C79.6782 63.3353 77.4604 61.1175 77.4604 58.3846V50.6157C77.4604 48.1523 79.2619 46.1085 81.6162 45.7298V42.1917C81.6162 40.3015 83.1481 38.7695 85.0383 38.7695H96.8094C98.6996 38.7695 100.232 40.3015 100.232 42.1917V45.7298C102.589 46.112 104.387 48.1523 104.387 50.6157H104.391Z" fill="#7D79A3"/>
<path d="M143.119 50.6157V58.3846C143.119 61.1175 140.902 63.3353 138.169 63.3353H121.14C118.407 63.3353 116.189 61.1175 116.189 58.3846V50.6157C116.189 48.1523 117.991 46.1085 120.345 45.7298V42.1917C120.345 40.3015 121.877 38.7695 123.767 38.7695H135.538C137.428 38.7695 138.96 40.3015 138.96 42.1917V45.7298C141.318 46.112 143.116 48.1523 143.116 50.6157H143.119Z" fill="#7D79A3"/>
<path d="M181.851 50.6157V58.3846C181.851 61.1175 179.634 63.3353 176.901 63.3353H159.872C157.139 63.3353 154.921 61.1175 154.921 58.3846V50.6157C154.921 48.1523 156.723 46.1085 159.077 45.7298V42.1917C159.077 40.3015 160.609 38.7695 162.499 38.7695H174.27C176.16 38.7695 177.692 40.3015 177.692 42.1917V45.7298C180.05 46.112 181.848 48.1523 181.848 50.6157H181.851Z" fill="#7D79A3"/>
<path d="M220.58 50.6157V58.3846C220.58 61.1175 218.362 63.3353 215.629 63.3353H198.6C195.867 63.3353 193.65 61.1175 193.65 58.3846V50.6157C193.65 48.1523 195.451 46.1085 197.805 45.7298V42.1917C197.805 40.3015 199.337 38.7695 201.228 38.7695H212.999C214.889 38.7695 216.421 40.3015 216.421 42.1917V45.7298C218.778 46.112 220.576 48.1523 220.576 50.6157H220.58Z" fill="#7D79A3"/>
<path d="M259.308 50.6157V58.3846C259.308 61.1175 257.091 63.3353 254.358 63.3353H237.329C234.596 63.3353 232.378 61.1175 232.378 58.3846V50.6157C232.378 48.1523 234.18 46.1085 236.534 45.7298V42.1917C236.534 40.3015 238.066 38.7695 239.956 38.7695H251.727C253.617 38.7695 255.149 40.3015 255.149 42.1917V45.7298C257.507 46.112 259.305 48.1523 259.305 50.6157H259.308Z" fill="#7D79A3"/>
<path d="M298.04 50.6157V58.3846C298.04 61.1175 295.823 63.3353 293.09 63.3353H276.061C273.328 63.3353 271.11 61.1175 271.11 58.3846V50.6157C271.11 48.1523 272.912 46.1085 275.266 45.7298V42.1917C275.266 40.3015 276.798 38.7695 278.688 38.7695H290.459C292.349 38.7695 293.881 40.3015 293.881 42.1917V45.7298C296.239 46.112 298.037 48.1523 298.037 50.6157H298.04Z" fill="#7D79A3"/>
<path d="M336.769 50.6157V58.3846C336.769 61.1175 334.551 63.3353 331.818 63.3353H314.789C312.056 63.3353 309.839 61.1175 309.839 58.3846V50.6157C309.839 48.1523 311.64 46.1085 313.994 45.7298V42.1917C313.994 40.3015 315.526 38.7695 317.416 38.7695H329.188C331.078 38.7695 332.61 40.3015 332.61 42.1917V45.7298C334.967 46.112 336.765 48.1523 336.765 50.6157H336.769Z" fill="#7D79A3"/>
<path d="M26.9302 11.8461V19.6151C26.9302 22.348 24.7124 24.5657 21.9795 24.5657H4.95068C2.21774 24.5657 0 22.348 0 19.6151V11.8461C0 9.38274 1.80149 7.33901 4.1557 6.96029V3.42214C4.1557 1.53195 5.68765 0 7.57785 0H19.3489C21.2391 0 22.7711 1.53195 22.7711 3.42214V6.96029C25.1287 7.34242 26.9268 9.38274 26.9268 11.8461H26.9302Z" fill="#7D79A3"/>
<path d="M65.6587 11.8461V19.6151C65.6587 22.348 63.441 24.5657 60.708 24.5657H43.6792C40.9463 24.5657 38.7285 22.348 38.7285 19.6151V11.8461C38.7285 9.38274 40.53 7.33901 42.8842 6.96029V3.42214C42.8842 1.53195 44.4162 0 46.3064 0H58.0774C59.9676 0 61.4996 1.53195 61.4996 3.42214V6.96029C63.8572 7.34242 65.6553 9.38274 65.6553 11.8461H65.6587Z" fill="#7D79A3"/>
<path d="M104.391 11.8461V19.6151C104.391 22.348 102.173 24.5657 99.44 24.5657H82.4111C79.6782 24.5657 77.4604 22.348 77.4604 19.6151V11.8461C77.4604 9.38274 79.2619 7.33901 81.6162 6.96029V3.42214C81.6162 1.53195 83.1481 0 85.0383 0H96.8094C98.6996 0 100.232 1.53195 100.232 3.42214V6.96029C102.589 7.34242 104.387 9.38274 104.387 11.8461H104.391Z" fill="#7D79A3"/>
<path d="M143.119 11.8461V19.6151C143.119 22.348 140.902 24.5657 138.169 24.5657H121.14C118.407 24.5657 116.189 22.348 116.189 19.6151V11.8461C116.189 9.38274 117.991 7.33901 120.345 6.96029V3.42214C120.345 1.53195 121.877 0 123.767 0H135.538C137.428 0 138.96 1.53195 138.96 3.42214V6.96029C141.318 7.34242 143.116 9.38274 143.116 11.8461H143.119Z" fill="#7D79A3"/>
<path d="M181.851 11.8461V19.6151C181.851 22.348 179.634 24.5657 176.901 24.5657H159.872C157.139 24.5657 154.921 22.348 154.921 19.6151V11.8461C154.921 9.38274 156.723 7.33901 159.077 6.96029V3.42214C159.077 1.53195 160.609 0 162.499 0H174.27C176.16 0 177.692 1.53195 177.692 3.42214V6.96029C180.05 7.34242 181.848 9.38274 181.848 11.8461H181.851Z" fill="#7D79A3"/>
<path d="M220.58 11.8461V19.6151C220.58 22.348 218.362 24.5657 215.629 24.5657H198.6C195.867 24.5657 193.65 22.348 193.65 19.6151V11.8461C193.65 9.38274 195.451 7.33901 197.805 6.96029V3.42214C197.805 1.53195 199.337 0 201.228 0H212.999C214.889 0 216.421 1.53195 216.421 3.42214V6.96029C218.778 7.34242 220.576 9.38274 220.576 11.8461H220.58Z" fill="#7D79A3"/>
<path d="M259.308 11.8461V19.6151C259.308 22.348 257.091 24.5657 254.358 24.5657H237.329C234.596 24.5657 232.378 22.348 232.378 19.6151V11.8461C232.378 9.38274 234.18 7.33901 236.534 6.96029V3.42214C236.534 1.53195 238.066 0 239.956 0H251.727C253.617 0 255.149 1.53195 255.149 3.42214V6.96029C257.507 7.34242 259.305 9.38274 259.305 11.8461H259.308Z" fill="#7D79A3"/>
<path d="M298.04 11.8461V19.6151C298.04 22.348 295.823 24.5657 293.09 24.5657H276.061C273.328 24.5657 271.11 22.348 271.11 19.6151V11.8461C271.11 9.38274 272.912 7.33901 275.266 6.96029V3.42214C275.266 1.53195 276.798 0 278.688 0H290.459C292.349 0 293.881 1.53195 293.881 3.42214V6.96029C296.239 7.34242 298.037 9.38274 298.037 11.8461H298.04Z" fill="#7D79A3"/>
<path d="M336.769 11.8461V19.6151C336.769 22.348 334.551 24.5657 331.818 24.5657H314.789C312.056 24.5657 309.839 22.348 309.839 19.6151V11.8461C309.839 9.38274 311.64 7.33901 313.994 6.96029V3.42214C313.994 1.53195 315.526 0 317.416 0H329.188C331.078 0 332.61 1.53195 332.61 3.42214V6.96029C334.967 7.34242 336.765 9.38274 336.765 11.8461H336.769Z" fill="#7D79A3"/>
<path d="M431.241 283.239V291.008C431.241 293.741 429.023 295.959 426.291 295.959H409.262C406.529 295.959 404.311 293.741 404.311 291.008V283.239C404.311 280.776 406.113 278.732 408.467 278.354V274.815C408.467 272.925 409.999 271.393 411.889 271.393H423.66C425.55 271.393 427.082 272.925 427.082 274.815V278.354C429.44 278.732 431.238 280.776 431.238 283.239H431.241Z" fill="#443D6B"/>
<path d="M469.97 283.239V291.008C469.97 293.741 467.752 295.959 465.019 295.959H447.99C445.257 295.959 443.04 293.741 443.04 291.008V283.239C443.04 280.776 444.841 278.732 447.195 278.354V274.815C447.195 272.925 448.727 271.393 450.617 271.393H462.388C464.279 271.393 465.811 272.925 465.811 274.815V278.354C468.168 278.732 469.966 280.776 469.966 283.239H469.97Z" fill="#443D6B"/>
<path d="M508.698 283.239V291.008C508.698 293.741 506.48 295.959 503.748 295.959H486.719C483.986 295.959 481.768 293.741 481.768 291.008V283.239C481.768 280.776 483.57 278.732 485.924 278.354V274.815C485.924 272.925 487.456 271.393 489.346 271.393H501.117C503.007 271.393 504.539 272.925 504.539 274.815V278.354C506.897 278.732 508.695 280.776 508.695 283.239H508.698Z" fill="#443D6B"/>
<path d="M547.43 283.239V291.008C547.43 293.741 545.212 295.959 542.479 295.959H525.451C522.718 295.959 520.5 293.741 520.5 291.008V283.239C520.5 280.776 522.301 278.732 524.656 278.354V274.815C524.656 272.925 526.188 271.393 528.078 271.393H539.849C541.739 271.393 543.271 272.925 543.271 274.815V278.354C545.629 278.732 547.427 280.776 547.427 283.239H547.43Z" fill="#443D6B"/>
<path d="M586.159 283.239V291.008C586.159 293.741 583.941 295.959 581.208 295.959H564.179C561.447 295.959 559.229 293.741 559.229 291.008V283.239C559.229 280.776 561.03 278.732 563.384 278.354V274.815C563.384 272.925 564.916 271.393 566.807 271.393H578.578C580.468 271.393 582 272.925 582 274.815V278.354C584.357 278.732 586.156 280.776 586.156 283.239H586.159Z" fill="#7D79A3"/>
<path d="M624.891 283.239V291.008C624.891 293.741 622.673 295.959 619.94 295.959H602.911C600.178 295.959 597.961 293.741 597.961 291.008V283.239C597.961 280.776 599.762 278.732 602.116 278.354V274.815C602.116 272.925 603.648 271.393 605.539 271.393H617.31C619.2 271.393 620.732 272.925 620.732 274.815V278.354C623.089 278.732 624.887 280.776 624.887 283.239H624.891Z" fill="#7D79A3"/>
<path d="M663.619 283.239V291.008C663.619 293.741 661.402 295.959 658.669 295.959H641.64C638.907 295.959 636.689 293.741 636.689 291.008V283.239C636.689 280.776 638.491 278.732 640.845 278.354V274.815C640.845 272.925 642.377 271.393 644.267 271.393H656.038C657.928 271.393 659.46 272.925 659.46 274.815V278.354C661.818 278.732 663.616 280.776 663.616 283.239H663.619Z" fill="#7D79A3"/>
<path d="M702.351 283.239V291.008C702.351 293.741 700.134 295.959 697.401 295.959H680.372C677.639 295.959 675.421 293.741 675.421 291.008V283.239C675.421 280.776 677.223 278.732 679.577 278.354V274.815C679.577 272.925 681.109 271.393 682.999 271.393H694.77C696.66 271.393 698.192 272.925 698.192 274.815V278.354C700.55 278.732 702.348 280.776 702.348 283.239H702.351Z" fill="#7D79A3"/>
<path d="M741.08 283.239V291.008C741.08 293.741 738.862 295.959 736.129 295.959H719.101C716.368 295.959 714.15 293.741 714.15 291.008V283.239C714.15 280.776 715.951 278.732 718.306 278.354V274.815C718.306 272.925 719.838 271.393 721.728 271.393H733.499C735.389 271.393 736.921 272.925 736.921 274.815V278.354C739.279 278.732 741.077 280.776 741.077 283.239H741.08Z" fill="#7D79A3"/>
<path d="M431.241 244.467V252.235C431.241 254.968 429.023 257.186 426.291 257.186H409.262C406.529 257.186 404.311 254.968 404.311 252.235V244.467C404.311 242.003 406.113 239.959 408.467 239.581V236.043C408.467 234.152 409.999 232.62 411.889 232.62H423.66C425.55 232.62 427.082 234.152 427.082 236.043V239.581C429.44 239.959 431.238 242.003 431.238 244.467H431.241Z" fill="#443D6B"/>
<path d="M469.97 244.467V252.235C469.97 254.968 467.752 257.186 465.019 257.186H447.99C445.257 257.186 443.04 254.968 443.04 252.235V244.467C443.04 242.003 444.841 239.959 447.195 239.581V236.043C447.195 234.152 448.727 232.62 450.617 232.62H462.388C464.279 232.62 465.811 234.152 465.811 236.043V239.581C468.168 239.959 469.966 242.003 469.966 244.467H469.97Z" fill="#443D6B"/>
<path d="M508.698 244.467V252.235C508.698 254.968 506.48 257.186 503.748 257.186H486.719C483.986 257.186 481.768 254.968 481.768 252.235V244.467C481.768 242.003 483.57 239.959 485.924 239.581V236.043C485.924 234.152 487.456 232.62 489.346 232.62H501.117C503.007 232.62 504.539 234.152 504.539 236.043V239.581C506.897 239.959 508.695 242.003 508.695 244.467H508.698Z" fill="#443D6B"/>
<path d="M547.43 244.467V252.235C547.43 254.968 545.212 257.186 542.479 257.186H525.451C522.718 257.186 520.5 254.968 520.5 252.235V244.467C520.5 242.003 522.301 239.959 524.656 239.581V236.043C524.656 234.152 526.188 232.62 528.078 232.62H539.849C541.739 232.62 543.271 234.152 543.271 236.043V239.581C545.629 239.959 547.427 242.003 547.427 244.467H547.43Z" fill="#443D6B"/>
<path d="M586.159 244.467V252.235C586.159 254.968 583.941 257.186 581.208 257.186H564.179C561.447 257.186 559.229 254.968 559.229 252.235V244.467C559.229 242.003 561.03 239.959 563.384 239.581V236.043C563.384 234.152 564.916 232.62 566.807 232.62H578.578C580.468 232.62 582 234.152 582 236.043V239.581C584.357 239.959 586.156 242.003 586.156 244.467H586.159Z" fill="#443D6B"/>
<path d="M624.891 244.467V252.235C624.891 254.968 622.673 257.186 619.94 257.186H602.911C600.178 257.186 597.961 254.968 597.961 252.235V244.467C597.961 242.003 599.762 239.959 602.116 239.581V236.043C602.116 234.152 603.648 232.62 605.539 232.62H617.31C619.2 232.62 620.732 234.152 620.732 236.043V239.581C623.089 239.959 624.887 242.003 624.887 244.467H624.891Z" fill="#443D6B"/>
<path d="M663.619 244.467V252.235C663.619 254.968 661.402 257.186 658.669 257.186H641.64C638.907 257.186 636.689 254.968 636.689 252.235V244.467C636.689 242.003 638.491 239.959 640.845 239.581V236.043C640.845 234.152 642.377 232.62 644.267 232.62H656.038C657.928 232.62 659.46 234.152 659.46 236.043V239.581C661.818 239.959 663.616 242.003 663.616 244.467H663.619Z" fill="#7D79A3"/>
<path d="M702.351 244.467V252.235C702.351 254.968 700.134 257.186 697.401 257.186H680.372C677.639 257.186 675.421 254.968 675.421 252.235V244.467C675.421 242.003 677.223 239.959 679.577 239.581V236.043C679.577 234.152 681.109 232.62 682.999 232.62H694.77C696.66 232.62 698.192 234.152 698.192 236.043V239.581C700.55 239.959 702.348 242.003 702.348 244.467H702.351Z" fill="#7D79A3"/>
<path d="M741.08 244.467V252.235C741.08 254.968 738.862 257.186 736.129 257.186H719.101C716.368 257.186 714.15 254.968 714.15 252.235V244.467C714.15 242.003 715.951 239.959 718.306 239.581V236.043C718.306 234.152 719.838 232.62 721.728 232.62H733.499C735.389 232.62 736.921 234.152 736.921 236.043V239.581C739.279 239.959 741.077 242.003 741.077 244.467H741.08Z" fill="#7D79A3"/>
<path d="M26.9302 322.009V329.778C26.9302 332.511 24.7124 334.729 21.9795 334.729H4.95068C2.21774 334.729 0 332.511 0 329.778V322.009C0 319.546 1.80149 317.502 4.1557 317.123V313.585C4.1557 311.695 5.68765 310.163 7.57785 310.163H19.3489C21.2391 310.163 22.7711 311.695 22.7711 313.585V317.123C25.1287 317.505 26.9268 319.546 26.9268 322.009H26.9302Z" fill="#7D79A3"/>
<path d="M65.6587 322.009V329.778C65.6587 332.511 63.441 334.729 60.708 334.729H43.6792C40.9463 334.729 38.7285 332.511 38.7285 329.778V322.009C38.7285 319.546 40.53 317.502 42.8842 317.123V313.585C42.8842 311.695 44.4162 310.163 46.3064 310.163H58.0774C59.9676 310.163 61.4996 311.695 61.4996 313.585V317.123C63.8572 317.505 65.6553 319.546 65.6553 322.009H65.6587Z" fill="#7D79A3"/>
<path d="M104.391 322.009V329.778C104.391 332.511 102.173 334.729 99.44 334.729H82.4111C79.6782 334.729 77.4604 332.511 77.4604 329.778V322.009C77.4604 319.546 79.2619 317.502 81.6162 317.123V313.585C81.6162 311.695 83.1481 310.163 85.0383 310.163H96.8094C98.6996 310.163 100.232 311.695 100.232 313.585V317.123C102.589 317.505 104.387 319.546 104.387 322.009H104.391Z" fill="#7D79A3"/>
<path d="M143.119 322.009V329.778C143.119 332.511 140.902 334.729 138.169 334.729H121.14C118.407 334.729 116.189 332.511 116.189 329.778V322.009C116.189 319.546 117.991 317.502 120.345 317.123V313.585C120.345 311.695 121.877 310.163 123.767 310.163H135.538C137.428 310.163 138.96 311.695 138.96 313.585V317.123C141.318 317.505 143.116 319.546 143.116 322.009H143.119Z" fill="#7D79A3"/>
<path d="M181.851 322.009V329.778C181.851 332.511 179.634 334.729 176.901 334.729H159.872C157.139 334.729 154.921 332.511 154.921 329.778V322.009C154.921 319.546 156.723 317.502 159.077 317.123V313.585C159.077 311.695 160.609 310.163 162.499 310.163H174.27C176.16 310.163 177.692 311.695 177.692 313.585V317.123C180.05 317.505 181.848 319.546 181.848 322.009H181.851Z" fill="#443D6B"/>
<path d="M220.58 322.009V329.778C220.58 332.511 218.362 334.729 215.629 334.729H198.6C195.867 334.729 193.65 332.511 193.65 329.778V322.009C193.65 319.546 195.451 317.502 197.805 317.123V313.585C197.805 311.695 199.337 310.163 201.228 310.163H212.999C214.889 310.163 216.421 311.695 216.421 313.585V317.123C218.778 317.505 220.576 319.546 220.576 322.009H220.58Z" fill="#443D6B"/>
<path d="M259.308 322.009V329.778C259.308 332.511 257.091 334.729 254.358 334.729H237.329C234.596 334.729 232.378 332.511 232.378 329.778V322.009C232.378 319.546 234.18 317.502 236.534 317.123V313.585C236.534 311.695 238.066 310.163 239.956 310.163H251.727C253.617 310.163 255.149 311.695 255.149 313.585V317.123C257.507 317.505 259.305 319.546 259.305 322.009H259.308Z" fill="#443D6B"/>
<path d="M298.04 322.009V329.778C298.04 332.511 295.823 334.729 293.09 334.729H276.061C273.328 334.729 271.11 332.511 271.11 329.778V322.009C271.11 319.546 272.912 317.502 275.266 317.123V313.585C275.266 311.695 276.798 310.163 278.688 310.163H290.459C292.349 310.163 293.881 311.695 293.881 313.585V317.123C296.239 317.505 298.037 319.546 298.037 322.009H298.04Z" fill="#443D6B"/>
<path d="M336.769 322.009V329.778C336.769 332.511 334.551 334.729 331.818 334.729H314.789C312.056 334.729 309.839 332.511 309.839 329.778V322.009C309.839 319.546 311.64 317.502 313.994 317.123V313.585C313.994 311.695 315.526 310.163 317.416 310.163H329.188C331.078 310.163 332.61 311.695 332.61 313.585V317.123C334.967 317.505 336.765 319.546 336.765 322.009H336.769Z" fill="#443D6B"/>
<path d="M431.241 322.009V329.778C431.241 332.511 429.023 334.729 426.291 334.729H409.262C406.529 334.729 404.311 332.511 404.311 329.778V322.009C404.311 319.546 406.113 317.502 408.467 317.123V313.585C408.467 311.695 409.999 310.163 411.889 310.163H423.66C425.55 310.163 427.082 311.695 427.082 313.585V317.123C429.44 317.505 431.238 319.546 431.238 322.009H431.241Z" fill="#443D6B"/>
<path d="M469.97 322.009V329.778C469.97 332.511 467.752 334.729 465.019 334.729H447.99C445.257 334.729 443.04 332.511 443.04 329.778V322.009C443.04 319.546 444.841 317.502 447.195 317.123V313.585C447.195 311.695 448.727 310.163 450.617 310.163H462.388C464.279 310.163 465.811 311.695 465.811 313.585V317.123C468.168 317.505 469.966 319.546 469.966 322.009H469.97Z" fill="#443D6B"/>
<path d="M508.698 322.009V329.778C508.698 332.511 506.48 334.729 503.748 334.729H486.719C483.986 334.729 481.768 332.511 481.768 329.778V322.009C481.768 319.546 483.57 317.502 485.924 317.123V313.585C485.924 311.695 487.456 310.163 489.346 310.163H501.117C503.007 310.163 504.539 311.695 504.539 313.585V317.123C506.897 317.505 508.695 319.546 508.695 322.009H508.698Z" fill="#443D6B"/>
<path d="M547.43 322.009V329.778C547.43 332.511 545.212 334.729 542.479 334.729H525.451C522.718 334.729 520.5 332.511 520.5 329.778V322.009C520.5 319.546 522.301 317.502 524.656 317.123V313.585C524.656 311.695 526.188 310.163 528.078 310.163H539.849C541.739 310.163 543.271 311.695 543.271 313.585V317.123C545.629 317.505 547.427 319.546 547.427 322.009H547.43Z" fill="#7D79A3"/>
<path d="M586.159 322.009V329.778C586.159 332.511 583.941 334.729 581.208 334.729H564.179C561.447 334.729 559.229 332.511 559.229 329.778V322.009C559.229 319.546 561.03 317.502 563.384 317.123V313.585C563.384 311.695 564.916 310.163 566.807 310.163H578.578C580.468 310.163 582 311.695 582 313.585V317.123C584.357 317.505 586.156 319.546 586.156 322.009H586.159Z" fill="#443D6B"/>
<path d="M624.891 322.009V329.778C624.891 332.511 622.673 334.729 619.94 334.729H602.911C600.178 334.729 597.961 332.511 597.961 329.778V322.009C597.961 319.546 599.762 317.502 602.116 317.123V313.585C602.116 311.695 603.648 310.163 605.539 310.163H617.31C619.2 310.163 620.732 311.695 620.732 313.585V317.123C623.089 317.505 624.887 319.546 624.887 322.009H624.891Z" fill="#443D6B"/>
<path d="M663.619 322.009V329.778C663.619 332.511 661.402 334.729 658.669 334.729H641.64C638.907 334.729 636.689 332.511 636.689 329.778V322.009C636.689 319.546 638.491 317.502 640.845 317.123V313.585C640.845 311.695 642.377 310.163 644.267 310.163H656.038C657.928 310.163 659.46 311.695 659.46 313.585V317.123C661.818 317.505 663.616 319.546 663.616 322.009H663.619Z" fill="#443D6B"/>
<path d="M702.351 322.009V329.778C702.351 332.511 700.134 334.729 697.401 334.729H680.372C677.639 334.729 675.421 332.511 675.421 329.778V322.009C675.421 319.546 677.223 317.502 679.577 317.123V313.585C679.577 311.695 681.109 310.163 682.999 310.163H694.77C696.66 310.163 698.192 311.695 698.192 313.585V317.123C700.55 317.505 702.348 319.546 702.348 322.009H702.351Z" fill="#7D79A3"/>
<path d="M741.08 322.009V329.778C741.08 332.511 738.862 334.729 736.129 334.729H719.101C716.368 334.729 714.15 332.511 714.15 329.778V322.009C714.15 319.546 715.951 317.502 718.306 317.123V313.585C718.306 311.695 719.838 310.163 721.728 310.163H733.499C735.389 310.163 736.921 311.695 736.921 313.585V317.123C739.279 317.505 741.077 319.546 741.077 322.009H741.08Z" fill="#7D79A3"/>
<path d="M508.698 205.697V213.466C508.698 216.199 506.48 218.417 503.748 218.417H486.719C483.986 218.417 481.768 216.199 481.768 213.466V205.697C481.768 203.234 483.57 201.19 485.924 200.811V197.273C485.924 195.383 487.456 193.851 489.346 193.851H501.117C503.007 193.851 504.539 195.383 504.539 197.273V200.811C506.897 201.193 508.695 203.234 508.695 205.697H508.698Z" fill="#443D6B"/>
<path d="M547.43 205.697V213.466C547.43 216.199 545.212 218.417 542.479 218.417H525.451C522.718 218.417 520.5 216.199 520.5 213.466V205.697C520.5 203.234 522.301 201.19 524.656 200.811V197.273C524.656 195.383 526.188 193.851 528.078 193.851H539.849C541.739 193.851 543.271 195.383 543.271 197.273V200.811C545.629 201.193 547.427 203.234 547.427 205.697H547.43Z" fill="#443D6B"/>
<path d="M586.159 205.697V213.466C586.159 216.199 583.941 218.417 581.208 218.417H564.179C561.447 218.417 559.229 216.199 559.229 213.466V205.697C559.229 203.234 561.03 201.19 563.384 200.811V197.273C563.384 195.383 564.916 193.851 566.807 193.851H578.578C580.468 193.851 582 195.383 582 197.273V200.811C584.357 201.193 586.156 203.234 586.156 205.697H586.159Z" fill="#443D6B"/>
<path d="M624.891 205.697V213.466C624.891 216.199 622.673 218.417 619.94 218.417H602.911C600.178 218.417 597.961 216.199 597.961 213.466V205.697C597.961 203.234 599.762 201.19 602.116 200.811V197.273C602.116 195.383 603.648 193.851 605.539 193.851H617.31C619.2 193.851 620.732 195.383 620.732 197.273V200.811C623.089 201.193 624.887 203.234 624.887 205.697H624.891Z" fill="#7D79A3"/>
<path d="M663.619 205.697V213.466C663.619 216.199 661.402 218.417 658.669 218.417H641.64C638.907 218.417 636.689 216.199 636.689 213.466V205.697C636.689 203.234 638.491 201.19 640.845 200.811V197.273C640.845 195.383 642.377 193.851 644.267 193.851H656.038C657.928 193.851 659.46 195.383 659.46 197.273V200.811C661.818 201.193 663.616 203.234 663.616 205.697H663.619Z" fill="#7D79A3"/>
<path d="M702.351 205.697V213.466C702.351 216.199 700.134 218.417 697.401 218.417H680.372C677.639 218.417 675.421 216.199 675.421 213.466V205.697C675.421 203.234 677.223 201.19 679.577 200.811V197.273C679.577 195.383 681.109 193.851 682.999 193.851H694.77C696.66 193.851 698.192 195.383 698.192 197.273V200.811C700.55 201.193 702.348 203.234 702.348 205.697H702.351Z" fill="#7D79A3"/>
<path d="M741.08 205.697V213.466C741.08 216.199 738.862 218.417 736.129 218.417H719.101C716.368 218.417 714.15 216.199 714.15 213.466V205.697C714.15 203.234 715.951 201.19 718.306 200.811V197.273C718.306 195.383 719.838 193.851 721.728 193.851H733.499C735.389 193.851 736.921 195.383 736.921 197.273V200.811C739.279 201.193 741.077 203.234 741.077 205.697H741.08Z" fill="#7D79A3"/>
<path d="M26.9302 399.548V407.317C26.9302 410.05 24.7124 412.268 21.9795 412.268H4.95068C2.21774 412.268 0 410.05 0 407.317V399.548C0 397.085 1.80149 395.041 4.1557 394.662V391.124C4.1557 389.234 5.68765 387.702 7.57785 387.702H19.3489C21.2391 387.702 22.7711 389.234 22.7711 391.124V394.662C25.1287 395.044 26.9268 397.085 26.9268 399.548H26.9302Z" fill="#7D79A3"/>
<path d="M65.6587 399.548V407.317C65.6587 410.05 63.441 412.268 60.708 412.268H43.6792C40.9463 412.268 38.7285 410.05 38.7285 407.317V399.548C38.7285 397.085 40.53 395.041 42.8842 394.662V391.124C42.8842 389.234 44.4162 387.702 46.3064 387.702H58.0774C59.9676 387.702 61.4996 389.234 61.4996 391.124V394.662C63.8572 395.044 65.6553 397.085 65.6553 399.548H65.6587Z" fill="#7D79A3"/>
<path d="M104.391 399.548V407.317C104.391 410.05 102.173 412.268 99.44 412.268H82.4111C79.6782 412.268 77.4604 410.05 77.4604 407.317V399.548C77.4604 397.085 79.2619 395.041 81.6162 394.662V391.124C81.6162 389.234 83.1481 387.702 85.0383 387.702H96.8094C98.6996 387.702 100.232 389.234 100.232 391.124V394.662C102.589 395.044 104.387 397.085 104.387 399.548H104.391Z" fill="#7D79A3"/>
<path d="M143.119 399.548V407.317C143.119 410.05 140.902 412.268 138.169 412.268H121.14C118.407 412.268 116.189 410.05 116.189 407.317V399.548C116.189 397.085 117.991 395.041 120.345 394.662V391.124C120.345 389.234 121.877 387.702 123.767 387.702H135.538C137.428 387.702 138.96 389.234 138.96 391.124V394.662C141.318 395.044 143.116 397.085 143.116 399.548H143.119Z" fill="#7D79A3"/>
<path d="M181.851 399.548V407.317C181.851 410.05 179.634 412.268 176.901 412.268H159.872C157.139 412.268 154.921 410.05 154.921 407.317V399.548C154.921 397.085 156.723 395.041 159.077 394.662V391.124C159.077 389.234 160.609 387.702 162.499 387.702H174.27C176.16 387.702 177.692 389.234 177.692 391.124V394.662C180.05 395.044 181.848 397.085 181.848 399.548H181.851Z" fill="#7D79A3"/>
<path d="M220.58 399.548V407.317C220.58 410.05 218.362 412.268 215.629 412.268H198.6C195.867 412.268 193.65 410.05 193.65 407.317V399.548C193.65 397.085 195.451 395.041 197.805 394.662V391.124C197.805 389.234 199.337 387.702 201.228 387.702H212.999C214.889 387.702 216.421 389.234 216.421 391.124V394.662C218.778 395.044 220.576 397.085 220.576 399.548H220.58Z" fill="#7D79A3"/>
<path d="M259.308 399.548V407.317C259.308 410.05 257.091 412.268 254.358 412.268H237.329C234.596 412.268 232.378 410.05 232.378 407.317V399.548C232.378 397.085 234.18 395.041 236.534 394.662V391.124C236.534 389.234 238.066 387.702 239.956 387.702H251.727C253.617 387.702 255.149 389.234 255.149 391.124V394.662C257.507 395.044 259.305 397.085 259.305 399.548H259.308Z" fill="#7D79A3"/>
<path d="M298.04 399.548V407.317C298.04 410.05 295.823 412.268 293.09 412.268H276.061C273.328 412.268 271.11 410.05 271.11 407.317V399.548C271.11 397.085 272.912 395.041 275.266 394.662V391.124C275.266 389.234 276.798 387.702 278.688 387.702H290.459C292.349 387.702 293.881 389.234 293.881 391.124V394.662C296.239 395.044 298.037 397.085 298.037 399.548H298.04Z" fill="#7D79A3"/>
<path d="M336.769 399.548V407.317C336.769 410.05 334.551 412.268 331.818 412.268H314.789C312.056 412.268 309.839 410.05 309.839 407.317V399.548C309.839 397.085 311.64 395.041 313.994 394.662V391.124C313.994 389.234 315.526 387.702 317.416 387.702H329.188C331.078 387.702 332.61 389.234 332.61 391.124V394.662C334.967 395.044 336.765 397.085 336.765 399.548H336.769Z" fill="#7D79A3"/>
<path d="M26.9302 360.779V368.547C26.9302 371.28 24.7124 373.498 21.9795 373.498H4.95068C2.21774 373.498 0 371.28 0 368.547V360.779C0 358.315 1.80149 356.271 4.1557 355.893V352.355C4.1557 350.464 5.68765 348.932 7.57785 348.932H19.3489C21.2391 348.932 22.7711 350.464 22.7711 352.355V355.893C25.1287 356.271 26.9268 358.315 26.9268 360.779H26.9302Z" fill="#7D79A3"/>
<path d="M65.6587 360.779V368.547C65.6587 371.28 63.441 373.498 60.708 373.498H43.6792C40.9463 373.498 38.7285 371.28 38.7285 368.547V360.779C38.7285 358.315 40.53 356.271 42.8842 355.893V352.355C42.8842 350.464 44.4162 348.932 46.3064 348.932H58.0774C59.9676 348.932 61.4996 350.464 61.4996 352.355V355.893C63.8572 356.271 65.6553 358.315 65.6553 360.779H65.6587Z" fill="#7D79A3"/>
<path d="M104.391 360.779V368.547C104.391 371.28 102.173 373.498 99.44 373.498H82.4111C79.6782 373.498 77.4604 371.28 77.4604 368.547V360.779C77.4604 358.315 79.2619 356.271 81.6162 355.893V352.355C81.6162 350.464 83.1481 348.932 85.0383 348.932H96.8094C98.6996 348.932 100.232 350.464 100.232 352.355V355.893C102.589 356.271 104.387 358.315 104.387 360.779H104.391Z" fill="#7D79A3"/>
<path d="M143.119 360.779V368.547C143.119 371.28 140.902 373.498 138.169 373.498H121.14C118.407 373.498 116.189 371.28 116.189 368.547V360.779C116.189 358.315 117.991 356.271 120.345 355.893V352.355C120.345 350.464 121.877 348.932 123.767 348.932H135.538C137.428 348.932 138.96 350.464 138.96 352.355V355.893C141.318 356.271 143.116 358.315 143.116 360.779H143.119Z" fill="#7D79A3"/>
<path d="M181.851 360.779V368.547C181.851 371.28 179.634 373.498 176.901 373.498H159.872C157.139 373.498 154.921 371.28 154.921 368.547V360.779C154.921 358.315 156.723 356.271 159.077 355.893V352.355C159.077 350.464 160.609 348.932 162.499 348.932H174.27C176.16 348.932 177.692 350.464 177.692 352.355V355.893C180.05 356.271 181.848 358.315 181.848 360.779H181.851Z" fill="#443D6B"/>
<path d="M220.58 360.779V368.547C220.58 371.28 218.362 373.498 215.629 373.498H198.6C195.867 373.498 193.65 371.28 193.65 368.547V360.779C193.65 358.315 195.451 356.271 197.805 355.893V352.355C197.805 350.464 199.337 348.932 201.228 348.932H212.999C214.889 348.932 216.421 350.464 216.421 352.355V355.893C218.778 356.271 220.576 358.315 220.576 360.779H220.58Z" fill="#443D6B"/>
<path d="M259.308 360.779V368.547C259.308 371.28 257.091 373.498 254.358 373.498H237.329C234.596 373.498 232.378 371.28 232.378 368.547V360.779C232.378 358.315 234.18 356.271 236.534 355.893V352.355C236.534 350.464 238.066 348.932 239.956 348.932H251.727C253.617 348.932 255.149 350.464 255.149 352.355V355.893C257.507 356.271 259.305 358.315 259.305 360.779H259.308Z" fill="#443D6B"/>
<path d="M298.04 360.779V368.547C298.04 371.28 295.823 373.498 293.09 373.498H276.061C273.328 373.498 271.11 371.28 271.11 368.547V360.779C271.11 358.315 272.912 356.271 275.266 355.893V352.355C275.266 350.464 276.798 348.932 278.688 348.932H290.459C292.349 348.932 293.881 350.464 293.881 352.355V355.893C296.239 356.271 298.037 358.315 298.037 360.779H298.04Z" fill="#443D6B"/>
<path d="M336.769 360.779V368.547C336.769 371.28 334.551 373.498 331.818 373.498H314.789C312.056 373.498 309.839 371.28 309.839 368.547V360.779C309.839 358.315 311.64 356.271 313.994 355.893V352.355C313.994 350.464 315.526 348.932 317.416 348.932H329.188C331.078 348.932 332.61 350.464 332.61 352.355V355.893C334.967 356.271 336.765 358.315 336.765 360.779H336.769Z" fill="#443D6B"/>
<path d="M431.241 399.548V407.317C431.241 410.05 429.023 412.268 426.291 412.268H409.262C406.529 412.268 404.311 410.05 404.311 407.317V399.548C404.311 397.085 406.113 395.041 408.467 394.662V391.124C408.467 389.234 409.999 387.702 411.889 387.702H423.66C425.55 387.702 427.082 389.234 427.082 391.124V394.662C429.44 395.044 431.238 397.085 431.238 399.548H431.241Z" fill="#7D79A3"/>
<path d="M469.97 399.548V407.317C469.97 410.05 467.752 412.268 465.019 412.268H447.99C445.257 412.268 443.04 410.05 443.04 407.317V399.548C443.04 397.085 444.841 395.041 447.195 394.662V391.124C447.195 389.234 448.727 387.702 450.617 387.702H462.388C464.279 387.702 465.811 389.234 465.811 391.124V394.662C468.168 395.044 469.966 397.085 469.966 399.548H469.97Z" fill="#7D79A3"/>
<path d="M508.698 399.548V407.317C508.698 410.05 506.48 412.268 503.748 412.268H486.719C483.986 412.268 481.768 410.05 481.768 407.317V399.548C481.768 397.085 483.57 395.041 485.924 394.662V391.124C485.924 389.234 487.456 387.702 489.346 387.702H501.117C503.007 387.702 504.539 389.234 504.539 391.124V394.662C506.897 395.044 508.695 397.085 508.695 399.548H508.698Z" fill="#7D79A3"/>
<path d="M547.43 399.548V407.317C547.43 410.05 545.212 412.268 542.479 412.268H525.451C522.718 412.268 520.5 410.05 520.5 407.317V399.548C520.5 397.085 522.301 395.041 524.656 394.662V391.124C524.656 389.234 526.188 387.702 528.078 387.702H539.849C541.739 387.702 543.271 389.234 543.271 391.124V394.662C545.629 395.044 547.427 397.085 547.427 399.548H547.43Z" fill="#7D79A3"/>
<path d="M586.159 399.548V407.317C586.159 410.05 583.941 412.268 581.208 412.268H564.179C561.447 412.268 559.229 410.05 559.229 407.317V399.548C559.229 397.085 561.03 395.041 563.384 394.662V391.124C563.384 389.234 564.916 387.702 566.807 387.702H578.578C580.468 387.702 582 389.234 582 391.124V394.662C584.357 395.044 586.156 397.085 586.156 399.548H586.159Z" fill="#7D79A3"/>
<path d="M624.891 399.548V407.317C624.891 410.05 622.673 412.268 619.94 412.268H602.911C600.178 412.268 597.961 410.05 597.961 407.317V399.548C597.961 397.085 599.762 395.041 602.116 394.662V391.124C602.116 389.234 603.648 387.702 605.539 387.702H617.31C619.2 387.702 620.732 389.234 620.732 391.124V394.662C623.089 395.044 624.887 397.085 624.887 399.548H624.891Z" fill="#7D79A3"/>
<path d="M663.619 399.548V407.317C663.619 410.05 661.402 412.268 658.669 412.268H641.64C638.907 412.268 636.689 410.05 636.689 407.317V399.548C636.689 397.085 638.491 395.041 640.845 394.662V391.124C640.845 389.234 642.377 387.702 644.267 387.702H656.038C657.928 387.702 659.46 389.234 659.46 391.124V394.662C661.818 395.044 663.616 397.085 663.616 399.548H663.619Z" fill="#7D79A3"/>
<path d="M702.351 399.548V407.317C702.351 410.05 700.134 412.268 697.401 412.268H680.372C677.639 412.268 675.421 410.05 675.421 407.317V399.548C675.421 397.085 677.223 395.041 679.577 394.662V391.124C679.577 389.234 681.109 387.702 682.999 387.702H694.77C696.66 387.702 698.192 389.234 698.192 391.124V394.662C700.55 395.044 702.348 397.085 702.348 399.548H702.351Z" fill="#7D79A3"/>
<path d="M741.08 399.548V407.317C741.08 410.05 738.862 412.268 736.129 412.268H719.101C716.368 412.268 714.15 410.05 714.15 407.317V399.548C714.15 397.085 715.951 395.041 718.306 394.662V391.124C718.306 389.234 719.838 387.702 721.728 387.702H733.499C735.389 387.702 736.921 389.234 736.921 391.124V394.662C739.279 395.044 741.077 397.085 741.077 399.548H741.08Z" fill="#7D79A3"/>
<path d="M431.241 360.779V368.547C431.241 371.28 429.023 373.498 426.291 373.498H409.262C406.529 373.498 404.311 371.28 404.311 368.547V360.779C404.311 358.315 406.113 356.271 408.467 355.893V352.355C408.467 350.464 409.999 348.932 411.889 348.932H423.66C425.55 348.932 427.082 350.464 427.082 352.355V355.893C429.44 356.271 431.238 358.315 431.238 360.779H431.241Z" fill="#443D6B"/>
<path d="M469.97 360.779V368.547C469.97 371.28 467.752 373.498 465.019 373.498H447.99C445.257 373.498 443.04 371.28 443.04 368.547V360.779C443.04 358.315 444.841 356.271 447.195 355.893V352.355C447.195 350.464 448.727 348.932 450.617 348.932H462.388C464.279 348.932 465.811 350.464 465.811 352.355V355.893C468.168 356.271 469.966 358.315 469.966 360.779H469.97Z" fill="#443D6B"/>
<path d="M508.698 360.779V368.547C508.698 371.28 506.48 373.498 503.748 373.498H486.719C483.986 373.498 481.768 371.28 481.768 368.547V360.779C481.768 358.315 483.57 356.271 485.924 355.893V352.355C485.924 350.464 487.456 348.932 489.346 348.932H501.117C503.007 348.932 504.539 350.464 504.539 352.355V355.893C506.897 356.271 508.695 358.315 508.695 360.779H508.698Z" fill="#443D6B"/>
<path d="M547.43 360.779V368.547C547.43 371.28 545.212 373.498 542.479 373.498H525.451C522.718 373.498 520.5 371.28 520.5 368.547V360.779C520.5 358.315 522.301 356.271 524.656 355.893V352.355C524.656 350.464 526.188 348.932 528.078 348.932H539.849C541.739 348.932 543.271 350.464 543.271 352.355V355.893C545.629 356.271 547.427 358.315 547.427 360.779H547.43Z" fill="#7D79A3"/>
<path d="M586.159 360.779V368.547C586.159 371.28 583.941 373.498 581.208 373.498H564.179C561.447 373.498 559.229 371.28 559.229 368.547V360.779C559.229 358.315 561.03 356.271 563.384 355.893V352.355C563.384 350.464 564.916 348.932 566.807 348.932H578.578C580.468 348.932 582 350.464 582 352.355V355.893C584.357 356.271 586.156 358.315 586.156 360.779H586.159Z" fill="#443D6B"/>
<path d="M624.891 360.779V368.547C624.891 371.28 622.673 373.498 619.94 373.498H602.911C600.178 373.498 597.961 371.28 597.961 368.547V360.779C597.961 358.315 599.762 356.271 602.116 355.893V352.355C602.116 350.464 603.648 348.932 605.539 348.932H617.31C619.2 348.932 620.732 350.464 620.732 352.355V355.893C623.089 356.271 624.887 358.315 624.887 360.779H624.891Z" fill="#443D6B"/>
<path d="M663.619 360.779V368.547C663.619 371.28 661.402 373.498 658.669 373.498H641.64C638.907 373.498 636.689 371.28 636.689 368.547V360.779C636.689 358.315 638.491 356.271 640.845 355.893V352.355C640.845 350.464 642.377 348.932 644.267 348.932H656.038C657.928 348.932 659.46 350.464 659.46 352.355V355.893C661.818 356.271 663.616 358.315 663.616 360.779H663.619Z" fill="#443D6B"/>
<path d="M702.351 360.779V368.547C702.351 371.28 700.134 373.498 697.401 373.498H680.372C677.639 373.498 675.421 371.28 675.421 368.547V360.779C675.421 358.315 677.223 356.271 679.577 355.893V352.355C679.577 350.464 681.109 348.932 682.999 348.932H694.77C696.66 348.932 698.192 350.464 698.192 352.355V355.893C700.55 356.271 702.348 358.315 702.348 360.779H702.351Z" fill="#7D79A3"/>
<path d="M741.08 360.779V368.547C741.08 371.28 738.862 373.498 736.129 373.498H719.101C716.368 373.498 714.15 371.28 714.15 368.547V360.779C714.15 358.315 715.951 356.271 718.306 355.893V352.355C718.306 350.464 719.838 348.932 721.728 348.932H733.499C735.389 348.932 736.921 350.464 736.921 352.355V355.893C739.279 356.271 741.077 358.315 741.077 360.779H741.08Z" fill="#7D79A3"/>
<path d="M26.9302 438.321V446.09C26.9302 448.823 24.7124 451.04 21.9795 451.04H4.95068C2.21774 451.04 0 448.823 0 446.09V438.321C0 435.857 1.80149 433.814 4.1557 433.435V429.897C4.1557 428.007 5.68765 426.475 7.57785 426.475H19.3489C21.2391 426.475 22.7711 428.007 22.7711 429.897V433.435C25.1287 433.814 26.9268 435.857 26.9268 438.321H26.9302Z" fill="#7D79A3"/>
<path d="M65.6587 438.321V446.09C65.6587 448.823 63.441 451.04 60.708 451.04H43.6792C40.9463 451.04 38.7285 448.823 38.7285 446.09V438.321C38.7285 435.857 40.53 433.814 42.8842 433.435V429.897C42.8842 428.007 44.4162 426.475 46.3064 426.475H58.0774C59.9676 426.475 61.4996 428.007 61.4996 429.897V433.435C63.8572 433.814 65.6553 435.857 65.6553 438.321H65.6587Z" fill="#7D79A3"/>
<path d="M104.391 438.321V446.09C104.391 448.823 102.173 451.04 99.44 451.04H82.4111C79.6782 451.04 77.4604 448.823 77.4604 446.09V438.321C77.4604 435.857 79.2619 433.814 81.6162 433.435V429.897C81.6162 428.007 83.1481 426.475 85.0383 426.475H96.8094C98.6996 426.475 100.232 428.007 100.232 429.897V433.435C102.589 433.814 104.387 435.857 104.387 438.321H104.391Z" fill="#7D79A3"/>
<path d="M143.119 438.321V446.09C143.119 448.823 140.902 451.04 138.169 451.04H121.14C118.407 451.04 116.189 448.823 116.189 446.09V438.321C116.189 435.857 117.991 433.814 120.345 433.435V429.897C120.345 428.007 121.877 426.475 123.767 426.475H135.538C137.428 426.475 138.96 428.007 138.96 429.897V433.435C141.318 433.814 143.116 435.857 143.116 438.321H143.119Z" fill="#7D79A3"/>
<path d="M181.851 438.321V446.09C181.851 448.823 179.634 451.04 176.901 451.04H159.872C157.139 451.04 154.921 448.823 154.921 446.09V438.321C154.921 435.857 156.723 433.814 159.077 433.435V429.897C159.077 428.007 160.609 426.475 162.499 426.475H174.27C176.16 426.475 177.692 428.007 177.692 429.897V433.435C180.05 433.814 181.848 435.857 181.848 438.321H181.851Z" fill="#7D79A3"/>
<path d="M220.58 438.321V446.09C220.58 448.823 218.362 451.04 215.629 451.04H198.6C195.867 451.04 193.65 448.823 193.65 446.09V438.321C193.65 435.857 195.451 433.814 197.805 433.435V429.897C197.805 428.007 199.337 426.475 201.228 426.475H212.999C214.889 426.475 216.421 428.007 216.421 429.897V433.435C218.778 433.814 220.576 435.857 220.576 438.321H220.58Z" fill="#7D79A3"/>
<path d="M259.308 438.321V446.09C259.308 448.823 257.091 451.04 254.358 451.04H237.329C234.596 451.04 232.378 448.823 232.378 446.09V438.321C232.378 435.857 234.18 433.814 236.534 433.435V429.897C236.534 428.007 238.066 426.475 239.956 426.475H251.727C253.617 426.475 255.149 428.007 255.149 429.897V433.435C257.507 433.814 259.305 435.857 259.305 438.321H259.308Z" fill="#7D79A3"/>
<path d="M298.04 438.321V446.09C298.04 448.823 295.823 451.04 293.09 451.04H276.061C273.328 451.04 271.11 448.823 271.11 446.09V438.321C271.11 435.857 272.912 433.814 275.266 433.435V429.897C275.266 428.007 276.798 426.475 278.688 426.475H290.459C292.349 426.475 293.881 428.007 293.881 429.897V433.435C296.239 433.814 298.037 435.857 298.037 438.321H298.04Z" fill="#7D79A3"/>
<path d="M336.769 438.321V446.09C336.769 448.823 334.551 451.04 331.818 451.04H314.789C312.056 451.04 309.839 448.823 309.839 446.09V438.321C309.839 435.857 311.64 433.814 313.994 433.435V429.897C313.994 428.007 315.526 426.475 317.416 426.475H329.188C331.078 426.475 332.61 428.007 332.61 429.897V433.435C334.967 433.814 336.765 435.857 336.765 438.321H336.769Z" fill="#7D79A3"/>
<path d="M431.241 438.321V446.09C431.241 448.823 429.023 451.04 426.291 451.04H409.262C406.529 451.04 404.311 448.823 404.311 446.09V438.321C404.311 435.857 406.113 433.814 408.467 433.435V429.897C408.467 428.007 409.999 426.475 411.889 426.475H423.66C425.55 426.475 427.082 428.007 427.082 429.897V433.435C429.44 433.814 431.238 435.857 431.238 438.321H431.241Z" fill="#7D79A3"/>
<path d="M469.97 438.321V446.09C469.97 448.823 467.752 451.04 465.019 451.04H447.99C445.257 451.04 443.04 448.823 443.04 446.09V438.321C443.04 435.857 444.841 433.814 447.195 433.435V429.897C447.195 428.007 448.727 426.475 450.617 426.475H462.388C464.279 426.475 465.811 428.007 465.811 429.897V433.435C468.168 433.814 469.966 435.857 469.966 438.321H469.97Z" fill="#7D79A3"/>
<path d="M508.698 438.321V446.09C508.698 448.823 506.48 451.04 503.748 451.04H486.719C483.986 451.04 481.768 448.823 481.768 446.09V438.321C481.768 435.857 483.57 433.814 485.924 433.435V429.897C485.924 428.007 487.456 426.475 489.346 426.475H501.117C503.007 426.475 504.539 428.007 504.539 429.897V433.435C506.897 433.814 508.695 435.857 508.695 438.321H508.698Z" fill="#7D79A3"/>
<path d="M547.43 438.321V446.09C547.43 448.823 545.212 451.04 542.479 451.04H525.451C522.718 451.04 520.5 448.823 520.5 446.09V438.321C520.5 435.857 522.301 433.814 524.656 433.435V429.897C524.656 428.007 526.188 426.475 528.078 426.475H539.849C541.739 426.475 543.271 428.007 543.271 429.897V433.435C545.629 433.814 547.427 435.857 547.427 438.321H547.43Z" fill="#7D79A3"/>
<path d="M586.159 438.321V446.09C586.159 448.823 583.941 451.04 581.208 451.04H564.179C561.447 451.04 559.229 448.823 559.229 446.09V438.321C559.229 435.857 561.03 433.814 563.384 433.435V429.897C563.384 428.007 564.916 426.475 566.807 426.475H578.578C580.468 426.475 582 428.007 582 429.897V433.435C584.357 433.814 586.156 435.857 586.156 438.321H586.159Z" fill="#7D79A3"/>
<path d="M624.891 438.321V446.09C624.891 448.823 622.673 451.04 619.94 451.04H602.911C600.178 451.04 597.961 448.823 597.961 446.09V438.321C597.961 435.857 599.762 433.814 602.116 433.435V429.897C602.116 428.007 603.648 426.475 605.539 426.475H617.31C619.2 426.475 620.732 428.007 620.732 429.897V433.435C623.089 433.814 624.887 435.857 624.887 438.321H624.891Z" fill="#7D79A3"/>
<path d="M663.619 438.321V446.09C663.619 448.823 661.402 451.04 658.669 451.04H641.64C638.907 451.04 636.689 448.823 636.689 446.09V438.321C636.689 435.857 638.491 433.814 640.845 433.435V429.897C640.845 428.007 642.377 426.475 644.267 426.475H656.038C657.928 426.475 659.46 428.007 659.46 429.897V433.435C661.818 433.814 663.616 435.857 663.616 438.321H663.619Z" fill="#7D79A3"/>
<path d="M702.351 438.321V446.09C702.351 448.823 700.134 451.04 697.401 451.04H680.372C677.639 451.04 675.421 448.823 675.421 446.09V438.321C675.421 435.857 677.223 433.814 679.577 433.435V429.897C679.577 428.007 681.109 426.475 682.999 426.475H694.77C696.66 426.475 698.192 428.007 698.192 429.897V433.435C700.55 433.814 702.348 435.857 702.348 438.321H702.351Z" fill="#7D79A3"/>
<path d="M741.08 438.321V446.09C741.08 448.823 738.862 451.04 736.129 451.04H719.101C716.368 451.04 714.15 448.823 714.15 446.09V438.321C714.15 435.857 715.951 433.814 718.306 433.435V429.897C718.306 428.007 719.838 426.475 721.728 426.475H733.499C735.389 426.475 736.921 428.007 736.921 429.897V433.435C739.279 433.814 741.077 435.857 741.077 438.321H741.08Z" fill="#7D79A3"/>
<path d="M431.241 128.158V135.927C431.241 138.66 429.023 140.878 426.291 140.878H409.262C406.529 140.878 404.311 138.66 404.311 135.927V128.158C404.311 125.695 406.113 123.651 408.467 123.272V119.734C408.467 117.844 409.999 116.312 411.889 116.312H423.66C425.55 116.312 427.082 117.844 427.082 119.734V123.272C429.44 123.654 431.238 125.695 431.238 128.158H431.241Z" fill="#443D6B"/>
<path d="M469.97 128.158V135.927C469.97 138.66 467.752 140.878 465.019 140.878H447.99C445.257 140.878 443.04 138.66 443.04 135.927V128.158C443.04 125.695 444.841 123.651 447.195 123.272V119.734C447.195 117.844 448.727 116.312 450.617 116.312H462.388C464.279 116.312 465.811 117.844 465.811 119.734V123.272C468.168 123.654 469.966 125.695 469.966 128.158H469.97Z" fill="#443D6B"/>
<path d="M508.698 128.158V135.927C508.698 138.66 506.48 140.878 503.748 140.878H486.719C483.986 140.878 481.768 138.66 481.768 135.927V128.158C481.768 125.695 483.57 123.651 485.924 123.272V119.734C485.924 117.844 487.456 116.312 489.346 116.312H501.117C503.007 116.312 504.539 117.844 504.539 119.734V123.272C506.897 123.654 508.695 125.695 508.695 128.158H508.698Z" fill="#443D6B"/>
<path d="M547.43 128.158V135.927C547.43 138.66 545.212 140.878 542.479 140.878H525.451C522.718 140.878 520.5 138.66 520.5 135.927V128.158C520.5 125.695 522.301 123.651 524.656 123.272V119.734C524.656 117.844 526.188 116.312 528.078 116.312H539.849C541.739 116.312 543.271 117.844 543.271 119.734V123.272C545.629 123.654 547.427 125.695 547.427 128.158H547.43Z" fill="#443D6B"/>
<path d="M586.159 128.158V135.927C586.159 138.66 583.941 140.878 581.208 140.878H564.179C561.447 140.878 559.229 138.66 559.229 135.927V128.158C559.229 125.695 561.03 123.651 563.384 123.272V119.734C563.384 117.844 564.916 116.312 566.807 116.312H578.578C580.468 116.312 582 117.844 582 119.734V123.272C584.357 123.654 586.156 125.695 586.156 128.158H586.159Z" fill="#443D6B"/>
<path d="M624.891 128.158V135.927C624.891 138.66 622.673 140.878 619.94 140.878H602.911C600.178 140.878 597.961 138.66 597.961 135.927V128.158C597.961 125.695 599.762 123.651 602.116 123.272V119.734C602.116 117.844 603.648 116.312 605.539 116.312H617.31C619.2 116.312 620.732 117.844 620.732 119.734V123.272C623.089 123.654 624.887 125.695 624.887 128.158H624.891Z" fill="#7D79A3"/>
<path d="M663.619 128.158V135.927C663.619 138.66 661.402 140.878 658.669 140.878H641.64C638.907 140.878 636.689 138.66 636.689 135.927V128.158C636.689 125.695 638.491 123.651 640.845 123.272V119.734C640.845 117.844 642.377 116.312 644.267 116.312H656.038C657.928 116.312 659.46 117.844 659.46 119.734V123.272C661.818 123.654 663.616 125.695 663.616 128.158H663.619Z" fill="#7D79A3"/>
<path d="M702.351 128.158V135.927C702.351 138.66 700.134 140.878 697.401 140.878H680.372C677.639 140.878 675.421 138.66 675.421 135.927V128.158C675.421 125.695 677.223 123.651 679.577 123.272V119.734C679.577 117.844 681.109 116.312 682.999 116.312H694.77C696.66 116.312 698.192 117.844 698.192 119.734V123.272C700.55 123.654 702.348 125.695 702.348 128.158H702.351Z" fill="#7D79A3"/>
<path d="M741.08 128.158V135.927C741.08 138.66 738.862 140.878 736.129 140.878H719.101C716.368 140.878 714.15 138.66 714.15 135.927V128.158C714.15 125.695 715.951 123.651 718.306 123.272V119.734C718.306 117.844 719.838 116.312 721.728 116.312H733.499C735.389 116.312 736.921 117.844 736.921 119.734V123.272C739.279 123.654 741.077 125.695 741.077 128.158H741.08Z" fill="#7D79A3"/>
<path d="M431.241 89.3886V97.1575C431.241 99.8905 429.023 102.108 426.291 102.108H409.262C406.529 102.108 404.311 99.8905 404.311 97.1575V89.3886C404.311 86.9252 406.113 84.8815 408.467 84.5028V80.9646C408.467 79.0744 409.999 77.5425 411.889 77.5425H423.66C425.55 77.5425 427.082 79.0744 427.082 80.9646V84.5028C429.44 84.8815 431.238 86.9252 431.238 89.3886H431.241Z" fill="#443D6B"/>
<path d="M469.97 89.3886V97.1575C469.97 99.8905 467.752 102.108 465.019 102.108H447.99C445.257 102.108 443.04 99.8905 443.04 97.1575V89.3886C443.04 86.9252 444.841 84.8815 447.195 84.5028V80.9646C447.195 79.0744 448.727 77.5425 450.617 77.5425H462.388C464.279 77.5425 465.811 79.0744 465.811 80.9646V84.5028C468.168 84.8815 469.966 86.9252 469.966 89.3886H469.97Z" fill="#443D6B"/>
<path d="M508.698 89.3886V97.1575C508.698 99.8905 506.48 102.108 503.748 102.108H486.719C483.986 102.108 481.768 99.8905 481.768 97.1575V89.3886C481.768 86.9252 483.57 84.8815 485.924 84.5028V80.9646C485.924 79.0744 487.456 77.5425 489.346 77.5425H501.117C503.007 77.5425 504.539 79.0744 504.539 80.9646V84.5028C506.897 84.8815 508.695 86.9252 508.695 89.3886H508.698Z" fill="#443D6B"/>
<path d="M547.43 89.3886V97.1575C547.43 99.8905 545.212 102.108 542.479 102.108H525.451C522.718 102.108 520.5 99.8905 520.5 97.1575V89.3886C520.5 86.9252 522.301 84.8815 524.656 84.5028V80.9646C524.656 79.0744 526.188 77.5425 528.078 77.5425H539.849C541.739 77.5425 543.271 79.0744 543.271 80.9646V84.5028C545.629 84.8815 547.427 86.9252 547.427 89.3886H547.43Z" fill="#443D6B"/>
<path d="M586.159 89.3886V97.1575C586.159 99.8905 583.941 102.108 581.208 102.108H564.179C561.447 102.108 559.229 99.8905 559.229 97.1575V89.3886C559.229 86.9252 561.03 84.8815 563.384 84.5028V80.9646C563.384 79.0744 564.916 77.5425 566.807 77.5425H578.578C580.468 77.5425 582 79.0744 582 80.9646V84.5028C584.357 84.8815 586.156 86.9252 586.156 89.3886H586.159Z" fill="#7D79A3"/>
<path d="M624.891 89.3886V97.1575C624.891 99.8905 622.673 102.108 619.94 102.108H602.911C600.178 102.108 597.961 99.8905 597.961 97.1575V89.3886C597.961 86.9252 599.762 84.8815 602.116 84.5028V80.9646C602.116 79.0744 603.648 77.5425 605.539 77.5425H617.31C619.2 77.5425 620.732 79.0744 620.732 80.9646V84.5028C623.089 84.8815 624.887 86.9252 624.887 89.3886H624.891Z" fill="#7D79A3"/>
<path d="M663.619 89.3886V97.1575C663.619 99.8905 661.402 102.108 658.669 102.108H641.64C638.907 102.108 636.689 99.8905 636.689 97.1575V89.3886C636.689 86.9252 638.491 84.8815 640.845 84.5028V80.9646C640.845 79.0744 642.377 77.5425 644.267 77.5425H656.038C657.928 77.5425 659.46 79.0744 659.46 80.9646V84.5028C661.818 84.8815 663.616 86.9252 663.616 89.3886H663.619Z" fill="#7D79A3"/>
<path d="M702.351 89.3886V97.1575C702.351 99.8905 700.134 102.108 697.401 102.108H680.372C677.639 102.108 675.421 99.8905 675.421 97.1575V89.3886C675.421 86.9252 677.223 84.8815 679.577 84.5028V80.9646C679.577 79.0744 681.109 77.5425 682.999 77.5425H694.77C696.66 77.5425 698.192 79.0744 698.192 80.9646V84.5028C700.55 84.8815 702.348 86.9252 702.348 89.3886H702.351Z" fill="#7D79A3"/>
<path d="M741.08 89.3886V97.1575C741.08 99.8905 738.862 102.108 736.129 102.108H719.101C716.368 102.108 714.15 99.8905 714.15 97.1575V89.3886C714.15 86.9252 715.951 84.8815 718.306 84.5028V80.9646C718.306 79.0744 719.838 77.5425 721.728 77.5425H733.499C735.389 77.5425 736.921 79.0744 736.921 80.9646V84.5028C739.279 84.8815 741.077 86.9252 741.077 89.3886H741.08Z" fill="#7D79A3"/>
<path d="M431.241 50.6157V58.3846C431.241 61.1175 429.023 63.3353 426.291 63.3353H409.262C406.529 63.3353 404.311 61.1175 404.311 58.3846V50.6157C404.311 48.1523 406.113 46.1085 408.467 45.7298V42.1917C408.467 40.3015 409.999 38.7695 411.889 38.7695H423.66C425.55 38.7695 427.082 40.3015 427.082 42.1917V45.7298C429.44 46.112 431.238 48.1523 431.238 50.6157H431.241Z" fill="#7D79A3"/>
<path d="M469.97 50.6157V58.3846C469.97 61.1175 467.752 63.3353 465.019 63.3353H447.99C445.257 63.3353 443.04 61.1175 443.04 58.3846V50.6157C443.04 48.1523 444.841 46.1085 447.195 45.7298V42.1917C447.195 40.3015 448.727 38.7695 450.617 38.7695H462.388C464.279 38.7695 465.811 40.3015 465.811 42.1917V45.7298C468.168 46.112 469.966 48.1523 469.966 50.6157H469.97Z" fill="#7D79A3"/>
<path d="M508.698 50.6157V58.3846C508.698 61.1175 506.48 63.3353 503.748 63.3353H486.719C483.986 63.3353 481.768 61.1175 481.768 58.3846V50.6157C481.768 48.1523 483.57 46.1085 485.924 45.7298V42.1917C485.924 40.3015 487.456 38.7695 489.346 38.7695H501.117C503.007 38.7695 504.539 40.3015 504.539 42.1917V45.7298C506.897 46.112 508.695 48.1523 508.695 50.6157H508.698Z" fill="#7D79A3"/>
<path d="M547.43 50.6157V58.3846C547.43 61.1175 545.212 63.3353 542.479 63.3353H525.451C522.718 63.3353 520.5 61.1175 520.5 58.3846V50.6157C520.5 48.1523 522.301 46.1085 524.656 45.7298V42.1917C524.656 40.3015 526.188 38.7695 528.078 38.7695H539.849C541.739 38.7695 543.271 40.3015 543.271 42.1917V45.7298C545.629 46.112 547.427 48.1523 547.427 50.6157H547.43Z" fill="#7D79A3"/>
<path d="M586.159 50.6157V58.3846C586.159 61.1175 583.941 63.3353 581.208 63.3353H564.179C561.447 63.3353 559.229 61.1175 559.229 58.3846V50.6157C559.229 48.1523 561.03 46.1085 563.384 45.7298V42.1917C563.384 40.3015 564.916 38.7695 566.807 38.7695H578.578C580.468 38.7695 582 40.3015 582 42.1917V45.7298C584.357 46.112 586.156 48.1523 586.156 50.6157H586.159Z" fill="#7D79A3"/>
<path d="M624.891 50.6157V58.3846C624.891 61.1175 622.673 63.3353 619.94 63.3353H602.911C600.178 63.3353 597.961 61.1175 597.961 58.3846V50.6157C597.961 48.1523 599.762 46.1085 602.116 45.7298V42.1917C602.116 40.3015 603.648 38.7695 605.539 38.7695H617.31C619.2 38.7695 620.732 40.3015 620.732 42.1917V45.7298C623.089 46.112 624.887 48.1523 624.887 50.6157H624.891Z" fill="#7D79A3"/>
<path d="M663.619 50.6157V58.3846C663.619 61.1175 661.402 63.3353 658.669 63.3353H641.64C638.907 63.3353 636.689 61.1175 636.689 58.3846V50.6157C636.689 48.1523 638.491 46.1085 640.845 45.7298V42.1917C640.845 40.3015 642.377 38.7695 644.267 38.7695H656.038C657.928 38.7695 659.46 40.3015 659.46 42.1917V45.7298C661.818 46.112 663.616 48.1523 663.616 50.6157H663.619Z" fill="#7D79A3"/>
<path d="M702.351 50.6157V58.3846C702.351 61.1175 700.134 63.3353 697.401 63.3353H680.372C677.639 63.3353 675.421 61.1175 675.421 58.3846V50.6157C675.421 48.1523 677.223 46.1085 679.577 45.7298V42.1917C679.577 40.3015 681.109 38.7695 682.999 38.7695H694.77C696.66 38.7695 698.192 40.3015 698.192 42.1917V45.7298C700.55 46.112 702.348 48.1523 702.348 50.6157H702.351Z" fill="#7D79A3"/>
<path d="M741.08 50.6157V58.3846C741.08 61.1175 738.862 63.3353 736.129 63.3353H719.101C716.368 63.3353 714.15 61.1175 714.15 58.3846V50.6157C714.15 48.1523 715.951 46.1085 718.306 45.7298V42.1917C718.306 40.3015 719.838 38.7695 721.728 38.7695H733.499C735.389 38.7695 736.921 40.3015 736.921 42.1917V45.7298C739.279 46.112 741.077 48.1523 741.077 50.6157H741.08Z" fill="#7D79A3"/>
<path d="M431.241 11.8461V19.6151C431.241 22.348 429.023 24.5657 426.291 24.5657H409.262C406.529 24.5657 404.311 22.348 404.311 19.6151V11.8461C404.311 9.38274 406.113 7.33901 408.467 6.96029V3.42214C408.467 1.53195 409.999 0 411.889 0H423.66C425.55 0 427.082 1.53195 427.082 3.42214V6.96029C429.44 7.34242 431.238 9.38274 431.238 11.8461H431.241Z" fill="#7D79A3"/>
<path d="M469.97 11.8461V19.6151C469.97 22.348 467.752 24.5657 465.019 24.5657H447.99C445.257 24.5657 443.04 22.348 443.04 19.6151V11.8461C443.04 9.38274 444.841 7.33901 447.195 6.96029V3.42214C447.195 1.53195 448.727 0 450.617 0H462.388C464.279 0 465.811 1.53195 465.811 3.42214V6.96029C468.168 7.34242 469.966 9.38274 469.966 11.8461H469.97Z" fill="#7D79A3"/>
<path d="M508.698 11.8461V19.6151C508.698 22.348 506.48 24.5657 503.748 24.5657H486.719C483.986 24.5657 481.768 22.348 481.768 19.6151V11.8461C481.768 9.38274 483.57 7.33901 485.924 6.96029V3.42214C485.924 1.53195 487.456 0 489.346 0H501.117C503.007 0 504.539 1.53195 504.539 3.42214V6.96029C506.897 7.34242 508.695 9.38274 508.695 11.8461H508.698Z" fill="#7D79A3"/>
<path d="M547.43 11.8461V19.6151C547.43 22.348 545.212 24.5657 542.479 24.5657H525.451C522.718 24.5657 520.5 22.348 520.5 19.6151V11.8461C520.5 9.38274 522.301 7.33901 524.656 6.96029V3.42214C524.656 1.53195 526.188 0 528.078 0H539.849C541.739 0 543.271 1.53195 543.271 3.42214V6.96029C545.629 7.34242 547.427 9.38274 547.427 11.8461H547.43Z" fill="#7D79A3"/>
<path d="M586.159 11.8461V19.6151C586.159 22.348 583.941 24.5657 581.208 24.5657H564.179C561.447 24.5657 559.229 22.348 559.229 19.6151V11.8461C559.229 9.38274 561.03 7.33901 563.384 6.96029V3.42214C563.384 1.53195 564.916 0 566.807 0H578.578C580.468 0 582 1.53195 582 3.42214V6.96029C584.357 7.34242 586.156 9.38274 586.156 11.8461H586.159Z" fill="#7D79A3"/>
<path d="M624.891 11.8461V19.6151C624.891 22.348 622.673 24.5657 619.94 24.5657H602.911C600.178 24.5657 597.961 22.348 597.961 19.6151V11.8461C597.961 9.38274 599.762 7.33901 602.116 6.96029V3.42214C602.116 1.53195 603.648 0 605.539 0H617.31C619.2 0 620.732 1.53195 620.732 3.42214V6.96029C623.089 7.34242 624.887 9.38274 624.887 11.8461H624.891Z" fill="#7D79A3"/>
<path d="M663.619 11.8461V19.6151C663.619 22.348 661.402 24.5657 658.669 24.5657H641.64C638.907 24.5657 636.689 22.348 636.689 19.6151V11.8461C636.689 9.38274 638.491 7.33901 640.845 6.96029V3.42214C640.845 1.53195 642.377 0 644.267 0H656.038C657.928 0 659.46 1.53195 659.46 3.42214V6.96029C661.818 7.34242 663.616 9.38274 663.616 11.8461H663.619Z" fill="#7D79A3"/>
<path d="M702.351 11.8461V19.6151C702.351 22.348 700.134 24.5657 697.401 24.5657H680.372C677.639 24.5657 675.421 22.348 675.421 19.6151V11.8461C675.421 9.38274 677.223 7.33901 679.577 6.96029V3.42214C679.577 1.53195 681.109 0 682.999 0H694.77C696.66 0 698.192 1.53195 698.192 3.42214V6.96029C700.55 7.34242 702.348 9.38274 702.348 11.8461H702.351Z" fill="#7D79A3"/>
<path d="M741.08 11.8461V19.6151C741.08 22.348 738.862 24.5657 736.129 24.5657H719.101C716.368 24.5657 714.15 22.348 714.15 19.6151V11.8461C714.15 9.38274 715.951 7.33901 718.306 6.96029V3.42214C718.306 1.53195 719.838 0 721.728 0H733.499C735.389 0 736.921 1.53195 736.921 3.42214V6.96029C739.279 7.34242 741.077 9.38274 741.077 11.8461H741.08Z" fill="#7D79A3"/>
<path d="M773.466 8.8607H773.432L771.425 9.94227L771.125 8.75493L773.643 7.40723H774.974V18.9395H773.466V8.8607ZM770.074 57.8318V56.8731L771.299 55.6857C774.244 52.8811 775.574 51.3935 775.591 49.6535C775.591 48.4832 775.025 47.4016 773.302 47.4016C772.254 47.4016 771.384 47.9339 770.852 48.3774L770.354 47.2788C771.152 46.6032 772.289 46.1085 773.619 46.1085C776.103 46.1085 777.151 47.811 777.151 49.4624C777.151 51.5914 775.608 53.311 773.176 55.655L772.254 56.508V56.5421H777.434V57.8386H770.071L770.074 57.8318ZM770.45 93.9127C770.893 94.1959 771.924 94.6395 773.005 94.6395C775.011 94.6395 775.632 93.3634 775.612 92.4047C775.595 90.7908 774.138 90.0982 772.63 90.0982H771.76V88.9279H772.63C773.766 88.9279 775.202 88.3411 775.202 86.9763C775.202 86.0551 774.616 85.2363 773.179 85.2363C772.258 85.2363 771.371 85.6457 770.873 86.0005L770.463 84.8643C771.067 84.4208 772.237 83.9773 773.479 83.9773C775.752 83.9773 776.779 85.325 776.779 86.7272C776.779 87.9146 776.069 88.9279 774.65 89.4431V89.4772C776.069 89.7604 777.222 90.825 777.222 92.4388C777.222 94.2846 775.786 95.8985 773.019 95.8985C771.722 95.8985 770.59 95.489 770.02 95.1171L770.446 93.9093L770.45 93.9127ZM774.902 134.259V131.12H769.545V130.089L774.691 122.726H776.376V129.895H777.99V131.12H776.376V134.259H774.902ZM774.902 129.895V126.046C774.902 125.442 774.919 124.838 774.957 124.238H774.902C774.547 124.913 774.264 125.408 773.943 125.94L771.122 129.861V129.895H774.902ZM776.959 201.49H772.558L772.115 204.452C772.381 204.418 772.63 204.38 773.056 204.38C773.943 204.38 774.83 204.575 775.54 205.001C776.444 205.516 777.191 206.509 777.191 207.963C777.191 210.214 775.4 211.9 772.899 211.9C771.64 211.9 770.576 211.545 770.026 211.19L770.415 210.003C770.893 210.286 771.835 210.641 772.882 210.641C774.356 210.641 775.615 209.682 775.615 208.14C775.598 206.649 774.605 205.584 772.299 205.584C771.644 205.584 771.129 205.656 770.702 205.707L771.446 200.173H776.963V201.487L776.959 201.49ZM776.659 242.221C776.339 242.204 775.932 242.222 775.489 242.293C773.039 242.703 771.746 244.494 771.48 246.391H771.535C772.084 245.664 773.043 245.06 774.319 245.06C776.359 245.06 777.795 246.534 777.795 248.786C777.795 250.898 776.359 252.85 773.964 252.85C771.569 252.85 769.883 250.932 769.883 247.936C769.883 245.664 770.699 243.873 771.835 242.737C772.794 241.795 774.07 241.212 775.526 241.034C775.987 240.963 776.379 240.945 776.663 240.945V242.221H776.659ZM776.216 248.875C776.216 247.223 775.274 246.23 773.838 246.23C772.896 246.23 772.029 246.817 771.603 247.65C771.497 247.827 771.425 248.059 771.425 248.342C771.459 250.239 772.33 251.642 773.964 251.642C775.312 251.642 776.216 250.523 776.216 248.875ZM777.563 279.674V280.704L772.541 291.21H770.927L775.932 281.008V280.974H770.289V279.677H777.563V279.674ZM769.934 324.445C769.934 322.992 770.804 321.961 772.224 321.357L772.207 321.303C770.931 320.699 770.378 319.706 770.378 318.713C770.378 316.884 771.92 315.642 773.943 315.642C776.178 315.642 777.297 317.045 777.297 318.481C777.297 319.457 776.82 320.504 775.4 321.176V321.231C776.837 321.797 777.724 322.811 777.724 324.213C777.724 326.219 776.004 327.567 773.803 327.567C771.391 327.567 769.934 326.131 769.934 324.445ZM776.144 324.377C776.144 322.975 775.168 322.302 773.606 321.859C772.258 322.248 771.531 323.135 771.531 324.237C771.477 325.407 772.364 326.438 773.838 326.438C775.312 326.438 776.144 325.568 776.144 324.38V324.377ZM771.848 318.607C771.848 319.76 772.718 320.381 774.049 320.736C775.042 320.399 775.806 319.689 775.806 318.641C775.806 317.72 775.257 316.761 773.855 316.761C772.558 316.761 771.848 317.614 771.848 318.607ZM770.982 365.852C771.32 365.886 771.709 365.852 772.241 365.797C773.145 365.675 773.998 365.299 774.653 364.678C775.417 363.986 775.967 362.976 776.178 361.608H776.124C775.486 362.389 774.561 362.849 773.408 362.849C771.333 362.849 770.003 361.287 770.003 359.318C770.003 357.135 771.582 355.22 773.94 355.22C776.298 355.22 777.754 357.138 777.754 360.082C777.754 362.621 776.901 364.395 775.769 365.494C774.882 366.364 773.657 366.896 772.415 367.036C771.848 367.125 771.35 367.142 770.978 367.125V365.849L770.982 365.852ZM771.548 359.216C771.548 360.652 772.418 361.666 773.766 361.666C774.813 361.666 775.629 361.15 776.038 360.458C776.127 360.314 776.182 360.137 776.182 359.891C776.182 357.923 775.455 356.415 773.821 356.415C772.49 356.415 771.548 357.585 771.548 359.219V359.216ZM773.466 396.112H773.432L771.425 397.194L771.125 396.006L773.643 394.659H774.974V406.191H773.466V396.112ZM786.84 400.299C786.84 404.219 785.387 406.385 782.831 406.385C780.579 406.385 779.051 404.273 779.017 400.459C779.017 396.59 780.685 394.461 783.026 394.461C785.366 394.461 786.84 396.624 786.84 400.299ZM780.58 400.476C780.58 403.475 781.501 405.178 782.92 405.178C784.517 405.178 785.281 403.315 785.281 400.37C785.281 397.426 784.554 395.669 782.941 395.669C781.576 395.669 780.58 397.337 780.58 400.476ZM773.466 435.69H773.432L771.425 436.772L771.125 435.585L773.643 434.237H774.974V445.769H773.466V435.69ZM782.565 435.69H782.531L780.525 436.772L780.225 435.585L782.743 434.237H784.073V445.769H782.565V435.69Z" fill="#7D79A3"/>
</g>
</g>
<defs>
<clipPath id="clip0_83_458">
<rect width="786.84" height="451.04" fill="white"/>
</clipPath>
</defs>
</svg>
