<svg width="101" height="100" viewBox="0 0 101 100" fill="none" xmlns="http://www.w3.org/2000/svg">
<path d="M100.016 50.2615C100.016 77.7074 77.7741 99.9493 50.3282 99.9493C22.8822 99.9493 0.607178 77.7074 0.607178 50.2615C0.607178 22.8155 22.849 0.573608 50.3282 0.573608C77.8073 0.573608 100.016 22.8155 100.016 50.2615Z" fill="#1D428A"/>
<path d="M82.8452 17.7439C74.1606 9.05935 62.5921 4.28613 50.3276 4.28613C38.0631 4.28613 26.5279 9.05935 17.8101 17.7439C9.12551 26.4285 4.35229 37.997 4.35229 50.2615C4.35229 62.526 9.12551 74.0612 17.8101 82.779C26.4947 91.4636 38.0631 96.2368 50.3276 96.2368C62.5921 96.2368 74.1274 91.4636 82.8452 82.779C91.5298 74.0944 96.303 62.526 96.303 50.2615C96.303 37.997 91.4966 26.4617 82.8452 17.7439ZM19.5338 19.5008C27.7543 11.2802 38.6598 6.73903 50.2945 6.73903C61.896 6.73903 72.8347 11.2802 81.0552 19.5008C89.2757 27.7213 93.8169 38.6268 93.8169 50.2615C93.8169 56.5263 92.5242 62.5591 90.0381 68.0947C84.7677 66.3048 79.5967 64.3159 74.492 62.0288C73.8291 61.7304 73.1661 61.4321 72.47 61.1338L70.4812 60.2057L69.4868 59.7416L68.4924 59.2775L66.5035 58.2831C65.8737 57.9517 65.2108 57.6202 64.5478 57.2556L63.5866 56.7583C63.2551 56.5926 62.9568 56.3937 62.6253 56.228L60.7027 55.1673L58.8133 54.0403C53.7749 51.0902 48.9023 47.7754 44.328 44.1624C42.0408 42.3393 39.8199 40.4167 37.6985 38.4279C36.6378 37.4003 35.6102 36.3727 34.6158 35.3452C34.3506 35.08 34.1186 34.8148 33.8866 34.5496C33.6214 34.2845 33.4225 34.0193 33.1573 33.721C32.8921 33.4226 32.6933 33.1906 32.4612 32.8923L32.4281 32.8591C32.3286 29.677 32.2955 27.7544 32.2955 27.7544L30.1409 27.2572V30.1742H28.2847V27.0915L25.9643 27.6219L25.9975 28.7489L24.9036 29.3455C24.9368 30.2736 24.9699 31.4338 24.9699 32.8923C24.075 34.4171 14.4622 51.0902 7.23611 56.1948C7.03723 54.2723 6.87149 52.2835 6.87149 50.2615C6.83834 38.6599 11.3464 27.7213 19.5338 19.5008ZM76.6798 71.6083L72.1717 71.7741L68.5255 62.2939L69.2216 62.6586L71.2436 63.653C71.9065 63.9845 72.5695 64.2828 73.2656 64.6143C73.4645 64.7137 73.6634 64.8131 73.8291 64.8794L76.6798 71.6083ZM75.5859 65.675C77.409 66.5037 79.2321 67.2992 81.0221 68.0284L82.5137 71.3763L78.0057 71.5421L75.5859 65.675ZM70.8458 71.8072L66.2715 71.973L61.4983 58.4489C61.7966 58.6146 62.0949 58.8135 62.3933 58.9461L63.3877 59.4764C64.0175 59.841 64.6804 60.2057 65.3434 60.5703L66.835 61.3658L70.8458 71.8072ZM64.9125 72.0061L60.8353 72.1387L54.8688 54.3717C55.7969 54.9684 56.6919 55.565 57.62 56.1285L59.5426 57.3218L59.8078 57.4876L64.9125 72.0061ZM59.4763 72.1719L55.2003 72.3376L48.1068 49.6648C49.731 50.8913 51.3883 52.0514 53.0789 53.2116L59.4763 72.1719ZM53.8081 72.3707L49.6978 72.5033L41.3116 44.1955C41.9082 44.6927 42.5049 45.2231 43.1015 45.7203C44.1622 46.6153 45.2229 47.4771 46.3168 48.3058L53.8081 72.3707ZM48.3719 72.5696L43.7976 72.7354L33.7871 36.9031C34.6821 37.8644 35.5771 38.8256 36.5052 39.7538C37.4665 40.715 38.494 41.6763 39.4553 42.6044L48.3719 72.5696ZM42.4717 72.7685L38.5272 72.9011L33.0247 51.8525C32.859 46.4164 32.6933 41.4111 32.5938 37.3672L42.4717 72.7685ZM37.2013 72.9011L33.7871 73.0337C33.5551 68.0284 33.3562 62.758 33.2236 57.6533L37.2013 72.9011ZM85.4306 75.9506C85.1323 76.3816 84.834 76.7462 84.5357 77.144L33.986 76.1495L33.9529 75.6855L85.4306 75.9506ZM83.939 71.3432L82.7789 68.7577C84.7014 69.5201 86.624 70.2493 88.5796 70.9785C88.5465 71.0448 88.4802 71.1443 88.4471 71.2106L83.939 71.3432ZM30.1741 39.5549V42.2398H28.1189V44.7259H30.1741V47.4108H28.1189V49.8969H30.1741V54.9021H28.1189V57.3881H30.1741V62.5591H28.1189V65.0452H30.1741V73.1663L28.2847 73.2326V35.3783H30.1409V37.0688H28.0858V39.5549H30.1741ZM10.6171 68.1279L16.2853 49.035C18.5725 45.9855 21.0917 42.1404 23.7435 37.3672L13.6004 73.6635C12.4734 71.8735 11.479 70.0173 10.6171 68.1279ZM9.8216 66.2385C8.82718 63.6861 8.06479 61.0675 7.56758 58.3494C9.15866 57.0898 11.4127 55.0015 14.1308 51.7531L9.8216 66.2385ZM24.9699 37.8312C24.9699 41.6432 24.9036 46.3169 24.8042 51.2559L18.9703 73.5309L14.9263 73.6635L24.9699 37.8312ZM24.6716 56.8578C24.5059 62.3602 24.307 68.0947 24.0418 73.3652L20.2962 73.4977L24.6716 56.8578ZM16.9151 78.1715L23.7435 78.4367C23.6109 80.525 23.4452 82.547 23.3126 84.4032C22.0198 83.3425 20.7271 82.2486 19.5669 81.0553C18.6388 80.1272 17.7438 79.1659 16.9151 78.1715ZM50.3276 93.7508C44.8915 93.7508 39.6542 92.7563 34.7484 90.8669C34.5495 87.9168 34.3506 84.3369 34.1849 80.4255L30.2404 79.0996V88.8118C29.6106 88.4803 28.9808 88.1489 28.351 87.7511V78.5361L30.2404 78.6024V78.6687H32.2955L35.9748 78.8013L81.7513 80.4255C81.5524 80.6244 81.3867 80.8233 81.2209 80.989C72.8678 89.2427 61.9292 93.7508 50.3276 93.7508Z" fill="#FDB927"/>
</svg>
