<svg width="115" height="81" viewBox="0 0 115 81" fill="none" xmlns="http://www.w3.org/2000/svg">
<path d="M102.796 38.8749C102.195 38.571 102.27 38.0286 102.703 37.7069C107.815 33.9247 111.265 29.0714 111.265 21.5803C111.265 12.7102 104.912 0.260864 80.071 0.260864H16.0387L1.53625 25.4867H12.1853C13.3749 25.4867 14.3352 26.4456 14.3352 27.6294V52.8116C14.3352 53.9955 13.3749 54.9563 12.1853 54.9563H0.765625L15.422 80.0914L83.1061 80.0837C104.95 80.0837 114.393 68.7059 114.393 56.4934C114.393 48.4045 108.641 41.8504 102.796 38.8752" fill="#FFFFFE"/>
<path d="M64.8697 34.6036H54.351V24.4945C54.3609 23.4349 55.2203 22.5808 56.2835 22.5808H64.8694C69.9083 22.5808 71.7798 25.1456 71.7798 28.4938C71.7798 32.0449 69.9085 34.6039 64.8694 34.6039L64.8697 34.6036ZM64.8697 57.8603H56.2838C55.2167 57.8603 54.3512 56.9981 54.3512 55.9327V45.8391H64.8699C69.9088 45.8391 71.7804 48.3052 71.7804 51.754C71.7804 55.2994 69.9091 57.8603 64.8699 57.8603H64.8697ZM94.892 39.4451C94.1214 39.2634 94.2478 38.3206 94.811 38.1093C101.755 35.4854 105.808 30.8134 105.808 22.5805C105.905 11.5422 96.1349 3.95624 80.2453 3.95624H20.0268L9.46069 22.5925H16.7327C18.1714 22.5925 19.3333 23.7524 19.3333 25.1869V55.258C19.3333 56.6923 18.1714 57.8525 16.7327 57.8525H9.54195L20.1871 76.3961L83.1068 76.3883C101.071 76.3883 108.474 64.4659 108.474 55.6943C108.474 47.986 102.782 41.3313 94.892 39.4453V39.4451Z" fill="#FB4F14"/>
<path d="M40.5127 71.1323C29.3478 50.1778 26.4134 26.0865 30.573 3.95624H20.0268L9.46069 22.5925H16.7327C18.1714 22.5925 19.3333 23.7524 19.3333 25.1869V48.2603C24.7515 57.0397 32.5987 65.4484 40.5127 71.1323ZM93.1688 6.02992C80.3895 24.9523 73.4655 49.0692 76.5738 71.0358C80.3818 52.5574 90.3154 35.4915 105.788 23.1293C105.792 22.9457 105.808 22.7683 105.808 22.5808C105.873 14.9733 101.253 9.00317 93.1688 6.02992ZM71.7462 3.95651C69.7424 9.19673 67.638 15.5198 65.8674 22.6182C65.5513 22.5947 65.2174 22.5808 64.8694 22.5808H56.2835C55.2203 22.5808 54.3607 23.4352 54.351 24.4945V34.6036H63.3816C62.7849 38.228 62.3027 41.9824 61.9827 45.8394H54.351V55.933C54.351 56.9984 55.2164 57.8605 56.2835 57.8605H61.5556C61.6346 63.9116 62.174 70.1202 63.3084 76.3883H55.4596C49.2666 61.4572 40.7439 36.1959 49.2211 3.95651H71.7462Z" fill="black"/>
</svg>
