<svg width="102" height="94" viewBox="0 0 102 94" fill="none" xmlns="http://www.w3.org/2000/svg">
<path d="M75.1907 16.5706C96.9475 33.1391 80.3904 35.6194 63.3995 38.0391C63.3995 38.0391 56.2297 36.0599 43.8056 29.8841C15.6283 15.8798 24.4995 9.28086 46.6449 5.28813C11.2016 -10.1633 -18.3393 16.7389 14.2493 42.8987L5.30686 49.2955C12.6524 53.8017 27.8722 63.2546 25.661 77.7302L18.1072 83.1328L41.1763 93.5938L59.3799 85.3392C59.512 77.3225 73.8299 73.1587 79.9906 56.8516C113.904 49.0653 105.266 19.213 75.1904 16.5708" fill="#FFFFFE"/>
<path d="M48.9597 66.0624L42.4196 58.6185L34.9109 59.7389L38.3814 54.0174L31.8429 46.5688L40.5288 50.4806L43.9916 44.7577L45.8854 52.8941L54.5696 56.7997L47.0577 57.923L48.9594 66.0624H48.9597ZM59.6886 39.5667C17.1177 23.1133 14.2987 9.61506 40.8709 4.95018C7.63897 -4.08559 -11.7449 20.0155 21.1358 42.9992L12.313 49.3104C21.6815 55.5733 31.6097 64.8502 28.2417 79.4487L23.7961 82.6245L40.8707 90.3703C56.7606 72.9538 65.0716 56.0322 59.6884 39.5667H59.6886Z" fill="#03202F"/>
<path d="M81.2992 19.1628C95.9094 30.6089 85.7649 37.9221 67.9531 39.9091C72.4593 58.9172 58.6422 76.3275 44.0134 89.8087L57.4263 83.7277C58.4183 76.0022 72.027 71.9844 78.4755 54.8421C108.764 48.0798 103.821 26.3281 81.2992 19.1628Z" fill="#A71930"/>
</svg>
