<svg width="1022" height="769" viewBox="0 0 1022 769" fill="none" xmlns="http://www.w3.org/2000/svg">
<path d="M58 591L964 591" stroke="#D8DFE8" stroke-linecap="round"/>
<rect x="387" width="114" height="136" rx="7.42142" fill="#001732"/>
<path d="M426.422 88.7183V90.3349H422.272V103.945H420.284V90.3349H416.111V88.7183H426.422ZM439.181 91.9734L431.972 109.581H429.918L432.278 103.814L427.45 91.9734H429.656L433.414 101.673L437.127 91.9734H439.181ZM443.167 94.1798C443.561 93.4953 444.143 92.9273 444.915 92.4758C445.701 92.0098 446.612 91.7768 447.646 91.7768C448.709 91.7768 449.67 92.0316 450.529 92.5414C451.403 93.0511 452.088 93.772 452.583 94.7041C453.078 95.6217 453.326 96.6921 453.326 97.9155C453.326 99.1244 453.078 100.202 452.583 101.149C452.088 102.095 451.403 102.831 450.529 103.355C449.67 103.88 448.709 104.142 447.646 104.142C446.626 104.142 445.723 103.916 444.937 103.464C444.165 102.998 443.575 102.423 443.167 101.739V109.625H441.179V91.9734H443.167V94.1798ZM451.294 97.9155C451.294 97.0126 451.112 96.2261 450.748 95.5561C450.384 94.8862 449.889 94.3765 449.262 94.0269C448.651 93.6774 447.973 93.5026 447.231 93.5026C446.502 93.5026 445.825 93.6847 445.199 94.0488C444.587 94.3983 444.092 94.9153 443.713 95.5998C443.349 96.2698 443.167 97.049 443.167 97.9374C443.167 98.8404 443.349 99.6341 443.713 100.319C444.092 100.989 444.587 101.506 445.199 101.87C445.825 102.219 446.502 102.394 447.231 102.394C447.973 102.394 448.651 102.219 449.262 101.87C449.889 101.506 450.384 100.989 450.748 100.319C451.112 99.6341 451.294 98.8331 451.294 97.9155ZM466.866 97.5005C466.866 97.8791 466.844 98.2796 466.8 98.702H457.231C457.304 99.8817 457.705 100.807 458.433 101.476C459.176 102.132 460.071 102.46 461.12 102.46C461.979 102.46 462.693 102.263 463.261 101.87C463.844 101.462 464.251 100.923 464.484 100.253H466.625C466.305 101.404 465.664 102.343 464.703 103.071C463.742 103.785 462.547 104.142 461.12 104.142C459.984 104.142 458.965 103.887 458.062 103.377C457.173 102.867 456.474 102.146 455.964 101.214C455.455 100.268 455.2 99.1753 455.2 97.9374C455.2 96.6994 455.447 95.6144 455.943 94.6823C456.438 93.7502 457.129 93.0366 458.018 92.5414C458.921 92.0316 459.955 91.7768 461.12 91.7768C462.256 91.7768 463.261 92.0244 464.135 92.5195C465.009 93.0147 465.679 93.6992 466.145 94.5731C466.625 95.4324 466.866 96.4081 466.866 97.5005ZM464.812 97.0854C464.812 96.328 464.645 95.6799 464.31 95.1411C463.975 94.5876 463.516 94.1726 462.933 93.8958C462.365 93.6046 461.732 93.4589 461.033 93.4589C460.028 93.4589 459.168 93.7793 458.455 94.4201C457.756 95.061 457.355 95.9494 457.253 97.0854H464.812Z" fill="white"/>
<path d="M467.83 21.8462H415.4C410.591 21.8462 408.846 25.7654 408.846 28.4V54.6154C408.846 59.4238 412.765 61.1693 415.4 61.1693H467.83C472.639 61.1693 474.384 57.2501 474.384 54.6154V28.4C474.384 23.5917 470.465 21.8462 467.83 21.8462ZM470.015 54.5892C469.989 55.5985 469.591 56.8 467.83 56.8H415.426C414.416 56.7738 413.215 56.3762 413.215 54.6154V28.4263C413.241 27.417 413.641 26.2154 415.4 26.2154H467.804C468.813 26.2416 470.015 26.6414 470.015 28.4V54.5892ZM426.323 48.0616H456.907V52.4308H426.323V48.0616ZM461.276 48.0616H465.646V52.4308H461.276V48.0616ZM461.276 39.3231H465.646V43.6923H461.276V39.3231ZM452.538 39.3231H456.907V43.6923H452.538V39.3231ZM448.169 43.6923H443.8V39.3231H448.169V43.6923ZM439.43 43.6923H435.061V39.3231H439.43V43.6923ZM430.692 43.6923H426.323V39.3231H430.692V43.6923ZM417.584 39.3231H421.953V43.6923H417.584V39.3231ZM417.584 48.0616H421.953V52.4308H417.584V48.0616ZM461.276 30.5847H465.646V34.9539H461.276V30.5847ZM452.538 30.5847H456.907V34.9539H452.538V30.5847ZM448.169 34.9539H443.8V30.5847H448.169V34.9539ZM439.43 34.9539H435.061V30.5847H439.43V34.9539ZM430.692 34.9539H426.323V30.5847H430.692V34.9539ZM417.584 30.5847H421.953V34.9539H417.584V30.5847Z" fill="white"/>
<g opacity="0.3">
<rect x="520" width="114" height="136" rx="7.42142" fill="#001732"/>
<path d="M552.949 88.7183C554.609 88.7183 556.044 89.0314 557.253 89.6577C558.476 90.2694 559.408 91.1505 560.049 92.3011C560.704 93.4516 561.032 94.8061 561.032 96.3645C561.032 97.9228 560.704 99.2773 560.049 100.428C559.408 101.564 558.476 102.438 557.253 103.049C556.044 103.647 554.609 103.945 552.949 103.945H548.208V88.7183H552.949ZM552.949 102.307C554.915 102.307 556.415 101.79 557.449 100.756C558.483 99.7069 559 98.2432 559 96.3645C559 94.4711 558.476 92.9929 557.428 91.9297C556.393 90.8665 554.901 90.3349 552.949 90.3349H550.196V102.307H552.949ZM565.642 93.9177C565.992 93.2332 566.487 92.7016 567.128 92.3229C567.783 91.9442 568.577 91.7549 569.509 91.7549V93.8085H568.985C566.757 93.8085 565.642 95.0173 565.642 97.4349V103.945H563.654V91.9734H565.642V93.9177ZM571.061 97.9155C571.061 96.6921 571.309 95.6217 571.804 94.7041C572.299 93.772 572.976 93.0511 573.836 92.5414C574.71 92.0316 575.678 91.7768 576.741 91.7768C577.79 91.7768 578.7 92.0025 579.472 92.454C580.244 92.9055 580.819 93.4735 581.198 94.158V91.9734H583.208V103.945H581.198V101.717C580.805 102.416 580.215 102.998 579.428 103.464C578.656 103.916 577.753 104.142 576.719 104.142C575.656 104.142 574.695 103.88 573.836 103.355C572.976 102.831 572.299 102.095 571.804 101.149C571.309 100.202 571.061 99.1244 571.061 97.9155ZM581.198 97.9374C581.198 97.0344 581.016 96.2479 580.652 95.578C580.288 94.908 579.792 94.3983 579.166 94.0488C578.554 93.6847 577.877 93.5026 577.134 93.5026C576.392 93.5026 575.714 93.6774 575.103 94.0269C574.491 94.3765 574.003 94.8862 573.639 95.5561C573.275 96.2261 573.093 97.0126 573.093 97.9155C573.093 98.8331 573.275 99.6341 573.639 100.319C574.003 100.989 574.491 101.506 575.103 101.87C575.714 102.219 576.392 102.394 577.134 102.394C577.877 102.394 578.554 102.219 579.166 101.87C579.792 101.506 580.288 100.989 580.652 100.319C581.016 99.6341 581.198 98.8404 581.198 97.9374ZM602.515 91.9734L598.779 103.945H596.726L593.842 94.442L590.958 103.945H588.905L585.147 91.9734H587.179L589.932 102.023L592.903 91.9734H594.934L597.84 102.044L600.549 91.9734H602.515Z" fill="white"/>
<path d="M583.135 28.3525L589.641 21.8463L603.625 35.8301L597.119 42.3363L583.135 28.3525Z" fill="white"/>
<path d="M580.615 30.2534L568.866 37.2433L561.975 61.5538L575.469 48.0899L575.455 44.93L580.84 44.8686L580.902 50.2765L577.703 50.2898L564.19 63.7738L588.755 56.6928L595.27 44.9084L580.615 30.2534Z" fill="white"/>
<path d="M561.972 61.555L560.864 62.6624C560.025 63.5012 558.91 63.9631 557.724 63.9631C556.538 63.9631 555.423 63.5012 554.584 62.6624C552.901 60.9794 552.84 58.2844 554.446 56.5272L556.565 54.2078C559.305 51.2097 559.201 46.6118 556.329 43.7401L552.354 39.7646L550.137 41.9819L554.112 45.9574C555.795 47.6404 555.856 50.3354 554.25 52.0926L552.131 54.412C549.392 57.4101 549.495 62.0081 552.367 64.8797C553.798 66.3108 555.701 67.0988 557.724 67.0988C559.748 67.0988 561.651 66.3106 563.081 64.8797L564.187 63.7739L564.188 63.774L561.972 61.555Z" fill="white"/>
</g>
<rect x="307.5" y="188.5" width="407" height="53" rx="4.5" stroke="#D8DFE8"/>
<path d="M331.768 221.112C331.032 221.112 330.371 220.984 329.784 220.728C329.208 220.461 328.755 220.099 328.424 219.64C328.093 219.171 327.923 218.632 327.912 218.024H329.464C329.517 218.547 329.731 218.989 330.104 219.352C330.488 219.704 331.043 219.88 331.768 219.88C332.461 219.88 333.005 219.709 333.4 219.368C333.805 219.016 334.008 218.568 334.008 218.024C334.008 217.597 333.891 217.251 333.656 216.984C333.421 216.717 333.128 216.515 332.776 216.376C332.424 216.237 331.949 216.088 331.352 215.928C330.616 215.736 330.024 215.544 329.576 215.352C329.139 215.16 328.76 214.861 328.44 214.456C328.131 214.04 327.976 213.485 327.976 212.792C327.976 212.184 328.131 211.645 328.44 211.176C328.749 210.707 329.181 210.344 329.736 210.088C330.301 209.832 330.947 209.704 331.672 209.704C332.717 209.704 333.571 209.965 334.232 210.488C334.904 211.011 335.283 211.704 335.368 212.568H333.768C333.715 212.141 333.491 211.768 333.096 211.448C332.701 211.117 332.179 210.952 331.528 210.952C330.92 210.952 330.424 211.112 330.04 211.432C329.656 211.741 329.464 212.179 329.464 212.744C329.464 213.149 329.576 213.48 329.8 213.736C330.035 213.992 330.317 214.189 330.648 214.328C330.989 214.456 331.464 214.605 332.072 214.776C332.808 214.979 333.4 215.181 333.848 215.384C334.296 215.576 334.68 215.88 335 216.296C335.32 216.701 335.48 217.256 335.48 217.96C335.48 218.504 335.336 219.016 335.048 219.496C334.76 219.976 334.333 220.365 333.768 220.664C333.203 220.963 332.536 221.112 331.768 221.112ZM338.375 210.808C338.097 210.808 337.863 210.712 337.671 210.52C337.479 210.328 337.383 210.093 337.383 209.816C337.383 209.539 337.479 209.304 337.671 209.112C337.863 208.92 338.097 208.824 338.375 208.824C338.641 208.824 338.865 208.92 339.047 209.112C339.239 209.304 339.335 209.539 339.335 209.816C339.335 210.093 339.239 210.328 339.047 210.52C338.865 210.712 338.641 210.808 338.375 210.808ZM339.079 212.232V221H337.623V212.232H339.079ZM345.176 212.088C345.933 212.088 346.595 212.253 347.16 212.584C347.736 212.915 348.163 213.331 348.44 213.832V212.232H349.912V221.192C349.912 221.992 349.741 222.701 349.4 223.32C349.059 223.949 348.568 224.44 347.928 224.792C347.299 225.144 346.563 225.32 345.72 225.32C344.568 225.32 343.608 225.048 342.84 224.504C342.072 223.96 341.619 223.219 341.48 222.28H342.92C343.08 222.813 343.411 223.24 343.912 223.56C344.413 223.891 345.016 224.056 345.72 224.056C346.52 224.056 347.171 223.805 347.672 223.304C348.184 222.803 348.44 222.099 348.44 221.192V219.352C348.152 219.864 347.725 220.291 347.16 220.632C346.595 220.973 345.933 221.144 345.176 221.144C344.397 221.144 343.688 220.952 343.048 220.568C342.419 220.184 341.923 219.645 341.56 218.952C341.197 218.259 341.016 217.469 341.016 216.584C341.016 215.688 341.197 214.904 341.56 214.232C341.923 213.549 342.419 213.021 343.048 212.648C343.688 212.275 344.397 212.088 345.176 212.088ZM348.44 216.6C348.44 215.939 348.307 215.363 348.04 214.872C347.773 214.381 347.411 214.008 346.952 213.752C346.504 213.485 346.008 213.352 345.464 213.352C344.92 213.352 344.424 213.48 343.976 213.736C343.528 213.992 343.171 214.365 342.904 214.856C342.637 215.347 342.504 215.923 342.504 216.584C342.504 217.256 342.637 217.843 342.904 218.344C343.171 218.835 343.528 219.213 343.976 219.48C344.424 219.736 344.92 219.864 345.464 219.864C346.008 219.864 346.504 219.736 346.952 219.48C347.411 219.213 347.773 218.835 348.04 218.344C348.307 217.843 348.44 217.261 348.44 216.6ZM356.645 212.072C357.711 212.072 358.575 212.397 359.237 213.048C359.898 213.688 360.229 214.616 360.229 215.832V221H358.789V216.04C358.789 215.165 358.57 214.499 358.133 214.04C357.695 213.571 357.098 213.336 356.341 213.336C355.573 213.336 354.959 213.576 354.501 214.056C354.053 214.536 353.829 215.235 353.829 216.152V221H352.373V212.232H353.829V213.48C354.117 213.032 354.506 212.685 354.997 212.44C355.498 212.195 356.047 212.072 356.645 212.072ZM375.465 209.848V221H374.009V215.944H368.329V221H366.873V209.848H368.329V214.744H374.009V209.848H375.465ZM385.951 216.28C385.951 216.557 385.935 216.851 385.903 217.16H378.895C378.948 218.024 379.241 218.701 379.775 219.192C380.319 219.672 380.975 219.912 381.743 219.912C382.372 219.912 382.895 219.768 383.311 219.48C383.737 219.181 384.036 218.787 384.207 218.296H385.775C385.54 219.139 385.071 219.827 384.367 220.36C383.663 220.883 382.788 221.144 381.743 221.144C380.911 221.144 380.164 220.957 379.503 220.584C378.852 220.211 378.34 219.683 377.967 219C377.593 218.307 377.407 217.507 377.407 216.6C377.407 215.693 377.588 214.899 377.951 214.216C378.313 213.533 378.82 213.011 379.471 212.648C380.132 212.275 380.889 212.088 381.743 212.088C382.575 212.088 383.311 212.269 383.951 212.632C384.591 212.995 385.081 213.496 385.423 214.136C385.775 214.765 385.951 215.48 385.951 216.28ZM384.447 215.976C384.447 215.421 384.324 214.947 384.079 214.552C383.833 214.147 383.497 213.843 383.071 213.64C382.655 213.427 382.191 213.32 381.679 213.32C380.943 213.32 380.313 213.555 379.791 214.024C379.279 214.493 378.985 215.144 378.911 215.976H384.447ZM389.329 213.656C389.585 213.155 389.947 212.765 390.417 212.488C390.897 212.211 391.478 212.072 392.161 212.072V213.576H391.777C390.145 213.576 389.329 214.461 389.329 216.232V221H387.873V212.232H389.329V213.656ZM401.841 216.28C401.841 216.557 401.825 216.851 401.793 217.16H394.785C394.839 218.024 395.132 218.701 395.665 219.192C396.209 219.672 396.865 219.912 397.633 219.912C398.263 219.912 398.785 219.768 399.201 219.48C399.628 219.181 399.927 218.787 400.097 218.296H401.665C401.431 219.139 400.961 219.827 400.257 220.36C399.553 220.883 398.679 221.144 397.633 221.144C396.801 221.144 396.055 220.957 395.393 220.584C394.743 220.211 394.231 219.683 393.857 219C393.484 218.307 393.297 217.507 393.297 216.6C393.297 215.693 393.479 214.899 393.841 214.216C394.204 213.533 394.711 213.011 395.361 212.648C396.023 212.275 396.78 212.088 397.633 212.088C398.465 212.088 399.201 212.269 399.841 212.632C400.481 212.995 400.972 213.496 401.313 214.136C401.665 214.765 401.841 215.48 401.841 216.28ZM400.337 215.976C400.337 215.421 400.215 214.947 399.969 214.552C399.724 214.147 399.388 213.843 398.961 213.64C398.545 213.427 398.081 213.32 397.569 213.32C396.833 213.32 396.204 213.555 395.681 214.024C395.169 214.493 394.876 215.144 394.801 215.976H400.337Z" fill="#818181"/>
<rect x="0.5" y="274.5" width="1021" height="410" rx="29.5" stroke="#D8DFE8"/>
<g clip-path="url(#clip0_2001_22)">
<path d="M919.042 317.85H962.958C969.617 317.85 975 323.233 975 329.892V372.109C975 378.767 969.617 384.15 962.958 384.15H919.042C912.383 384.15 907 378.767 907 372.108V329.892C907 323.233 912.383 317.85 919.042 317.85Z" fill="#FA0F00"/>
<path d="M961.684 356.242C958.539 352.898 949.841 354.258 947.801 354.598C944.798 351.68 942.701 348.223 941.993 346.948C943.126 343.718 943.863 340.29 943.976 336.918C943.976 333.858 942.758 330.572 939.358 330.572C938.168 330.6 937.091 331.252 936.496 332.243C935.051 334.737 935.618 339.893 937.941 345.107C936.581 348.932 934.626 354.457 932.048 358.933C928.563 360.322 921.168 363.722 920.459 367.49C920.233 368.595 920.629 369.728 921.479 370.493C922.301 371.23 923.378 371.598 924.483 371.57C928.931 371.57 933.379 365.393 936.383 360.095C938.904 359.217 942.928 358.055 946.979 357.318C951.683 361.427 955.876 362.05 958.001 362.05C960.891 362.05 961.968 360.803 962.364 359.755C962.789 358.565 962.534 357.205 961.684 356.242ZM958.624 358.395C958.483 359.217 957.434 360.038 955.479 359.613C953.213 359.047 951.088 357.97 949.303 356.497C950.833 356.242 954.403 355.902 956.924 356.383C957.831 356.553 958.879 357.063 958.624 358.395ZM938.338 333.32C938.536 332.952 938.904 332.697 939.329 332.697C940.406 332.697 940.633 334 940.633 335.077C940.491 337.655 939.924 340.29 939.216 342.642C937.403 337.825 937.658 334.482 938.338 333.32ZM938.083 356.865C939.046 354.967 940.406 351.51 940.888 350.122C941.964 351.907 943.778 354.145 944.741 355.165C944.769 355.137 941.058 355.902 938.083 356.865ZM930.971 361.738C928.109 366.328 925.304 369.218 923.661 369.218C923.406 369.218 923.123 369.133 922.924 368.963C922.613 368.708 922.471 368.312 922.556 367.915C922.868 366.272 926.126 363.892 930.971 361.738Z" fill="white"/>
</g>
<rect x="267" y="715" width="237" height="54" rx="5" fill="#002B5C"/>
<rect x="516" y="715" width="237" height="54" rx="5" fill="#001732"/>
<path d="M344.824 744.52H339.96L339.064 747H337.528L341.56 735.912H343.24L347.256 747H345.72L344.824 744.52ZM344.408 743.336L342.392 737.704L340.376 743.336H344.408ZM348.469 742.6C348.469 741.693 348.651 740.904 349.013 740.232C349.376 739.549 349.877 739.021 350.517 738.648C351.168 738.275 351.909 738.088 352.741 738.088C353.819 738.088 354.704 738.349 355.397 738.872C356.101 739.395 356.565 740.12 356.789 741.048H355.221C355.072 740.515 354.779 740.093 354.341 739.784C353.915 739.475 353.381 739.32 352.741 739.32C351.909 739.32 351.237 739.608 350.725 740.184C350.213 740.749 349.957 741.555 349.957 742.6C349.957 743.656 350.213 744.472 350.725 745.048C351.237 745.624 351.909 745.912 352.741 745.912C353.381 745.912 353.915 745.763 354.341 745.464C354.768 745.165 355.061 744.739 355.221 744.184H356.789C356.555 745.08 356.085 745.8 355.381 746.344C354.677 746.877 353.797 747.144 352.741 747.144C351.909 747.144 351.168 746.957 350.517 746.584C349.877 746.211 349.376 745.683 349.013 745C348.651 744.317 348.469 743.517 348.469 742.6ZM358.188 742.6C358.188 741.693 358.369 740.904 358.732 740.232C359.095 739.549 359.596 739.021 360.236 738.648C360.887 738.275 361.628 738.088 362.46 738.088C363.537 738.088 364.423 738.349 365.116 738.872C365.82 739.395 366.284 740.12 366.508 741.048H364.94C364.791 740.515 364.497 740.093 364.06 739.784C363.633 739.475 363.1 739.32 362.46 739.32C361.628 739.32 360.956 739.608 360.444 740.184C359.932 740.749 359.676 741.555 359.676 742.6C359.676 743.656 359.932 744.472 360.444 745.048C360.956 745.624 361.628 745.912 362.46 745.912C363.1 745.912 363.633 745.763 364.06 745.464C364.487 745.165 364.78 744.739 364.94 744.184H366.508C366.273 745.08 365.804 745.8 365.1 746.344C364.396 746.877 363.516 747.144 362.46 747.144C361.628 747.144 360.887 746.957 360.236 746.584C359.596 746.211 359.095 745.683 358.732 745C358.369 744.317 358.188 743.517 358.188 742.6ZM376.451 742.28C376.451 742.557 376.435 742.851 376.403 743.16H369.395C369.448 744.024 369.741 744.701 370.275 745.192C370.819 745.672 371.475 745.912 372.243 745.912C372.872 745.912 373.395 745.768 373.811 745.48C374.237 745.181 374.536 744.787 374.707 744.296H376.275C376.04 745.139 375.571 745.827 374.867 746.36C374.163 746.883 373.288 747.144 372.243 747.144C371.411 747.144 370.664 746.957 370.003 746.584C369.352 746.211 368.84 745.683 368.467 745C368.093 744.307 367.907 743.507 367.907 742.6C367.907 741.693 368.088 740.899 368.451 740.216C368.813 739.533 369.32 739.011 369.971 738.648C370.632 738.275 371.389 738.088 372.243 738.088C373.075 738.088 373.811 738.269 374.451 738.632C375.091 738.995 375.581 739.496 375.923 740.136C376.275 740.765 376.451 741.48 376.451 742.28ZM374.947 741.976C374.947 741.421 374.824 740.947 374.579 740.552C374.333 740.147 373.997 739.843 373.571 739.64C373.155 739.427 372.691 739.32 372.179 739.32C371.443 739.32 370.813 739.555 370.291 740.024C369.779 740.493 369.485 741.144 369.411 741.976H374.947ZM379.829 739.848C380.117 739.347 380.543 738.931 381.109 738.6C381.685 738.259 382.351 738.088 383.109 738.088C383.887 738.088 384.591 738.275 385.221 738.648C385.861 739.021 386.362 739.549 386.725 740.232C387.087 740.904 387.269 741.688 387.269 742.584C387.269 743.469 387.087 744.259 386.725 744.952C386.362 745.645 385.861 746.184 385.221 746.568C384.591 746.952 383.887 747.144 383.109 747.144C382.362 747.144 381.701 746.979 381.125 746.648C380.559 746.307 380.127 745.885 379.829 745.384V751.16H378.373V738.232H379.829V739.848ZM385.781 742.584C385.781 741.923 385.647 741.347 385.381 740.856C385.114 740.365 384.751 739.992 384.293 739.736C383.845 739.48 383.349 739.352 382.805 739.352C382.271 739.352 381.775 739.485 381.317 739.752C380.869 740.008 380.506 740.387 380.229 740.888C379.962 741.379 379.829 741.949 379.829 742.6C379.829 743.261 379.962 743.843 380.229 744.344C380.506 744.835 380.869 745.213 381.317 745.48C381.775 745.736 382.271 745.864 382.805 745.864C383.349 745.864 383.845 745.736 384.293 745.48C384.751 745.213 385.114 744.835 385.381 744.344C385.647 743.843 385.781 743.256 385.781 742.584ZM390.961 739.432V744.6C390.961 745.027 391.052 745.331 391.233 745.512C391.414 745.683 391.729 745.768 392.177 745.768H393.249V747H391.937C391.126 747 390.518 746.813 390.113 746.44C389.708 746.067 389.505 745.453 389.505 744.6V739.432H388.369V738.232H389.505V736.024H390.961V738.232H393.249V739.432H390.961ZM403.103 747.144C402.282 747.144 401.535 746.957 400.863 746.584C400.202 746.211 399.679 745.683 399.295 745C398.922 744.307 398.735 743.507 398.735 742.6C398.735 741.704 398.927 740.915 399.311 740.232C399.706 739.539 400.239 739.011 400.911 738.648C401.583 738.275 402.335 738.088 403.167 738.088C403.999 738.088 404.751 738.275 405.423 738.648C406.095 739.011 406.623 739.533 407.007 740.216C407.402 740.899 407.599 741.693 407.599 742.6C407.599 743.507 407.396 744.307 406.991 745C406.596 745.683 406.058 746.211 405.375 746.584C404.692 746.957 403.935 747.144 403.103 747.144ZM403.103 745.864C403.626 745.864 404.116 745.741 404.575 745.496C405.034 745.251 405.402 744.883 405.679 744.392C405.967 743.901 406.111 743.304 406.111 742.6C406.111 741.896 405.972 741.299 405.695 740.808C405.418 740.317 405.055 739.955 404.607 739.72C404.159 739.475 403.674 739.352 403.151 739.352C402.618 739.352 402.127 739.475 401.679 739.72C401.242 739.955 400.89 740.317 400.623 740.808C400.356 741.299 400.223 741.896 400.223 742.6C400.223 743.315 400.351 743.917 400.607 744.408C400.874 744.899 401.226 745.267 401.663 745.512C402.1 745.747 402.58 745.864 403.103 745.864ZM413.081 739.432H411.241V747H409.785V739.432H408.649V738.232H409.785V737.608C409.785 736.627 410.036 735.912 410.537 735.464C411.049 735.005 411.865 734.776 412.985 734.776V735.992C412.345 735.992 411.892 736.12 411.625 736.376C411.369 736.621 411.241 737.032 411.241 737.608V738.232H413.081V739.432ZM418.347 739.432H416.507V747H415.051V739.432H413.915V738.232H415.051V737.608C415.051 736.627 415.302 735.912 415.803 735.464C416.315 735.005 417.131 734.776 418.251 734.776V735.992C417.611 735.992 417.158 736.12 416.891 736.376C416.635 736.621 416.507 737.032 416.507 737.608V738.232H418.347V739.432ZM428.045 742.28C428.045 742.557 428.029 742.851 427.997 743.16H420.989C421.042 744.024 421.335 744.701 421.869 745.192C422.413 745.672 423.069 745.912 423.837 745.912C424.466 745.912 424.989 745.768 425.405 745.48C425.831 745.181 426.13 744.787 426.301 744.296H427.869C427.634 745.139 427.165 745.827 426.461 746.36C425.757 746.883 424.882 747.144 423.837 747.144C423.005 747.144 422.258 746.957 421.597 746.584C420.946 746.211 420.434 745.683 420.061 745C419.687 744.307 419.501 743.507 419.501 742.6C419.501 741.693 419.682 740.899 420.045 740.216C420.407 739.533 420.914 739.011 421.565 738.648C422.226 738.275 422.983 738.088 423.837 738.088C424.669 738.088 425.405 738.269 426.045 738.632C426.685 738.995 427.175 739.496 427.517 740.136C427.869 740.765 428.045 741.48 428.045 742.28ZM426.541 741.976C426.541 741.421 426.418 740.947 426.173 740.552C425.927 740.147 425.591 739.843 425.165 739.64C424.749 739.427 424.285 739.32 423.773 739.32C423.037 739.32 422.407 739.555 421.885 740.024C421.373 740.493 421.079 741.144 421.005 741.976H426.541ZM431.422 739.656C431.678 739.155 432.041 738.765 432.51 738.488C432.99 738.211 433.572 738.072 434.254 738.072V739.576H433.87C432.238 739.576 431.422 740.461 431.422 742.232V747H429.966V738.232H431.422V739.656Z" fill="white"/>
<path d="M606.688 741.416C606.688 740.328 606.933 739.352 607.424 738.488C607.915 737.613 608.581 736.931 609.424 736.44C610.277 735.949 611.221 735.704 612.256 735.704C613.472 735.704 614.533 735.997 615.44 736.584C616.347 737.171 617.008 738.003 617.424 739.08H615.68C615.371 738.408 614.923 737.891 614.336 737.528C613.76 737.165 613.067 736.984 612.256 736.984C611.477 736.984 610.779 737.165 610.16 737.528C609.541 737.891 609.056 738.408 608.704 739.08C608.352 739.741 608.176 740.52 608.176 741.416C608.176 742.301 608.352 743.08 608.704 743.752C609.056 744.413 609.541 744.925 610.16 745.288C610.779 745.651 611.477 745.832 612.256 745.832C613.067 745.832 613.76 745.656 614.336 745.304C614.923 744.941 615.371 744.424 615.68 743.752H617.424C617.008 744.819 616.347 745.645 615.44 746.232C614.533 746.808 613.472 747.096 612.256 747.096C611.221 747.096 610.277 746.856 609.424 746.376C608.581 745.885 607.915 745.208 607.424 744.344C606.933 743.48 606.688 742.504 606.688 741.416ZM619.047 742.584C619.047 741.688 619.229 740.904 619.591 740.232C619.954 739.549 620.45 739.021 621.079 738.648C621.719 738.275 622.429 738.088 623.207 738.088C623.975 738.088 624.642 738.253 625.207 738.584C625.773 738.915 626.194 739.331 626.471 739.832V738.232H627.943V747H626.471V745.368C626.183 745.88 625.751 746.307 625.175 746.648C624.61 746.979 623.949 747.144 623.191 747.144C622.413 747.144 621.709 746.952 621.079 746.568C620.45 746.184 619.954 745.645 619.591 744.952C619.229 744.259 619.047 743.469 619.047 742.584ZM626.471 742.6C626.471 741.939 626.338 741.363 626.071 740.872C625.805 740.381 625.442 740.008 624.983 739.752C624.535 739.485 624.039 739.352 623.495 739.352C622.951 739.352 622.455 739.48 622.007 739.736C621.559 739.992 621.202 740.365 620.935 740.856C620.669 741.347 620.535 741.923 620.535 742.584C620.535 743.256 620.669 743.843 620.935 744.344C621.202 744.835 621.559 745.213 622.007 745.48C622.455 745.736 622.951 745.864 623.495 745.864C624.039 745.864 624.535 745.736 624.983 745.48C625.442 745.213 625.805 744.835 626.071 744.344C626.338 743.843 626.471 743.261 626.471 742.6ZM634.676 738.072C635.743 738.072 636.607 738.397 637.268 739.048C637.929 739.688 638.26 740.616 638.26 741.832V747H636.82V742.04C636.82 741.165 636.601 740.499 636.164 740.04C635.727 739.571 635.129 739.336 634.372 739.336C633.604 739.336 632.991 739.576 632.532 740.056C632.084 740.536 631.86 741.235 631.86 742.152V747H630.404V738.232H631.86V739.48C632.148 739.032 632.537 738.685 633.028 738.44C633.529 738.195 634.079 738.072 634.676 738.072ZM640.094 742.6C640.094 741.693 640.276 740.904 640.638 740.232C641.001 739.549 641.502 739.021 642.142 738.648C642.793 738.275 643.534 738.088 644.366 738.088C645.444 738.088 646.329 738.349 647.022 738.872C647.726 739.395 648.19 740.12 648.414 741.048H646.846C646.697 740.515 646.404 740.093 645.966 739.784C645.54 739.475 645.006 739.32 644.366 739.32C643.534 739.32 642.862 739.608 642.35 740.184C641.838 740.749 641.582 741.555 641.582 742.6C641.582 743.656 641.838 744.472 642.35 745.048C642.862 745.624 643.534 745.912 644.366 745.912C645.006 745.912 645.54 745.763 645.966 745.464C646.393 745.165 646.686 744.739 646.846 744.184H648.414C648.18 745.08 647.71 745.8 647.006 746.344C646.302 746.877 645.422 747.144 644.366 747.144C643.534 747.144 642.793 746.957 642.142 746.584C641.502 746.211 641.001 745.683 640.638 745C640.276 744.317 640.094 743.517 640.094 742.6ZM658.357 742.28C658.357 742.557 658.341 742.851 658.309 743.16H651.301C651.354 744.024 651.648 744.701 652.181 745.192C652.725 745.672 653.381 745.912 654.149 745.912C654.778 745.912 655.301 745.768 655.717 745.48C656.144 745.181 656.442 744.787 656.613 744.296H658.181C657.946 745.139 657.477 745.827 656.773 746.36C656.069 746.883 655.194 747.144 654.149 747.144C653.317 747.144 652.57 746.957 651.909 746.584C651.258 746.211 650.746 745.683 650.373 745C650 744.307 649.813 743.507 649.813 742.6C649.813 741.693 649.994 740.899 650.357 740.216C650.72 739.533 651.226 739.011 651.877 738.648C652.538 738.275 653.296 738.088 654.149 738.088C654.981 738.088 655.717 738.269 656.357 738.632C656.997 738.995 657.488 739.496 657.829 740.136C658.181 740.765 658.357 741.48 658.357 742.28ZM656.853 741.976C656.853 741.421 656.73 740.947 656.485 740.552C656.24 740.147 655.904 739.843 655.477 739.64C655.061 739.427 654.597 739.32 654.085 739.32C653.349 739.32 652.72 739.555 652.197 740.024C651.685 740.493 651.392 741.144 651.317 741.976H656.853ZM661.735 735.16V747H660.279V735.16H661.735Z" fill="white"/>
<path d="M402.5 512.44C401.94 513 400.54 512.44 399.42 511.18C398.3 510.06 397.88 508.52 398.44 507.96C399 507.54 399.42 506.56 399.56 505.58C399.84 503.9 399.56 501.94 398.3 499.98C397.18 498.02 395.08 496.06 391.86 494.1C368.76 481.08 323.26 492.42 300.72 502.92C289.94 507.96 263.48 522.94 270.76 538.34C274.12 545.62 285.88 549.68 297.36 553.6C303.94 555.98 310.52 558.22 315.98 561.3C355.6 583.56 306.18 631.44 267.26 632.14C253.12 632.84 236.6 626.12 236.32 611.98C236.18 605.54 241.22 597.14 253.68 587.2C254.24 586.64 255.64 587.34 256.76 588.6C257.88 589.72 258.3 591.26 257.6 591.68C245.56 601.34 240.8 609.18 240.94 614.92C241.08 623.88 256.62 624.86 262.78 624.58C296.8 623.74 345.8 581.88 316.54 565.36C311.64 562.7 305.34 560.46 298.9 558.22C285.6 553.6 272.02 548.98 266.7 537.64C258.16 519.3 282.66 503.34 296.1 497.04C320.18 485.84 366.66 476.04 391.3 490.04C396.34 492.98 399.84 496.48 401.8 499.98C403.9 503.34 404.46 506.56 404.18 508.94C403.9 510.48 403.34 511.74 402.5 512.44ZM354.421 556.82C355.121 556.26 356.521 556.82 357.641 558.08C358.761 559.34 359.181 560.74 358.481 561.3C355.401 563.96 350.361 569.98 347.281 575.86C345.321 579.78 345.461 582.02 346.861 582.72C352.601 583.56 368.141 568.44 368.141 568.3C368.701 567.74 369.681 566.62 370.801 567.88C372.061 569.14 371.501 569.56 370.941 570.12C370.801 570.12 347.561 595.32 341.541 584.82C339.581 581.32 340.561 576.56 342.941 571.8C346.021 565.78 351.201 559.48 354.421 556.82ZM363.101 552.76C362.541 553.46 361.141 552.9 360.021 551.78C358.901 550.52 358.341 549.12 358.901 548.42L366.741 539.46C367.301 538.76 368.561 539.32 369.821 540.44C370.941 541.7 371.361 543.1 370.941 543.8L363.101 552.76ZM441.926 595.32C443.046 595.46 444.446 596.58 445.146 597.98C445.846 599.24 445.706 600.22 444.586 600.22C414.906 597.7 393.066 598.26 377.246 600.5C367.866 616.32 357.366 631.58 352.606 631.58C346.166 631.44 340.566 627.94 337.766 623.04C336.226 620.24 335.666 617.02 336.646 613.94C337.626 611.14 339.726 608.34 343.506 605.68C349.246 601.62 358.766 597.98 373.326 595.74C376.406 590.56 381.306 581.6 383.966 576.84C379.626 581.32 370.666 585.52 367.586 584.82C362.546 583.7 361.566 581.32 362.406 576.98C364.226 567.32 379.486 554.58 388.446 565.64C391.526 562 393.626 559.2 393.626 559.2C394.046 558.5 395.306 558.92 396.426 559.9C397.686 561.02 398.246 562.56 397.966 563.26L396.426 565.92L396.286 566.06C396.286 566.2 389.146 579.92 380.606 594.9C395.866 593.22 416.026 593.08 441.926 595.32ZM369.826 601.76C359.326 604 352.046 606.94 347.426 610.3C343.926 612.68 341.966 615.34 341.126 617.72C340.426 619.96 340.706 621.78 341.406 623.18C342.666 625.14 345.746 626.54 349.666 626.68C353.446 626.68 361.706 615.2 369.826 601.76ZM386.486 568.02C380.186 559.76 361.706 581.46 368.706 581.88C372.486 582.16 382.986 575.3 386.486 568.02ZM407.763 559.9C408.183 559.2 409.583 559.48 410.703 560.6C411.963 561.72 412.523 563.26 412.103 563.96L408.603 570.26C416.163 563.96 424.423 557.8 427.503 558.64H427.783C431.983 559.9 432.683 562.56 431.703 566.06C431.283 567.6 430.303 569.42 429.323 571.52C427.503 575.16 425.403 579.22 425.403 579.22C429.883 582.16 445.003 568.86 445.143 568.86C445.563 568.3 447.103 566.48 448.223 567.74C449.483 568.86 448.643 569.14 448.083 569.84C448.083 569.84 432.823 587.9 425.543 583.14C419.243 579.08 422.323 572.92 424.983 567.46C425.543 566.34 426.103 565.22 426.523 564.1C418.543 568.3 399.923 586.08 399.363 586.64C398.943 587.2 397.683 586.78 396.563 585.8C395.443 584.54 394.743 583.14 395.163 582.44L407.763 559.9ZM700.363 482.62C700.223 483.6 698.963 483.6 697.703 482.62C697.003 482.06 696.443 481.22 696.023 480.52L654.443 554.72C662.423 554.3 666.623 554.02 666.763 554.02C667.603 553.88 669.143 555 669.983 556.26C670.823 557.66 670.683 558.78 669.703 558.92C669.703 558.92 663.263 559.34 651.503 559.9L617.623 620.24C614.963 625.7 611.883 631.16 608.523 636.62C608.103 637.32 606.843 636.9 605.583 635.92C604.463 634.66 603.763 633.26 604.183 632.56C607.263 627.1 610.203 621.64 613.283 616.18C623.363 596.16 628.403 577.26 628.543 560.88C615.243 561.44 599.143 562 580.663 562.28L562.883 590.56C562.463 591.12 561.063 590.84 559.943 589.72C558.683 588.46 558.123 587.06 558.543 586.36L573.663 562.42C562.463 562.7 550.563 562.84 537.823 562.84C515.703 562.98 501.843 557.8 495.403 550.52C491.763 546.46 490.363 541.98 490.923 537.5C491.483 533.58 493.443 529.38 496.943 525.6C507.163 514.12 529.843 503.9 561.063 502.78C579.263 502.22 594.103 505.58 605.443 512.02L624.483 482.06C624.903 481.36 626.163 481.78 627.423 482.9C628.543 484.02 629.243 485.56 628.823 486.26L610.343 515.24C617.203 520.14 622.383 526.3 626.303 533.58C629.803 540.16 631.903 547.72 632.743 555.84C638.343 555.56 643.243 555.28 647.583 555.14L697.983 465.12C698.263 464.42 699.383 464.42 700.503 465.4C701.763 466.24 702.743 467.78 702.603 468.76L700.363 482.62ZM608.663 517.9L583.743 557.38C601.103 556.96 616.083 556.4 628.403 555.98C627.843 547.44 625.883 539.74 622.383 533.16C619.163 527.14 614.683 521.96 608.663 517.9ZM576.743 557.52L603.623 514.96C593.543 509.78 580.383 507.12 564.003 507.68C533.343 508.8 511.083 518.74 501.143 529.94C497.923 533.58 495.963 537.36 495.543 540.86C495.123 543.8 495.823 546.6 497.643 548.7C502.543 554.3 514.443 558.08 535.023 558.08C550.003 557.94 564.003 557.8 576.743 557.52ZM630.503 585.52L644.643 560.32C641.143 560.46 637.223 560.6 633.023 560.74C633.303 568.44 632.463 576.84 630.503 585.52ZM684.508 566.9C686.468 566.34 688.568 565.5 690.808 564.52C693.748 562.98 696.268 560.04 697.808 557.38C698.088 556.82 698.228 556.4 698.508 555.84C696.968 556.54 695.148 557.66 693.048 559.2C690.248 561.3 687.028 563.96 684.508 566.9ZM694.448 569.14C687.868 572.5 680.448 573.34 680.028 573.34C670.508 593.78 708.308 576.42 712.648 568.58C713.068 567.74 714.468 566.76 715.728 567.88C716.848 569 716.848 569.56 716.428 570.4C712.508 577.26 690.668 592.38 681.008 586.92C676.248 584.26 673.308 578.66 674.428 573.2C675.128 569.7 677.228 566.06 680.028 562.84C682.828 559.76 686.048 556.82 689.128 554.58C693.188 551.78 696.968 550.1 698.508 550.38C699.768 550.66 700.888 551.36 701.868 552.48C703.268 554.02 703.828 555.84 703.548 557.52C703.408 558.78 702.848 560.04 702.148 561.44C700.608 564.38 697.808 567.46 694.448 569.14ZM721.498 552.9C721.918 552.2 723.318 552.62 724.438 553.74C725.698 554.86 726.258 556.4 725.838 557.1L720.658 565.36C725.558 562.98 732.278 560.74 735.078 564.24C736.338 565.64 735.918 568.86 737.738 569C740.398 569.14 744.318 568.58 748.098 567.46C748.938 567.18 749.778 566.48 750.618 567.74C751.598 569.14 751.038 569.56 750.198 569.7C746.138 570.96 739.418 572.36 736.478 572.08C732.838 571.8 731.718 570.82 728.638 567.18C726.538 564.66 714.078 575.72 714.078 575.72C713.798 575.86 706.518 588.18 705.818 589.44C705.398 590.14 703.998 589.72 702.878 588.6C701.618 587.48 701.058 585.94 701.478 585.24L721.498 552.9ZM753.688 566.9C755.648 566.34 757.748 565.5 759.988 564.52C762.928 562.98 765.448 560.04 766.988 557.38C767.268 556.82 767.408 556.4 767.688 555.84C766.148 556.54 764.328 557.66 762.228 559.2C759.428 561.3 756.208 563.96 753.688 566.9ZM763.628 569.14C757.048 572.5 749.628 573.34 749.208 573.34C739.688 593.78 777.488 576.42 781.828 568.58C782.248 567.74 783.648 566.76 784.908 567.88C786.028 569 786.028 569.56 785.608 570.4C781.688 577.26 759.848 592.38 750.188 586.92C745.428 584.26 742.488 578.66 743.608 573.2C744.308 569.7 746.408 566.06 749.208 562.84C752.008 559.76 755.228 556.82 758.308 554.58C762.368 551.78 766.148 550.1 767.688 550.38C768.948 550.66 770.068 551.36 771.048 552.48C772.448 554.02 773.008 555.84 772.728 557.52C772.588 558.78 772.028 560.04 771.328 561.44C769.788 564.38 766.988 567.46 763.628 569.14Z" fill="#818181"/>
<defs>
<clipPath id="clip0_2001_22">
<rect width="68" height="68" fill="white" transform="translate(907 317)"/>
</clipPath>
</defs>
</svg>
