<svg width="810" height="526" viewBox="0 0 810 526" fill="none" xmlns="http://www.w3.org/2000/svg">
<rect x="143.133" y="301.957" width="591.144" height="254.286" rx="23.369" transform="rotate(-30.6561 143.133 301.957)" stroke="#D8DFE8" stroke-width="0.792169"/>
<rect x="247.869" y="363.501" width="476.885" height="6.33735" rx="3.16867" transform="rotate(-30.6561 247.869 363.501)" fill="#D9D9D9"/>
<rect x="530.928" y="224.273" width="134.669" height="7.12952" rx="3.56476" transform="rotate(-30.6561 530.928 224.273)" fill="#D9D9D9"/>
<rect x="260.391" y="384.626" width="134.669" height="7.12952" rx="3.56476" transform="rotate(-30.6561 260.391 384.626)" fill="#D9D9D9"/>
<rect x="396" y="304.248" width="133.876" height="7.12952" rx="3.56476" transform="rotate(-30.6561 396 304.248)" fill="#D9D9D9"/>
<rect x="543.854" y="246.08" width="134.669" height="6.33735" rx="3.16867" transform="rotate(-30.6561 543.854 246.08)" fill="#D9D9D9"/>
<rect x="273.316" y="406.433" width="134.669" height="6.33735" rx="3.16867" transform="rotate(-30.6561 273.316 406.433)" fill="#D9D9D9"/>
<rect x="408.926" y="326.055" width="133.876" height="6.33735" rx="3.16867" transform="rotate(-30.6561 408.926 326.055)" fill="#D9D9D9"/>
<rect x="581.936" y="78.9451" width="64.9578" height="6.33735" rx="3.16867" transform="rotate(-30.6561 581.936 78.9451)" fill="#D9D9D9"/>
<rect x="609.121" y="101.508" width="53.0753" height="6.33735" rx="3.16867" transform="rotate(-30.6561 609.121 101.508)" fill="#D9D9D9"/>
<rect x="568.611" y="106.181" width="90.3072" height="6.33735" rx="3.16867" transform="rotate(-30.6561 568.611 106.181)" fill="#D9D9D9"/>
<rect x="0.396084" y="226.956" width="808.804" height="298.648" rx="23.369" fill="white" stroke="#D8DFE8" stroke-width="0.792169"/>
<path d="M65.1414 265.331C62.0108 265.358 58.9263 266.088 56.1154 267.466C58.7822 267.489 61.4191 268.03 63.8804 269.056V282.521H64.3403V282.544H77.1568V276.706C73.1382 276.724 69.1257 277.023 65.149 277.603V276.664C69.1255 276.083 73.1381 275.783 77.1568 275.767V273.468C73.1356 273.485 69.1206 273.784 65.1414 274.365V273.429C69.1177 272.846 73.1303 272.545 77.1492 272.529V270.264C73.1314 270.279 69.1194 270.57 65.1414 271.134V265.331ZM93.8137 271.701V265.331C90.6845 265.358 87.6013 266.088 84.7915 267.466C87.4571 267.489 90.0929 268.029 92.5527 269.056V282.521H93.0088V282.544H103.698L104.791 275.131C104.791 275.131 101.165 273.142 93.8137 271.701ZM101.901 280.497C99.2717 279.497 96.5607 278.727 93.7984 278.197V277.251C96.7214 277.807 99.5856 278.637 102.353 279.73L102.441 279.826L101.901 280.497ZM101.901 277.266C99.2738 276.267 96.5655 275.498 93.806 274.966V274.02C96.7705 274.586 99.6727 275.44 102.472 276.568L101.901 277.266ZM79.2495 261C75.2402 261.033 71.2897 261.967 67.6901 263.733C71.2352 263.772 74.7367 264.52 77.9885 265.933V282.521H78.4101V282.544H91.7479V277.814C87.6163 277.126 83.4377 276.758 79.2495 276.714V275.767C83.4377 275.811 87.6163 276.179 91.7479 276.867V274.568C87.6163 273.879 83.4377 273.512 79.2495 273.468V272.533C83.4378 272.578 87.6164 272.947 91.7479 273.636V271.337C87.6137 270.676 83.436 270.323 79.2495 270.283V261ZM51.5315 282.544H63.0717V277.944C59.7308 278.511 56.4499 279.387 53.2715 280.562L52.7043 279.841C56.054 278.543 59.5279 277.591 63.0717 277.001V274.702C59.7331 275.267 56.4546 276.144 53.2792 277.32L52.7043 276.603C56.0549 275.306 59.5285 274.354 63.0717 273.759V271.459C54.7011 272.908 50.4238 275.143 50.4238 275.143L51.5315 282.544Z" fill="#001732"/>
<path d="M103.967 297.18C105.216 296.93 106.336 296.243 107.126 295.242C107.915 294.242 108.322 292.993 108.275 291.719C108.275 289.504 107.451 287.959 106.036 287.12C104.622 286.28 102.813 286.058 100.751 286.054H89.9199V304.259H94.3773V297.548H98.8348L103.783 304.259H109.306L103.967 297.18ZM103.081 293.256C102.564 293.532 101.594 293.639 100.257 293.639H94.3773V289.96H100.257C101.594 289.96 102.556 290.071 103.081 290.343C103.606 290.615 103.783 290.903 103.806 291.784C103.829 292.666 103.576 292.98 103.081 293.256Z" fill="#001732"/>
<path d="M87.4258 286.054H67.6836V290.052H75.326V304.275H79.7872V290.052H87.4258V286.054Z" fill="#001732"/>
<path d="M62.4967 293.145C60.1971 292.589 53.6087 292.761 53.6087 292.761C51.6924 292.761 51.3091 292.045 51.3091 291.474C51.3321 290.592 51.244 289.941 54.8544 289.941H65.2026V286.054H54.3753C52.3133 286.054 50.4851 286.28 49.09 287.116C47.6949 287.951 46.8364 289.193 46.8517 291.405C46.8517 294.432 49.0018 295.785 51.1596 296.345C52.7962 296.774 56.3069 296.728 56.3069 296.728H60.1243C61.8414 296.728 62.3319 297.64 62.3549 298.533C62.3779 299.426 62.1288 299.683 61.6306 299.975C61.1323 300.266 60.1435 300.358 58.8097 300.358H48.9099L45.9434 304.259H59.2811C61.3431 304.259 63.1713 304.037 64.5664 303.198C65.9615 302.358 66.82 300.81 66.8047 298.599C66.8184 297.334 66.3983 296.103 65.6144 295.11C64.8305 294.118 63.7302 293.424 62.4967 293.145Z" fill="#001732"/>
<path d="M46.7099 309.395V312.772H45.9434V308.318H47.0932L48.4883 311.622L49.9025 308.318H51.0523V312.772H50.2858V309.395L48.86 312.772H48.1433L46.7099 309.395Z" fill="#001732"/>
<path d="M54.411 308.318H55.4075L57.5692 312.772H56.6493L56.1856 311.749H53.61L53.1348 312.772H52.2188L54.411 308.318ZM55.8406 311.001L54.9093 309.016L53.9933 311.001H55.8406Z" fill="#001732"/>
<path d="M58.7598 308.318H61.4426C62.4966 308.318 63.2593 308.556 63.2593 309.644C63.266 309.813 63.2389 309.981 63.1795 310.139C63.1201 310.297 63.0297 310.442 62.9136 310.564C62.7976 310.687 62.6581 310.785 62.5036 310.853C62.349 310.92 62.1825 310.957 62.0137 310.959L63.382 312.772H62.3088L61.0134 311.02H59.6336V312.772H58.7598V308.318ZM61.3123 310.296C62.0214 310.296 62.3855 310.193 62.3855 309.667C62.3855 309.142 62.0022 309.039 61.3123 309.039H59.6298V310.296H61.3123Z" fill="#001732"/>
<path d="M64.8262 308.318H65.6962V310.392L68.1721 308.318H69.4101L67.2829 310.081L69.6247 312.764H68.4749L66.639 310.599L65.6885 311.388V312.772H64.8262V308.318Z" fill="#001732"/>
<path d="M70.8887 308.318H74.89V309.066H71.7625V310.101H74.4454V310.848H71.7625V312.025H74.9628V312.791H70.8887V308.318Z" fill="#001732"/>
<path d="M77.866 309.066H75.873V308.318H80.7291V309.066H78.7361V312.772H77.866V309.066Z" fill="#001732"/>
<path d="M81.9941 308.318H84.4777C85.2443 308.318 86.4707 308.318 86.4707 309.683C86.4707 311.047 85.2328 311.043 84.4777 311.043H82.8642V312.772H81.9941V308.318ZM84.677 310.296C85.1714 310.296 85.6084 310.254 85.6084 309.679C85.6084 309.104 85.1714 309.066 84.677 309.066H82.8718V310.296H84.677Z" fill="#001732"/>
<path d="M87.7188 308.318H88.5888V312.002H91.8236V312.768H87.7188V308.318Z" fill="#001732"/>
<path d="M94.8173 308.318H95.81L97.9754 312.772H97.0556L96.5918 311.749H94.0201L93.5487 312.772H92.625L94.8173 308.318ZM96.2469 311.001L95.3155 309.016L94.3842 311.001H96.2469Z" fill="#001732"/>
<path d="M103.851 311.186C103.767 311.684 103.41 312.883 101.364 312.883C99.9533 312.883 98.8418 312.117 98.8418 310.476C98.8418 309.177 99.6582 308.208 101.429 308.208C103.422 308.208 103.728 309.499 103.786 309.741H102.912C102.866 309.587 102.529 308.955 101.479 308.955C100.245 308.955 99.731 309.645 99.731 310.572C99.731 311.596 100.475 312.136 101.429 312.136C102.448 312.136 102.897 311.53 102.962 311.186H103.851Z" fill="#001732"/>
<path d="M105.234 308.318H109.232V309.066H106.116V310.101H108.799V310.848H106.116V312.025H109.316V312.791H105.234V308.318Z" fill="#001732"/>
<path d="M368.375 388.422C366.755 388.422 365.291 388.145 363.983 387.591C362.696 387.036 361.676 386.238 360.922 385.195C360.168 384.153 359.78 382.922 359.757 381.502H364.748C364.815 382.456 365.147 383.21 365.746 383.764C366.367 384.319 367.21 384.596 368.275 384.596C369.362 384.596 370.216 384.341 370.837 383.831C371.458 383.299 371.768 382.611 371.768 381.768C371.768 381.081 371.558 380.515 371.136 380.071C370.715 379.628 370.182 379.284 369.539 379.04C368.918 378.774 368.053 378.485 366.944 378.175C365.436 377.731 364.205 377.299 363.251 376.877C362.319 376.434 361.51 375.779 360.822 374.914C360.157 374.027 359.824 372.851 359.824 371.388C359.824 370.012 360.168 368.815 360.855 367.794C361.543 366.774 362.508 365.998 363.75 365.465C364.992 364.911 366.412 364.634 368.009 364.634C370.404 364.634 372.345 365.221 373.831 366.397C375.339 367.55 376.171 369.169 376.326 371.254H371.203C371.158 370.456 370.814 369.802 370.171 369.291C369.55 368.759 368.718 368.493 367.676 368.493C366.766 368.493 366.035 368.726 365.48 369.192C364.948 369.657 364.681 370.334 364.681 371.221C364.681 371.842 364.881 372.364 365.28 372.785C365.702 373.184 366.212 373.517 366.811 373.783C367.432 374.027 368.297 374.315 369.406 374.648C370.914 375.092 372.145 375.535 373.099 375.979C374.053 376.423 374.874 377.088 375.561 377.975C376.249 378.862 376.593 380.027 376.593 381.469C376.593 382.711 376.271 383.864 375.628 384.929C374.984 385.994 374.042 386.848 372.8 387.491C371.558 388.112 370.082 388.422 368.375 388.422ZM397.765 378.574C397.765 379.24 397.721 379.838 397.632 380.371H384.158C384.268 381.702 384.734 382.744 385.555 383.498C386.376 384.252 387.385 384.629 388.583 384.629C390.313 384.629 391.544 383.886 392.276 382.4H397.3C396.767 384.175 395.747 385.639 394.239 386.792C392.73 387.923 390.878 388.489 388.682 388.489C386.908 388.489 385.311 388.101 383.891 387.324C382.494 386.526 381.396 385.406 380.598 383.964C379.821 382.522 379.433 380.859 379.433 378.973C379.433 377.066 379.821 375.391 380.598 373.949C381.374 372.508 382.461 371.399 383.858 370.622C385.255 369.846 386.864 369.458 388.682 369.458C390.435 369.458 391.998 369.835 393.374 370.589C394.771 371.343 395.847 372.419 396.601 373.816C397.377 375.192 397.765 376.777 397.765 378.574ZM392.941 377.243C392.919 376.046 392.486 375.092 391.644 374.382C390.801 373.65 389.769 373.284 388.549 373.284C387.396 373.284 386.42 373.639 385.621 374.349C384.845 375.036 384.368 376.001 384.191 377.243H392.941ZM405.823 363.569V388.189H401.165V363.569H405.823ZM415.083 363.569V388.189H410.425V363.569H415.083ZM436.82 378.574C436.82 379.24 436.776 379.838 436.687 380.371H423.212C423.323 381.702 423.789 382.744 424.609 383.498C425.43 384.252 426.439 384.629 427.637 384.629C429.367 384.629 430.598 383.886 431.33 382.4H436.354C435.822 384.175 434.802 385.639 433.293 386.792C431.785 387.923 429.933 388.489 427.737 388.489C425.962 388.489 424.365 388.101 422.946 387.324C421.549 386.526 420.451 385.406 419.652 383.964C418.876 382.522 418.488 380.859 418.488 378.973C418.488 377.066 418.876 375.391 419.652 373.949C420.428 372.508 421.515 371.399 422.913 370.622C424.31 369.846 425.918 369.458 427.737 369.458C429.489 369.458 431.053 369.835 432.428 370.589C433.826 371.343 434.901 372.419 435.655 373.816C436.432 375.192 436.82 376.777 436.82 378.574ZM431.996 377.243C431.973 376.046 431.541 375.092 430.698 374.382C429.855 373.65 428.824 373.284 427.604 373.284C426.45 373.284 425.475 373.639 424.676 374.349C423.9 375.036 423.423 376.001 423.245 377.243H431.996ZM444.878 372.619C445.477 371.643 446.253 370.877 447.207 370.323C448.183 369.768 449.292 369.491 450.534 369.491V374.382H449.303C447.839 374.382 446.73 374.726 445.976 375.413C445.244 376.101 444.878 377.299 444.878 379.007V388.189H440.22V369.757H444.878V372.619Z" fill="#001732"/>
<path d="M765.208 293.971V297.365C763.664 297.762 762.521 299.167 762.521 300.835C762.521 302.503 763.664 303.906 765.208 304.306V306.208H763.304C762.383 302.636 757.284 302.639 756.365 306.208H753.754C752.833 302.636 747.734 302.639 746.815 306.208H744.187C743.266 302.636 738.167 302.639 737.248 306.208H734.637C733.716 302.636 728.617 302.639 727.698 306.208H725.792V304.304C729.364 303.383 729.361 298.284 725.792 297.365V294.754C729.364 293.833 729.361 288.734 725.792 287.815V285.187C729.364 284.266 729.361 279.167 725.792 278.248V275.637C729.364 274.716 729.361 269.617 725.792 268.698V266.792H727.696C728.617 270.364 733.716 270.361 734.635 266.792H737.246C738.167 270.364 743.266 270.361 744.185 266.792H746.813C747.734 270.364 752.833 270.361 753.752 266.792H756.363C757.284 270.364 762.383 270.361 763.302 266.792H765.208V268.696C761.636 269.617 761.639 274.716 765.208 275.635V276.571C765.208 277.757 767 277.755 767 276.571V274.854C767 274.36 766.599 273.958 766.104 273.958C763.732 273.958 763.736 270.375 766.104 270.375C766.599 270.375 767 269.974 767 269.479V265.896C767 265.401 766.599 265 766.104 265H762.521C762.026 265 761.625 265.401 761.625 265.896C761.625 268.268 758.042 268.264 758.042 265.896C758.042 265.401 757.64 265 757.146 265H752.971C752.477 265 752.075 265.401 752.075 265.896C752.075 268.268 748.492 268.264 748.492 265.896C748.492 265.401 748.091 265 747.596 265H743.404C742.909 265 742.508 265.401 742.508 265.896C742.508 268.268 738.925 268.264 738.925 265.896C738.925 265.401 738.523 265 738.029 265H733.854C733.36 265 732.958 265.401 732.958 265.896C732.958 268.268 729.375 268.264 729.375 265.896C729.375 265.401 728.974 265 728.479 265H724.896C724.401 265 724 265.401 724 265.896V269.479C724 269.974 724.401 270.375 724.896 270.375C727.268 270.375 727.264 273.958 724.896 273.958C724.401 273.958 724 274.36 724 274.854V279.029C724 279.523 724.401 279.925 724.896 279.925C727.268 279.925 727.264 283.508 724.896 283.508C724.401 283.508 724 283.909 724 284.404V288.596C724 289.091 724.401 289.492 724.896 289.492C727.268 289.492 727.264 293.075 724.896 293.075C724.401 293.075 724 293.477 724 293.971V298.146C724 298.64 724.401 299.042 724.896 299.042C727.268 299.042 727.264 302.625 724.896 302.625C724.401 302.625 724 303.026 724 303.521V307.104C724 307.599 724.401 308 724.896 308H728.479C728.974 308 729.375 307.599 729.375 307.104C729.375 304.732 732.958 304.736 732.958 307.104C732.958 307.599 733.36 308 733.854 308H738.029C738.523 308 738.925 307.599 738.925 307.104C738.925 304.732 742.508 304.736 742.508 307.104C742.508 307.599 742.909 308 743.404 308H747.596C748.091 308 748.492 307.599 748.492 307.104C748.492 304.732 752.075 304.736 752.075 307.104C752.075 307.599 752.477 308 752.971 308H757.146C757.64 308 758.042 307.599 758.042 307.104C758.042 304.732 761.625 304.736 761.625 307.104C761.625 307.599 762.026 308 762.521 308H766.104C766.599 308 767 307.599 767 307.104V303.521C767 303.026 766.599 302.625 766.104 302.625C765.117 302.625 764.312 301.821 764.312 300.833C764.312 299.846 765.117 299.042 766.104 299.042C766.599 299.042 767 298.64 767 298.146V293.971C767 292.785 765.208 292.787 765.208 293.971Z" fill="#001732"/>
<path d="M758.041 273.96V278.364C758.041 279.55 759.833 279.548 759.833 278.364V273.064C759.833 272.57 759.431 272.168 758.937 272.168H732.062C731.567 272.168 731.166 272.57 731.166 273.064V299.939C731.166 300.434 731.567 300.835 732.062 300.835H758.937C759.431 300.835 759.833 300.434 759.833 299.939V296.354C759.833 295.168 758.041 295.17 758.041 296.354V299.043H732.958V273.96H758.041Z" fill="#001732"/>
<path d="M756.807 279.53C753.498 276.884 750.148 276.796 746.731 279.53C745.661 280.387 744.739 281.127 742.813 281.127C741.627 281.127 741.628 282.919 742.813 282.919C745.366 282.919 746.686 281.863 747.851 280.93C750.56 278.762 752.979 278.762 755.688 280.93C759.052 283.619 762.399 283.624 765.768 280.93C766.837 280.073 767.762 279.333 769.688 279.333C770.874 279.333 770.872 277.542 769.688 277.542C767.133 277.542 765.812 278.597 764.648 279.529C761.937 281.7 759.516 281.7 756.807 279.53Z" fill="#001732"/>
<path d="M769.688 282.918C767.133 282.918 765.812 283.973 764.648 284.905C761.937 287.075 759.516 287.075 756.807 284.905C753.498 282.259 750.148 282.171 746.731 284.905C745.661 285.761 744.739 286.501 742.813 286.501C741.627 286.501 741.628 288.293 742.813 288.293C745.366 288.293 746.686 287.238 747.851 286.304C750.56 284.136 752.979 284.136 755.688 286.304C759.052 288.994 762.399 288.999 765.768 286.304C766.837 285.448 767.762 284.708 769.688 284.708C770.874 284.71 770.872 282.918 769.688 282.918Z" fill="#001732"/>
<path d="M769.688 288.294C767.133 288.294 765.812 289.349 764.648 290.28C761.937 292.45 759.516 292.45 756.807 290.28C753.498 287.634 750.148 287.546 746.731 290.28C745.661 291.137 744.739 291.877 742.813 291.877C741.627 291.877 741.628 293.669 742.813 293.669C745.366 293.669 746.686 292.613 747.851 291.68C750.56 289.512 752.979 289.512 755.688 291.68C759.052 294.369 762.399 294.374 765.768 291.68C766.837 290.823 767.762 290.083 769.688 290.083C770.874 290.085 770.872 288.294 769.688 288.294Z" fill="#001732"/>
</svg>
