<svg width="1022" height="772" viewBox="0 0 1022 772" fill="none" xmlns="http://www.w3.org/2000/svg">
<path d="M58 593L964 593" stroke="#D8DFE8" stroke-linecap="round"/>
<rect x="387" width="114" height="136" rx="7.42142" fill="#001732"/>
<path d="M426.422 88.7185V90.3352H422.272V103.945H420.284V90.3352H416.111V88.7185H426.422ZM439.181 91.9736L431.972 109.582H429.918L432.278 103.814L427.45 91.9736H429.656L433.414 101.673L437.127 91.9736H439.181ZM443.167 94.1801C443.561 93.4956 444.143 92.9276 444.915 92.4761C445.701 92.01 446.612 91.777 447.646 91.777C448.709 91.777 449.67 92.0319 450.529 92.5416C451.403 93.0514 452.088 93.7723 452.583 94.7044C453.078 95.6219 453.326 96.6924 453.326 97.9158C453.326 99.1246 453.078 100.202 452.583 101.149C452.088 102.096 451.403 102.831 450.529 103.355C449.67 103.88 448.709 104.142 447.646 104.142C446.626 104.142 445.723 103.916 444.937 103.465C444.165 102.999 443.575 102.423 443.167 101.739V109.625H441.179V91.9736H443.167V94.1801ZM451.294 97.9158C451.294 97.0128 451.112 96.2263 450.748 95.5564C450.384 94.8864 449.889 94.3767 449.262 94.0272C448.651 93.6776 447.973 93.5029 447.231 93.5029C446.502 93.5029 445.825 93.6849 445.199 94.049C444.587 94.3985 444.092 94.9156 443.713 95.6001C443.349 96.27 443.167 97.0492 443.167 97.9376C443.167 98.8406 443.349 99.6343 443.713 100.319C444.092 100.989 444.587 101.506 445.199 101.87C445.825 102.219 446.502 102.394 447.231 102.394C447.973 102.394 448.651 102.219 449.262 101.87C449.889 101.506 450.384 100.989 450.748 100.319C451.112 99.6343 451.294 98.8333 451.294 97.9158ZM466.866 97.5007C466.866 97.8794 466.844 98.2799 466.8 98.7022H457.231C457.304 99.8819 457.705 100.807 458.433 101.477C459.176 102.132 460.071 102.46 461.12 102.46C461.979 102.46 462.693 102.263 463.261 101.87C463.844 101.462 464.251 100.923 464.484 100.253H466.625C466.305 101.404 465.664 102.343 464.703 103.071C463.742 103.785 462.547 104.142 461.12 104.142C459.984 104.142 458.965 103.887 458.062 103.377C457.173 102.868 456.474 102.147 455.964 101.215C455.455 100.268 455.2 99.1756 455.2 97.9376C455.2 96.6997 455.447 95.6146 455.943 94.6825C456.438 93.7504 457.129 93.0368 458.018 92.5416C458.921 92.0319 459.955 91.777 461.12 91.777C462.256 91.777 463.261 92.0246 464.135 92.5198C465.009 93.015 465.679 93.6995 466.145 94.5733C466.625 95.4326 466.866 96.4084 466.866 97.5007ZM464.812 97.0856C464.812 96.3283 464.645 95.6802 464.31 95.1413C463.975 94.5879 463.516 94.1728 462.933 93.8961C462.365 93.6048 461.732 93.4592 461.033 93.4592C460.028 93.4592 459.168 93.7796 458.455 94.4204C457.756 95.0612 457.355 95.9496 457.253 97.0856H464.812Z" fill="white"/>
<path d="M467.83 21.8457H415.4C410.591 21.8457 408.846 25.7649 408.846 28.3995V54.6149C408.846 59.4233 412.765 61.1688 415.4 61.1688H467.83C472.639 61.1688 474.384 57.2496 474.384 54.6149V28.3995C474.384 23.5912 470.465 21.8457 467.83 21.8457ZM470.015 54.5887C469.989 55.598 469.591 56.7995 467.83 56.7995H415.426C414.416 56.7733 413.215 56.3757 413.215 54.6149V28.4258C413.241 27.4165 413.641 26.2149 415.4 26.2149H467.804C468.813 26.2411 470.015 26.6409 470.015 28.3995V54.5887ZM426.323 48.0611H456.907V52.4303H426.323V48.0611ZM461.276 48.0611H465.646V52.4303H461.276V48.0611ZM461.276 39.3226H465.646V43.6919H461.276V39.3226ZM452.538 39.3226H456.907V43.6919H452.538V39.3226ZM448.169 43.6919H443.8V39.3226H448.169V43.6919ZM439.43 43.6919H435.061V39.3226H439.43V43.6919ZM430.692 43.6919H426.323V39.3226H430.692V43.6919ZM417.584 39.3226H421.953V43.6919H417.584V39.3226ZM417.584 48.0611H421.953V52.4303H417.584V48.0611ZM461.276 30.5842H465.646V34.9534H461.276V30.5842ZM452.538 30.5842H456.907V34.9534H452.538V30.5842ZM448.169 34.9534H443.8V30.5842H448.169V34.9534ZM439.43 34.9534H435.061V30.5842H439.43V34.9534ZM430.692 34.9534H426.323V30.5842H430.692V34.9534ZM417.584 30.5842H421.953V34.9534H417.584V30.5842Z" fill="white"/>
<rect x="520" width="114" height="136" rx="7.42142" fill="#001732"/>
<path d="M552.949 88.7185C554.609 88.7185 556.044 89.0317 557.253 89.6579C558.476 90.2696 559.408 91.1507 560.049 92.3013C560.704 93.4519 561.032 94.8063 561.032 96.3647C561.032 97.9231 560.704 99.2775 560.049 100.428C559.408 101.564 558.476 102.438 557.253 103.05C556.044 103.647 554.609 103.945 552.949 103.945H548.208V88.7185H552.949ZM552.949 102.307C554.915 102.307 556.415 101.79 557.449 100.756C558.483 99.7072 559 98.2435 559 96.3647C559 94.4714 558.476 92.9931 557.428 91.9299C556.393 90.8667 554.901 90.3352 552.949 90.3352H550.196V102.307H552.949ZM565.642 93.9179C565.992 93.2334 566.487 92.7018 567.128 92.3232C567.783 91.9445 568.577 91.7552 569.509 91.7552V93.8087H568.985C566.757 93.8087 565.642 95.0175 565.642 97.4352V103.945H563.654V91.9736H565.642V93.9179ZM571.061 97.9158C571.061 96.6924 571.309 95.6219 571.804 94.7044C572.299 93.7723 572.976 93.0514 573.836 92.5416C574.71 92.0319 575.678 91.777 576.741 91.777C577.79 91.777 578.7 92.0027 579.472 92.4542C580.244 92.9057 580.819 93.4737 581.198 94.1582V91.9736H583.208V103.945H581.198V101.717C580.805 102.416 580.215 102.999 579.428 103.465C578.656 103.916 577.753 104.142 576.719 104.142C575.656 104.142 574.695 103.88 573.836 103.355C572.976 102.831 572.299 102.096 571.804 101.149C571.309 100.202 571.061 99.1246 571.061 97.9158ZM581.198 97.9376C581.198 97.0346 581.016 96.2482 580.652 95.5782C580.288 94.9083 579.792 94.3985 579.166 94.049C578.554 93.6849 577.877 93.5029 577.134 93.5029C576.392 93.5029 575.714 93.6776 575.103 94.0272C574.491 94.3767 574.003 94.8864 573.639 95.5564C573.275 96.2263 573.093 97.0128 573.093 97.9158C573.093 98.8333 573.275 99.6343 573.639 100.319C574.003 100.989 574.491 101.506 575.103 101.87C575.714 102.219 576.392 102.394 577.134 102.394C577.877 102.394 578.554 102.219 579.166 101.87C579.792 101.506 580.288 100.989 580.652 100.319C581.016 99.6343 581.198 98.8406 581.198 97.9376ZM602.515 91.9736L598.779 103.945H596.726L593.842 94.4422L590.958 103.945H588.905L585.147 91.9736H587.179L589.932 102.023L592.903 91.9736H594.934L597.84 102.045L600.549 91.9736H602.515Z" fill="white"/>
<path d="M583.135 28.3516L589.641 21.8453L603.625 35.8291L597.119 42.3353L583.135 28.3516Z" fill="white"/>
<path d="M580.615 30.2529L568.866 37.2428L561.975 61.5533L575.469 48.0894L575.455 44.9295L580.84 44.8681L580.902 50.276L577.703 50.2893L564.19 63.7733L588.755 56.6924L595.27 44.9079L580.615 30.2529Z" fill="white"/>
<path d="M561.972 61.555L560.864 62.6624C560.025 63.5011 558.91 63.9631 557.724 63.9631C556.538 63.9631 555.423 63.5011 554.584 62.6624C552.901 60.9794 552.84 58.2844 554.446 56.5272L556.565 54.2078C559.305 51.2097 559.201 46.6118 556.329 43.7401L552.354 39.7646L550.137 41.9819L554.112 45.9574C555.795 47.6404 555.856 50.3354 554.25 52.0926L552.131 54.412C549.392 57.4101 549.495 62.0081 552.367 64.8797C553.798 66.3108 555.701 67.0988 557.724 67.0988C559.748 67.0988 561.651 66.3106 563.081 64.8797L564.187 63.7739L564.188 63.774L561.972 61.555Z" fill="white"/>
<rect x="307.5" y="190.5" width="407" height="53" rx="4.5" stroke="#D8DFE8"/>
<path d="M331.768 223.112C331.032 223.112 330.371 222.984 329.784 222.728C329.208 222.461 328.755 222.099 328.424 221.64C328.093 221.171 327.923 220.632 327.912 220.024H329.464C329.517 220.547 329.731 220.989 330.104 221.352C330.488 221.704 331.043 221.88 331.768 221.88C332.461 221.88 333.005 221.709 333.4 221.368C333.805 221.016 334.008 220.568 334.008 220.024C334.008 219.597 333.891 219.251 333.656 218.984C333.421 218.717 333.128 218.515 332.776 218.376C332.424 218.237 331.949 218.088 331.352 217.928C330.616 217.736 330.024 217.544 329.576 217.352C329.139 217.16 328.76 216.861 328.44 216.456C328.131 216.04 327.976 215.485 327.976 214.792C327.976 214.184 328.131 213.645 328.44 213.176C328.749 212.707 329.181 212.344 329.736 212.088C330.301 211.832 330.947 211.704 331.672 211.704C332.717 211.704 333.571 211.965 334.232 212.488C334.904 213.011 335.283 213.704 335.368 214.568H333.768C333.715 214.141 333.491 213.768 333.096 213.448C332.701 213.117 332.179 212.952 331.528 212.952C330.92 212.952 330.424 213.112 330.04 213.432C329.656 213.741 329.464 214.179 329.464 214.744C329.464 215.149 329.576 215.48 329.8 215.736C330.035 215.992 330.317 216.189 330.648 216.328C330.989 216.456 331.464 216.605 332.072 216.776C332.808 216.979 333.4 217.181 333.848 217.384C334.296 217.576 334.68 217.88 335 218.296C335.32 218.701 335.48 219.256 335.48 219.96C335.48 220.504 335.336 221.016 335.048 221.496C334.76 221.976 334.333 222.365 333.768 222.664C333.203 222.963 332.536 223.112 331.768 223.112ZM338.375 212.808C338.097 212.808 337.863 212.712 337.671 212.52C337.479 212.328 337.383 212.093 337.383 211.816C337.383 211.539 337.479 211.304 337.671 211.112C337.863 210.92 338.097 210.824 338.375 210.824C338.641 210.824 338.865 210.92 339.047 211.112C339.239 211.304 339.335 211.539 339.335 211.816C339.335 212.093 339.239 212.328 339.047 212.52C338.865 212.712 338.641 212.808 338.375 212.808ZM339.079 214.232V223H337.623V214.232H339.079ZM345.176 214.088C345.933 214.088 346.595 214.253 347.16 214.584C347.736 214.915 348.163 215.331 348.44 215.832V214.232H349.912V223.192C349.912 223.992 349.741 224.701 349.4 225.32C349.059 225.949 348.568 226.44 347.928 226.792C347.299 227.144 346.563 227.32 345.72 227.32C344.568 227.32 343.608 227.048 342.84 226.504C342.072 225.96 341.619 225.219 341.48 224.28H342.92C343.08 224.813 343.411 225.24 343.912 225.56C344.413 225.891 345.016 226.056 345.72 226.056C346.52 226.056 347.171 225.805 347.672 225.304C348.184 224.803 348.44 224.099 348.44 223.192V221.352C348.152 221.864 347.725 222.291 347.16 222.632C346.595 222.973 345.933 223.144 345.176 223.144C344.397 223.144 343.688 222.952 343.048 222.568C342.419 222.184 341.923 221.645 341.56 220.952C341.197 220.259 341.016 219.469 341.016 218.584C341.016 217.688 341.197 216.904 341.56 216.232C341.923 215.549 342.419 215.021 343.048 214.648C343.688 214.275 344.397 214.088 345.176 214.088ZM348.44 218.6C348.44 217.939 348.307 217.363 348.04 216.872C347.773 216.381 347.411 216.008 346.952 215.752C346.504 215.485 346.008 215.352 345.464 215.352C344.92 215.352 344.424 215.48 343.976 215.736C343.528 215.992 343.171 216.365 342.904 216.856C342.637 217.347 342.504 217.923 342.504 218.584C342.504 219.256 342.637 219.843 342.904 220.344C343.171 220.835 343.528 221.213 343.976 221.48C344.424 221.736 344.92 221.864 345.464 221.864C346.008 221.864 346.504 221.736 346.952 221.48C347.411 221.213 347.773 220.835 348.04 220.344C348.307 219.843 348.44 219.261 348.44 218.6ZM356.645 214.072C357.711 214.072 358.575 214.397 359.237 215.048C359.898 215.688 360.229 216.616 360.229 217.832V223H358.789V218.04C358.789 217.165 358.57 216.499 358.133 216.04C357.695 215.571 357.098 215.336 356.341 215.336C355.573 215.336 354.959 215.576 354.501 216.056C354.053 216.536 353.829 217.235 353.829 218.152V223H352.373V214.232H353.829V215.48C354.117 215.032 354.506 214.685 354.997 214.44C355.498 214.195 356.047 214.072 356.645 214.072ZM375.465 211.848V223H374.009V217.944H368.329V223H366.873V211.848H368.329V216.744H374.009V211.848H375.465ZM385.951 218.28C385.951 218.557 385.935 218.851 385.903 219.16H378.895C378.948 220.024 379.241 220.701 379.775 221.192C380.319 221.672 380.975 221.912 381.743 221.912C382.372 221.912 382.895 221.768 383.311 221.48C383.737 221.181 384.036 220.787 384.207 220.296H385.775C385.54 221.139 385.071 221.827 384.367 222.36C383.663 222.883 382.788 223.144 381.743 223.144C380.911 223.144 380.164 222.957 379.503 222.584C378.852 222.211 378.34 221.683 377.967 221C377.593 220.307 377.407 219.507 377.407 218.6C377.407 217.693 377.588 216.899 377.951 216.216C378.313 215.533 378.82 215.011 379.471 214.648C380.132 214.275 380.889 214.088 381.743 214.088C382.575 214.088 383.311 214.269 383.951 214.632C384.591 214.995 385.081 215.496 385.423 216.136C385.775 216.765 385.951 217.48 385.951 218.28ZM384.447 217.976C384.447 217.421 384.324 216.947 384.079 216.552C383.833 216.147 383.497 215.843 383.071 215.64C382.655 215.427 382.191 215.32 381.679 215.32C380.943 215.32 380.313 215.555 379.791 216.024C379.279 216.493 378.985 217.144 378.911 217.976H384.447ZM389.329 215.656C389.585 215.155 389.947 214.765 390.417 214.488C390.897 214.211 391.478 214.072 392.161 214.072V215.576H391.777C390.145 215.576 389.329 216.461 389.329 218.232V223H387.873V214.232H389.329V215.656ZM401.841 218.28C401.841 218.557 401.825 218.851 401.793 219.16H394.785C394.839 220.024 395.132 220.701 395.665 221.192C396.209 221.672 396.865 221.912 397.633 221.912C398.263 221.912 398.785 221.768 399.201 221.48C399.628 221.181 399.927 220.787 400.097 220.296H401.665C401.431 221.139 400.961 221.827 400.257 222.36C399.553 222.883 398.679 223.144 397.633 223.144C396.801 223.144 396.055 222.957 395.393 222.584C394.743 222.211 394.231 221.683 393.857 221C393.484 220.307 393.297 219.507 393.297 218.6C393.297 217.693 393.479 216.899 393.841 216.216C394.204 215.533 394.711 215.011 395.361 214.648C396.023 214.275 396.78 214.088 397.633 214.088C398.465 214.088 399.201 214.269 399.841 214.632C400.481 214.995 400.972 215.496 401.313 216.136C401.665 216.765 401.841 217.48 401.841 218.28ZM400.337 217.976C400.337 217.421 400.215 216.947 399.969 216.552C399.724 216.147 399.388 215.843 398.961 215.64C398.545 215.427 398.081 215.32 397.569 215.32C396.833 215.32 396.204 215.555 395.681 216.024C395.169 216.493 394.876 217.144 394.801 217.976H400.337Z" fill="#818181"/>
<rect x="0.5" y="276.5" width="1021" height="410" rx="29.5" stroke="#D8DFE8"/>
<path d="M919.042 319.85H962.958C969.617 319.85 975 325.233 975 331.891V374.108C975 380.766 969.617 386.15 962.958 386.15H919.042C912.383 386.15 907 380.766 907 374.108V331.891C907 325.233 912.383 319.85 919.042 319.85Z" fill="#FA0F00"/>
<path d="M961.684 358.241C958.539 354.898 949.841 356.258 947.801 356.598C944.798 353.68 942.701 350.223 941.993 348.948C943.126 345.718 943.863 342.29 943.976 338.918C943.976 335.858 942.758 332.571 939.358 332.571C938.168 332.6 937.091 333.251 936.496 334.243C935.051 336.736 935.618 341.893 937.941 347.106C936.581 350.931 934.626 356.456 932.048 360.933C928.563 362.321 921.168 365.721 920.459 369.49C920.233 370.595 920.629 371.728 921.479 372.493C922.301 373.23 923.378 373.598 924.483 373.57C928.931 373.57 933.379 367.393 936.383 362.095C938.904 361.216 942.928 360.055 946.979 359.318C951.683 363.426 955.876 364.05 958.001 364.05C960.891 364.05 961.968 362.803 962.364 361.755C962.789 360.565 962.534 359.205 961.684 358.241ZM958.624 360.395C958.483 361.216 957.434 362.038 955.479 361.613C953.213 361.046 951.088 359.97 949.303 358.496C950.833 358.241 954.403 357.901 956.924 358.383C957.831 358.553 958.879 359.063 958.624 360.395ZM938.338 335.32C938.536 334.951 938.904 334.696 939.329 334.696C940.406 334.696 940.633 336 940.633 337.076C940.491 339.655 939.924 342.29 939.216 344.641C937.403 339.825 937.658 336.481 938.338 335.32ZM938.083 358.865C939.046 356.966 940.406 353.51 940.888 352.121C941.964 353.906 943.778 356.145 944.741 357.165C944.769 357.136 941.058 357.901 938.083 358.865ZM930.971 363.738C928.109 368.328 925.304 371.218 923.661 371.218C923.406 371.218 923.123 371.133 922.924 370.963C922.613 370.708 922.471 370.311 922.556 369.915C922.868 368.271 926.126 365.891 930.971 363.738Z" fill="white"/>
<path d="M684 211L695 222" stroke="#D8DFE8" stroke-width="0.846154" stroke-linecap="round"/>
<path d="M695 211L684 222" stroke="#D8DFE8" stroke-width="0.846154" stroke-linecap="round"/>
<rect x="267" y="718" width="237" height="54" rx="5" fill="#002B5C"/>
<rect x="516" y="718" width="237" height="54" rx="5" fill="#001732"/>
<path d="M344.824 747.52H339.96L339.064 750H337.528L341.56 738.912H343.24L347.256 750H345.72L344.824 747.52ZM344.408 746.336L342.392 740.704L340.376 746.336H344.408ZM348.469 745.6C348.469 744.693 348.651 743.904 349.013 743.232C349.376 742.549 349.877 742.021 350.517 741.648C351.168 741.275 351.909 741.088 352.741 741.088C353.819 741.088 354.704 741.349 355.397 741.872C356.101 742.395 356.565 743.12 356.789 744.048H355.221C355.072 743.515 354.779 743.093 354.341 742.784C353.915 742.475 353.381 742.32 352.741 742.32C351.909 742.32 351.237 742.608 350.725 743.184C350.213 743.749 349.957 744.555 349.957 745.6C349.957 746.656 350.213 747.472 350.725 748.048C351.237 748.624 351.909 748.912 352.741 748.912C353.381 748.912 353.915 748.763 354.341 748.464C354.768 748.165 355.061 747.739 355.221 747.184H356.789C356.555 748.08 356.085 748.8 355.381 749.344C354.677 749.877 353.797 750.144 352.741 750.144C351.909 750.144 351.168 749.957 350.517 749.584C349.877 749.211 349.376 748.683 349.013 748C348.651 747.317 348.469 746.517 348.469 745.6ZM358.188 745.6C358.188 744.693 358.369 743.904 358.732 743.232C359.095 742.549 359.596 742.021 360.236 741.648C360.887 741.275 361.628 741.088 362.46 741.088C363.537 741.088 364.423 741.349 365.116 741.872C365.82 742.395 366.284 743.12 366.508 744.048H364.94C364.791 743.515 364.497 743.093 364.06 742.784C363.633 742.475 363.1 742.32 362.46 742.32C361.628 742.32 360.956 742.608 360.444 743.184C359.932 743.749 359.676 744.555 359.676 745.6C359.676 746.656 359.932 747.472 360.444 748.048C360.956 748.624 361.628 748.912 362.46 748.912C363.1 748.912 363.633 748.763 364.06 748.464C364.487 748.165 364.78 747.739 364.94 747.184H366.508C366.273 748.08 365.804 748.8 365.1 749.344C364.396 749.877 363.516 750.144 362.46 750.144C361.628 750.144 360.887 749.957 360.236 749.584C359.596 749.211 359.095 748.683 358.732 748C358.369 747.317 358.188 746.517 358.188 745.6ZM376.451 745.28C376.451 745.557 376.435 745.851 376.403 746.16H369.395C369.448 747.024 369.741 747.701 370.275 748.192C370.819 748.672 371.475 748.912 372.243 748.912C372.872 748.912 373.395 748.768 373.811 748.48C374.237 748.181 374.536 747.787 374.707 747.296H376.275C376.04 748.139 375.571 748.827 374.867 749.36C374.163 749.883 373.288 750.144 372.243 750.144C371.411 750.144 370.664 749.957 370.003 749.584C369.352 749.211 368.84 748.683 368.467 748C368.093 747.307 367.907 746.507 367.907 745.6C367.907 744.693 368.088 743.899 368.451 743.216C368.813 742.533 369.32 742.011 369.971 741.648C370.632 741.275 371.389 741.088 372.243 741.088C373.075 741.088 373.811 741.269 374.451 741.632C375.091 741.995 375.581 742.496 375.923 743.136C376.275 743.765 376.451 744.48 376.451 745.28ZM374.947 744.976C374.947 744.421 374.824 743.947 374.579 743.552C374.333 743.147 373.997 742.843 373.571 742.64C373.155 742.427 372.691 742.32 372.179 742.32C371.443 742.32 370.813 742.555 370.291 743.024C369.779 743.493 369.485 744.144 369.411 744.976H374.947ZM379.829 742.848C380.117 742.347 380.543 741.931 381.109 741.6C381.685 741.259 382.351 741.088 383.109 741.088C383.887 741.088 384.591 741.275 385.221 741.648C385.861 742.021 386.362 742.549 386.725 743.232C387.087 743.904 387.269 744.688 387.269 745.584C387.269 746.469 387.087 747.259 386.725 747.952C386.362 748.645 385.861 749.184 385.221 749.568C384.591 749.952 383.887 750.144 383.109 750.144C382.362 750.144 381.701 749.979 381.125 749.648C380.559 749.307 380.127 748.885 379.829 748.384V754.16H378.373V741.232H379.829V742.848ZM385.781 745.584C385.781 744.923 385.647 744.347 385.381 743.856C385.114 743.365 384.751 742.992 384.293 742.736C383.845 742.48 383.349 742.352 382.805 742.352C382.271 742.352 381.775 742.485 381.317 742.752C380.869 743.008 380.506 743.387 380.229 743.888C379.962 744.379 379.829 744.949 379.829 745.6C379.829 746.261 379.962 746.843 380.229 747.344C380.506 747.835 380.869 748.213 381.317 748.48C381.775 748.736 382.271 748.864 382.805 748.864C383.349 748.864 383.845 748.736 384.293 748.48C384.751 748.213 385.114 747.835 385.381 747.344C385.647 746.843 385.781 746.256 385.781 745.584ZM390.961 742.432V747.6C390.961 748.027 391.052 748.331 391.233 748.512C391.414 748.683 391.729 748.768 392.177 748.768H393.249V750H391.937C391.126 750 390.518 749.813 390.113 749.44C389.708 749.067 389.505 748.453 389.505 747.6V742.432H388.369V741.232H389.505V739.024H390.961V741.232H393.249V742.432H390.961ZM403.103 750.144C402.282 750.144 401.535 749.957 400.863 749.584C400.202 749.211 399.679 748.683 399.295 748C398.922 747.307 398.735 746.507 398.735 745.6C398.735 744.704 398.927 743.915 399.311 743.232C399.706 742.539 400.239 742.011 400.911 741.648C401.583 741.275 402.335 741.088 403.167 741.088C403.999 741.088 404.751 741.275 405.423 741.648C406.095 742.011 406.623 742.533 407.007 743.216C407.402 743.899 407.599 744.693 407.599 745.6C407.599 746.507 407.396 747.307 406.991 748C406.596 748.683 406.058 749.211 405.375 749.584C404.692 749.957 403.935 750.144 403.103 750.144ZM403.103 748.864C403.626 748.864 404.116 748.741 404.575 748.496C405.034 748.251 405.402 747.883 405.679 747.392C405.967 746.901 406.111 746.304 406.111 745.6C406.111 744.896 405.972 744.299 405.695 743.808C405.418 743.317 405.055 742.955 404.607 742.72C404.159 742.475 403.674 742.352 403.151 742.352C402.618 742.352 402.127 742.475 401.679 742.72C401.242 742.955 400.89 743.317 400.623 743.808C400.356 744.299 400.223 744.896 400.223 745.6C400.223 746.315 400.351 746.917 400.607 747.408C400.874 747.899 401.226 748.267 401.663 748.512C402.1 748.747 402.58 748.864 403.103 748.864ZM413.081 742.432H411.241V750H409.785V742.432H408.649V741.232H409.785V740.608C409.785 739.627 410.036 738.912 410.537 738.464C411.049 738.005 411.865 737.776 412.985 737.776V738.992C412.345 738.992 411.892 739.12 411.625 739.376C411.369 739.621 411.241 740.032 411.241 740.608V741.232H413.081V742.432ZM418.347 742.432H416.507V750H415.051V742.432H413.915V741.232H415.051V740.608C415.051 739.627 415.302 738.912 415.803 738.464C416.315 738.005 417.131 737.776 418.251 737.776V738.992C417.611 738.992 417.158 739.12 416.891 739.376C416.635 739.621 416.507 740.032 416.507 740.608V741.232H418.347V742.432ZM428.045 745.28C428.045 745.557 428.029 745.851 427.997 746.16H420.989C421.042 747.024 421.335 747.701 421.869 748.192C422.413 748.672 423.069 748.912 423.837 748.912C424.466 748.912 424.989 748.768 425.405 748.48C425.831 748.181 426.13 747.787 426.301 747.296H427.869C427.634 748.139 427.165 748.827 426.461 749.36C425.757 749.883 424.882 750.144 423.837 750.144C423.005 750.144 422.258 749.957 421.597 749.584C420.946 749.211 420.434 748.683 420.061 748C419.687 747.307 419.501 746.507 419.501 745.6C419.501 744.693 419.682 743.899 420.045 743.216C420.407 742.533 420.914 742.011 421.565 741.648C422.226 741.275 422.983 741.088 423.837 741.088C424.669 741.088 425.405 741.269 426.045 741.632C426.685 741.995 427.175 742.496 427.517 743.136C427.869 743.765 428.045 744.48 428.045 745.28ZM426.541 744.976C426.541 744.421 426.418 743.947 426.173 743.552C425.927 743.147 425.591 742.843 425.165 742.64C424.749 742.427 424.285 742.32 423.773 742.32C423.037 742.32 422.407 742.555 421.885 743.024C421.373 743.493 421.079 744.144 421.005 744.976H426.541ZM431.422 742.656C431.678 742.155 432.041 741.765 432.51 741.488C432.99 741.211 433.572 741.072 434.254 741.072V742.576H433.87C432.238 742.576 431.422 743.461 431.422 745.232V750H429.966V741.232H431.422V742.656Z" fill="white"/>
<path d="M606.688 744.416C606.688 743.328 606.933 742.352 607.424 741.488C607.915 740.613 608.581 739.931 609.424 739.44C610.277 738.949 611.221 738.704 612.256 738.704C613.472 738.704 614.533 738.997 615.44 739.584C616.347 740.171 617.008 741.003 617.424 742.08H615.68C615.371 741.408 614.923 740.891 614.336 740.528C613.76 740.165 613.067 739.984 612.256 739.984C611.477 739.984 610.779 740.165 610.16 740.528C609.541 740.891 609.056 741.408 608.704 742.08C608.352 742.741 608.176 743.52 608.176 744.416C608.176 745.301 608.352 746.08 608.704 746.752C609.056 747.413 609.541 747.925 610.16 748.288C610.779 748.651 611.477 748.832 612.256 748.832C613.067 748.832 613.76 748.656 614.336 748.304C614.923 747.941 615.371 747.424 615.68 746.752H617.424C617.008 747.819 616.347 748.645 615.44 749.232C614.533 749.808 613.472 750.096 612.256 750.096C611.221 750.096 610.277 749.856 609.424 749.376C608.581 748.885 607.915 748.208 607.424 747.344C606.933 746.48 606.688 745.504 606.688 744.416ZM619.047 745.584C619.047 744.688 619.229 743.904 619.591 743.232C619.954 742.549 620.45 742.021 621.079 741.648C621.719 741.275 622.429 741.088 623.207 741.088C623.975 741.088 624.642 741.253 625.207 741.584C625.773 741.915 626.194 742.331 626.471 742.832V741.232H627.943V750H626.471V748.368C626.183 748.88 625.751 749.307 625.175 749.648C624.61 749.979 623.949 750.144 623.191 750.144C622.413 750.144 621.709 749.952 621.079 749.568C620.45 749.184 619.954 748.645 619.591 747.952C619.229 747.259 619.047 746.469 619.047 745.584ZM626.471 745.6C626.471 744.939 626.338 744.363 626.071 743.872C625.805 743.381 625.442 743.008 624.983 742.752C624.535 742.485 624.039 742.352 623.495 742.352C622.951 742.352 622.455 742.48 622.007 742.736C621.559 742.992 621.202 743.365 620.935 743.856C620.669 744.347 620.535 744.923 620.535 745.584C620.535 746.256 620.669 746.843 620.935 747.344C621.202 747.835 621.559 748.213 622.007 748.48C622.455 748.736 622.951 748.864 623.495 748.864C624.039 748.864 624.535 748.736 624.983 748.48C625.442 748.213 625.805 747.835 626.071 747.344C626.338 746.843 626.471 746.261 626.471 745.6ZM634.676 741.072C635.743 741.072 636.607 741.397 637.268 742.048C637.929 742.688 638.26 743.616 638.26 744.832V750H636.82V745.04C636.82 744.165 636.601 743.499 636.164 743.04C635.727 742.571 635.129 742.336 634.372 742.336C633.604 742.336 632.991 742.576 632.532 743.056C632.084 743.536 631.86 744.235 631.86 745.152V750H630.404V741.232H631.86V742.48C632.148 742.032 632.537 741.685 633.028 741.44C633.529 741.195 634.079 741.072 634.676 741.072ZM640.094 745.6C640.094 744.693 640.276 743.904 640.638 743.232C641.001 742.549 641.502 742.021 642.142 741.648C642.793 741.275 643.534 741.088 644.366 741.088C645.444 741.088 646.329 741.349 647.022 741.872C647.726 742.395 648.19 743.12 648.414 744.048H646.846C646.697 743.515 646.404 743.093 645.966 742.784C645.54 742.475 645.006 742.32 644.366 742.32C643.534 742.32 642.862 742.608 642.35 743.184C641.838 743.749 641.582 744.555 641.582 745.6C641.582 746.656 641.838 747.472 642.35 748.048C642.862 748.624 643.534 748.912 644.366 748.912C645.006 748.912 645.54 748.763 645.966 748.464C646.393 748.165 646.686 747.739 646.846 747.184H648.414C648.18 748.08 647.71 748.8 647.006 749.344C646.302 749.877 645.422 750.144 644.366 750.144C643.534 750.144 642.793 749.957 642.142 749.584C641.502 749.211 641.001 748.683 640.638 748C640.276 747.317 640.094 746.517 640.094 745.6ZM658.357 745.28C658.357 745.557 658.341 745.851 658.309 746.16H651.301C651.354 747.024 651.648 747.701 652.181 748.192C652.725 748.672 653.381 748.912 654.149 748.912C654.778 748.912 655.301 748.768 655.717 748.48C656.144 748.181 656.442 747.787 656.613 747.296H658.181C657.946 748.139 657.477 748.827 656.773 749.36C656.069 749.883 655.194 750.144 654.149 750.144C653.317 750.144 652.57 749.957 651.909 749.584C651.258 749.211 650.746 748.683 650.373 748C650 747.307 649.813 746.507 649.813 745.6C649.813 744.693 649.994 743.899 650.357 743.216C650.72 742.533 651.226 742.011 651.877 741.648C652.538 741.275 653.296 741.088 654.149 741.088C654.981 741.088 655.717 741.269 656.357 741.632C656.997 741.995 657.488 742.496 657.829 743.136C658.181 743.765 658.357 744.48 658.357 745.28ZM656.853 744.976C656.853 744.421 656.73 743.947 656.485 743.552C656.24 743.147 655.904 742.843 655.477 742.64C655.061 742.427 654.597 742.32 654.085 742.32C653.349 742.32 652.72 742.555 652.197 743.024C651.685 743.493 651.392 744.144 651.317 744.976H656.853ZM661.735 738.16V750H660.279V738.16H661.735Z" fill="white"/>
<path d="M402.5 514.44C401.94 515 400.54 514.44 399.42 513.18C398.3 512.06 397.88 510.52 398.44 509.96C399 509.54 399.42 508.56 399.56 507.58C399.84 505.9 399.56 503.94 398.3 501.98C397.18 500.02 395.08 498.06 391.86 496.1C368.76 483.08 323.26 494.42 300.72 504.92C289.94 509.96 263.48 524.94 270.76 540.34C274.12 547.62 285.88 551.68 297.36 555.6C303.94 557.98 310.52 560.22 315.98 563.3C355.6 585.56 306.18 633.44 267.26 634.14C253.12 634.84 236.6 628.12 236.32 613.98C236.18 607.54 241.22 599.14 253.68 589.2C254.24 588.64 255.64 589.34 256.76 590.6C257.88 591.72 258.3 593.26 257.6 593.68C245.56 603.34 240.8 611.18 240.94 616.92C241.08 625.88 256.62 626.86 262.78 626.58C296.8 625.74 345.8 583.88 316.54 567.36C311.64 564.7 305.34 562.46 298.9 560.22C285.6 555.6 272.02 550.98 266.7 539.64C258.16 521.3 282.66 505.34 296.1 499.04C320.18 487.84 366.66 478.04 391.3 492.04C396.34 494.98 399.84 498.48 401.8 501.98C403.9 505.34 404.46 508.56 404.18 510.94C403.9 512.48 403.34 513.74 402.5 514.44ZM354.421 558.82C355.121 558.26 356.521 558.82 357.641 560.08C358.761 561.34 359.181 562.74 358.481 563.3C355.401 565.96 350.361 571.98 347.281 577.86C345.321 581.78 345.461 584.02 346.861 584.72C352.601 585.56 368.141 570.44 368.141 570.3C368.701 569.74 369.681 568.62 370.801 569.88C372.061 571.14 371.501 571.56 370.941 572.12C370.801 572.12 347.561 597.32 341.541 586.82C339.581 583.32 340.561 578.56 342.941 573.8C346.021 567.78 351.201 561.48 354.421 558.82ZM363.101 554.76C362.541 555.46 361.141 554.9 360.021 553.78C358.901 552.52 358.341 551.12 358.901 550.42L366.741 541.46C367.301 540.76 368.561 541.32 369.821 542.44C370.941 543.7 371.361 545.1 370.941 545.8L363.101 554.76ZM441.926 597.32C443.046 597.46 444.446 598.58 445.146 599.98C445.846 601.24 445.706 602.22 444.586 602.22C414.906 599.7 393.066 600.26 377.246 602.5C367.866 618.32 357.366 633.58 352.606 633.58C346.166 633.44 340.566 629.94 337.766 625.04C336.226 622.24 335.666 619.02 336.646 615.94C337.626 613.14 339.726 610.34 343.506 607.68C349.246 603.62 358.766 599.98 373.326 597.74C376.406 592.56 381.306 583.6 383.966 578.84C379.626 583.32 370.666 587.52 367.586 586.82C362.546 585.7 361.566 583.32 362.406 578.98C364.226 569.32 379.486 556.58 388.446 567.64C391.526 564 393.626 561.2 393.626 561.2C394.046 560.5 395.306 560.92 396.426 561.9C397.686 563.02 398.246 564.56 397.966 565.26L396.426 567.92L396.286 568.06C396.286 568.2 389.146 581.92 380.606 596.9C395.866 595.22 416.026 595.08 441.926 597.32ZM369.826 603.76C359.326 606 352.046 608.94 347.426 612.3C343.926 614.68 341.966 617.34 341.126 619.72C340.426 621.96 340.706 623.78 341.406 625.18C342.666 627.14 345.746 628.54 349.666 628.68C353.446 628.68 361.706 617.2 369.826 603.76ZM386.486 570.02C380.186 561.76 361.706 583.46 368.706 583.88C372.486 584.16 382.986 577.3 386.486 570.02ZM407.763 561.9C408.183 561.2 409.583 561.48 410.703 562.6C411.963 563.72 412.523 565.26 412.103 565.96L408.603 572.26C416.163 565.96 424.423 559.8 427.503 560.64H427.783C431.983 561.9 432.683 564.56 431.703 568.06C431.283 569.6 430.303 571.42 429.323 573.52C427.503 577.16 425.403 581.22 425.403 581.22C429.883 584.16 445.003 570.86 445.143 570.86C445.563 570.3 447.103 568.48 448.223 569.74C449.483 570.86 448.643 571.14 448.083 571.84C448.083 571.84 432.823 589.9 425.543 585.14C419.243 581.08 422.323 574.92 424.983 569.46C425.543 568.34 426.103 567.22 426.523 566.1C418.543 570.3 399.923 588.08 399.363 588.64C398.943 589.2 397.683 588.78 396.563 587.8C395.443 586.54 394.743 585.14 395.163 584.44L407.763 561.9ZM700.363 484.62C700.223 485.6 698.963 485.6 697.703 484.62C697.003 484.06 696.443 483.22 696.023 482.52L654.443 556.72C662.423 556.3 666.623 556.02 666.763 556.02C667.603 555.88 669.143 557 669.983 558.26C670.823 559.66 670.683 560.78 669.703 560.92C669.703 560.92 663.263 561.34 651.503 561.9L617.623 622.24C614.963 627.7 611.883 633.16 608.523 638.62C608.103 639.32 606.843 638.9 605.583 637.92C604.463 636.66 603.763 635.26 604.183 634.56C607.263 629.1 610.203 623.64 613.283 618.18C623.363 598.16 628.403 579.26 628.543 562.88C615.243 563.44 599.143 564 580.663 564.28L562.883 592.56C562.463 593.12 561.063 592.84 559.943 591.72C558.683 590.46 558.123 589.06 558.543 588.36L573.663 564.42C562.463 564.7 550.563 564.84 537.823 564.84C515.703 564.98 501.843 559.8 495.403 552.52C491.763 548.46 490.363 543.98 490.923 539.5C491.483 535.58 493.443 531.38 496.943 527.6C507.163 516.12 529.843 505.9 561.063 504.78C579.263 504.22 594.103 507.58 605.443 514.02L624.483 484.06C624.903 483.36 626.163 483.78 627.423 484.9C628.543 486.02 629.243 487.56 628.823 488.26L610.343 517.24C617.203 522.14 622.383 528.3 626.303 535.58C629.803 542.16 631.903 549.72 632.743 557.84C638.343 557.56 643.243 557.28 647.583 557.14L697.983 467.12C698.263 466.42 699.383 466.42 700.503 467.4C701.763 468.24 702.743 469.78 702.603 470.76L700.363 484.62ZM608.663 519.9L583.743 559.38C601.103 558.96 616.083 558.4 628.403 557.98C627.843 549.44 625.883 541.74 622.383 535.16C619.163 529.14 614.683 523.96 608.663 519.9ZM576.743 559.52L603.623 516.96C593.543 511.78 580.383 509.12 564.003 509.68C533.343 510.8 511.083 520.74 501.143 531.94C497.923 535.58 495.963 539.36 495.543 542.86C495.123 545.8 495.823 548.6 497.643 550.7C502.543 556.3 514.443 560.08 535.023 560.08C550.003 559.94 564.003 559.8 576.743 559.52ZM630.503 587.52L644.643 562.32C641.143 562.46 637.223 562.6 633.023 562.74C633.303 570.44 632.463 578.84 630.503 587.52ZM684.508 568.9C686.468 568.34 688.568 567.5 690.808 566.52C693.748 564.98 696.268 562.04 697.808 559.38C698.088 558.82 698.228 558.4 698.508 557.84C696.968 558.54 695.148 559.66 693.048 561.2C690.248 563.3 687.028 565.96 684.508 568.9ZM694.448 571.14C687.868 574.5 680.448 575.34 680.028 575.34C670.508 595.78 708.308 578.42 712.648 570.58C713.068 569.74 714.468 568.76 715.728 569.88C716.848 571 716.848 571.56 716.428 572.4C712.508 579.26 690.668 594.38 681.008 588.92C676.248 586.26 673.308 580.66 674.428 575.2C675.128 571.7 677.228 568.06 680.028 564.84C682.828 561.76 686.048 558.82 689.128 556.58C693.188 553.78 696.968 552.1 698.508 552.38C699.768 552.66 700.888 553.36 701.868 554.48C703.268 556.02 703.828 557.84 703.548 559.52C703.408 560.78 702.848 562.04 702.148 563.44C700.608 566.38 697.808 569.46 694.448 571.14ZM721.498 554.9C721.918 554.2 723.318 554.62 724.438 555.74C725.698 556.86 726.258 558.4 725.838 559.1L720.658 567.36C725.558 564.98 732.278 562.74 735.078 566.24C736.338 567.64 735.918 570.86 737.738 571C740.398 571.14 744.318 570.58 748.098 569.46C748.938 569.18 749.778 568.48 750.618 569.74C751.598 571.14 751.038 571.56 750.198 571.7C746.138 572.96 739.418 574.36 736.478 574.08C732.838 573.8 731.718 572.82 728.638 569.18C726.538 566.66 714.078 577.72 714.078 577.72C713.798 577.86 706.518 590.18 705.818 591.44C705.398 592.14 703.998 591.72 702.878 590.6C701.618 589.48 701.058 587.94 701.478 587.24L721.498 554.9ZM753.688 568.9C755.648 568.34 757.748 567.5 759.988 566.52C762.928 564.98 765.448 562.04 766.988 559.38C767.268 558.82 767.408 558.4 767.688 557.84C766.148 558.54 764.328 559.66 762.228 561.2C759.428 563.3 756.208 565.96 753.688 568.9ZM763.628 571.14C757.048 574.5 749.628 575.34 749.208 575.34C739.688 595.78 777.488 578.42 781.828 570.58C782.248 569.74 783.648 568.76 784.908 569.88C786.028 571 786.028 571.56 785.608 572.4C781.688 579.26 759.848 594.38 750.188 588.92C745.428 586.26 742.488 580.66 743.608 575.2C744.308 571.7 746.408 568.06 749.208 564.84C752.008 561.76 755.228 558.82 758.308 556.58C762.368 553.78 766.148 552.1 767.688 552.38C768.948 552.66 770.068 553.36 771.048 554.48C772.448 556.02 773.008 557.84 772.728 559.52C772.588 560.78 772.028 562.04 771.328 563.44C769.788 566.38 766.988 569.46 763.628 571.14Z" fill="#818181"/>
</svg>
