<svg width="486" height="541" viewBox="0 0 486 541" fill="none" xmlns="http://www.w3.org/2000/svg">
<path d="M454 333.001H38C20.3269 333.001 6 347.328 6 365.001V509.001C6 526.674 20.3269 541.001 38 541.001H454C471.673 541.001 486 526.674 486 509.001V365.001C486 347.328 471.673 333.001 454 333.001Z" fill="#001732"/>
<path d="M38 333.001C29.5131 333.001 21.3737 336.372 15.3726 342.374C9.37142 348.375 6 356.514 6 365.001V509.001C6.0173 511.405 6.30716 513.799 6.864 516.137C9.20236 516.694 11.5963 516.984 14 517.001H430C438.487 517.001 446.626 513.63 452.627 507.628C458.629 501.627 462 493.488 462 485.001V341.001C461.983 338.597 461.693 336.203 461.136 333.865C458.798 333.308 456.404 333.018 454 333.001H38Z" fill="#0B2F5A"/>
<path d="M397.999 213.001C398.016 197.597 392.442 182.71 382.311 171.105C376.133 163.47 372.477 154.106 371.847 144.305C370.388 129.644 363.897 115.94 353.479 105.521C343.06 95.1028 329.357 88.6126 314.695 87.1531C304.894 86.5233 295.53 82.8671 287.895 76.6891C276.282 66.5727 261.401 61 245.999 61C230.598 61 215.716 66.5727 204.103 76.6891C196.468 82.8671 187.104 86.5233 177.303 87.1531C162.642 88.6126 148.938 95.1028 138.519 105.521C128.101 115.94 121.611 129.644 120.151 144.305C119.521 154.106 115.865 163.47 109.687 171.105C99.5708 182.718 93.998 197.6 93.998 213.001C93.998 228.403 99.5708 243.284 109.687 254.897C115.865 262.532 119.521 271.896 120.151 281.697C121.611 296.358 128.101 310.062 138.519 320.481C148.938 330.899 162.642 337.39 177.303 338.849C187.104 339.479 196.468 343.135 204.103 349.313C215.716 359.429 230.598 365.002 245.999 365.002C261.401 365.002 276.282 359.429 287.895 349.313C295.53 343.135 304.894 339.479 314.695 338.849C329.357 337.39 343.06 330.899 353.479 320.481C363.897 310.062 370.388 296.358 371.847 281.697C372.477 271.896 376.133 262.532 382.311 254.897C392.442 243.292 398.016 228.405 397.999 213.001Z" fill="#103F78"/>
<path d="M246 317.001C303.438 317.001 350 270.439 350 213.001C350 155.563 303.438 109.001 246 109.001C188.562 109.001 142 155.563 142 213.001C142 270.439 188.562 317.001 246 317.001Z" fill="#F2F2F2"/>
<path d="M174 229.001L222 277.001L318 181.001L294 157.001L222 229.001L198 205.001L174 229.001Z" fill="#103F78"/>
<path d="M69.84 403.401C69.4711 401.594 68.4893 399.97 67.0606 398.804C65.632 397.637 63.8442 397.001 62 397.001H46C44.1558 397.001 42.368 397.637 40.9394 398.804C39.5107 399.97 38.5289 401.594 38.16 403.401L30.16 443.401C30.0531 443.928 29.9995 444.464 30 445.001V477.001H46V453.001H62V477.001H78V445.001C78.0005 444.464 77.9469 443.928 77.84 443.401L69.84 403.401ZM55.448 413.001L60.248 437.001H47.76L52.56 413.001H55.448Z" fill="#F2F2F2"/>
<path d="M110 397.001H94C91.8783 397.001 89.8434 397.844 88.3431 399.344C86.8429 400.844 86 402.879 86 405.001V477.001H102V445.001H110C116.365 445.001 122.47 442.472 126.971 437.972C131.471 433.471 134 427.366 134 421.001C134 414.636 131.471 408.531 126.971 404.03C122.47 399.53 116.365 397.001 110 397.001ZM110 429.001H102V413.001H110C112.122 413.001 114.157 413.844 115.657 415.344C117.157 416.844 118 418.879 118 421.001C118 423.123 117.157 425.158 115.657 426.658C114.157 428.158 112.122 429.001 110 429.001Z" fill="#F2F2F2"/>
<path d="M166 397.001H150C147.878 397.001 145.843 397.844 144.343 399.344C142.843 400.844 142 402.879 142 405.001V477.001H158V445.001H166C172.365 445.001 178.47 442.472 182.971 437.972C187.471 433.471 190 427.366 190 421.001C190 414.636 187.471 408.531 182.971 404.03C178.47 399.53 172.365 397.001 166 397.001ZM166 429.001H158V413.001H166C168.122 413.001 170.157 413.844 171.657 415.344C173.157 416.844 174 418.879 174 421.001C174 423.123 173.157 425.158 171.657 426.658C170.157 428.158 168.122 429.001 166 429.001Z" fill="#F2F2F2"/>
<path d="M246 421.001C246 414.636 243.471 408.531 238.971 404.03C234.47 399.53 228.365 397.001 222 397.001H206C203.878 397.001 201.843 397.844 200.343 399.344C198.843 400.844 198 402.879 198 405.001V477.001H214V445.001H218.464C225.859 453.494 229.953 464.364 230 475.625V477.001H246V475.625C245.966 463.256 242.294 451.17 235.44 440.873C238.69 438.676 241.352 435.716 243.193 432.251C245.034 428.787 245.998 424.924 246 421.001ZM214 413.001H222C224.122 413.001 226.157 413.844 227.657 415.344C229.157 416.844 230 418.879 230 421.001C230 423.123 229.157 425.158 227.657 426.658C226.157 428.158 224.122 429.001 222 429.001H214V413.001Z" fill="#F2F2F2"/>
<path d="M342 436.017L335.752 461.001H332.248L326 436.017V397.001H310V437.001C309.999 437.654 310.08 438.304 310.24 438.937L318.24 470.937C318.672 472.668 319.67 474.206 321.076 475.305C322.482 476.403 324.216 477 326 477.001H342C343.785 477 345.518 476.403 346.924 475.305C348.33 474.206 349.328 472.668 349.76 470.937L357.76 438.937C357.92 438.304 358.001 437.654 358 437.001V397.001H342V436.017Z" fill="#F2F2F2"/>
<path d="M366 405.001V469.001C366 471.123 366.843 473.158 368.343 474.658C369.843 476.158 371.878 477.001 374 477.001H406V461.001H382V445.001H406V429.001H382V413.001H406V397.001H374C371.878 397.001 369.843 397.844 368.343 399.344C366.843 400.844 366 402.879 366 405.001Z" fill="#F2F2F2"/>
<path d="M278 397.001C271.635 397.001 265.53 399.53 261.029 404.03C256.529 408.531 254 414.636 254 421.001V453.001C254 459.366 256.529 465.471 261.029 469.972C265.53 474.472 271.635 477.001 278 477.001C284.365 477.001 290.47 474.472 294.971 469.972C299.471 465.471 302 459.366 302 453.001V421.001C302 414.636 299.471 408.531 294.971 404.03C290.47 399.53 284.365 397.001 278 397.001ZM286 453.001C286 455.123 285.157 457.158 283.657 458.658C282.157 460.158 280.122 461.001 278 461.001C275.878 461.001 273.843 460.158 272.343 458.658C270.843 457.158 270 455.123 270 453.001V421.001C270 418.879 270.843 416.844 272.343 415.344C273.843 413.844 275.878 413.001 278 413.001C280.122 413.001 282.157 413.844 283.657 415.344C285.157 416.844 286 418.879 286 421.001V453.001Z" fill="#F2F2F2"/>
<path d="M438 397.001H422C419.878 397.001 417.843 397.844 416.343 399.344C414.843 400.844 414 402.879 414 405.001V469.001C414 471.123 414.843 473.158 416.343 474.658C417.843 476.158 419.878 477.001 422 477.001H438C444.365 477.001 450.47 474.472 454.971 469.972C459.471 465.471 462 459.366 462 453.001V421.001C462 414.636 459.471 408.531 454.971 404.03C450.47 399.53 444.365 397.001 438 397.001ZM446 453.001C446 455.123 445.157 457.158 443.657 458.658C442.157 460.158 440.122 461.001 438 461.001H430V413.001H438C440.122 413.001 442.157 413.844 443.657 415.344C445.157 416.844 446 418.879 446 421.001V453.001Z" fill="#F2F2F2"/>
<g opacity="0.2">
<path d="M154.007 40.5367L115.098 1.6274C112.927 -0.543008 109.408 -0.542356 107.237 1.6287C106.195 2.67091 105.61 4.08376 105.61 5.55751V22.2329H66.7003C63.6303 22.2329 61.1417 24.7215 61.1417 27.7915C61.1417 30.8614 63.6303 33.35 66.7003 33.35H111.168C114.238 33.35 116.727 30.8614 116.727 27.7915V18.9753L142.218 44.4665L116.727 69.9577V61.1419C116.727 58.0719 114.238 55.5833 111.168 55.5833H50.0249V38.9079C50.0243 35.838 47.535 33.35 44.4654 33.3507C42.9919 33.351 41.5788 33.9363 40.5366 34.9781L1.62756 73.8875C-0.54252 76.0582 -0.54252 79.5766 1.62756 81.747L40.5369 120.656C41.5791 121.699 42.9926 122.285 44.4667 122.285C45.1972 122.287 45.9212 122.144 46.5954 121.863C48.672 121.002 50.0256 118.975 50.0249 116.727V100.051H88.9342C92.0042 100.051 94.4928 97.5626 94.4928 94.4926C94.4928 91.4227 92.0042 88.9341 88.9342 88.9341H44.4667C41.3967 88.9341 38.9081 91.4227 38.9081 94.4926V103.308L13.4169 77.8173L38.9081 52.3261V61.1419C38.9081 64.2118 41.3967 66.7004 44.4667 66.7004H105.61V83.3758C105.61 86.4458 108.1 88.9337 111.169 88.9331C112.643 88.9328 114.056 88.3475 115.098 87.3056L154.007 48.3963C156.177 46.2256 156.177 42.7071 154.007 40.5367Z" fill="#103F78"/>
</g>
</svg>
