<svg width="129" height="79" viewBox="0 0 129 79" fill="none" xmlns="http://www.w3.org/2000/svg">
<path fill-rule="evenodd" clip-rule="evenodd" d="M83.0447 2.49377C83.6754 2.5797 84.2979 2.71802 84.9056 2.9073C84.0211 4.92491 83.0352 6.89658 81.9519 8.81477C81.9519 10.9415 86.9732 10.2326 88.775 10.587C90.5768 10.9415 91.7287 11.0301 92.9693 11.4141C93.2647 11.4141 93.9736 12.2116 93.9736 12.2116C92.9398 14.6336 91.0198 13.4521 90.2519 13.3045C88.5978 12.9205 86.8551 12.6251 85.1714 12.2706C83.4878 11.9162 82.7198 11.0596 80.6227 12.0639C80.6227 12.0639 79.8842 13.2749 79.3526 13.5703C78.8209 13.8657 77.6394 13.9247 77.6394 13.5703H77.7871C79.2685 9.79349 81.0258 6.13082 83.0447 2.61192V2.49377Z" fill="black"/>
<path fill-rule="evenodd" clip-rule="evenodd" d="M116.659 2.72996C117.279 2.72996 118.106 3.37978 118.254 3.37978C116.924 6.33352 115.3 9.28726 114.118 12.0047C113.38 13.6293 112.701 16.2285 110.722 16.2285C110.722 18.2371 114.591 18.3848 116.009 19.1823C118.925 20.5691 121.638 22.348 124.072 24.4695C126.511 26.4501 128.14 29.2558 128.651 32.356C128.91 34.3487 128.687 36.3747 128.001 38.2634C127.528 39.6812 124.87 43.2552 124.87 44.1709C124.87 44.1709 124.663 43.7278 124.87 43.7278C125.711 41.4487 126.334 39.0948 126.731 36.6979C126.746 34.5619 126.163 32.4642 125.047 30.6428C122.787 27.0373 119.606 24.1005 115.831 22.136C112.751 20.508 109.552 19.1158 106.261 17.9713C104.083 16.9375 101.747 16.2785 99.3496 16.0218C98.6703 16.0218 97.2525 15.431 96.2187 16.0218C95.8051 16.2876 93.9148 18.1189 94.3283 18.1189C94.4795 18.3728 94.5799 18.6537 94.6236 18.946C90.9905 20.925 92.2902 29.4908 86.5599 29.4908C82.5429 29.4908 78.7325 29.2841 74.745 29.2841C74.1838 29.2841 71.614 29.8453 71.9685 28.9592C72.6478 27.3641 74.2429 27.689 74.9222 27.689C79.1756 27.689 83.1631 27.689 87.2984 27.689C88.7017 25.7507 89.8623 23.6477 90.7542 21.4271C91.368 19.6812 92.1702 18.0073 93.1468 16.4353C94.2485 15.5609 95.4857 14.8725 96.8094 14.3972C98.4154 14.1595 100.048 14.1595 101.654 14.3972C103.396 14.3972 105.168 14.3972 106.882 14.3972C107.679 14.3972 108.713 15.0175 109.835 14.3972C112.317 13.1271 115.507 4.85665 116.659 2.58228V2.72996Z" fill="black"/>
<path fill-rule="evenodd" clip-rule="evenodd" d="M66.4745 1.04638H76.2218C77.6101 1.04638 81.9816 -0.0169641 81.9816 1.4599H81.8339C80.357 4.41364 79.146 7.69229 77.4328 10.8528C75.7197 14.0133 75.2175 13.3635 73.4453 13.3635C71.0823 13.3635 68.7489 13.3635 66.3859 13.3635H60.6556C60.4488 13.3635 60.5079 13.0386 60.8033 12.7136C62.2872 8.63978 64.1877 4.72997 66.4745 1.04638Z" fill="#FFE01A"/>
<path fill-rule="evenodd" clip-rule="evenodd" d="M99.8516 1.51895H112.966C115.181 1.51895 115.92 1.28265 114.148 4.47269C113.091 7.00221 111.888 9.46785 110.544 11.857C109.097 14.1019 109.067 13.7474 107.354 13.8065C105.641 13.8656 103.544 13.8065 101.624 13.8065C99.7039 13.8065 97.6363 13.8065 95.7164 13.8065C95.1631 13.6318 94.6207 13.4247 94.0918 13.1862L99.8516 1.51895Z" fill="#FFE01A"/>
<path fill-rule="evenodd" clip-rule="evenodd" d="M43.2583 14.102C47.4527 14.102 51.647 14.102 55.8708 14.102C56.5502 14.102 58.8245 13.5999 58.8245 14.3088C57.7988 17.0728 56.513 19.7332 54.9847 22.2543C54.2463 23.7607 53.9509 25.2081 52.2672 26.3009C50.5836 27.3938 48.9886 26.3009 48.1911 26.3009H42.2836C41.0939 26.3896 39.8993 26.3896 38.7096 26.3009C38.3338 26.1513 37.9847 25.9418 37.6758 25.6806C39.5465 21.8408 41.4369 17.9714 43.347 14.0725L43.2583 14.102Z" fill="#FFE01A"/>
<path fill-rule="evenodd" clip-rule="evenodd" d="M76.7539 14.5745H89.8685C91.9952 14.5745 92.6451 14.3972 91.0796 17.5282C90.0146 20.0735 88.7913 22.5496 87.4169 24.9421C85.8515 27.2755 85.8219 26.8916 84.2269 26.9506C82.6319 27.0097 80.2984 26.9506 78.3194 26.9506C76.3404 26.9506 74.4205 26.9506 72.6482 26.9506C72.1044 26.7765 71.5718 26.5694 71.0532 26.3303L76.7244 14.7221L76.7539 14.5745Z" fill="#FFE01A"/>
<path fill-rule="evenodd" clip-rule="evenodd" d="M93.4126 14.604C92.9105 14.604 94.6532 15.0175 94.2988 15.0175V15.2243C93.708 15.2243 92.7333 15.6673 93.4126 14.604Z" fill="#FFE01A"/>
<path fill-rule="evenodd" clip-rule="evenodd" d="M95.0081 16.2876C100.065 16.1607 105.091 17.1178 109.748 19.0945C114.404 21.0713 118.584 24.0219 122.005 27.7481C123.801 29.4634 125.042 31.6771 125.568 34.1039C126.095 36.5308 125.883 39.0597 124.959 41.3648C124.26 43.4923 123.212 45.4886 121.858 47.2723C120.912 48.5719 116.57 53.4751 116.57 52.0574C118.106 52.0574 121.858 42.31 121.976 41.6602C122.32 39.8319 122.167 37.9448 121.533 36.1958C120.082 32.5724 117.557 29.48 114.296 27.3346C111.63 25.3411 108.746 23.6565 105.701 22.3132C103.604 21.3976 101.388 20.6296 99.2024 19.8025C97.0167 18.9755 93.5608 19.8025 95.1558 16.2285L95.0081 16.2876Z" fill="#FFE01A"/>
<path fill-rule="evenodd" clip-rule="evenodd" d="M0.0449219 7.84005C3.32357 7.54468 6.39546 9.34646 10.6488 7.54468C24.2656 7.54468 37.8528 7.54468 50.8492 8.37172C53.803 8.37172 56.4909 8.75571 59.2674 8.99201C59.9763 8.99201 62.2211 8.99201 60.5079 10.971C59.2674 12.3593 58.2336 11.5027 57.5542 11.4141C51.3525 10.5851 45.1115 10.0823 38.857 9.90767" fill="#FFE01A"/>
<path fill-rule="evenodd" clip-rule="evenodd" d="M80.5347 11.6208L85.0835 12.4774C86.265 12.6842 88.628 12.4774 88.628 13.7475H82.9273C81.2436 13.7475 78.3194 14.8404 80.5347 11.6208Z" fill="#FFE01A"/>
<path fill-rule="evenodd" clip-rule="evenodd" d="M5.33252 6.15644C7.48875 6.15644 9.61544 6.15644 11.8603 5.94968C13.4258 5.94968 14.814 6.62904 16.8816 5.74292C25.1816 5.74292 33.6293 5.74292 41.7521 5.74292C45.7692 5.74292 49.7272 6.09737 53.5671 6.30413C56.5208 6.48135 59.9767 7.36747 62.7532 7.36747C61.6308 9.90769 57.5546 8.46036 56.8457 8.37175C54.3055 8.07637 51.4995 8.07637 48.8706 7.92869C43.1404 7.57424 37.3215 7.36748 31.355 7.33794" fill="black"/>
<path fill-rule="evenodd" clip-rule="evenodd" d="M61.9848 14.2793H69.1033C70.8756 14.2793 74.6268 13.3636 75.6016 14.2793C77.0194 15.5494 74.2133 15.9924 72.9727 15.9924H66.3564C65.5589 15.9924 63.1663 15.254 61.719 16.5832C60.7307 17.8978 59.9626 19.3642 59.4446 20.9252C58.4221 23.3938 57.2176 25.783 55.8411 28.0732C54.0688 29.7273 52.8873 28.9889 51.7649 28.9594C47.8955 28.8117 43.4944 29.2843 39.95 28.9594C39.3887 28.9594 37.4393 29.3138 39.3001 27.512C40.1863 26.6259 44.351 27.2757 44.735 27.2757H50.8197C52.3261 27.2757 53.1236 28.0732 54.9254 25.4149C56.7272 22.7565 57.1112 20.2163 58.7948 17.5284C59.2129 16.776 59.7517 16.0975 60.3898 15.5198C60.951 14.9291 61.0692 15.9924 61.9848 14.1907V14.2793Z" fill="black"/>
<path fill-rule="evenodd" clip-rule="evenodd" d="M93.9448 18.4144C99.1795 19.4907 104.181 21.4911 108.713 24.3219C113.735 26.8917 118.638 29.934 120.794 35.3984C122.951 40.8628 120.972 49.5173 107.532 59.3237C100.919 63.9972 93.8299 67.9576 86.3832 71.1386C83.1046 72.7041 80.0032 73.9447 76.8722 75.1853C75.4249 75.7465 67.3021 79.6159 67.3316 78.7298C75.2772 75.1557 91.3455 67.7123 98.5231 56.5767C104.431 47.4201 100.236 42.3692 97.7256 39.3564C95.8792 37.197 93.6946 35.3515 91.2569 33.892C90.1936 33.2422 89.0711 32.6514 87.9192 32.0607C86.7672 31.47 82.7501 31.0564 82.7501 29.107C83.7839 29.107 86.5309 30.1998 88.2441 29.107C89.9573 28.0141 92.9996 20.5411 93.9448 18.6507V18.4144Z" fill="#2C4A9F"/>
<path fill-rule="evenodd" clip-rule="evenodd" d="M62.7529 15.4015C65.175 15.4015 67.5379 15.4015 69.9305 15.4015C71.4664 15.4015 75.07 14.5449 74.7746 16.3467C74.4792 18.1485 70.5508 23.0517 70.5508 24.9716C67.9927 24.5813 65.4657 24.0088 62.9892 23.2584C61.8077 23.0221 58.3813 23.4356 58.3813 22.0179H58.4995C59.2084 20.3342 60.2717 16.5534 62.7529 15.4015Z" fill="#2C4A9F"/>
<path fill-rule="evenodd" clip-rule="evenodd" d="M2.37842 9.64172C12.6279 9.64172 23.0546 9.64172 32.9496 9.87802C37.971 9.87802 42.8151 10.3802 47.7183 10.7346C50.0518 10.9118 52.4443 11.03 54.7187 11.2663C56.166 11.4435 59.8582 10.9709 59.8582 12.4478C55.9001 12.4478 51.824 12.4478 48.0432 12.4478C46.2119 12.4478 44.2034 10.8823 41.929 14.9585C40.5112 17.4396 41.0429 18.6802 38.4731 19.4481C36.5786 19.7035 34.651 19.5319 32.8315 18.946L26.6286 18.4143" fill="#2C4A9F"/>
</svg>
