<svg width="111" height="79" viewBox="0 0 111 79" fill="none" xmlns="http://www.w3.org/2000/svg">
<path fill-rule="evenodd" clip-rule="evenodd" d="M48.5214 10.1232C48.2887 10.2396 48.1724 10.5887 48.2887 10.8214C48.2887 11.0541 48.5214 11.2868 48.8705 11.4032C57.8302 13.2649 61.5537 18.7338 63.0663 23.0391C65.3935 29.7879 63.9972 37.4676 61.2046 40.842C60.9719 41.0747 60.9719 41.4238 61.2046 41.7729C61.4373 42.0056 61.7864 42.122 62.0191 41.8893C66.7898 39.213 69.9315 35.0241 70.9787 29.9043C72.026 24.7845 70.746 19.3156 67.6043 15.243C62.7172 9.07601 52.7104 7.09791 48.5214 10.1232ZM39.7945 15.3594C33.9766 17.6866 29.7876 23.3882 29.4386 29.4388C29.2059 33.2787 30.2531 40.6093 40.3763 46.4273C40.7254 46.5436 41.0745 46.5436 41.1908 46.3109C41.4235 46.0782 41.4235 45.7291 41.1908 45.38C39.5618 43.6346 36.071 33.9768 39.2127 26.8789C41.5399 21.6428 46.7761 19.1992 54.9212 19.432C55.1539 19.432 55.503 19.3156 55.6193 18.9665C55.7357 18.7338 55.6193 18.3847 55.3866 18.2684C50.8486 14.3122 45.147 13.1486 39.7945 15.3594ZM50.7323 23.3882C46.6597 23.7372 43.4016 26.0644 41.889 29.9043C40.1436 34.0932 40.9581 38.8639 43.8671 42.3547C45.9615 44.7982 51.0813 48.6381 61.5537 46.1945C61.9027 46.0782 62.1355 45.8455 62.0191 45.4964C62.0191 45.1473 61.7864 44.9146 61.4373 44.9146C58.6447 44.6819 50.1505 41.4238 47.8233 35.4895C46.5433 31.9987 47.5906 28.3916 51.1977 24.6681C51.4304 24.4354 51.4304 24.2027 51.3141 23.8536C51.3141 23.5045 50.965 23.3882 50.7323 23.3882ZM75.1677 25.599C74.9349 25.7153 74.7022 25.9481 74.7022 26.1808C74.0041 31.766 72.9568 38.7476 69.8151 42.8201C64.8117 49.2199 56.6666 50.3835 52.2449 50.4998C51.8959 50.4998 51.6631 50.7325 51.6631 51.0816V51.198C51.6631 51.4307 51.7795 51.6634 52.1286 51.7798C61.7864 55.736 71.9096 54.456 76.2149 48.6381C78.5421 45.4964 79.9384 41.3075 79.9384 37.1185C79.9384 32.9296 78.5421 28.9734 75.9822 25.8317C75.7495 25.599 75.4004 25.4826 75.1677 25.599ZM53.0594 27.5771C52.8267 27.5771 52.594 27.8098 52.4777 28.0425C52.0122 29.3225 51.8959 30.4861 51.8959 31.5333C51.8959 35.1404 53.9903 37.7003 56.0848 38.8639C56.3175 38.9803 56.6666 38.9803 56.7829 38.8639C59.9246 36.4204 60.2737 33.395 59.4592 31.4169C58.5283 28.857 55.9684 27.3444 53.0594 27.5771ZM27.2277 37.8167C26.8787 37.933 26.646 38.1658 26.646 38.5148C26.646 39.213 26.5296 39.9112 26.646 40.6093C27.5768 51.4307 34.3256 62.2521 48.9869 64.2302C62.2518 66.0919 71.2114 58.0632 71.6769 57.7141C71.9096 57.4814 72.026 57.1323 71.9096 56.8996C71.7932 56.5505 71.4442 56.4341 71.2115 56.4341H70.9787C63.9972 57.2486 55.6193 59.1104 44.6816 54.5724C35.0238 50.4998 30.6022 42.2383 28.275 38.3985L28.1586 38.2821C27.8095 37.933 27.5768 37.7003 27.2277 37.8167Z" fill="#DB0032"/>
<path d="M46.7763 78.426C46.7763 78.3096 45.4964 77.9605 44.1001 77.4951C43.9837 77.4951 43.9837 77.4951 43.8673 77.3787C43.5183 77.2624 43.0528 77.146 42.7038 77.0297C42.5874 77.0297 42.5874 76.9133 42.471 76.9133C28.9734 72.3753 18.2684 60.8558 16.0575 45.0309C12.7995 21.7591 25.8317 0 25.8317 0H5.35251L0 10.8214H9.6578C9.6578 10.8214 3.49077 25.4826 5.46887 42.3547C8.37785 68.3027 27.1116 76.7969 43.751 78.5423C45.4964 78.6587 46.7763 78.6587 46.7763 78.426Z" fill="#BC955C"/>
<path d="M58.0631 78.426C58.0631 78.3096 59.3431 77.9605 60.7394 77.4951C60.8557 77.4951 60.8557 77.4951 60.9721 77.3787C61.3212 77.2624 61.7866 77.146 62.1357 77.0297C62.252 77.0297 62.252 76.9133 62.3684 76.9133C75.866 72.3753 86.5711 60.8558 88.7819 45.0309C92.0399 21.7591 79.0077 0 79.0077 0H99.4869L104.839 10.705H95.0653C95.0653 10.705 101.232 25.3663 99.2542 42.2383C96.3452 68.1864 77.6114 76.6806 60.9721 78.426C59.3431 78.6587 58.0631 78.6587 58.0631 78.426Z" fill="#BC955C"/>
<path d="M104.956 66.3247C108.33 66.3247 111.007 69.001 111.007 72.3754C111.007 75.8661 108.33 78.5424 104.84 78.5424C101.349 78.5424 98.6725 75.8661 98.6725 72.3754C98.6725 69.001 101.465 66.3247 104.956 66.3247ZM104.84 67.3719C102.047 67.3719 100.069 69.5828 100.069 72.3754C100.069 75.168 102.163 77.3788 104.956 77.3788C107.632 77.3788 109.727 75.168 109.727 72.3754C109.727 69.5828 107.632 67.3719 104.84 67.3719ZM103.792 75.6334H102.629V69.2337C103.327 69.1173 103.909 69.001 104.84 69.001C105.887 69.001 106.469 69.2337 106.818 69.4664C107.167 69.6991 107.516 70.2809 107.516 70.8627C107.516 71.6772 106.934 72.1427 106.352 72.3754V72.4917C106.934 72.7245 107.167 73.1899 107.399 74.0044C107.632 74.9353 107.748 75.2844 107.865 75.5171H106.701C106.469 75.2844 106.352 74.7026 106.119 73.888C106.003 73.1899 105.538 72.8408 104.723 72.8408H103.909L103.792 75.6334ZM103.792 72.1427H104.607C105.421 72.1427 106.236 71.9099 106.236 71.2118C106.236 70.63 105.77 70.1646 104.723 70.1646C104.258 70.1646 104.025 70.1646 103.792 70.2809V72.1427Z" fill="#BC955C"/>
</svg>
