<svg width="179" height="54" viewBox="0 0 179 54" fill="none" xmlns="http://www.w3.org/2000/svg">
<g clip-path="url(#clip0_2083_182)">
<path fill-rule="evenodd" clip-rule="evenodd" d="M45.9753 16.7279H45.336H44.3771H43.2051H42.2461H41.6601H40.5414H39.9021H0L4.74137 37.0785C14.6503 30.6324 24.133 36.8121 24.5592 37.0785C24.9321 36.8654 34.4682 30.6324 44.3771 37.0785L49.0119 16.7279H45.9753Z" fill="#AA0000"/>
<path fill-rule="evenodd" clip-rule="evenodd" d="M39.103 27.063C39.689 27.1696 40.1684 27.2229 40.1684 27.7024C40.1684 28.0753 39.689 28.2351 39.0497 28.2351C38.7833 28.2351 38.517 28.2351 38.3039 28.1285C38.0375 28.022 37.6646 27.7024 37.6646 27.436H35.4803C35.4803 27.8622 36.0131 29.6202 38.9964 29.6202C42.0863 29.6202 42.9387 28.1818 42.9387 27.2229C42.9387 25.305 40.5414 25.1985 38.9964 24.9321C38.4104 24.8255 37.9842 24.6658 37.9842 24.3461C37.9842 23.9732 38.4637 23.8134 39.2628 23.8134C39.5824 23.8134 39.9021 23.9199 40.1152 24.0264C40.4348 24.1863 40.5414 24.4527 40.5414 24.6125H42.7256C42.7256 24.133 41.9265 22.4816 38.9431 22.4816C37.0786 22.4816 35.3205 23.2806 35.3205 24.9321C35.4271 26.5836 37.558 26.85 39.103 27.063Z" fill="white"/>
<path fill-rule="evenodd" clip-rule="evenodd" d="M34.2018 24.2928H34.5747L35.4271 23.3872V21.9488H33.8289V23.2807H34.5747L34.2018 24.2928Z" fill="white"/>
<path fill-rule="evenodd" clip-rule="evenodd" d="M42.2461 20.1908V18.486H42.8854L43.9509 20.1908H44.5902L43.4714 18.4327C43.7911 18.3794 44.0042 18.3262 44.2173 18.1131C44.4304 17.9533 44.5369 17.6869 44.5369 17.314C44.5369 17.0476 44.4836 16.8345 44.3771 16.6746H43.2051C43.2583 16.6746 43.3116 16.6746 43.3649 16.6746C43.4714 16.6746 43.578 16.728 43.6313 16.7813C43.7378 16.8345 43.7911 16.8877 43.8444 16.941C43.8976 16.9943 43.8976 17.1009 43.8976 17.2607C43.8976 17.4205 43.8444 17.527 43.7911 17.6336C43.7378 17.7401 43.6845 17.7935 43.578 17.8467C43.4714 17.9 43.3649 17.8999 43.2583 17.8999C43.1518 17.8999 42.992 17.8999 42.8854 17.8999H42.2461V16.6214H41.6601V20.0842H42.2461V20.1908Z" fill="white"/>
<path fill-rule="evenodd" clip-rule="evenodd" d="M30.5259 29.3538H33.2961V22.5348H30.5259V29.3538Z" fill="white"/>
<path fill-rule="evenodd" clip-rule="evenodd" d="M39.5292 18.1663C39.5292 18.6458 39.6357 19.1252 39.7955 19.5514C39.9554 19.9776 40.2217 20.3505 40.5414 20.6169C40.861 20.9366 41.2339 21.1496 41.6069 21.3095C42.033 21.4693 42.4592 21.5758 42.9387 21.5758C43.4182 21.5758 43.8444 21.4693 44.2173 21.3095C44.6435 21.1496 44.9631 20.8833 45.2827 20.6169C45.6024 20.2973 45.8155 19.9243 46.0286 19.5514C46.1884 19.1252 46.295 18.6991 46.295 18.1663C46.295 17.6868 46.1884 17.2607 46.0286 16.8345C46.0286 16.7812 45.9753 16.7279 45.9753 16.7279H45.336C45.3893 16.8345 45.4426 16.941 45.4958 17.0476C45.6557 17.4205 45.7089 17.7934 45.7089 18.1663C45.7089 18.5925 45.6557 18.9654 45.4958 19.3383C45.336 19.7113 45.1762 19.9776 44.9098 20.244C44.6435 20.5104 44.3771 20.7235 44.0574 20.8833C43.7378 21.0431 43.3649 21.0964 42.992 21.0964C42.6191 21.0964 42.2461 21.0431 41.8732 20.8833C41.5536 20.7235 41.2339 20.5104 40.9676 20.244C40.7012 19.9776 40.5414 19.658 40.3816 19.3383C40.2217 18.9654 40.1685 18.5925 40.1685 18.1663C40.1685 17.7401 40.2217 17.3672 40.3816 17.0476C40.4348 16.941 40.4881 16.8345 40.5414 16.7279H39.9021C39.9021 16.7812 39.8488 16.8345 39.8488 16.8345C39.6357 17.2607 39.5292 17.7401 39.5292 18.1663Z" fill="white"/>
<path fill-rule="evenodd" clip-rule="evenodd" d="M17.2607 23.8134C18.1663 23.8134 18.699 24.3461 18.699 25.1985H15.9821C15.9821 24.4527 16.4083 23.8134 17.2607 23.8134ZM17.3139 29.567C19.2851 29.567 20.6702 29.0875 21.416 27.3827H19.1785C18.8056 27.9155 18.2729 28.1286 17.6868 28.1286C16.6746 28.1286 15.9821 27.436 15.9821 26.5836H21.6291C21.6291 26.4238 21.6291 26.264 21.6291 26.1042C21.6291 24.2929 20.1907 22.4283 17.3139 22.4283C14.7568 22.4283 12.9987 23.6536 12.9987 25.9976C12.9987 28.1818 14.8101 29.567 17.3139 29.567Z" fill="white"/>
<path fill-rule="evenodd" clip-rule="evenodd" d="M26.85 29.3538L30.2063 22.5348H28.2351L26.264 26.6901L26.2107 26.7967L26.1574 26.6901L24.0798 22.5348H20.7768L24.4527 29.3538H26.85Z" fill="white"/>
<path fill-rule="evenodd" clip-rule="evenodd" d="M12.9455 27.4892H9.42945V22.5348H6.49939V29.3538H12.9455V27.4892Z" fill="white"/>
<path fill-rule="evenodd" clip-rule="evenodd" d="M51.4092 29.0874V27.5425H52.3682C52.6345 27.8089 53.114 28.022 53.7 28.022C54.286 28.022 54.6057 27.8621 54.6057 27.5425C54.6057 27.1163 54.2328 27.063 53.4869 26.9032C52.2083 26.6369 51.4092 26.1041 51.4092 24.6124C51.4092 23.0675 52.5813 22.3217 54.286 22.3217C55.245 22.3217 55.9908 22.5348 56.5768 22.8011V24.2928H55.6179C55.3515 24.0797 54.872 23.9199 54.3926 23.9199C53.8066 23.9199 53.5402 24.0797 53.5402 24.3461C53.5402 24.719 53.8598 24.7723 54.5524 24.9321C56.3637 25.305 56.8964 25.891 56.8964 27.2761C56.8964 28.7678 55.831 29.6735 53.8598 29.6735C52.7411 29.6202 51.942 29.4071 51.4092 29.0874Z" fill="#AA0000"/>
<path fill-rule="evenodd" clip-rule="evenodd" d="M58.7078 29.5137V24.0265H57.003V22.375H62.7566V24.0265H61.1051V29.5137H58.7078Z" fill="#AA0000"/>
<path fill-rule="evenodd" clip-rule="evenodd" d="M64.9941 26.5304H66.2194L65.6333 24.3994H65.5801L64.9941 26.5304ZM62.2771 29.0342L64.4081 22.375H67.125L69.3092 29.0342V29.5137H66.9652L66.5923 28.1286H64.5146L64.1417 29.5137H62.2771V29.0342Z" fill="#AA0000"/>
<path fill-rule="evenodd" clip-rule="evenodd" d="M72.4524 27.9688C73.4646 27.9688 73.944 27.4893 73.944 25.9976C73.944 24.506 73.4646 24.0265 72.4524 24.0265H72.1327V27.9688H72.4524ZM69.7354 22.375H72.5589C75.1161 22.375 76.3414 23.6003 76.3414 25.8911C76.3414 28.2884 75.1161 29.5137 72.5057 29.5137H69.7354V22.375Z" fill="#AA0000"/>
<path fill-rule="evenodd" clip-rule="evenodd" d="M77.0872 29.5137H79.4845V22.375H77.0872V29.5137Z" fill="#AA0000"/>
<path fill-rule="evenodd" clip-rule="evenodd" d="M84.7054 26.85V22.375H86.6765V26.9033C86.6765 28.6613 85.611 29.6202 83.6399 29.6202C81.5089 29.6202 80.4435 28.6613 80.4435 26.9033V22.375H82.8408V26.85C82.8408 27.5958 83.1071 27.9155 83.7997 27.9155C84.439 27.8622 84.7054 27.5958 84.7054 26.85Z" fill="#AA0000"/>
<path fill-rule="evenodd" clip-rule="evenodd" d="M87.6354 22.375H90.7253L91.7908 25.9443L92.8562 22.375H95.8928V29.5137H93.5488V25.092L92.217 29.5137H90.8851L89.5533 25.092V29.5137H87.6354V22.375Z" fill="#AA0000"/>
<path d="M151.777 53.5402C166.488 53.5402 178.414 41.6144 178.414 26.9033C178.414 12.1921 166.488 0.266373 151.777 0.266373C137.066 0.266373 125.14 12.1921 125.14 26.9033C125.14 41.6144 137.066 53.5402 151.777 53.5402Z" fill="#AA0000"/>
<path d="M151.777 53.8065C136.967 53.8065 124.874 41.7667 124.874 26.9033C124.874 12.0932 136.914 0 151.777 0C166.64 0 178.68 12.0399 178.68 26.9033C178.68 41.7134 166.587 53.8065 151.777 53.8065ZM151.777 0.532738C137.233 0.532738 125.407 12.3595 125.407 26.9033C125.407 41.447 137.233 53.2738 151.777 53.2738C166.321 53.2738 178.148 41.447 178.148 26.9033C178.148 12.3595 166.321 0.532738 151.777 0.532738Z" fill="white"/>
<path d="M148.581 37.2917L148.687 42.5658H154.388L154.494 37.2917H148.581Z" fill="#AA0000"/>
<path d="M147.888 37.2917L136.434 37.2384L136.967 37.8777C138.032 38.9432 138.565 39.9021 139.79 40.7012C140.856 41.3938 140.962 42.033 142.081 42.5658H147.941L147.888 37.2917Z" fill="#AA0000"/>
<path d="M135.049 34.1485L135.209 35.9066H147.888L147.835 34.0952L135.049 34.1485Z" fill="#AA0000"/>
<path d="M155.293 33.2961H168.185L168.345 31.6446H155.293V33.2961Z" fill="#B3995D"/>
<path d="M168.399 30.8455L168.452 30.3661H155.346V30.8455H168.399Z" fill="#B3995D"/>
<path d="M147.782 31.6446L134.889 31.6979L134.996 33.2961H147.835L147.782 31.6446Z" fill="#B3995D"/>
<path d="M155.24 34.0952V35.9066L168.026 35.9598L168.132 34.0952H155.24Z" fill="#AA0000"/>
<path d="M154.601 30.8455V30.3661H148.474V30.8455H154.601Z" fill="#B3995D"/>
<path d="M154.601 31.6446H148.527V33.2961H154.547L154.601 31.6446Z" fill="#B3995D"/>
<path d="M147.782 30.8455V30.3661H134.783L134.836 30.8455H147.782Z" fill="#B3995D"/>
<path d="M148.581 35.9066H154.494L154.547 34.0952H148.527L148.581 35.9066Z" fill="#AA0000"/>
<path d="M154.601 31.6446V31.4315H148.474L148.527 31.6446H154.601Z" fill="#B3995D"/>
<path d="M147.782 31.4315H134.836L134.889 31.6979L147.782 31.6446V31.4315Z" fill="#B3995D"/>
<path d="M155.293 31.6446H168.345V31.4315H155.293V31.6446Z" fill="#B3995D"/>
<path d="M148.527 33.8821V34.0952H154.547V33.8821H148.527Z" fill="#AA0000"/>
<path d="M147.835 33.8821H135.049V34.1485L147.835 34.0952V33.8821Z" fill="#AA0000"/>
<path d="M155.24 34.0952H168.132L168.185 33.8289L155.293 33.8821L155.24 34.0952Z" fill="#AA0000"/>
<path d="M147.782 30.3661V30.153H134.783V30.3661H147.782Z" fill="#B3995D"/>
<path d="M154.601 30.3661V30.0997L148.474 30.153V30.3661H154.601Z" fill="#B3995D"/>
<path d="M168.452 30.3661V30.0997H155.346V30.3661H168.452Z" fill="#B3995D"/>
<path d="M134.783 30.3661H134.516L134.57 30.8455H134.836L134.783 30.3661Z" fill="#B3995D"/>
<path d="M134.889 31.6979H134.623L134.783 33.2961H134.996L134.889 31.6979Z" fill="#B3995D"/>
<path d="M134.836 31.4315H134.623V31.6979H134.889L134.836 31.4315Z" fill="#B3995D"/>
<path d="M134.836 30.8455H134.57V31.1119H134.836V30.8455Z" fill="#B3995D"/>
<path d="M134.836 31.1119H134.57L134.623 31.4316H134.836V31.1119Z" fill="#B3995D"/>
<path d="M134.783 33.8821L134.836 34.1485H135.049V33.8821H134.783Z" fill="#AA0000"/>
<path d="M134.996 33.2961H134.783V33.5625H134.996V33.2961Z" fill="#B3995D"/>
<path d="M134.996 33.5625H134.783V33.8821H135.049L134.996 33.5625Z" fill="#B3995D"/>
<path d="M134.783 30.3661V30.153H134.516V30.3661H134.783Z" fill="#B3995D"/>
<path d="M134.73 29.7801V29.567H134.463V29.7801H134.73Z" fill="#B3995D"/>
<path d="M134.516 30.153H134.783L134.73 29.7801H134.463L134.516 30.153Z" fill="#B3995D"/>
<path d="M148.261 31.6446L148.314 33.2961H148.527V31.6446H148.261Z" fill="#B3995D"/>
<path d="M148.527 34.0952H148.314V35.9066H148.581L148.527 34.0952Z" fill="#AA0000"/>
<path d="M148.368 37.2917L148.474 42.5658H148.687L148.581 37.2917H148.368Z" fill="#AA0000"/>
<path d="M148.474 30.8455V30.3661H148.261V30.8455H148.474Z" fill="#B3995D"/>
<path d="M148.474 31.4315H148.261V31.6446H148.527L148.474 31.4315Z" fill="#B3995D"/>
<path d="M148.474 42.5658L148.527 44.5369C148.581 44.5369 148.687 44.5369 148.74 44.5902L148.687 42.619H148.474V42.5658Z" fill="#AA0000"/>
<path d="M148.474 31.1119V30.8455H148.261V31.1119H148.474Z" fill="#B3995D"/>
<path d="M148.474 31.4316V31.1119H148.261V31.4316H148.474Z" fill="#B3995D"/>
<path d="M148.527 33.2961H148.314V33.5625H148.527V33.2961Z" fill="#B3995D"/>
<path d="M148.314 33.5625V33.8821H148.527V33.5625H148.314Z" fill="#B3995D"/>
<path d="M148.474 30.3661V30.153H148.208L148.261 30.3661H148.474Z" fill="#B3995D"/>
<path d="M148.474 29.7801V29.6202H148.208V29.7801H148.474Z" fill="#B3995D"/>
<path d="M148.208 30.153H148.474V29.7801H148.208V30.153Z" fill="#B3995D"/>
<path d="M148.314 35.9065L148.368 37.2917H148.581V35.9065H148.314Z" fill="#AA0000"/>
<path d="M168.398 30.8455H168.612L168.665 30.3661H168.452L168.398 30.8455Z" fill="#B3995D"/>
<path d="M168.026 35.9598H168.239L168.399 34.0952H168.132L168.026 35.9598Z" fill="#AA0000"/>
<path d="M168.185 33.2961H168.452L168.558 31.6446H168.345L168.185 33.2961Z" fill="#B3995D"/>
<path d="M168.345 31.6446H168.558L168.612 31.4315H168.345V31.6446Z" fill="#B3995D"/>
<path d="M168.398 31.1119H168.612V30.8455H168.398V31.1119Z" fill="#B3995D"/>
<path d="M168.345 31.4316H168.612V31.1119H168.398L168.345 31.4316Z" fill="#B3995D"/>
<path d="M168.132 34.0952H168.399V33.8289H168.185L168.132 34.0952Z" fill="#AA0000"/>
<path d="M168.185 33.5625H168.452V33.2961H168.185V33.5625Z" fill="#B3995D"/>
<path d="M168.185 33.8289H168.399L168.452 33.5625H168.185V33.8289Z" fill="#B3995D"/>
<path d="M168.665 30.3661L168.718 30.0997H168.452V30.3661H168.665Z" fill="#B3995D"/>
<path d="M168.718 29.567H168.505L168.452 29.7801H168.718V29.567Z" fill="#B3995D"/>
<path d="M168.718 30.0997V29.7801H168.452V30.0997H168.718Z" fill="#B3995D"/>
<path d="M154.547 33.2961H154.814V31.6446H154.601L154.547 33.2961Z" fill="#B3995D"/>
<path d="M154.547 34.0952L154.494 35.9066H154.76L154.814 34.0952H154.547Z" fill="#AA0000"/>
<path d="M154.494 37.2917L154.388 42.5658H154.654L154.707 37.2917H154.494Z" fill="#AA0000"/>
<path d="M154.867 30.8455V30.3661H154.601V30.8455H154.867Z" fill="#B3995D"/>
<path d="M154.601 31.6446H154.814L154.867 31.4315H154.601V31.6446Z" fill="#B3995D"/>
<path d="M154.387 42.5658L154.334 44.75C154.388 44.75 154.494 44.75 154.547 44.75L154.601 42.5658H154.387Z" fill="#AA0000"/>
<path d="M154.867 31.1119V30.8455H154.601V31.1119H154.867Z" fill="#B3995D"/>
<path d="M154.867 31.4316V31.1119H154.601V31.4316H154.867Z" fill="#B3995D"/>
<path d="M154.547 33.8821V34.0952H154.814V33.8821H154.547Z" fill="#AA0000"/>
<path d="M154.547 33.5625H154.814V33.2961H154.547V33.5625Z" fill="#B3995D"/>
<path d="M154.547 33.5625V33.8821H154.814V33.5625H154.547Z" fill="#B3995D"/>
<path d="M154.867 30.3661V30.0997H154.601V30.3661H154.867Z" fill="#B3995D"/>
<path d="M154.867 29.6202H154.654V29.7801H154.867V29.6202Z" fill="#B3995D"/>
<path d="M154.867 30.0997V29.7801H154.654L154.601 30.0997H154.867Z" fill="#B3995D"/>
<path d="M154.494 37.2917H154.707L154.76 35.9065H154.494V37.2917Z" fill="#AA0000"/>
<path d="M166.587 32.0176L166.854 29.567L152.789 29.3006L144.265 29.3539L136.328 29.7801L136.594 32.2307L144.638 31.5914L157.691 31.5381L166.587 32.0176Z" fill="#AA0000"/>
<path d="M168.771 32.7634C169.411 30.8455 169.784 28.8744 169.784 26.85C169.784 25.678 169.677 24.5059 169.464 23.3872H169.411C169.357 23.3872 169.357 23.3872 169.304 23.3872C169.251 23.3339 169.144 23.3339 169.091 23.3872C168.985 23.4405 168.931 23.4405 168.825 23.3872C168.718 23.3339 168.612 23.3339 168.558 23.3339C168.345 23.3339 168.132 23.3339 167.866 23.3339C167.813 23.3339 167.706 23.3339 167.653 23.3339C167.546 23.3339 167.386 23.3872 167.28 23.3872C167.173 23.3872 167.12 23.3872 167.013 23.3872C166.8 23.3872 166.587 23.4404 166.374 23.3339C166.268 23.2806 166.161 23.3339 166.054 23.3339C166.001 23.3339 165.895 23.3339 165.841 23.3339C165.735 23.3339 165.682 23.3339 165.575 23.3339C165.468 23.3871 165.415 23.3871 165.309 23.3339C165.255 23.3339 165.149 23.2807 165.096 23.2807C164.936 23.2807 164.829 23.3339 164.669 23.3339C164.243 23.3339 163.87 23.3871 163.444 23.3339C163.178 23.3339 162.911 23.3872 162.592 23.4405C162.485 23.4405 162.432 23.4937 162.325 23.4405C162.219 23.4405 162.112 23.4405 162.006 23.4405C161.846 23.4937 161.686 23.4937 161.473 23.4405C161.42 23.4405 161.366 23.4405 161.26 23.4405C161.047 23.4937 160.834 23.4937 160.567 23.4405C160.407 23.4405 160.194 23.3872 160.035 23.3872C159.768 23.3872 159.449 23.3339 159.182 23.2807C158.969 23.2274 158.703 23.2273 158.49 23.2273C158.436 23.2273 158.383 23.2273 158.33 23.2273C158.117 23.2273 157.957 23.2273 157.744 23.2273C157.69 23.2273 157.637 23.1741 157.584 23.1741C157.477 23.1741 157.424 23.1208 157.318 23.1208C157.104 23.1208 156.838 23.1208 156.625 23.0675C156.572 23.0675 156.572 23.0675 156.518 23.0675C156.412 23.0675 156.359 23.0676 156.252 23.0143C156.146 22.961 155.986 22.961 155.879 23.0143C155.826 23.0143 155.773 23.0143 155.719 23.0143C155.56 23.0143 155.346 22.961 155.187 23.0143C155.027 23.0143 154.867 22.961 154.707 22.9077C154.547 22.8012 154.334 22.8012 154.174 22.7479C153.908 22.6946 153.642 22.6946 153.375 22.6414C153.162 22.6414 153.002 22.5881 152.789 22.5881C152.629 22.5881 152.47 22.5348 152.363 22.4815C152.31 22.4283 152.257 22.4282 152.257 22.4282C152.15 22.4815 152.043 22.4283 151.937 22.375C151.724 22.2684 151.564 22.2152 151.351 22.2152C151.191 22.2152 151.085 22.2151 150.925 22.2684C150.765 22.3217 150.552 22.3217 150.392 22.3217C150.179 22.3217 150.019 22.3217 149.806 22.3217C149.593 22.375 149.433 22.3217 149.22 22.2684C148.954 22.2151 148.634 22.2152 148.368 22.2152C148.261 22.2152 148.208 22.2684 148.101 22.2684C147.675 22.3217 147.249 22.3217 146.823 22.375C146.61 22.4283 146.343 22.4282 146.13 22.5348C145.917 22.588 145.704 22.588 145.491 22.5348H145.438C145.331 22.588 145.171 22.5348 145.065 22.5348C145.011 22.5348 144.958 22.5348 144.958 22.5348C144.798 22.5348 144.638 22.5881 144.479 22.5881C144.425 22.5881 144.425 22.5881 144.372 22.5881C144.159 22.5348 143.946 22.588 143.733 22.5348C143.679 22.5348 143.679 22.5348 143.626 22.5348C143.52 22.5348 143.466 22.5348 143.36 22.5348C143.253 22.5348 143.147 22.4815 143.04 22.4815C142.827 22.4283 142.667 22.3217 142.454 22.375C142.401 22.375 142.294 22.4282 142.241 22.4282C142.188 22.4282 142.135 22.4815 142.081 22.4282C142.028 22.3749 141.921 22.375 141.868 22.375C141.708 22.375 141.549 22.3749 141.389 22.2684C141.229 22.1618 141.016 22.1618 140.856 22.2684C140.749 22.3217 140.643 22.375 140.536 22.3217C140.323 22.2685 140.163 22.2152 139.95 22.2152C139.897 22.2152 139.79 22.1619 139.737 22.2152C139.577 22.2684 139.418 22.2684 139.258 22.2684C138.885 22.2684 138.512 22.2685 138.139 22.0554C138.086 22.0021 137.979 22.0021 137.926 22.0554C137.766 22.1086 137.606 22.1618 137.5 22.1618H137.446C137.393 22.1618 137.287 22.1618 137.233 22.1618C137.074 22.1086 136.86 22.0553 136.701 22.002C136.541 21.9488 136.381 21.9488 136.221 21.9488C136.115 21.9488 135.955 21.9488 135.848 21.9488C135.742 21.9488 135.635 21.9488 135.529 21.9488C135.422 22.0021 135.262 22.0021 135.156 21.9488C134.943 21.9488 134.783 21.9488 134.57 21.9488C134.463 21.9488 134.357 22.002 134.25 22.002C133.824 23.547 133.611 25.1452 133.611 26.7967C133.611 28.8211 133.93 30.7923 134.57 32.6568L134.783 33.2961C134.783 33.3494 134.836 33.4027 134.836 33.4559H168.345C168.345 33.4027 168.399 33.3494 168.399 33.2961" fill="#AA0000"/>
<path d="M144.585 23.3339L136.221 23.6536L136.274 24.2396L144.585 23.92H158.649L166.854 24.2396L166.907 23.7068L158.649 23.3339H144.585Z" fill="#B3995D"/>
<path d="M144.585 22.6414L136.115 22.961L136.168 23.4405L144.585 23.1208H158.649L166.96 23.4405L167.013 22.961L158.649 22.6414H144.585Z" fill="#B3995D"/>
<path d="M144.585 21.789L136.008 22.1619L136.115 22.7479L144.585 22.4283H158.649L167.067 22.7479L167.12 22.1619L158.649 21.789H144.585Z" fill="#B3995D"/>
<path d="M135.848 20.7236L136.008 21.8956L144.585 21.5759H158.649L167.173 21.9489L167.28 20.7768L151.617 20.617L135.848 20.7236Z" fill="#B3995D"/>
<path d="M137.127 18.9122L136.86 18.9655L137.02 20.031L151.671 19.8711L166.161 20.1375L166.214 18.9122H137.127Z" fill="#B3995D"/>
<path d="M136.541 26.9033L136.328 24.6126H136.434L136.647 26.9033H136.541ZM166.587 25.3051L165.735 26.637L158.436 26.3173H144.638L137.18 26.7968L136.594 25.3584L144.638 24.8789H158.596L166.587 25.1986L166.64 24.6126H166.747L166.587 25.3051ZM167.173 22.8012V22.9611L167.12 23.4405V23.5471L167.013 24.3995V24.4527L158.756 24.0798H144.638L136.381 24.3995H136.274L135.742 19.9777H135.795H136.807L136.647 18.7524L137.287 18.4861H166.161L166.64 18.8057L166.534 20.0843H167.44H167.546L167.173 22.8012Z" fill="#AA0000"/>
<path d="M148.687 42.5657L148.74 44.5901C148.794 44.5901 148.847 44.5901 148.847 44.5901C148.9 44.5901 148.954 44.5901 149.007 44.5901C149.912 44.75 150.818 44.8032 151.724 44.8032C152.203 44.8032 152.736 44.8032 153.215 44.75C153.269 44.75 153.322 44.75 153.375 44.75C153.482 44.75 153.588 44.75 153.748 44.6967C153.961 44.6967 154.174 44.6434 154.387 44.5901L154.441 42.5125H148.687V42.5657Z" fill="white"/>
<path d="M148.581 37.2916H154.494V35.9065H148.581V37.2916Z" fill="white"/>
<path d="M148.208 29.6202H147.728H134.463V29.567H133.984V29.6202H133.877C134.037 30.6857 134.303 31.6979 134.623 32.7101C134.676 32.9232 134.783 33.1363 134.836 33.3494C134.836 33.4027 134.889 33.456 134.889 33.5092C134.889 33.5625 134.943 33.6158 134.943 33.669C134.943 33.7223 134.996 33.7756 134.996 33.8289C134.996 33.8821 135.049 33.8821 135.049 33.9354C135.049 33.9887 135.102 33.9887 135.102 34.042H147.728V34.0952L147.782 35.9065H136.061C136.115 36.0131 136.221 36.1729 136.274 36.2795C136.328 36.3327 136.328 36.386 136.381 36.4393C136.434 36.5458 136.487 36.5991 136.541 36.7057C136.594 36.7589 136.594 36.8122 136.647 36.8655C136.754 36.972 136.807 37.1318 136.914 37.2384H147.782L147.888 42.5658H142.88C143.253 42.7789 143.626 42.992 143.999 43.1518C144.212 43.2583 144.372 43.3116 144.585 43.4182C145.81 43.9509 147.089 44.3238 148.368 44.5369L148.314 42.5658L148.208 37.2384V35.9065L148.154 34.0952V34.042H154.654V34.0952L154.601 35.9065V37.2384L154.494 42.5658L154.441 44.5902C155.879 44.3771 157.264 43.9509 158.596 43.4182C158.809 43.3116 158.969 43.2583 159.182 43.1518C159.555 42.992 159.928 42.7789 160.301 42.5658H154.92L155.027 37.2384H166.268C166.374 37.1318 166.427 37.0253 166.534 36.8655C166.534 36.8655 166.534 36.8655 166.534 36.8122C166.587 36.7589 166.587 36.7057 166.64 36.6524C166.694 36.5991 166.747 36.4926 166.8 36.4393C166.854 36.386 166.854 36.3327 166.907 36.2795C166.96 36.1729 167.013 36.0664 167.12 35.9598H155.08L155.133 34.1485V34.0952H168.132C168.132 34.042 168.185 33.9887 168.185 33.9354C168.185 33.9354 168.185 33.8821 168.239 33.8821C168.239 33.8289 168.292 33.7756 168.292 33.7223C168.292 33.669 168.345 33.6158 168.345 33.5625C168.345 33.5092 168.399 33.456 168.399 33.4027C168.452 33.1896 168.558 33.0298 168.612 32.8167C168.985 31.8045 169.251 30.739 169.411 29.6202H148.208Z" fill="white"/>
<path d="M169.943 23.4405C169.677 22.1619 169.304 20.8833 168.771 19.6047C168.292 18.486 167.706 17.4738 167.067 16.4616C166.427 15.5027 165.628 14.5437 164.829 13.7446C163.977 12.8922 163.071 12.1464 162.112 11.5071C161.1 10.8146 160.088 10.2818 158.969 9.80238C156.678 8.84346 154.281 8.36399 151.777 8.36399C149.273 8.36399 146.823 8.84346 144.585 9.80238C143.466 10.2818 142.454 10.8679 141.442 11.5071C140.483 12.1464 139.524 12.9455 138.725 13.7446C137.873 14.597 137.127 15.5027 136.488 16.4616C135.795 17.4738 135.262 18.486 134.783 19.6047C134.463 20.4038 134.143 21.203 133.93 22.0554C133.504 23.6003 133.291 25.1985 133.291 26.85C133.291 28.8744 133.611 30.8988 134.25 32.8166C134.303 32.9764 134.357 33.1895 134.463 33.3494C134.463 33.4026 134.516 33.456 134.516 33.5092C134.516 33.5625 134.57 33.6157 134.57 33.669C134.623 33.7755 134.623 33.8288 134.676 33.9354C134.676 33.9886 134.729 33.9887 134.729 34.042C134.729 34.0952 134.729 34.0952 134.783 34.1485C134.836 34.255 134.889 34.3616 134.943 34.4681C134.996 34.5214 134.996 34.5747 135.049 34.628C135.102 34.7345 135.156 34.7878 135.156 34.8944C135.209 34.9476 135.209 35.0009 135.262 35.0542C135.475 35.4804 135.688 35.8533 135.901 36.2262C135.955 36.2795 135.955 36.3327 136.008 36.386C136.061 36.4926 136.115 36.5458 136.168 36.6524C136.221 36.7057 136.221 36.7589 136.274 36.8122C136.328 36.9187 136.381 37.0252 136.488 37.0785C136.701 37.4514 136.967 37.7711 137.233 38.0908C137.5 38.4637 137.766 38.7833 138.086 39.103C138.299 39.3161 138.512 39.5291 138.672 39.7422L138.725 39.7955C138.832 39.902 138.938 40.0086 139.045 40.1152C139.098 40.1685 139.151 40.2217 139.258 40.275C139.95 40.9142 140.696 41.5003 141.495 42.033C142.028 42.406 142.561 42.7256 143.147 43.0452C143.626 43.3116 144.159 43.5247 144.638 43.7911C145.917 44.3238 147.249 44.75 148.634 44.9631C148.74 44.9631 148.847 45.0164 149.007 45.0164C149.06 45.0164 149.113 45.0164 149.167 45.0164C150.072 45.1229 150.978 45.2294 151.884 45.2294C152.363 45.2294 152.843 45.2295 153.375 45.1762C153.429 45.1762 153.482 45.1762 153.535 45.1762C153.642 45.1762 153.748 45.1762 153.908 45.1229C155.719 44.9098 157.477 44.4836 159.129 43.7911C159.662 43.578 160.141 43.3116 160.621 43.0452C161.207 42.7256 161.739 42.406 162.272 42.033C162.592 41.8199 162.965 41.5535 163.284 41.3404C163.338 41.2872 163.391 41.2339 163.444 41.1807C163.551 41.0741 163.71 40.9675 163.817 40.861C164.243 40.5413 164.616 40.1684 164.989 39.7955C165.202 39.5824 165.415 39.3161 165.682 39.103C165.948 38.7833 166.214 38.4636 166.481 38.144C166.747 37.8244 167.013 37.4514 167.226 37.0785C167.28 36.972 167.386 36.8655 167.44 36.7589C167.493 36.7057 167.493 36.6523 167.546 36.5991C167.599 36.5458 167.653 36.4393 167.706 36.386C167.759 36.3327 167.759 36.2795 167.813 36.2262C168.026 35.8 168.292 35.427 168.505 35.0008C168.558 34.9476 168.558 34.8944 168.612 34.8411C168.665 34.7878 168.665 34.6813 168.718 34.628C168.771 34.5747 168.771 34.5214 168.825 34.4681C168.878 34.3616 168.931 34.2018 168.985 34.0952V34.042C168.985 33.9887 169.038 33.9354 169.038 33.9354C169.091 33.8821 169.091 33.7756 169.144 33.7223C169.144 33.6691 169.198 33.6158 169.198 33.5625C169.198 33.5092 169.251 33.4559 169.251 33.4026C169.304 33.2428 169.357 33.083 169.411 32.9232C170.05 31.0054 170.423 28.981 170.423 26.9033C170.263 25.678 170.157 24.5592 169.943 23.4405ZM169.784 26.6901C169.784 26.7434 169.784 26.7434 169.784 26.7967C169.784 27.7023 169.73 28.6613 169.571 29.567C169.411 30.6324 169.144 31.6979 168.771 32.7634C168.718 32.9765 168.612 33.1363 168.558 33.3494C168.558 33.4026 168.505 33.456 168.505 33.5092C168.505 33.5625 168.452 33.6157 168.452 33.669C168.452 33.7223 168.399 33.7756 168.399 33.8289C168.399 33.8289 168.399 33.8821 168.345 33.8821C168.345 33.9354 168.292 33.9887 168.292 34.042V34.0952C168.239 34.2018 168.185 34.3616 168.132 34.4681C168.079 34.5214 168.079 34.5747 168.026 34.628C167.972 34.6813 167.972 34.7878 167.919 34.8411C167.866 34.8944 167.866 34.9476 167.813 35.0008C167.653 35.3205 167.493 35.5869 167.333 35.9066C167.28 36.0131 167.226 36.1196 167.12 36.2262C167.067 36.2795 167.067 36.3327 167.013 36.386C166.96 36.4393 166.907 36.5458 166.854 36.5991C166.8 36.6523 166.8 36.7057 166.747 36.7589C166.747 36.7589 166.747 36.7589 166.747 36.8122C166.64 36.9187 166.587 37.0253 166.481 37.1851C166.268 37.5048 166.001 37.8244 165.735 38.144C165.468 38.4636 165.149 38.7833 164.882 39.103C164.776 39.2095 164.669 39.316 164.563 39.4758C164.296 39.7422 164.03 39.9554 163.764 40.2217C163.657 40.3283 163.497 40.4348 163.391 40.5413C163.338 40.5946 163.284 40.6479 163.178 40.7012C162.751 41.0741 162.325 41.3937 161.846 41.6601C161.42 41.9264 160.993 42.2461 160.514 42.4592C160.141 42.6723 159.768 42.8854 159.395 43.0452C159.182 43.1518 159.022 43.2051 158.809 43.3116C157.477 43.8976 156.092 44.2705 154.654 44.4836C154.601 44.4836 154.494 44.4836 154.441 44.5369C154.228 44.5901 154.015 44.5902 153.801 44.6435C153.695 44.6435 153.588 44.6434 153.429 44.6967C153.375 44.6967 153.322 44.6967 153.269 44.6967C152.789 44.75 152.31 44.75 151.777 44.75C150.871 44.75 149.966 44.6967 149.06 44.5369C149.007 44.5369 148.954 44.5369 148.9 44.5369C148.847 44.5369 148.794 44.5369 148.794 44.5369C148.74 44.5369 148.634 44.5369 148.581 44.4836C147.302 44.2705 146.024 43.8976 144.798 43.3648C144.585 43.2583 144.425 43.205 144.212 43.0985C143.839 42.9386 143.466 42.7256 143.093 42.5125C142.614 42.2461 142.188 41.9798 141.762 41.7134C140.856 41.0741 140.004 40.3816 139.204 39.6357C139.151 39.5824 139.151 39.5824 139.098 39.5291L139.045 39.4758C138.938 39.3693 138.885 39.316 138.778 39.2095C138.725 39.1562 138.672 39.103 138.672 39.103C138.405 38.8366 138.139 38.5169 137.926 38.1973C137.66 37.8776 137.446 37.558 137.233 37.2384C137.127 37.1319 137.074 36.972 136.967 36.8654C136.914 36.8122 136.914 36.7589 136.86 36.7057C136.807 36.5991 136.754 36.5458 136.701 36.4393C136.647 36.386 136.647 36.3327 136.594 36.2794C136.541 36.1729 136.434 36.0131 136.381 35.9066C136.221 35.6402 136.061 35.3738 135.901 35.0542C135.848 35.0009 135.848 34.9476 135.795 34.8944C135.742 34.7878 135.688 34.7345 135.688 34.628C135.635 34.5747 135.635 34.5214 135.582 34.4681C135.529 34.3616 135.475 34.255 135.422 34.1485C135.422 34.1485 135.422 34.0952 135.369 34.0952C135.369 34.042 135.315 34.042 135.315 33.9887C135.315 33.9354 135.262 33.9354 135.262 33.8821C135.262 33.8288 135.209 33.7756 135.209 33.7223C135.209 33.6691 135.156 33.6158 135.156 33.5625C135.156 33.5092 135.102 33.4559 135.102 33.4026C135.049 33.1895 134.943 32.9765 134.889 32.7634C134.57 31.7512 134.303 30.7389 134.143 29.6735C133.984 28.7678 133.93 27.8622 133.93 26.9565H133.664C133.557 26.7434 133.664 26.7967 133.557 26.5836L133.93 26.5303C133.984 25.0386 134.197 23.547 134.57 22.1086C134.783 21.3628 135.049 20.6169 135.369 19.8711C135.795 18.8056 136.381 17.7934 137.02 16.8345C137.446 16.1952 137.926 15.6092 138.405 15.0764C138.352 15.0764 138.299 15.0765 138.192 15.1298H138.032L138.086 14.9699C138.139 14.8633 138.246 14.8634 138.246 14.8634H138.299C138.352 14.8634 138.405 14.8634 138.405 14.8634C138.512 14.8634 138.565 14.8101 138.672 14.8101C138.832 14.597 139.045 14.4372 139.204 14.2241C140.004 13.425 140.909 12.6791 141.868 12.0398C142.827 11.4005 143.839 10.8146 144.905 10.3884C147.142 9.42947 149.486 8.94995 151.937 8.94995C154.388 8.94995 156.732 9.42947 158.969 10.3884C160.035 10.8146 161.047 11.4005 162.006 12.0398C162.965 12.6791 163.87 13.425 164.669 14.2241C165.309 14.8634 165.895 15.5559 166.481 16.3017C166.534 16.355 166.587 16.3017 166.587 16.3017C166.694 16.2485 166.747 16.1952 166.854 16.2485H166.907C166.96 16.2485 167.013 16.3018 167.067 16.3551V16.5149H166.907C166.907 16.5149 166.907 16.5149 166.854 16.5149C166.8 16.5149 166.747 16.5149 166.747 16.4616H166.694C166.694 16.4616 166.64 16.4616 166.64 16.5149C166.694 16.6214 166.8 16.7279 166.854 16.8345C167.493 17.7934 168.079 18.8056 168.505 19.8711C168.985 20.9898 169.357 22.2152 169.571 23.3872C169.73 24.2929 169.837 25.1985 169.89 26.1574L170.316 26.2107C170.263 26.4238 170.21 26.5304 170.103 26.7435L169.784 26.6901Z" fill="white"/>
<path d="M169.73 26.1041L166.694 25.6779L166.8 24.4526H166.96V24.3993L167.067 23.547V23.4404L167.12 22.961V22.8011L167.44 20.1374H167.333H166.427L166.534 18.8589L166.054 18.5392H137.18L136.541 18.8056L136.701 20.0309H135.688H135.635L136.168 24.4526H136.274L136.434 25.891L133.664 26.477L133.291 26.5303C133.344 26.7434 133.291 26.6901 133.398 26.9032H133.664L136.541 26.8499H136.647L136.381 24.3993L144.532 24.0797H158.649L166.694 24.3993L166.64 25.1452L158.649 24.8255H144.692L136.647 25.305L137.233 26.7434L144.692 26.2639H158.649L165.788 26.5836L166.64 25.2517L166.534 26.5836H166.64L169.784 26.6368H169.997C170.05 26.4238 170.103 26.3172 170.21 26.1041H169.73ZM166.96 23.4404L158.649 23.1208H144.585L136.168 23.4404L136.115 22.961L144.532 22.588H158.649L167.013 22.961L166.96 23.4404ZM136.008 22.1618L144.532 21.7889H158.649L167.12 22.1618L167.067 22.7479L158.649 22.4282H144.585L136.115 22.8011L136.008 22.1618ZM136.86 18.9654L137.18 18.9121H166.214L166.161 20.1374L151.671 19.8711L137.02 20.0309L136.86 18.9654ZM151.617 20.6169L167.28 20.7767L167.12 21.9488L158.596 21.5758H144.532L135.955 21.8955L135.795 20.7235L151.617 20.6169ZM158.649 23.9199H144.585L136.274 24.2395L136.221 23.7068L144.585 23.3871H158.703L166.96 23.7601L166.907 24.2928L158.649 23.9199Z" fill="white"/>
<path d="M138.672 14.9167C138.778 14.9167 138.938 14.9699 139.045 14.9167C139.098 14.8634 139.151 14.9167 139.258 14.9167H139.311C139.364 14.9167 139.364 14.9167 139.418 14.9167C139.471 14.9167 139.577 14.9167 139.631 14.9167C139.737 14.9167 139.844 14.9166 139.95 14.9699C140.11 15.0232 140.217 15.0765 140.43 15.1298C140.483 15.1298 140.536 15.1298 140.59 15.1298H140.643H140.696C140.856 15.1298 140.962 15.0765 141.122 15.0232C141.176 15.0232 141.176 15.0232 141.229 15.0232C141.548 15.2363 141.868 15.2896 142.241 15.2896C142.294 15.2896 142.294 15.2896 142.348 15.2896C142.454 15.2896 142.561 15.2895 142.667 15.2363C142.667 15.2363 142.721 15.2363 142.774 15.2363C142.88 15.2895 143.04 15.2895 143.147 15.3428L143.253 15.3961C143.36 15.4494 143.466 15.3961 143.626 15.2896C143.733 15.183 143.839 15.183 143.946 15.2896C144.106 15.4494 144.265 15.4494 144.372 15.4494C144.425 15.4494 144.425 15.4493 144.479 15.5026C144.585 15.6092 144.692 15.556 144.745 15.556H144.798C144.851 15.556 144.905 15.5026 144.905 15.5026C145.011 15.4493 145.171 15.5559 145.331 15.6092C145.437 15.6624 145.491 15.7158 145.651 15.7158C145.704 15.7158 145.81 15.7158 145.864 15.7158C145.97 15.769 146.13 15.769 146.237 15.769C146.29 15.769 146.396 15.769 146.45 15.769C146.503 15.769 146.503 15.769 146.556 15.769C146.609 15.769 146.663 15.769 146.716 15.7158C146.823 15.7158 146.876 15.6625 146.982 15.6625H147.036C147.142 15.7158 147.249 15.7158 147.355 15.6625C147.568 15.769 147.782 15.7158 147.941 15.6625C148.048 15.6092 148.154 15.6092 148.314 15.556C148.368 15.556 148.474 15.5026 148.527 15.5026C148.74 15.4493 148.954 15.4494 149.113 15.3961C149.273 15.3961 149.38 15.3961 149.54 15.3428C149.593 15.3428 149.593 15.3429 149.646 15.2896C149.699 15.2896 149.699 15.2896 149.753 15.2896C150.019 15.2896 150.232 15.2363 150.445 15.3428C150.658 15.3961 150.818 15.3961 150.978 15.3961C151.084 15.3961 151.138 15.3961 151.244 15.3961C151.298 15.3961 151.351 15.3961 151.404 15.3961C151.457 15.3961 151.457 15.3961 151.511 15.3961C151.617 15.3961 151.777 15.3961 151.884 15.3428C151.99 15.2895 152.097 15.2896 152.203 15.2896C152.363 15.2896 152.47 15.3429 152.629 15.4494C152.683 15.5027 152.843 15.6092 153.002 15.556C153.109 15.6625 153.269 15.7158 153.429 15.7158C153.535 15.7158 153.642 15.7157 153.748 15.769C153.801 15.769 153.855 15.769 153.908 15.8223H154.015C154.174 15.8756 154.387 15.8756 154.547 15.9289C154.654 15.9289 154.814 15.9821 154.973 16.0887C155.133 16.1952 155.293 16.2485 155.453 16.2485C155.559 16.2485 155.613 16.2485 155.719 16.2485C155.773 16.2485 155.826 16.2485 155.879 16.2485C155.932 16.2485 155.986 16.2485 156.039 16.2485C156.146 16.2485 156.199 16.2485 156.252 16.2485C156.305 16.2485 156.359 16.3017 156.412 16.3017H156.465C156.465 16.3017 156.465 16.3017 156.518 16.3017C156.732 16.4083 156.945 16.4083 157.158 16.4083C157.158 16.4083 157.211 16.4083 157.264 16.4616C157.264 16.4616 157.318 16.4616 157.318 16.5149C157.318 16.5149 157.318 16.5149 157.371 16.5149C157.424 16.5149 157.477 16.5681 157.531 16.5681C157.69 16.5681 157.797 16.5681 157.957 16.5681H158.01C158.063 16.5681 158.063 16.5681 158.117 16.5681H158.17C158.223 16.5681 158.276 16.5681 158.33 16.5681C158.49 16.5681 158.596 16.5682 158.703 16.6214C158.969 16.6747 159.182 16.7812 159.448 16.728C159.555 16.728 159.662 16.728 159.768 16.728C159.821 16.728 159.821 16.728 159.875 16.728H159.928C160.035 16.728 160.088 16.728 160.194 16.728C160.301 16.728 160.407 16.7279 160.514 16.6746C160.514 16.6746 160.567 16.6746 160.621 16.6746C160.78 16.7279 160.94 16.7279 161.1 16.6746C161.153 16.6746 161.26 16.6214 161.313 16.6746C161.42 16.6746 161.473 16.6747 161.579 16.6214C161.793 16.5682 162.006 16.5149 162.219 16.5149C162.538 16.5149 162.858 16.5149 163.178 16.5149H163.231C163.284 16.5149 163.391 16.5149 163.444 16.4616C163.497 16.4616 163.551 16.4616 163.604 16.4616C163.657 16.4616 163.71 16.4616 163.764 16.4616C163.817 16.4616 163.923 16.5149 164.083 16.4616C164.137 16.4616 164.137 16.4616 164.19 16.4616C164.243 16.4616 164.35 16.5149 164.403 16.4616C164.456 16.4083 164.509 16.4083 164.563 16.4616C164.723 16.5149 164.829 16.5149 164.989 16.5149C165.042 16.5149 165.096 16.5149 165.149 16.5149C165.202 16.5149 165.309 16.5149 165.362 16.5149C165.415 16.5149 165.522 16.5149 165.575 16.4616C165.628 16.4616 165.628 16.4616 165.682 16.4616H165.735C165.788 16.4616 165.788 16.4616 165.841 16.4616C166.001 16.5149 166.214 16.4616 166.374 16.4616H166.427C166.481 16.4616 166.534 16.4616 166.64 16.5149C166.694 16.5682 166.8 16.5682 166.907 16.5149C166.907 16.5149 166.96 16.5149 166.96 16.4616H167.013C167.067 16.5149 167.12 16.5149 167.12 16.5149C167.12 16.5149 167.12 16.5149 167.173 16.5149H167.333V16.3551C167.28 16.3018 167.226 16.2485 167.173 16.2485H167.12C167.013 16.1952 166.96 16.1952 166.854 16.3017C166.854 16.3017 166.8 16.3017 166.747 16.3017C166.64 16.2485 166.587 16.2485 166.481 16.2485H166.427C166.268 16.2485 166.108 16.2485 165.948 16.2485C165.895 16.2485 165.841 16.2485 165.788 16.2485C165.788 16.2485 165.788 16.2485 165.735 16.2485C165.682 16.2485 165.628 16.2485 165.628 16.2485C165.575 16.2485 165.522 16.2485 165.415 16.3017C165.362 16.3017 165.309 16.3017 165.202 16.3017C165.149 16.3017 165.096 16.3017 165.042 16.3017C164.936 16.3017 164.829 16.3018 164.723 16.2485C164.616 16.1952 164.509 16.1952 164.403 16.2485C164.35 16.2485 164.35 16.2485 164.296 16.2485C164.243 16.2485 164.137 16.1952 164.03 16.2485C163.977 16.2485 163.977 16.2485 163.87 16.2485C163.817 16.1952 163.71 16.1952 163.657 16.1952C163.604 16.1952 163.551 16.1952 163.497 16.2485C163.444 16.2485 163.391 16.2485 163.337 16.2485H163.284C162.965 16.2485 162.645 16.3018 162.325 16.2485C162.112 16.2485 161.846 16.3018 161.633 16.3551C161.579 16.3551 161.526 16.4083 161.473 16.4083C161.366 16.4083 161.26 16.4083 161.153 16.4083C161.047 16.4616 160.887 16.4616 160.78 16.4083C160.674 16.355 160.621 16.355 160.567 16.4083C160.407 16.4616 160.248 16.4616 160.088 16.4083C160.034 16.4083 160.034 16.4083 159.981 16.4083C159.875 16.4083 159.768 16.355 159.608 16.4083C159.395 16.4083 159.182 16.355 158.916 16.3017C158.756 16.2485 158.596 16.2485 158.49 16.2485C158.436 16.2485 158.383 16.2485 158.33 16.2485C158.276 16.2485 158.276 16.2485 158.223 16.2485H158.17H158.117C157.957 16.2485 157.85 16.2485 157.69 16.2485C157.69 16.2485 157.637 16.2485 157.637 16.1952H157.584C157.584 16.1952 157.531 16.1952 157.531 16.1419C157.477 16.0886 157.424 16.0887 157.371 16.0887C157.158 16.0887 156.998 16.0886 156.838 16.0354C156.785 16.0354 156.785 16.0354 156.785 16.0354H156.732C156.678 16.0354 156.625 16.0354 156.572 15.9821C156.465 15.9289 156.359 15.9289 156.199 15.9821C156.146 15.9821 156.146 15.9821 156.092 15.9821C156.039 15.9821 155.986 15.9821 155.932 15.9821C155.826 15.9821 155.719 15.9821 155.613 15.9821C155.506 15.9821 155.4 15.9288 155.24 15.8755C155.08 15.769 154.867 15.7158 154.76 15.7158C154.601 15.7158 154.387 15.6624 154.228 15.6092H154.121C154.068 15.6092 154.015 15.6092 153.961 15.556C153.855 15.556 153.748 15.5026 153.642 15.5026C153.535 15.5026 153.429 15.4494 153.322 15.3961C153.269 15.3429 153.215 15.2895 153.109 15.3428C153.056 15.3428 153.002 15.3429 152.949 15.2896C152.789 15.1298 152.576 15.0764 152.416 15.0764C152.31 15.0764 152.15 15.1298 152.043 15.1298C151.937 15.183 151.83 15.183 151.724 15.183C151.671 15.183 151.671 15.183 151.617 15.183C151.564 15.183 151.511 15.183 151.457 15.183C151.351 15.183 151.244 15.183 151.138 15.183C151.031 15.183 150.871 15.183 150.712 15.1298C150.445 15.0765 150.232 15.0764 149.966 15.0764C149.912 15.0764 149.859 15.0765 149.806 15.1298C149.753 15.1298 149.753 15.1298 149.699 15.1298C149.593 15.1298 149.433 15.183 149.273 15.183C149.06 15.183 148.847 15.2363 148.634 15.2896C148.581 15.2896 148.474 15.3428 148.421 15.3428C148.314 15.3961 148.154 15.3961 148.048 15.4494C147.888 15.5027 147.728 15.5027 147.622 15.4494C147.568 15.4494 147.515 15.4494 147.462 15.4494C147.409 15.5027 147.355 15.4494 147.249 15.4494H147.196C147.142 15.4494 147.089 15.4494 147.036 15.4494C146.929 15.4494 146.876 15.5026 146.769 15.5026C146.716 15.5026 146.663 15.5027 146.61 15.556C146.503 15.556 146.45 15.556 146.396 15.556C146.29 15.556 146.183 15.5559 146.13 15.5026C146.077 15.5026 146.023 15.5026 146.023 15.5026C145.97 15.5026 145.864 15.5026 145.81 15.5026C145.757 15.5026 145.651 15.4494 145.597 15.4494C145.437 15.3429 145.278 15.2896 145.065 15.2896C145.011 15.2896 144.958 15.3428 144.905 15.3428H144.851C144.745 15.2363 144.692 15.2363 144.585 15.2363C144.479 15.2363 144.372 15.2363 144.265 15.1298C144.106 14.9699 143.893 14.9699 143.679 15.1298C143.626 15.183 143.573 15.183 143.52 15.183L143.413 15.1298C143.307 15.0765 143.147 15.0765 143.04 15.0232C142.987 15.0232 142.88 14.9699 142.827 15.0232C142.774 15.0765 142.667 15.0764 142.561 15.0764C142.507 15.0764 142.507 15.0764 142.454 15.0764C142.134 15.1297 141.868 15.0232 141.602 14.8634C141.495 14.8101 141.442 14.8101 141.335 14.8634C141.229 14.9167 141.122 14.9699 141.016 14.9699C140.962 14.9699 140.962 14.9699 140.962 14.9699H140.909C140.856 14.9699 140.856 14.9699 140.803 14.9699C140.643 14.9166 140.483 14.8633 140.376 14.8101C140.217 14.7568 140.11 14.7568 139.95 14.7568C139.897 14.7568 139.844 14.7568 139.737 14.7568C139.684 14.7568 139.684 14.7568 139.631 14.7568H139.577C139.471 14.7568 139.364 14.7568 139.258 14.8101C139.151 14.8633 139.098 14.8101 138.991 14.8101C138.938 14.8101 138.832 14.8101 138.725 14.8101C138.618 14.8101 138.565 14.8101 138.459 14.8634C138.405 14.8634 138.352 14.8634 138.352 14.8634H138.299C138.246 14.8634 138.139 14.8633 138.139 14.9699L138.086 15.1298H138.246C138.299 15.1298 138.405 15.1297 138.459 15.0764H138.512C138.405 14.9166 138.512 14.9167 138.672 14.9167Z" fill="white"/>
<path d="M151.244 29.4604H151.031H150.765H150.499H150.339H150.072H149.913H139.95L141.122 34.4681C143.573 32.8699 145.97 34.4148 146.077 34.4681C146.183 34.4148 148.527 32.8699 151.031 34.4681L152.203 29.4604H151.457H151.244Z" fill="white"/>
<path d="M151.191 34.9476L150.818 34.7345C148.687 33.3494 146.61 34.4682 146.183 34.7345L146.13 34.7878H145.97L145.917 34.7345C145.491 34.4682 143.466 33.3494 141.282 34.7345L140.909 34.9476L139.577 29.1408H152.576L151.191 34.9476ZM143.52 33.456C144.692 33.456 145.651 33.8821 146.077 34.1485C146.716 33.7756 148.687 32.9232 150.818 34.042L151.83 29.7801H140.376L141.389 34.042C142.081 33.5625 142.827 33.456 143.52 33.456Z" fill="white"/>
<path d="M153.535 31.3783C153.375 31.325 153.269 31.325 153.269 31.2185C153.269 31.1652 153.322 31.1119 153.482 31.1119C153.588 31.1119 153.748 31.1652 153.801 31.2185H154.015V30.8455C153.855 30.7923 153.695 30.739 153.429 30.739C153.002 30.739 152.736 30.8988 152.736 31.325C152.736 31.6979 152.949 31.8045 153.269 31.911C153.429 31.9643 153.535 31.9643 153.535 32.0708C153.535 32.1774 153.429 32.1774 153.322 32.1774C153.162 32.1774 153.056 32.1241 153.002 32.0708H152.789V32.4438C152.949 32.5503 153.109 32.6036 153.375 32.6036C153.855 32.6036 154.121 32.3905 154.121 32.0176C154.121 31.6446 154.015 31.4848 153.535 31.3783Z" fill="white"/>
<path d="M153.375 32.8699C153.056 32.8699 152.843 32.8167 152.629 32.7101L152.47 32.6036V31.7512H152.576C152.523 31.6446 152.47 31.4848 152.47 31.325C152.47 30.7923 152.843 30.4726 153.482 30.4726C153.748 30.4726 154.015 30.5259 154.174 30.6324L154.334 30.739V31.5914C154.388 31.6979 154.441 31.8577 154.441 32.0176C154.441 32.3905 154.121 32.8699 153.375 32.8699Z" fill="white"/>
<path d="M155.613 30.7922H154.174V31.1651H154.601V32.5502H155.187V31.1651H155.613V30.7922Z" fill="white"/>
<path d="M155.506 32.8167H154.334V31.4848H153.908V30.4726H155.932V31.4848H155.506V32.8167Z" fill="white"/>
<path d="M156.039 30.7922L155.506 32.4437V32.5502H155.986L156.092 32.2306H156.625L156.732 32.5502H157.318V32.4437L156.785 30.7922H156.039ZM156.146 31.8044L156.305 31.2717L156.465 31.8044H156.146Z" fill="white"/>
<path d="M157.531 32.8167H156.412L156.359 32.497H156.252L156.199 32.8167H155.187V32.3372L155.826 30.4726H156.891L157.531 32.3372V32.8167Z" fill="white"/>
<path d="M158.063 30.7922H157.371V32.5502H158.063C158.703 32.5502 159.022 32.2306 159.022 31.6446C159.022 31.0586 158.703 30.7922 158.063 30.7922ZM158.01 32.1241H157.957V31.1651H158.01C158.277 31.1651 158.383 31.2717 158.383 31.6446C158.383 32.0175 158.277 32.1241 158.01 32.1241Z" fill="white"/>
<path d="M158.01 32.8167H156.998V30.4726H158.01C158.809 30.4726 159.235 30.8988 159.235 31.6446C159.289 32.3905 158.863 32.8167 158.01 32.8167ZM158.649 31.325C158.649 31.4315 158.703 31.5381 158.703 31.6446C158.703 31.7512 158.703 31.8045 158.703 31.8577C158.703 31.8045 158.756 31.6979 158.756 31.5914C158.703 31.5381 158.703 31.4315 158.649 31.325Z" fill="white"/>
<path d="M159.768 30.7922H159.182V32.5502H159.768V30.7922Z" fill="white"/>
<path d="M160.088 32.8167H158.916V30.4726H160.088V32.8167Z" fill="white"/>
<path d="M161.047 31.8577C161.047 32.0176 160.993 32.1241 160.834 32.1241C160.674 32.1241 160.621 32.0708 160.621 31.8577V30.739H160.035V31.8577C160.035 32.2839 160.301 32.497 160.834 32.497C161.313 32.497 161.579 32.2839 161.579 31.8577V30.739H161.1V31.8577H161.047Z" fill="white"/>
<path d="M160.78 32.8699C160.088 32.8699 159.662 32.497 159.662 31.911V30.4726H161.793V31.911C161.846 32.497 161.473 32.8699 160.78 32.8699ZM160.301 31.8577C160.301 31.911 160.301 31.9643 160.354 32.0708C160.354 32.0176 160.301 31.9643 160.301 31.8577Z" fill="white"/>
<path d="M163.124 30.7922L162.858 31.6446L162.592 30.7922H161.793V32.5502H162.272V31.4315L162.592 32.5502H162.965L163.284 31.4315V32.5502H163.87V30.7922H163.124Z" fill="white"/>
<path d="M164.137 32.8167H161.473V30.4726H162.751L162.805 30.6324L162.858 30.4726H164.137V32.8167ZM162.751 31.9643L162.805 32.0708L162.858 31.9643H162.751ZM163.284 31.1652H163.551V31.1119H163.337L163.284 31.1652ZM162.112 31.1652H162.379V31.1119H162.112V31.1652Z" fill="white"/>
<path d="M151.404 29.4604H151.244H151.031H150.765H150.499H150.339H150.072H149.913H139.95L141.122 34.4681C143.573 32.8699 145.97 34.4148 146.077 34.4681C146.183 34.4148 148.527 32.8699 151.031 34.4681L152.203 29.4604H151.404Z" fill="#AA0000"/>
<path d="M149.699 31.911C149.859 31.911 149.966 31.9643 149.966 32.0708C149.966 32.1774 149.859 32.1774 149.699 32.1774C149.646 32.1774 149.593 32.1774 149.54 32.1241C149.486 32.0708 149.38 32.0176 149.38 31.9643H148.847C148.847 32.0708 149.007 32.497 149.753 32.497C150.552 32.497 150.712 32.1241 150.712 31.911C150.712 31.4315 150.126 31.4315 149.699 31.325C149.54 31.325 149.433 31.2717 149.433 31.1652C149.433 31.0586 149.54 31.0054 149.753 31.0054C149.806 31.0054 149.912 31.0054 149.966 31.0586C150.019 31.1119 150.072 31.1652 150.072 31.2185H150.605C150.605 31.1119 150.392 30.6857 149.646 30.6857C149.167 30.6857 148.74 30.8988 148.74 31.2717C148.794 31.8045 149.326 31.8577 149.699 31.911Z" fill="white"/>
<path d="M148.474 31.2717H148.581L148.794 31.0054V30.6857H148.368V31.0054H148.581L148.474 31.2717Z" fill="white"/>
<path d="M150.498 30.3128V29.8866H150.658L150.925 30.3128H151.085L150.818 29.8866C150.871 29.8866 150.978 29.8333 150.978 29.8333C151.031 29.7801 151.031 29.7268 151.031 29.6202C151.031 29.567 151.031 29.5137 150.978 29.4604H150.712C150.712 29.4604 150.712 29.4604 150.765 29.4604H150.818C150.818 29.4604 150.871 29.4604 150.871 29.5137V29.567C150.871 29.6202 150.871 29.6202 150.871 29.6735L150.818 29.7268C150.818 29.7268 150.765 29.7268 150.712 29.7268C150.658 29.7268 150.658 29.7268 150.605 29.7268H150.445V29.4072H150.285V30.2595H150.498V30.3128Z" fill="white"/>
<path d="M148.261 30.7922H147.568V32.4437H148.261V30.7922Z" fill="white"/>
<path d="M149.806 29.8333C149.806 29.9398 149.806 30.0464 149.859 30.1529C149.913 30.2595 149.966 30.366 150.019 30.4193C150.072 30.4726 150.179 30.5791 150.285 30.5791C150.392 30.6324 150.499 30.6324 150.605 30.6324C150.712 30.6324 150.818 30.6324 150.925 30.5791C151.031 30.5258 151.138 30.4726 151.191 30.4193C151.244 30.366 151.351 30.2595 151.351 30.1529C151.404 30.0464 151.404 29.9398 151.404 29.8333C151.404 29.7267 151.404 29.6202 151.351 29.5136C151.351 29.5136 151.351 29.5136 151.351 29.4604H151.191C151.191 29.4604 151.244 29.5136 151.244 29.5669C151.298 29.6735 151.298 29.7267 151.298 29.8333C151.298 29.9398 151.298 30.0464 151.244 30.0997C151.191 30.2062 151.138 30.2595 151.085 30.3127C151.031 30.366 150.925 30.4193 150.871 30.4726C150.765 30.5258 150.712 30.5258 150.605 30.5258C150.499 30.5258 150.392 30.5258 150.339 30.4726C150.232 30.4193 150.179 30.366 150.126 30.3127C150.072 30.2595 150.019 30.1529 149.966 30.0997C149.913 29.9931 149.913 29.9398 149.913 29.8333C149.913 29.7267 149.913 29.6202 149.966 29.5669C149.966 29.5136 149.966 29.5136 150.019 29.4604H149.859C149.859 29.4604 149.859 29.4604 149.859 29.5136C149.859 29.5669 149.806 29.6735 149.806 29.8333Z" fill="white"/>
<path d="M144.265 32.5502C144.745 32.5502 145.118 32.4437 145.278 32.0175H144.692C144.585 32.1241 144.479 32.1773 144.319 32.1773C144.052 32.1773 143.893 32.0175 143.893 31.8044H145.278C145.278 31.7511 145.278 31.7511 145.278 31.6979C145.278 31.2717 144.905 30.7922 144.212 30.7922C143.573 30.7922 143.147 31.1118 143.147 31.6979C143.2 32.1773 143.626 32.5502 144.265 32.5502ZM144.265 31.1118C144.479 31.1118 144.638 31.2717 144.638 31.4315H143.946C143.946 31.2717 144.052 31.1118 144.265 31.1118Z" fill="white"/>
<path d="M146.663 32.497L147.462 30.7922H146.982L146.503 31.8577L145.97 30.7922H145.118L146.024 32.497H146.663Z" fill="white"/>
<path d="M143.2 32.0175H142.294V30.8455H141.602V32.497H143.2V32.0175Z" fill="white"/>
<path d="M152.789 32.4438V32.0708H153.002C153.056 32.1241 153.162 32.1774 153.322 32.1774C153.482 32.1774 153.535 32.1241 153.535 32.0708C153.535 31.9643 153.429 31.9643 153.269 31.911C152.949 31.8577 152.736 31.6979 152.736 31.325C152.736 30.9521 153.056 30.739 153.429 30.739C153.642 30.739 153.855 30.7923 154.015 30.8455V31.2185H153.801C153.748 31.1652 153.642 31.1119 153.482 31.1119C153.322 31.1119 153.269 31.1652 153.269 31.2185C153.269 31.325 153.322 31.325 153.535 31.3783C153.961 31.4848 154.121 31.6446 154.121 31.9643C154.121 32.3372 153.855 32.5503 153.375 32.5503C153.109 32.5503 152.896 32.497 152.789 32.4438Z" fill="#AA0000"/>
<path d="M154.601 32.5502V31.2184H154.174V30.7922H155.613V31.2184H155.187V32.5502H154.601Z" fill="#AA0000"/>
<path d="M155.506 32.3905L156.039 30.739H156.732L157.264 32.3905V32.497H156.678L156.572 32.1774H156.039L155.932 32.497H155.453V32.3905H155.506ZM156.146 31.8045H156.465L156.305 31.2717L156.146 31.8045Z" fill="#AA0000"/>
<path d="M157.318 30.7922H158.01C158.649 30.7922 158.969 31.1118 158.969 31.6446C158.969 32.2306 158.649 32.5502 158.01 32.5502H157.318V30.7922ZM158.01 32.1241C158.277 32.1241 158.383 32.0175 158.383 31.6446C158.383 31.2717 158.277 31.1651 158.01 31.1651H157.957V32.1241H158.01Z" fill="#AA0000"/>
<path d="M159.182 32.5502V30.7922H159.768V32.5502H159.182Z" fill="#AA0000"/>
<path d="M161.047 31.8577V30.739H161.526V31.8577C161.526 32.2839 161.26 32.497 160.78 32.497C160.248 32.497 159.981 32.2839 159.981 31.8577V30.739H160.567V31.8577C160.567 32.0176 160.621 32.1241 160.78 32.1241C160.993 32.1241 161.047 32.0708 161.047 31.8577Z" fill="#AA0000"/>
<path d="M161.793 30.7922H162.538L162.805 31.6979L163.071 30.7922H163.817V32.5502H163.231V31.4315L162.911 32.5502H162.592L162.272 31.4315V32.5502H161.793V30.7922Z" fill="#AA0000"/>
<path d="M132.705 41.9798L134.783 40.275L134.357 40.1152L134.197 39.9554L134.943 39.3693L135.902 39.7955L136.541 40.5414L133.504 43.0452L132.705 41.9798Z" fill="white"/>
<path d="M135.582 42.4592C136.434 41.447 137.553 41.5003 138.299 42.1396C139.045 42.8321 139.204 43.8976 138.352 44.8565C137.5 45.8687 136.434 45.8687 135.635 45.1762C134.836 44.4836 134.729 43.4182 135.582 42.4592ZM137.34 44.0042C137.873 43.4182 137.926 43.0452 137.66 42.8321C137.393 42.619 137.074 42.7256 136.541 43.3116C136.008 43.8976 135.955 44.2705 136.168 44.4836C136.488 44.75 136.807 44.6434 137.34 44.0042Z" fill="white"/>
<path d="M138.725 47.467L140.27 44.8565L139.471 44.3771L139.95 43.578L142.721 45.2295L142.241 46.0286L141.442 45.5491L139.897 48.1595L138.725 47.467Z" fill="white"/>
<path d="M141.815 49.1717L143.147 45.4958L144.425 45.9753L143.946 47.3604L144.798 47.6801L145.278 46.2949L146.556 46.7744L145.224 50.4503L143.946 49.9708L144.479 48.5324L143.626 48.2128L143.093 49.6512L141.815 49.1717Z" fill="white"/>
<path d="M147.568 50.6634L147.675 49.811L148.208 49.8643C148.314 50.0241 148.581 50.1839 148.9 50.1839C149.22 50.2372 149.38 50.1307 149.433 49.9708C149.433 49.7577 149.273 49.7045 148.847 49.5446C148.154 49.3316 147.728 49.0119 147.835 48.1595C147.941 47.3071 148.634 46.9875 149.54 47.0941C150.072 47.1473 150.445 47.3071 150.765 47.5202L150.658 48.3193L150.126 48.2661C150.019 48.1595 149.753 47.9997 149.486 47.9997C149.167 47.9464 149.007 47.9997 149.007 48.2128C149.007 48.4259 149.167 48.4792 149.54 48.5857C150.499 48.9054 150.765 49.2783 150.712 50.0241C150.605 50.8232 149.966 51.2494 148.9 51.1429C148.261 51.0363 147.835 50.8765 147.568 50.6634Z" fill="white"/>
<path d="M151.457 47.3604L154.334 47.2006L154.388 48.1062L152.843 48.2128L152.896 48.8521L153.961 48.7988L154.015 49.6512L152.949 49.7045L153.002 50.397L154.601 50.2905L154.654 51.1429L151.724 51.3027L151.457 47.3604Z" fill="white"/>
<path d="M155.613 50.7167L155.879 46.881L157.318 46.508L159.342 49.7577L159.395 50.0241L158.117 50.3438L157.744 49.6512L156.625 49.9176V50.7167L155.613 50.983V50.7167ZM156.732 49.0652L157.371 48.9054L156.785 47.8399L156.732 49.0652Z" fill="white"/>
<path d="M160.301 49.4381L159.928 48.6923L160.407 48.4792C160.621 48.5324 160.887 48.5324 161.207 48.4259C161.473 48.3193 161.633 48.1595 161.526 47.9997C161.42 47.7866 161.207 47.8399 160.834 47.9464C160.141 48.1063 159.608 48.053 159.235 47.2539C158.863 46.4548 159.289 45.8155 160.141 45.4426C160.621 45.2295 161.047 45.1762 161.42 45.1762L161.739 45.922L161.26 46.1351C161.1 46.0818 160.834 46.1351 160.567 46.2417C160.301 46.3482 160.194 46.508 160.248 46.6679C160.301 46.8277 160.514 46.8277 160.887 46.7211C161.899 46.508 162.325 46.6679 162.592 47.3604C162.911 48.1063 162.592 48.7988 161.579 49.225C161.1 49.4381 160.674 49.4914 160.301 49.4381Z" fill="white"/>
<path d="M162.965 46.3482C162.219 45.2827 162.538 44.164 163.444 43.5247C164.35 42.8854 165.522 42.992 166.268 44.0574C167.013 45.1229 166.694 46.1884 165.788 46.881C164.829 47.5202 163.71 47.4137 162.965 46.3482ZM165.149 44.8566C164.723 44.2173 164.296 44.1107 163.977 44.3238C163.657 44.5369 163.604 44.9631 164.083 45.6024C164.51 46.2417 164.936 46.3482 165.255 46.1351C165.575 45.8688 165.628 45.4958 165.149 44.8566Z" fill="white"/>
<path d="M165.468 42.0863L166.374 41.0741L168.558 41.6068L167.12 40.275L167.866 39.4759L170.743 42.1396L169.89 43.0452L167.44 42.4592L169.038 43.9509L168.292 44.75L165.468 42.0863Z" fill="white"/>
<path d="M133.344 18.1131L129.775 16.0887L130.468 14.8634L133.238 16.4083L133.984 15.0765L134.783 15.556L133.344 18.1131Z" fill="white"/>
<path d="M131.799 12.6792L133.664 10.3351L134.41 10.9211L133.398 12.1464L133.93 12.5726L134.623 11.7202L135.316 12.253L134.623 13.1054L135.156 13.5315L136.168 12.253L136.86 12.839L134.943 15.183L131.799 12.6792Z" fill="white"/>
<path d="M134.57 9.80238L134.41 9.58928L135.475 8.68363L137.659 10.122L136.594 7.7247L137.5 6.97887L137.659 7.19196L139.151 10.9211L137.979 11.9333L134.57 9.80238Z" fill="white"/>
<path d="M140.483 9.90898L138.352 6.44618L139.524 5.70035L141.655 9.16315L140.483 9.90898Z" fill="white"/>
<path d="M140.536 5.80684L140.27 5.2741L141.229 4.79464L141.495 5.32738L141.815 6.23303L141.122 6.60595L140.536 5.80684Z" fill="white"/>
<path d="M143.253 8.04434L142.934 7.19196L143.466 6.97887C143.679 7.08542 143.946 7.08542 144.265 6.97887C144.585 6.87232 144.745 6.7125 144.638 6.55268C144.532 6.33958 144.319 6.39286 143.893 6.44613C143.147 6.55268 142.614 6.44613 142.294 5.64702C141.975 4.79466 142.507 4.15538 143.413 3.83573C143.946 3.62264 144.372 3.62264 144.745 3.67591L145.065 4.47502L144.532 4.68812C144.372 4.63484 144.052 4.63484 143.786 4.74139C143.466 4.84794 143.36 5.00776 143.413 5.16758C143.466 5.38065 143.679 5.32738 144.052 5.27413C145.118 5.11431 145.544 5.32738 145.81 6.07321C146.077 6.87232 145.704 7.56488 144.638 7.9378C144.106 8.09762 143.626 8.09762 143.253 8.04434Z" fill="white"/>
<path d="M145.597 3.56936C145.491 3.19644 145.757 2.93007 146.077 2.82352C146.396 2.77025 146.769 2.8768 146.823 3.24971C146.929 3.62263 146.663 3.889 146.343 3.99555C146.077 4.10209 145.704 3.94227 145.597 3.56936ZM146.716 3.30299C146.663 2.98334 146.396 2.8768 146.183 2.93007C145.917 2.98334 145.757 3.19644 145.864 3.51608C145.917 3.83573 146.183 3.94227 146.396 3.889C146.609 3.83573 146.769 3.62263 146.716 3.30299ZM146.29 3.51608V3.72918L146.077 3.78245L145.917 3.19644L146.183 3.14317C146.343 3.08989 146.45 3.14317 146.503 3.30299C146.503 3.35626 146.503 3.40954 146.45 3.46281L146.556 3.62263V3.6759L146.343 3.72918L146.29 3.51608ZM146.237 3.40954C146.29 3.40954 146.29 3.35626 146.29 3.35626C146.29 3.30299 146.237 3.30299 146.237 3.30299H146.183L146.237 3.40954Z" fill="white"/>
<path d="M148.847 6.44613L148.794 5.54048L149.327 5.4872C149.486 5.64702 149.753 5.7003 150.126 5.7003C150.445 5.7003 150.658 5.59375 150.605 5.38065C150.605 5.16756 150.392 5.11429 149.913 5.06102C149.167 4.95447 148.687 4.6881 148.634 3.83572C148.581 2.93006 149.22 2.4506 150.179 2.39733C150.712 2.34405 151.191 2.4506 151.511 2.61042L151.564 3.4628L151.031 3.51608C150.871 3.40953 150.605 3.35626 150.285 3.35626C149.966 3.35626 149.806 3.4628 149.806 3.62262C149.806 3.83572 150.019 3.83572 150.392 3.88899C151.457 4.04881 151.777 4.36846 151.83 5.11429C151.884 5.96667 151.298 6.4994 150.179 6.60595C149.593 6.7125 149.167 6.60595 148.847 6.44613Z" fill="white"/>
<path d="M153.109 6.55268L153.429 3.40953L152.47 3.30299L152.576 2.34406L155.879 2.6637L155.773 3.62263L154.814 3.51608L154.494 6.65922L153.109 6.55268Z" fill="white"/>
<path d="M155.4 6.4994L157.637 3.19643L159.129 3.62262L159.342 7.61815L159.289 7.88452L158.01 7.51161V6.7125L156.838 6.39286L156.412 7.08541L155.346 6.76577L155.4 6.4994ZM157.264 5.54047L157.957 5.75357V4.475L157.264 5.54047Z" fill="white"/>
<path d="M161.473 4.36849L162.911 5.11433C164.243 5.8069 164.563 6.76583 163.924 7.93785C163.284 9.16315 162.325 9.42952 160.993 8.73696L159.555 7.99113L161.473 4.36849ZM161.366 7.93785C161.899 8.20422 162.272 8.09768 162.645 7.35184C163.018 6.60601 162.911 6.23309 162.379 5.91345L162.219 5.8069L161.153 7.83131L161.366 7.93785Z" fill="white"/>
<path d="M163.284 10.0688L165.735 6.76582L166.854 7.56493L164.403 10.8679L163.284 10.0688Z" fill="white"/>
<path d="M167.759 11.8801L169.571 10.0688L170.37 10.8679L168.505 12.6792C167.813 13.3717 166.96 13.3185 166.161 12.5193C165.309 11.667 165.255 10.8146 165.948 10.122L167.813 8.31071L168.771 9.32292L166.96 11.1342C166.64 11.4539 166.64 11.667 166.907 11.9333C167.173 12.1997 167.44 12.1997 167.759 11.8801Z" fill="white"/>
<path d="M171.275 11.9866L172.234 13.4783L170.796 15.0765L172.874 14.4905L173.779 15.9821L170.316 18.1664L169.624 17.0476L171.808 15.7158L169.251 16.4083L168.825 15.7691L170.583 13.7979L168.399 15.1298L167.812 14.1708L171.275 11.9866Z" fill="white"/>
<path d="M130.361 20.5104L131.16 20.617L130.574 21.1497L130.734 21.9488L130.041 21.5759L129.349 21.9488L129.455 21.1497L128.869 20.617L129.668 20.5104L129.988 19.8179L130.361 20.5104Z" fill="white"/>
<path d="M129.562 24.506L130.361 24.6125L129.828 25.1452L129.935 25.8911L129.242 25.5714L128.55 25.9443L128.656 25.1452L128.124 24.6125L128.869 24.506L129.242 23.7601L129.562 24.506Z" fill="white"/>
<path d="M129.775 28.4482L130.574 28.5548L129.988 29.1408L130.148 29.8866L129.455 29.5137L128.763 29.8866L128.869 29.1408L128.337 28.608L129.082 28.4482L129.455 27.7557L129.775 28.4482Z" fill="white"/>
<path d="M130.627 32.4438L131.426 32.5503L130.84 33.083L131 33.8821L130.308 33.5092L129.615 33.8821L129.722 33.1363L129.189 32.5503L129.935 32.4438L130.308 31.7512L130.627 32.4438Z" fill="white"/>
<path d="M132.119 36.4393L132.865 36.5458L132.332 37.0786L132.492 37.8777L131.746 37.5048L131.054 37.8777L131.213 37.0786L130.627 36.5458L131.426 36.4393L131.746 35.7467L132.119 36.4393Z" fill="white"/>
<path d="M173.353 20.5104L172.607 20.617L173.14 21.1497L173.033 21.9488L173.726 21.5759L174.418 21.9488L174.259 21.1497L174.845 20.617L174.046 20.5104L173.726 19.8179L173.353 20.5104Z" fill="white"/>
<path d="M174.152 24.506L173.353 24.6125L173.939 25.1452L173.779 25.8911L174.472 25.5714L175.164 25.9443L175.058 25.1452L175.644 24.6125L174.845 24.506L174.525 23.7601L174.152 24.506Z" fill="white"/>
<path d="M173.939 28.4482L173.193 28.5548L173.726 29.1408L173.619 29.8866L174.312 29.5137L175.004 29.8866L174.845 29.1408L175.431 28.608L174.631 28.4482L174.312 27.7557L173.939 28.4482Z" fill="white"/>
<path d="M173.087 32.4438L172.341 32.5503L172.873 33.083L172.767 33.8821L173.46 33.5092L174.152 33.8821L173.992 33.1363L174.578 32.5503L173.779 32.4438L173.46 31.7512L173.087 32.4438Z" fill="white"/>
<path d="M171.648 36.4393L170.849 36.5458L171.435 37.0786L171.275 37.8777L171.968 37.5048L172.66 37.8777L172.554 37.0786L173.087 36.5458L172.341 36.4393L171.968 35.7467L171.648 36.4393Z" fill="white"/>
<path d="M147.515 15.3961C147.302 15.4494 147.089 15.5027 146.929 15.6092C146.876 15.6625 146.823 15.6625 146.716 15.7158C146.61 15.7691 146.343 15.9289 146.183 16.0354C146.077 16.0887 146.077 16.142 146.13 16.2485C146.183 16.3018 146.396 16.1952 146.45 16.142C146.556 16.0887 146.663 16.0354 146.769 15.9821C146.823 15.9289 146.929 15.9289 146.982 15.8756C147.142 15.769 147.355 15.7158 147.568 15.6625C147.728 15.6625 147.675 15.3961 147.515 15.3961Z" fill="white"/>
<path d="M111.822 1.33185H111.289V52.4747H111.822V1.33185Z" fill="#AA0000"/>
</g>
<defs>
<clipPath id="clip0_2083_182">
<rect width="179" height="53.8065" fill="white"/>
</clipPath>
</defs>
</svg>
