<svg width="129" height="106" viewBox="0 0 129 106" fill="none" xmlns="http://www.w3.org/2000/svg">
<path d="M39.0794 8.94488C32.707 9.00007 26.4284 10.4851 20.7065 13.2904C26.1349 13.3385 31.5025 14.438 36.5126 16.5281V43.9352H37.4488V43.982H63.5375V32.1001C55.3573 32.1356 47.1897 32.7456 39.095 33.9257V32.0143C47.1893 30.8303 55.3571 30.2202 63.5375 30.1887V25.5077C55.3521 25.5424 47.1792 26.1525 39.0794 27.3333V25.4297C47.1734 24.2427 55.3413 23.6301 63.5219 23.5963V18.9856C55.3435 19.0171 47.1769 19.6089 39.0794 20.7566V8.94488ZM97.4434 21.9112V8.94488C91.0737 9.00097 84.7978 10.486 79.0784 13.2904C84.5043 13.3379 89.8695 14.4374 94.8767 16.5281V43.9352H95.8051V43.982H117.564L119.787 28.8937C119.787 28.8937 112.407 24.8446 97.4434 21.9112ZM113.905 39.8159C108.553 37.7804 103.035 36.2142 97.4122 35.135V33.208C103.362 34.3402 109.192 36.0302 114.825 38.2556L115.005 38.4507L113.905 39.8159ZM113.905 33.2392C108.558 31.2065 103.045 29.6403 97.4278 28.5582V26.6312C103.462 27.7841 109.37 29.5216 115.067 31.8193L113.905 33.2392ZM67.7972 0.129028C59.6362 0.196318 51.5947 2.09737 44.2675 5.69159C51.4838 5.77169 58.6113 7.29426 65.2305 10.1697V43.9352H66.0886V43.982H93.2383V34.3548C84.8283 32.9538 76.3226 32.2052 67.7972 32.1157V30.1887C76.3226 30.2782 84.8283 31.0268 93.2383 32.4278V27.7468C84.8283 26.3458 76.3226 25.5973 67.7972 25.5077V23.6041C76.3228 23.6959 84.8286 24.4471 93.2383 25.851V21.17C84.8229 19.8244 76.3191 19.1073 67.7972 19.0246V0.129028ZM11.3758 43.982H34.8665V34.6201C28.0659 35.7731 21.3875 37.557 14.9177 39.9486L13.7631 38.4819C20.5815 35.8389 27.653 33.9018 34.8665 32.7009V28.0199C28.0705 29.1707 21.3971 30.9547 14.9333 33.3484L13.7631 31.8895C20.5834 29.2503 27.6542 27.3108 34.8665 26.1007V21.4197C17.8277 24.3687 9.12109 28.9171 9.12109 28.9171L11.3758 43.982Z" fill="white"/>
<path d="M118.109 73.7763C120.653 73.2666 122.933 71.868 124.539 69.831C126.146 67.794 126.975 65.2515 126.878 62.6589C126.878 58.1496 125.201 55.0055 122.322 53.297C119.443 51.5884 115.761 51.1359 111.564 51.1281H89.5164V88.1859H98.5897V74.5252H107.663L117.735 88.1859H128.977L118.109 73.7763ZM116.307 65.7874C115.254 66.3491 113.28 66.5675 110.557 66.5675H98.5897V59.078H110.557C113.28 59.078 115.238 59.3042 116.307 59.8581C117.376 60.4121 117.735 60.9972 117.782 62.7916C117.828 64.5859 117.314 65.2257 116.307 65.7874Z" fill="white"/>
<path d="M84.4374 51.1281H44.2512V59.2652H59.8077V88.2171H68.8888V59.2652H84.4374V51.1281Z" fill="white"/>
<path d="M33.6953 65.5611C29.0143 64.4299 15.6033 64.781 15.6033 64.781C11.7025 64.781 10.9223 63.3221 10.9223 62.1596C10.9691 60.3652 10.7897 59.039 18.1388 59.039H39.2032V51.1281H17.1636C12.9663 51.1281 9.24494 51.5884 6.40514 53.2892C3.56535 54.9899 1.81778 57.5177 1.84899 62.0192C1.84899 68.1825 6.2257 70.9365 10.618 72.0755C13.9493 72.9493 21.0956 72.8557 21.0956 72.8557H28.866C32.3612 72.8557 33.3598 74.7125 33.4066 76.5302C33.4534 78.348 32.9463 78.8707 31.9321 79.4636C30.9179 80.0566 28.9051 80.2438 26.1901 80.2438H6.03847L0 88.1859H27.1497C31.347 88.1859 35.0683 87.7334 37.9081 86.0248C40.7479 84.3163 42.4955 81.1644 42.4643 76.6629C42.4923 74.0887 41.6372 71.5826 40.0415 69.5625C38.4458 67.5423 36.2059 66.1301 33.6953 65.5611Z" fill="white"/>
<path d="M1.56033 98.6404V105.514H0V96.4481H2.34049L5.18029 103.173L8.05909 96.4481H10.3996V105.514H8.83925V98.6404L5.93705 105.514H4.47814L1.56033 98.6404Z" fill="white"/>
<path d="M17.2348 96.4481H19.2632L23.6633 105.514H21.7909L20.8469 103.431H15.6042L14.6368 105.514H12.7722L17.2348 96.4481ZM20.1448 101.909L18.249 97.868L16.3844 101.909H20.1448Z" fill="white"/>
<path d="M26.0891 96.4481H31.5503C33.6957 96.4481 35.2482 96.9318 35.2482 99.1475C35.2618 99.4907 35.2065 99.8333 35.0857 100.155C34.9648 100.476 34.7808 100.771 34.5446 101.02C34.3083 101.269 34.0245 101.469 33.7099 101.607C33.3952 101.745 33.0562 101.818 32.7127 101.823L35.4979 105.514H33.3134L30.6765 101.948H27.8679V105.514H26.0891V96.4481ZM31.285 100.474C32.7283 100.474 33.4695 100.263 33.4695 99.1943C33.4695 98.1255 32.6893 97.9148 31.285 97.9148H27.8601V100.474H31.285Z" fill="white"/>
<path d="M38.439 96.4481H40.2099V100.669L45.2498 96.4481H47.7697L43.4398 100.037L48.2066 105.498H45.8661L42.1291 101.09L40.1943 102.697V105.514H38.439V96.4481Z" fill="white"/>
<path d="M50.7795 96.4481H58.9244V97.9694H52.5583V100.076H58.0195V101.597H52.5583V103.992H59.0727V105.553H50.7795V96.4481Z" fill="white"/>
<path d="M64.9797 97.9694H60.9229V96.4481H70.8075V97.9694H66.7507V105.514H64.9797V97.9694Z" fill="white"/>
<path d="M73.3816 96.4481H78.4371C79.9974 96.4481 82.4939 96.4481 82.4939 99.2255C82.4939 102.003 79.974 101.995 78.4371 101.995H75.1526V105.514H73.3816V96.4481ZM78.8427 100.474C79.8491 100.474 80.7385 100.388 80.7385 99.2177C80.7385 98.0474 79.8491 97.9694 78.8427 97.9694H75.1682V100.474H78.8427Z" fill="white"/>
<path d="M85.0378 96.4481H86.8088V103.945H93.3934V105.506H85.0378V96.4481Z" fill="white"/>
<path d="M99.4869 96.4481H101.508L105.915 105.514H104.043L103.099 103.431H97.8642L96.9046 105.514H95.0244L99.4869 96.4481ZM102.397 101.909L100.501 97.868L98.6054 101.909H102.397Z" fill="white"/>
<path d="M117.875 102.284C117.704 103.298 116.978 105.74 112.812 105.74C109.941 105.74 107.678 104.179 107.678 100.84C107.678 98.1955 109.34 96.2217 112.945 96.2217C117.001 96.2217 117.626 98.8508 117.743 99.3423H115.964C115.87 99.0303 115.184 97.743 113.046 97.743C110.534 97.743 109.488 99.1473 109.488 101.035C109.488 103.118 111.002 104.218 112.945 104.218C115.02 104.218 115.933 102.986 116.065 102.284H117.875Z" fill="white"/>
<path d="M120.691 96.4481H128.828V97.9694H122.486V100.076H127.947V101.597H122.486V103.992H129V105.553H120.691V96.4481Z" fill="white"/>
</svg>
