<svg width="93" height="76" viewBox="0 0 93 76" fill="none" xmlns="http://www.w3.org/2000/svg">
<path d="M28.1219 6.34409C23.5362 6.38381 19.018 7.45246 14.9004 9.47123C18.8068 9.50583 22.6695 10.297 26.2748 11.8011V31.524H26.9485V31.5577H45.7226V23.0072C39.8359 23.0327 33.9583 23.4716 28.1332 24.3209V22.9454C33.958 22.0934 39.8358 21.6544 45.7226 21.6317V18.2631C39.8322 18.2881 33.9508 18.7271 28.1219 19.5769V18.207C33.9466 17.3528 39.8244 16.9119 45.7113 16.8876V13.5696C39.826 13.5923 33.9491 14.0181 28.1219 14.8441V6.34409ZM70.1221 15.675V6.34409C65.5383 6.38446 61.022 7.4531 56.9061 9.47123C60.8108 9.50542 64.6717 10.2967 68.275 11.8011V31.524H68.9431V31.5577H84.6012L86.2013 20.6997C86.2013 20.6997 80.8902 17.7859 70.1221 15.675ZM81.9681 28.5597C78.1171 27.0948 74.146 25.9677 70.0996 25.1911V23.8044C74.3814 24.6192 78.5769 25.8354 82.6306 27.4368L82.7597 27.5772L81.9681 28.5597ZM81.9681 23.8268C78.1203 22.3641 74.153 21.237 70.1108 20.4583V19.0716C74.4532 19.9012 78.7046 21.1516 82.8046 22.8051L81.9681 23.8268ZM48.788 0C42.9151 0.0484231 37.1282 1.41647 31.8554 4.00295C37.0485 4.06059 42.1775 5.15627 46.9409 7.22553V31.524H47.5584V31.5577H67.096V24.6297C61.044 23.6215 54.923 23.0828 48.788 23.0184V21.6317C54.923 21.6961 61.044 22.2348 67.096 23.243V19.8744C61.044 18.8662 54.923 18.3275 48.788 18.2631V16.8933C54.9232 16.9593 61.0441 17.4998 67.096 18.5102V15.1416C61.0401 14.1733 54.9205 13.6572 48.788 13.5977V0ZM8.18575 31.5577H25.0902V24.8206C20.1964 25.6503 15.3904 26.9341 10.7346 28.6551L9.90371 27.5996C14.8104 25.6977 19.8992 24.3037 25.0902 23.4395V20.0709C20.1997 20.8991 15.3973 22.1829 10.7458 23.9054L9.90371 22.8556C14.8118 20.9564 19.9001 19.5606 25.0902 18.6898V15.3213C12.8287 17.4434 6.56323 20.7166 6.56323 20.7166L8.18575 31.5577Z" fill="#002B5C"/>
<path d="M84.994 52.9983C86.8247 52.6316 88.465 51.6251 89.6212 50.1593C90.7775 48.6934 91.3742 46.8638 91.3045 44.998C91.3045 41.753 90.0974 39.4905 88.0257 38.261C85.9541 37.0314 83.3042 36.7058 80.2837 36.7002H64.4178V63.3678H70.9472V53.5373H77.4766L84.7246 63.3678H92.8147L84.994 52.9983ZM83.6972 47.2494C82.9392 47.6536 81.5188 47.8108 79.5595 47.8108H70.9472V42.4211H79.5595C81.5188 42.4211 82.928 42.5839 83.6972 42.9825C84.4663 43.3811 84.7246 43.8022 84.7582 45.0935C84.7919 46.3848 84.4214 46.8451 83.6972 47.2494Z" fill="#002B5C"/>
<path d="M60.7631 36.7002H31.8441V42.5559H43.0389V63.3903H49.5739V42.5559H60.7631V36.7002Z" fill="#002B5C"/>
<path d="M24.2479 47.0865C20.8794 46.2725 11.2285 46.5251 11.2285 46.5251C8.42136 46.5251 7.85994 45.4753 7.85994 44.6387C7.89363 43.3475 7.7645 42.393 13.0531 42.393H28.2116V36.7002H12.3513C9.33087 36.7002 6.65288 37.0314 4.60929 38.2553C2.56571 39.4792 1.30812 41.2983 1.33058 44.5377C1.33058 48.9729 4.48017 50.9548 7.64098 51.7744C10.0383 52.4032 15.1809 52.3359 15.1809 52.3359H20.7727C23.2879 52.3359 24.0065 53.672 24.0402 54.9802C24.0739 56.2883 23.7089 56.6644 22.9791 57.0911C22.2492 57.5178 20.8008 57.6525 18.847 57.6525H4.34542L0 63.3678H19.5376C22.558 63.3678 25.236 63.0422 27.2796 61.8127C29.3232 60.5832 30.5808 58.315 30.5583 55.0756C30.5785 53.2232 29.9631 51.4198 28.8148 49.966C27.6665 48.5123 26.0547 47.496 24.2479 47.0865Z" fill="#002B5C"/>
<path d="M1.12285 70.8911V75.8372H0V69.3135H1.68427L3.72786 74.153L5.79951 69.3135H7.48379V75.8372H6.36094V70.8911L4.27244 75.8372H3.22258L1.12285 70.8911Z" fill="#002B5C"/>
<path d="M12.4019 69.3135H13.8616L17.028 75.8372H15.6806L15.0013 74.3382H11.2285L10.5324 75.8372H9.19055L12.4019 69.3135ZM14.496 73.2434L13.1317 70.3353L11.7899 73.2434H14.496Z" fill="#002B5C"/>
<path d="M18.7742 69.3135H22.7041C24.2481 69.3135 25.3653 69.6616 25.3653 71.256C25.3751 71.503 25.3353 71.7495 25.2483 71.9809C25.1613 72.2124 25.0289 72.424 24.8589 72.6035C24.6889 72.7829 24.4846 72.9265 24.2582 73.0258C24.0318 73.1251 23.7879 73.1781 23.5407 73.1817L25.5449 75.8372H23.973L22.0753 73.2715H20.0542V75.8372H18.7742V69.3135ZM22.5133 72.2104C23.5519 72.2104 24.0852 72.0588 24.0852 71.2897C24.0852 70.5205 23.5238 70.369 22.5133 70.369H20.0486V72.2104H22.5133Z" fill="#002B5C"/>
<path d="M27.6613 69.3135H28.9357V72.3508L32.5625 69.3135H34.3759L31.26 71.896L34.6903 75.826H33.006L30.3168 72.6539L28.9245 73.8105V75.8372H27.6613V69.3135Z" fill="#002B5C"/>
<path d="M36.5427 69.3135H42.404V70.4083H37.8228V71.9241H41.7527V73.0189H37.8228V74.7424H42.5107V75.8653H36.5427V69.3135Z" fill="#002B5C"/>
<path d="M46.761 70.4083H43.8416V69.3135H50.9548V70.4083H48.0354V75.8372H46.761V70.4083Z" fill="#002B5C"/>
<path d="M52.8075 69.3135H56.4455C57.5684 69.3135 59.3649 69.3135 59.3649 71.3121C59.3649 73.3108 57.5515 73.3052 56.4455 73.3052H54.0819V75.8372H52.8075V69.3135ZM56.7375 72.2104C57.4617 72.2104 58.1017 72.1487 58.1017 71.3065C58.1017 70.4644 57.4617 70.4083 56.7375 70.4083H54.0932V72.2104H56.7375Z" fill="#002B5C"/>
<path d="M61.1951 69.3135H62.4695V74.7088H67.2079V75.8316H61.1951V69.3135Z" fill="#002B5C"/>
<path d="M71.5927 69.3135H73.0468L76.2188 75.8372H74.8714L74.1921 74.3382H70.4249L69.7344 75.8372H68.3813L71.5927 69.3135ZM73.6868 73.2434L72.3225 70.3353L70.9583 73.2434H73.6868Z" fill="#002B5C"/>
<path d="M84.8256 73.5129C84.7021 74.2428 84.18 76 81.182 76C79.1159 76 77.4878 74.8772 77.4878 72.4743C77.4878 70.571 78.6836 69.1506 81.2774 69.1506C84.1968 69.1506 84.6459 71.0426 84.7302 71.3963H83.4501C83.3827 71.1718 82.8887 70.2454 81.3504 70.2454C79.5426 70.2454 78.7903 71.256 78.7903 72.6146C78.7903 74.1136 79.8795 74.9052 81.2774 74.9052C82.7708 74.9052 83.4277 74.0182 83.5231 73.5129H84.8256Z" fill="#002B5C"/>
<path d="M86.8522 69.3135H92.7078V70.4083H88.1435V71.9241H92.0734V73.0189H88.1435V74.7424H92.8313V75.8653H86.8522V69.3135Z" fill="#002B5C"/>
</svg>
