<svg width="159" height="70" viewBox="0 0 159 70" fill="none" xmlns="http://www.w3.org/2000/svg">
<path fill-rule="evenodd" clip-rule="evenodd" d="M158.422 70C149.62 58.1455 134.257 43.6652 115.954 35.536L119.692 44.1488C104.128 36.3104 86.8279 30.6835 67.2163 30.7726L71.3958 35.2979C35.1692 36.7168 13.9162 54.6809 0 70C0.325533 49.2575 15.1878 30.5255 34.7681 19.0897L30.7379 15.3488C45.3102 5.263 65.7483 2.43304 82.9982 4.42544L80.5454 0C137.689 4.24638 161.893 46.8929 158.422 70Z" fill="white"/>
<path fill-rule="evenodd" clip-rule="evenodd" d="M66.9489 33.546L62.5585 28.7922C79.197 28.2389 96.0179 30.7441 115.585 39.9412L111.981 31.6349C126.712 37.3423 143.034 47.9958 156.721 64.5204C155.515 39.4993 130.246 7.07716 84.2859 2.44088L86.8415 7.05116C68.2655 3.89526 47.3934 7.17948 34.1105 15.6491L38.2644 19.5044C18.2703 30.2272 5.13633 47.284 2.31711 64.5204C18.8195 47.284 40.2741 35.3792 66.9489 33.546Z" fill="#0080C6"/>
<path fill-rule="evenodd" clip-rule="evenodd" d="M149.548 51.0877C141.76 30.1244 118.336 12.0505 92.0401 7.72368L95.1288 13.228C79.2911 8.32895 56.276 8.6256 41.1472 16.5197L45.4868 20.5478C31.6205 26.4899 16.9892 39.2154 11.1981 50.9082C20.6955 42.3412 41.3588 32.425 58.3101 30.3179L54.0979 25.7572C70.3895 22.5278 92.1024 25.7242 107.582 32.0095L104.579 25.09C115.98 27.4269 137.167 37.6133 149.548 51.0877Z" fill="#FFC20E"/>
</svg>
