<svg width="126" height="90" viewBox="0 0 126 90" fill="none" xmlns="http://www.w3.org/2000/svg">
<path d="M47.9426 65.1533H36.7128C36.9287 66.5211 37.2347 67.8888 37.5946 69.2205C41.9137 69.0226 48.1585 69.4005 52.7836 71.3801C50.894 69.5265 49.2743 67.4389 47.9426 65.1533Z" fill="#FFA300"/>
<path d="M28.0565 65.1533C29.4602 68.0868 31.2238 70.8222 33.3114 73.3057C34.4092 71.6321 35.8669 70.2283 37.5946 69.2205C37.2166 67.8888 36.9287 66.5211 36.7127 65.1533H28.0565Z" fill="#FF8200"/>
<path d="M47.0787 10.3181C62.6456 3.94738 80.5341 7.67264 92.2678 19.7303C104.001 31.7879 107.259 49.7483 100.492 65.1533H120.756C126.101 45.5732 118.902 24.7153 102.616 12.6037C86.3289 0.492061 64.3013 -0.425757 47.0787 10.3181Z" fill="url(#paint0_linear_2083_197)"/>
<path d="M98.7106 34.1994L94.8053 39.6703C91.0621 35.8191 85.9331 33.6595 80.5701 33.6595C80.2282 33.6595 79.9043 33.6595 79.5803 33.6775L86.293 24.2834C91.278 26.353 95.5792 29.7903 98.7106 34.1994ZM102.58 59.2685C103.516 55.7592 104.002 52.1419 104.002 48.5066C104.002 48.4526 104.002 48.3986 104.002 48.3266H99.7903C100.762 51.9079 100.708 55.6872 99.6464 59.2505L102.58 59.2685Z" fill="#D7D2CB"/>
<path d="M84.0254 80.8642C72.0758 88.6567 56.7968 89.2325 44.2892 82.3579C41.2118 78.4707 38.9263 74.0076 37.5946 69.2205C41.9137 69.0225 48.1585 69.4005 52.7836 71.3801C58.4884 76.959 66.1729 80.0724 74.1453 80.0364C77.1687 80.0364 80.1562 79.6045 83.0536 78.7406C83.1796 78.7046 83.2875 78.6866 83.4135 78.6866C83.9354 78.7046 84.3673 79.0646 84.5113 79.5685C84.6553 80.0544 84.4573 80.5763 84.0254 80.8642ZM44.2892 54.0135C44.1813 53.0057 44.1273 51.9979 44.1273 50.9901C44.1273 35.4952 56.7428 22.7897 72.5797 21.9798C54.2233 22.7357 39.1962 36.413 36.6407 54.0135H44.2892Z" fill="#FFD100"/>
<path d="M86.275 24.2834C82.4237 22.7177 78.3205 21.9078 74.1634 21.9438C73.6415 21.9438 73.1016 21.9618 72.5797 21.9798C54.2233 22.7357 39.1963 36.413 36.6408 54.0135H26.2028L39.0703 24.9672H32.4116C39.5202 15.7171 50.426 10.1922 62.0877 9.92221C62.3757 9.92221 62.6456 9.92221 62.9336 9.92221C79.3643 9.92221 93.1496 19.7483 98.7285 34.2174C95.5791 29.7903 91.278 26.353 86.275 24.2834ZM37.5946 69.2205C35.8669 70.2283 34.4092 71.632 33.3114 73.3057C36.3888 76.977 40.1141 80.0364 44.2892 82.3399C41.2119 78.4707 38.9263 74.0076 37.5946 69.2205Z" fill="url(#paint1_linear_2083_197)"/>
<path d="M110.066 15.2851C92.8977 -1.88347 66.1729 -4.94286 45.567 7.9066C39.8981 11.6679 34.9671 16.4729 31.0799 22.0698C31.0619 22.0878 31.0439 22.1058 31.0439 22.1238H20.282L0 68.0147H26.3108C30.1081 75.1053 35.8849 80.9542 42.9215 84.8594C56.3469 92.2559 72.7416 91.6261 85.5731 83.2577C87.0668 82.2859 87.7327 80.4503 87.2288 78.7586C86.7249 77.049 85.1772 75.8792 83.4135 75.8612C83.0176 75.8612 82.6217 75.9152 82.2258 76.0411C79.5983 76.833 76.8808 77.2289 74.1454 77.2289C66.2629 77.2469 58.7584 73.8996 53.5034 68.0327H78.0686L82.2798 62.1479H98.6565C98.6565 62.1479 98.1526 63.4076 97.8827 64.0375L96.119 68.0327H122.916L123.492 65.9271C128.441 47.8407 123.312 28.5305 110.066 15.2851ZM120.774 65.1533H100.492C101.338 63.2457 102.022 61.2841 102.562 59.2685H80.804L76.6109 65.1533H57.1027L86.275 24.2834C82.4237 22.7177 78.3205 21.9078 74.1634 21.9438C73.6415 21.9438 73.1016 21.9618 72.5797 21.9798C56.7608 22.7717 44.1273 35.4772 44.1273 50.9901C44.1273 51.9979 44.1813 53.0057 44.2893 54.0135H61.5299L56.3829 61.2301C54.7632 63.4076 52.6216 65.1533 49.3463 65.1533H47.9425C53.0895 74.0255 62.9156 80.0364 74.1454 80.0364C77.1688 80.0364 80.1562 79.6044 83.0536 78.7406C83.1796 78.7046 83.2876 78.6866 83.4135 78.6866C83.9354 78.7046 84.3673 79.0646 84.5113 79.5505C84.6553 80.0544 84.4573 80.5763 84.0074 80.8642C74.6853 86.947 63.1855 88.7106 52.4596 85.7052C41.7518 82.6998 32.8615 75.2133 28.0565 65.1533H4.37314L22.1356 24.9492H32.3936C39.5022 15.6991 50.4081 10.1742 62.0697 9.9042C62.3577 9.9042 62.6276 9.9042 62.9156 9.9042C79.3463 9.9042 93.1316 19.7303 98.7105 34.1994L88.6145 48.3446H104.001C103.947 34.6313 97.0548 21.8358 85.6451 14.2054C74.2353 6.57486 59.7842 5.13515 47.0787 10.3181C64.3013 -0.425756 86.347 0.492062 102.616 12.6037C118.885 24.7153 126.101 45.5732 120.774 65.1533ZM63.5994 51.1521H46.9707C46.9707 51.0981 46.9707 51.0441 46.9707 50.9901C46.9707 37.0428 58.2725 25.5611 72.7236 24.8233C73.2095 24.8053 73.6955 24.7873 74.1634 24.7873C76.7189 24.7873 79.2564 25.1112 81.7399 25.7591L63.5994 51.1521ZM99.6283 37.8527C100.348 40.3542 100.816 42.9097 101.014 45.5192H94.1754L99.6283 37.8527Z" fill="#003594"/>
<path d="M100.474 53.5636C100.474 55.4892 100.186 57.4148 99.6464 59.2685H80.8041L76.6109 65.1533H57.1028L79.5623 33.6775C79.8863 33.6595 80.2282 33.6595 80.5521 33.6595C85.9151 33.6595 91.0621 35.8191 94.7873 39.6704L88.5965 48.3446H99.7543C100.24 50.0543 100.474 51.8 100.474 53.5636ZM22.1357 24.9673L4.37317 65.1533H49.3463C52.6216 65.1533 54.7632 63.4077 56.3829 61.2301L61.5119 54.0135H26.1849L39.0523 24.9673H22.1357Z" fill="white"/>
<defs>
<linearGradient id="paint0_linear_2083_197" x1="84.7945" y1="2.84871" x2="84.7945" y2="65.1584" gradientUnits="userSpaceOnUse">
<stop offset="0.217" stop-color="#FFD100"/>
<stop offset="0.296" stop-color="#FFD724"/>
<stop offset="0.474" stop-color="#FFE87F"/>
<stop offset="0.707" stop-color="white"/>
</linearGradient>
<linearGradient id="paint1_linear_2083_197" x1="26.1918" y1="46.1292" x2="98.7146" y2="46.1292" gradientUnits="userSpaceOnUse">
<stop stop-color="#FFA300"/>
<stop offset="0.134" stop-color="#FFA800"/>
<stop offset="0.289" stop-color="#FFB600"/>
<stop offset="0.453" stop-color="#FFCD00"/>
<stop offset="0.478" stop-color="#FFD100"/>
</linearGradient>
</defs>
</svg>
