<svg width="44" height="46" viewBox="0 0 44 46" fill="none" xmlns="http://www.w3.org/2000/svg">
<path d="M41.7076 27.8262C41.7075 27.8262 41.7075 27.8262 41.7076 27.8262L40.7462 27.2713C37.5672 25.4358 37.559 20.6546 40.7462 18.8143L41.7077 18.2594C42.9412 17.5471 43.3653 15.9642 42.6531 14.7308L39.5247 9.3121C38.8125 8.07874 37.2296 7.65484 35.996 8.36667L35.039 8.91929C31.8814 10.7419 27.711 8.3987 27.711 4.69784V3.58313C27.711 2.15879 26.5522 1 25.1279 1H18.871C17.4466 1 16.2878 2.15879 16.2878 3.58313V4.69767C16.2878 8.39948 12.1166 10.7414 8.95989 8.91912L8.00276 8.3665C6.76638 7.65252 5.18809 8.07546 4.47411 9.31192L1.34567 14.7307C0.633503 15.964 1.05757 17.547 2.29119 18.2592L3.25246 18.8142C6.43143 20.6496 6.4397 25.4309 3.25246 27.2711L2.29101 27.826C1.05748 28.5383 0.633417 30.1212 1.34559 31.3546L4.47402 36.7733C5.18619 38.0068 6.76905 38.4311 8.00258 37.7187L8.95972 37.1661C12.1187 35.3426 16.2876 37.6914 16.2876 41.3876V42.5024C16.2876 43.9267 17.4464 45.0855 18.8708 45.0855H25.1277C26.5521 45.0855 27.7109 43.9267 27.7109 42.5024V41.3878C27.7109 37.6864 31.8819 35.3439 35.0388 37.1664L35.996 37.7191C37.2295 38.4311 38.8124 38.007 39.5246 36.7736L42.653 31.3548C43.3669 30.1185 42.944 28.5401 41.7076 27.8262ZM37.2875 35.4819L36.3304 34.9293C31.4597 32.1172 25.1277 35.6889 25.1277 41.3878V42.5024H18.8708V41.3878C18.8708 35.6819 12.5325 32.1207 7.66815 34.9293L6.71102 35.4819L3.5825 30.0632L4.54385 29.5082C6.81916 28.1945 8.22869 25.7296 8.22267 23.0737V23.0428V23.0103C8.22878 20.356 6.81916 17.891 4.54385 16.5773L3.58258 16.0224L6.71102 10.6037L7.66815 11.1563C12.5387 13.9685 18.8708 10.3967 18.8708 4.69776V3.58313H25.1277V4.69767C25.1277 10.3438 31.414 13.9945 36.3304 11.1562L37.2875 10.6036L40.416 16.0223L39.4547 16.5772C34.5461 19.4113 34.5531 26.6782 39.4547 29.5082L40.416 30.0632L37.2875 35.4819Z" fill="white"/>
<path d="M41.7076 27.8262C41.7075 27.8262 41.7075 27.8262 41.7076 27.8262ZM41.7076 27.8262L40.7462 27.2713C37.5672 25.4358 37.559 20.6546 40.7462 18.8143L41.7077 18.2594C42.9412 17.5471 43.3653 15.9642 42.6531 14.7308L39.5247 9.3121C38.8125 8.07874 37.2296 7.65484 35.996 8.36667L35.039 8.91929C31.8814 10.7419 27.711 8.3987 27.711 4.69784V3.58313C27.711 2.15879 26.5522 1 25.1279 1H18.871C17.4466 1 16.2878 2.15879 16.2878 3.58313V4.69767C16.2878 8.39947 12.1166 10.7414 8.95989 8.91912L8.00276 8.3665C6.76638 7.65252 5.18809 8.07546 4.47411 9.31192L1.34567 14.7307C0.633503 15.964 1.05757 17.547 2.29119 18.2592L3.25246 18.8142C6.43143 20.6496 6.4397 25.4309 3.25246 27.2711L2.29101 27.826C1.05748 28.5383 0.633417 30.1212 1.34559 31.3546L4.47402 36.7733C5.18619 38.0068 6.76905 38.4311 8.00258 37.7187L8.95972 37.1661C12.1187 35.3426 16.2876 37.6914 16.2876 41.3876V42.5024C16.2876 43.9267 17.4464 45.0855 18.8708 45.0855H25.1277C26.5521 45.0855 27.7109 43.9267 27.7109 42.5024V41.3878C27.7109 37.6864 31.8819 35.3439 35.0388 37.1664L35.996 37.7191C37.2295 38.4311 38.8124 38.007 39.5246 36.7736L42.653 31.3548C43.3669 30.1185 42.944 28.5401 41.7076 27.8262ZM37.2875 35.4819L36.3304 34.9293C31.4597 32.1172 25.1277 35.6889 25.1277 41.3878V42.5024H18.8708V41.3878C18.8708 35.6819 12.5325 32.1207 7.66815 34.9293L6.71102 35.4819L3.5825 30.0632L4.54385 29.5082C6.81916 28.1945 8.22869 25.7296 8.22267 23.0737V23.0428V23.0103C8.22878 20.356 6.81916 17.891 4.54385 16.5773L3.58258 16.0224L6.71102 10.6037L7.66815 11.1563C12.5387 13.9685 18.8708 10.3967 18.8708 4.69776V3.58313H25.1277V4.69767C25.1277 10.3438 31.4141 13.9945 36.3304 11.1562L37.2875 10.6036L40.416 16.0223L39.4547 16.5772C34.5461 19.4113 34.5531 26.6782 39.4547 29.5082L40.416 30.0632L37.2875 35.4819Z" stroke="#243D5B" stroke-width="0.3"/>
<path d="M21.999 11.9676C15.8921 11.9676 10.9238 16.9358 10.9238 23.0427C10.9238 29.1496 15.8921 34.1178 21.999 34.1178C28.1059 34.1178 33.0741 29.1496 33.0741 23.0427C33.0741 16.9358 28.1059 11.9676 21.999 11.9676ZM21.999 31.5347C17.3165 31.5347 13.507 27.7252 13.507 23.0427C13.507 18.3602 17.3165 14.5507 21.999 14.5507C26.6816 14.5507 30.4911 18.3602 30.4911 23.0427C30.4911 27.7252 26.6816 31.5347 21.999 31.5347Z" fill="white" stroke="#243D5B" stroke-width="0.3"/>
<path d="M24.9825 20.0397L20.6093 23.2856L19.1875 21.7708C18.6993 21.2506 17.8819 21.2246 17.3618 21.7129C16.8417 22.201 16.8157 23.0184 17.304 23.5384L19.5132 25.8925C19.9624 26.3711 20.6986 26.4363 21.2247 26.0457L26.522 22.1138C27.0947 21.6887 27.2144 20.8797 26.7892 20.3069C26.3642 19.7343 25.5553 19.6147 24.9825 20.0397Z" fill="white" stroke="#243D5B" stroke-width="0.3"/>
</svg>
