<svg width="93" height="114" viewBox="0 0 93 114" fill="none" xmlns="http://www.w3.org/2000/svg">
<path d="M47.2406 78.5747C46.5712 81.2028 46.685 81.9486 46.7308 82.6967C44.9016 81.4204 40.1759 79.0183 39.9559 72.9355C39.8536 70.1208 40.0798 67.5962 40.6068 65.7949C40.5201 65.9001 40.4185 66.02 40.3191 66.1375C34.2651 73.4224 27.3578 72.9312 21.0379 73.5808C20.102 73.6769 16.5907 74.3856 15.6659 74.5861C17.9178 72.1777 21.8144 68.6383 24.3581 66.9015C29.2754 63.5452 37.8219 60.0445 37.8219 60.0445C33.957 62.1715 30.8321 65.6202 30.8321 65.6202C33.2368 63.9925 41.6341 59.143 41.6341 59.143C39.3931 61.2772 33.0072 66.9044 29.22 69.409C34.0389 67.1374 38.1156 64.192 40.3126 62.1147C43.0608 59.5186 47.1879 57.0137 49.0549 56.0496C49.9703 56.9516 51.295 57.7777 52.4798 58.2654C49.3103 60.4968 47.1961 61.7683 46.2927 64.7851C46.2927 64.7851 48.6117 61.8092 51.9543 59.9865C52.5823 59.644 53.2628 59.2215 53.9611 58.7415C54.7126 58.9189 56.3435 59.0684 57.1419 59.0684L57.3395 58.9851C57.2103 59.0836 56.8894 59.2673 56.7558 59.364C50.3689 64.049 44.5241 65.2796 43.9837 74.8094C43.9837 74.8094 44.7913 68.5995 49.7048 65.451C52.4884 63.668 57.4801 61.2962 60.8236 57.8863C63.3851 56.7147 64.9964 54.7108 65.8302 51.9243L65.849 51.8376C66.6764 51.756 67.4998 51.6501 68.3647 51.5735C68.2656 52.5802 68.0463 53.947 67.5562 55.3455C66.957 57.2159 65.9501 59.2981 64.1746 61.4681C60.9801 65.3703 57.1239 67.8148 53.1092 73.0387C49.0946 78.2639 48.2408 83.5881 48.2408 83.5881C47.346 77.0897 50.4438 72.9576 50.4438 72.9576C49.9725 73.3307 47.977 75.6791 47.2404 78.5749L47.2406 78.5747ZM33.1347 73.1127C36.2573 72.3311 39.0785 68.9555 39.0785 68.9555C38.7482 70.0965 38.9945 73.5818 38.9945 73.5818C38.9945 73.5818 37.7757 74.0627 36.29 74.0627C34.8043 74.0627 33.012 73.1249 33.012 73.1249L33.1347 73.1129V73.1127ZM53.4402 88.637C52.7361 90.5266 52.2499 92.2778 52.0686 92.9598C49.9742 91.7042 46.7599 90.0291 45.5816 88.1929C44.0011 85.7294 44.017 82.5036 44.017 82.5036C44.7993 83.195 46.8059 84.3177 48.6435 85.3366C50.1436 86.1695 52.5922 87.9938 53.44 88.637H53.4402ZM49.5185 84.5853C49.5868 83.3478 50.0319 81.0187 51.3034 78.1265C52.7296 74.885 56.3682 70.9075 56.3682 70.9075C57.5793 72.1623 59.1668 74.7252 58.5349 78.0663C57.903 81.4055 56.3076 82.5477 54.682 85.7526C54.4023 86.305 54.138 86.8916 53.8923 87.4828C52.8779 86.6786 51.0393 85.5311 49.5182 84.5853H49.5185ZM42.4928 46.896L42.5736 46.9167L42.4583 46.9359C40.8094 47.227 39.098 47.629 37.6498 48.0047C37.7143 47.4304 37.7916 46.8538 37.8838 46.2887C37.9127 46.1317 37.9447 45.9733 37.9791 45.8144C38.6124 45.9687 39.2561 46.1163 39.9005 46.266C40.4816 46.4008 41.0641 46.5368 41.6385 46.6813L42.4928 46.896ZM74.8479 51.0134C75.695 50.4501 78.6565 50.6754 79.6436 50.7881C80.6322 50.901 83.9324 51.4084 85.5691 51.042C87.2035 50.6757 87.9382 50.3372 87.9382 50.3372C87.9382 50.3372 87.5432 53.3259 84.3835 53.5517C81.2239 53.7775 80.8012 53.0157 78.4316 52.7056C78.4316 52.7056 79.1365 52.2822 80.4065 52.0294C80.4065 52.0294 78.2049 51.7189 76.5408 52.1416C74.877 52.565 74.1999 53.2698 74.1999 53.2698C74.1999 53.2698 74.0025 51.5769 74.8481 51.0134H74.8479ZM43.4756 32.6743C43.4756 32.6743 43.73 32.3496 43.7753 32.2803C45.1344 30.2258 46.6121 28.186 47.3499 27.1942C47.8633 26.5024 48.255 25.8152 48.5566 25.1773C49.4056 23.3792 49.5252 21.9729 49.5252 21.9729C57.3684 22.3328 66.7649 25.7738 74.3677 32.974C77.7312 36.1596 79.9566 39.9215 81.3953 43.1283C79.9944 42.9006 77.0827 42.5571 73.8003 42.5354C70.1198 42.5102 65.7063 43.0089 64.8676 43.1081L64.8671 43.1042C64.8539 42.9738 64.8363 42.8452 64.8171 42.7172L64.8007 42.605C64.7851 42.5041 64.7656 42.4042 64.7463 42.3046L64.7518 42.3034C64.2803 38.7009 61.6144 35.257 58.2309 33.8269C57.0153 33.261 54.4558 32.4108 51.7846 32.1705C50.4342 32.0162 48.9834 32.0314 47.223 32.2177C46.4684 32.2974 45.7349 32.392 45.0152 32.4837C44.4924 32.5508 43.9801 32.6158 43.4753 32.6743H43.4756ZM53.4125 99.5282C53.4125 99.5282 51.6315 98.6031 50.387 96.8078C49.4114 95.3999 49.3245 93.6706 49.3327 92.9865C50.5877 93.7096 52.026 94.4245 52.8663 94.9459C53.7897 95.5181 54.5391 96.0843 55.0956 96.5577C54.2102 98.127 53.4125 99.5282 53.4125 99.5282ZM48.2745 54.9698C42.3647 56.5809 29.7746 61.9103 22.4136 67.064C19.2369 69.2887 15.7701 72.8014 13.6583 74.969C11.5903 75.6074 8.97835 76.7024 7.76587 77.2325C10.5957 74.1217 16.3288 68.5485 21.0027 65.4079C35.1137 55.9271 46.7796 54.395 47.6493 54.2195L47.9069 54.4426C48.0236 54.6234 48.1481 54.7977 48.2747 54.97L48.2745 54.9698ZM82.5303 70.2289C78.8909 72.6266 76.5786 78.3429 76.5786 78.3429C77.5128 71.9993 81.5908 67.5683 81.5908 67.5683C78.544 69.3452 76.3254 72.7444 75.1473 80.3184C73.8015 88.982 71.3176 92.306 71.3176 92.306L71.5766 91.4279C72.6198 86.7469 72.4506 84.5468 73.297 78.9054C74.1433 73.265 76.6258 69.8238 76.6258 69.8238C73.5228 71.9957 71.8524 76.6396 71.2663 83.3899C70.6193 90.834 68.8365 93.4689 68.8365 93.4689C69.9217 89.7491 69.4609 85.6185 69.629 82.8544C69.7987 80.0898 69.9209 76.331 71.4714 72.7773C73.0235 69.2237 76.6258 65.7916 80.4065 64.0714C84.1854 62.3506 87.2021 63.1979 87.2021 63.1979C89.1942 65.0658 89.3172 67.0327 89.3172 67.0327C89.3172 67.0327 86.1696 67.8323 82.5303 70.2284V70.2289ZM50.7613 101.269C50.3877 100.011 50.95 99.5327 51.269 99.1192C51.269 99.1192 52.104 99.8555 52.9677 100.295C52.9677 100.295 52.4952 101.576 52.1302 102.734C51.5643 102.437 50.9905 102.04 50.7615 101.269L50.7613 101.269ZM50.2654 108.543C50.2654 108.543 50.5543 109.066 50.8646 109.487C51.249 110.007 51.1669 110.501 50.8908 110.813C50.6145 111.126 50.1711 111.172 49.8528 110.796C49.5336 110.422 49.7626 109.166 50.2654 108.543ZM57.743 83.5108C58.0013 83.998 58.6945 85.2273 58.8907 86.7715C59.1771 89.02 58.294 91.4893 57.1424 93.5803C56.829 94.1484 56.0428 94.8725 55.6418 95.585C55.3322 95.2406 54.7868 94.7245 53.8663 94.0803C53.6749 93.9474 53.4477 93.8013 53.1973 93.6456C54.0343 90.2982 55.9971 86.0265 56.7921 84.9515C57.0437 84.6121 57.4729 83.9436 57.743 83.5108ZM51.5824 106.59C52.2508 107.041 52.9583 108.051 53.0091 108.542C53.0861 109.284 51.9321 109.868 51.9321 109.868C51.9321 109.868 52.0932 109.055 51.2519 108.433C50.023 107.523 49.5912 107.166 50.4825 105.634C50.4825 105.634 50.9137 106.137 51.5826 106.59H51.5824ZM54.5797 99.2595C55.6004 97.4226 57.0565 95.461 57.0565 95.461C57.0565 95.461 57.9481 98.229 57.203 100.541C56.4588 102.854 54.6257 104.895 54.6257 104.895C54.6257 104.895 53.77 103.695 53.101 103.244C53.0421 103.204 52.9768 103.165 52.9092 103.126C53.2291 102.226 53.8682 100.541 54.58 99.2598L54.5797 99.2595ZM52.1981 103.792C53.1133 104.229 53.7666 104.839 54.107 105.558C54.4466 106.276 54.1426 106.935 53.5283 107.367C53.5283 107.367 53.2021 106.489 52.3372 106.05C51.4728 105.61 50.6585 105.233 50.4565 104.358C50.2553 103.483 50.8025 102.746 50.8025 102.746C50.8025 102.746 51.2839 103.355 52.1981 103.792V103.792Z" fill="#FFC62F"/>
<path d="M47.8645 47.0098C45.1155 46.1789 41.1647 45.436 37.6553 44.4395C30.5701 42.455 25.7048 38.1838 23.1958 31.744C21.5452 27.5103 21.5087 23.673 21.5272 22.7506C21.5286 22.6185 21.5209 22.371 21.5217 22.286C21.5604 19.3183 21.9593 16.5698 22.2958 14.5928L22.3353 14.3519L22.3408 14.7746C22.33 16.8291 22.4713 18.6373 22.5209 19.1994L22.5247 19.2547C22.5324 19.3368 22.5887 18.8328 22.6263 18.58C22.7637 17.6643 22.9209 16.7568 23.0117 15.8349C23.1031 14.9173 23.3106 13.8211 23.3501 12.9001C23.3662 12.5463 23.3817 12.1902 23.3715 11.8359C23.4736 11.8966 23.515 12.2403 23.536 12.3378C23.6176 12.7205 23.7923 15.7314 23.8443 16.7621C23.8655 17.1738 23.873 17.5856 23.878 17.997C23.8804 18.2026 23.8867 18.4045 23.9194 18.6079C23.9264 18.6619 23.944 18.7203 23.9565 18.7784C23.9664 18.826 24.1182 17.4369 24.2316 16.7048C24.3274 16.0891 24.4812 15.4644 24.4767 14.8364C24.4767 14.7818 24.4598 14.7137 24.4692 14.6597C24.4853 14.5671 24.6192 14.9671 24.6875 15.702C24.7345 16.5325 24.7701 17.394 24.8661 18.2059L24.94 18.8482C25.6114 24.7437 29.1446 30.1153 33.9192 32.521C37.7723 34.6812 41.3685 34.2202 45.1764 33.7323C45.8868 33.6408 46.6113 33.5479 47.3556 33.4694C49.0225 33.2932 50.3859 33.278 51.6579 33.4222C54.4634 33.6754 57.0573 34.6308 57.9104 35.0735C60.7574 36.3522 62.9897 39.2511 63.4555 42.2995L63.4575 42.3811C63.5783 42.935 63.6406 43.5089 63.6406 44.0991L63.6399 44.1205C63.6207 44.0083 63.6105 43.8991 63.5855 43.7842C63.5716 44.7719 63.371 45.7136 63.0232 46.5804C63.307 45.7023 63.4006 44.6742 63.1424 43.4752C63.1274 44.5983 62.868 45.658 62.4229 46.617C62.6893 45.7576 62.7984 44.8357 62.7112 43.8856C62.537 41.962 61.6023 40.2893 60.2295 39.1206C61.3291 40.296 61.8613 42.1599 62.0204 43.9029C62.3882 47.9874 59.1215 50.6646 55.6174 51.2688L55.5442 51.2868C55.8451 51.3403 57.0131 51.5008 58.1774 51.1301C58.694 51.0938 59.3802 50.9777 60.0764 50.641C60.3342 50.5163 60.6599 50.33 61.0094 50.0859C59.555 51.4298 57.6153 52.2571 55.479 52.2571C52.6578 52.2571 50.1765 50.8232 48.7139 48.6457C50.7482 48.9004 52.7413 49.3048 52.7413 49.3048C50.9069 47.8903 47.8666 46.9997 47.8666 46.9997L47.8635 47.0096L47.8645 47.0098ZM46.6257 25.8339C45.6711 27.3008 44.2612 29.2954 43.1602 30.8466C41.8317 29.8488 39.614 27.8713 38.5934 25.1741C37.0162 21.0047 37.5465 17.0274 37.2718 14.8018C37.1922 14.1619 37.0913 13.3794 36.9654 12.5465C37.314 13.6969 37.7723 15.3438 37.8946 16.3987C37.8946 16.3987 37.7925 13.4027 37.3787 11.543C37.3787 11.543 38.4111 14.4361 38.6186 16.0884C38.6186 16.0884 38.7539 14.4879 38.6025 12.7781C38.7982 13.4343 38.9718 14.1246 39.1015 14.8516C39.9146 19.365 41.2513 22.5154 46.6255 25.8337L46.6257 25.8339Z" fill="#FFFFFE"/>
<path d="M79.4347 55.475C79.7185 55.8142 80.2247 56.5464 80.2529 56.8009C80.2565 56.8324 80.2534 56.9012 80.2474 56.9946V56.9951L80.2416 57.062L80.2404 57.0729C80.2048 57.4628 80.0172 59.2776 79.5989 59.7835C79.5373 59.8844 79.4677 59.9817 79.3801 60.0695C78.8998 60.5187 78.0598 60.9457 76.4732 62.0458C74.7242 63.2595 73.342 65.7407 73.342 65.7407C73.342 65.7407 73.8391 63.3962 74.9204 62.0561C76.2602 60.3964 78.0061 59.2995 79.0835 58.7263L79.5676 56.5638C79.1966 56.3161 78.7301 56.0626 78.2788 55.9817C77.3422 55.8168 75.7638 55.8382 74.7976 55.5231L74.8094 55.5037C75.966 55.3626 76.6431 55.0244 78.3633 54.7415C80.0837 54.4599 81.41 54.9678 81.41 54.9678C80.2529 55.0244 79.4347 55.475 79.4347 55.475ZM85.0306 54.5437C85.0306 54.5437 85.7496 56.187 85.7152 57.3856C85.6815 58.5836 86.0568 59.4051 86.5021 59.7474C86.9479 60.0893 87.393 60.1581 87.6669 60.3646C87.9423 60.5692 87.9423 61.1857 87.8048 61.6987C87.6669 62.2119 87.2907 62.2807 86.88 62.1779C86.497 62.0831 84.4936 61.8116 82.3185 62.2112C82.2032 61.8087 82.0039 60.8884 82.4371 60.4325C83.0019 59.8423 84.1017 59.8976 84.5241 59.9824C84.5241 59.9824 83.6231 59.5592 82.8326 59.5592C82.0426 59.5592 81.3932 60.0955 81.1676 60.6874C81.0003 61.1277 81.1445 62.0335 81.2292 62.4714C78.8647 63.1675 75.4786 65.014 72.7007 68.5807C69.6867 72.4485 69.0046 77.2767 69.0046 77.2767C69.0046 77.2767 65.8257 77.9026 64.1804 75.4596C61.9738 72.1832 62.8033 68.3409 62.8033 68.3409C62.8033 68.3409 61.4967 68.9574 60.4626 68.6878C60.1001 68.5932 59.8427 68.3547 59.6603 68.0721C61.3804 66.5435 63.2106 65.1079 65.026 63.0305C65.9663 63.2395 66.8114 63.466 67.2724 63.6071C68.2887 63.9169 69.3473 64.776 69.629 65.7061C69.9116 66.6374 70.0514 69.7961 70.0514 69.7961C70.6226 67.5991 70.7141 66.4906 70.7697 65.8686C70.8275 65.2487 70.7623 63.6805 69.5717 62.5946C68.9292 62.0087 67.1097 61.4645 66.3882 61.0644C69.1427 57.2719 69.8995 51.4609 69.8995 51.4609L69.8971 51.2957C70.1778 51.2652 70.3612 51.236 70.3687 51.2071C70.8766 51.1778 72.6795 50.958 73.1798 50.9489C73.1798 50.9489 72.4261 53.1731 73.077 54.8167C73.077 54.8167 74.7552 53.6872 77.153 53.8584C79.5498 54.0302 83.3863 55.1936 85.0301 54.5434L85.0306 54.5437ZM62.3096 75.7027C63.4491 77.3747 64.9772 78.7966 67.4315 78.7966C67.7868 78.7966 68.2083 78.7903 68.6671 78.7786C68.4654 80.05 68.3662 81.4204 68.3171 82.415C67.7844 82.5924 67.3109 82.7638 66.9342 82.922C64.5501 83.9173 60.1133 86.2681 60.1133 86.2681L59.9621 86.3591C59.5967 83.8304 58.7718 81.7531 58.7718 81.7531C58.7718 81.7531 60.3636 77.6137 59.7681 75.0689C58.9856 71.7261 57.705 69.9484 57.705 69.9484C57.8455 69.7987 57.9863 69.6579 58.1276 69.5144C58.967 70.6566 60.3882 70.6893 60.3882 70.6893C60.3882 70.6893 61.172 74.0326 62.3096 75.7027ZM86.6643 78.7434C87.8737 78.7793 88.9863 78.69 88.9863 78.69C88.631 78.9743 87.6705 78.9391 87.1368 79.0104C86.6034 79.0814 83.2965 79.188 79.2761 79.7932C78.5482 79.9017 77.7538 80.044 76.9303 80.2057C77.186 79.5151 77.4235 79.021 77.7184 78.5576L77.7543 78.5571C80.7064 78.5571 85.454 78.7087 86.6643 78.7434ZM88.0804 73.8569C88.9261 74.1956 89.4058 74.5049 89.7161 76.2539C90.0264 78.0027 89.039 77.9459 88.5595 77.919C88.0804 77.8906 86.6862 77.8814 84.5417 77.6272C82.3977 77.374 78.5679 77.2746 78.5679 77.2746C80.3985 72.2099 86.7823 69.4583 86.7823 69.4583C86.8957 70.924 85.7949 73.6039 85.7949 73.6039C85.7949 73.6039 87.2336 73.5187 88.0804 73.8574V73.8569Z" fill="#E9BF9B"/>
<path d="M82.0329 44.3865C81.0216 44.1983 77.8001 43.7118 73.8009 43.6849C70.1666 43.6603 65.7839 44.1145 64.9195 44.2106L64.9188 44.2257C64.9137 49.6307 60.2603 53.4887 55.9264 53.5529C49.3814 53.6507 46.9719 48.3769 46.922 48.0656C46.4555 47.9296 45.9573 47.7939 45.4407 47.6554C44.5712 47.7616 43.6416 47.895 42.666 48.0671C40.8625 48.3846 38.9997 48.8292 37.4834 49.2237C37.4112 50.0241 37.2954 51.3116 37.2908 51.4214C37.0751 55.9724 37.3618 55.6549 37.3618 55.6549C38.6819 55.1388 43.5506 53.8904 43.5506 53.8904C44.9763 53.5587 46.6695 53.2025 48.6518 52.8366C50.0455 55.645 52.9399 57.5758 56.288 57.5758C60.4687 57.5758 63.9429 54.5663 64.6704 50.5982C73.8077 49.6064 78.1268 49.5783 83.7696 50.3286C83.1777 47.1846 82.0331 44.3861 82.0331 44.3861" fill="#4F2683"/>
<path d="M81.4085 54.9683C81.4085 54.9683 80.0839 54.4604 78.3644 54.7418C76.6412 55.0229 75.9652 55.3628 74.8086 55.5036L74.7968 55.5231C75.7621 55.8394 77.3409 55.8161 78.2785 55.9803C78.7313 56.0623 79.1971 56.3163 79.568 56.5623L79.0835 58.7266C78.0051 59.3009 76.2582 60.395 74.9215 62.0552C74.8199 62.1798 74.7222 62.3168 74.6327 62.461C74.5896 62.5195 74.5506 62.5821 74.5154 62.6485C74.4642 62.7306 74.4177 62.8127 74.3748 62.8945C74.3202 62.9923 74.2689 63.0938 74.2186 63.1993C74.1678 63.3008 74.1209 63.4024 74.078 63.504C73.8867 63.9332 73.7341 64.3634 73.6209 64.7271L73.5819 64.8518C73.496 65.1365 73.4339 65.3712 73.3944 65.5315L73.3788 65.5937L73.367 65.6408L73.3513 65.715L73.3475 65.735C73.3708 65.6955 73.4921 65.4767 73.6956 65.1604L73.8434 64.9339C74.234 64.348 74.8284 63.5353 75.5358 62.8401C75.6335 62.7424 75.7346 62.6449 75.8367 62.5549C76.0437 62.371 76.2543 62.1993 76.4736 62.047C78.0602 60.9455 78.9003 60.5196 79.3805 60.0707C79.4669 59.9804 79.5372 59.8827 79.5998 59.7852C80.0179 59.2771 80.2054 57.4609 80.2411 57.0743V57.0625L80.2485 56.9961C80.2524 56.9296 80.2524 56.875 80.2524 56.8398V56.8008C80.2249 56.5469 79.717 55.8125 79.4356 55.4767C79.4356 55.4767 80.2524 55.0237 81.409 54.9688L81.4085 54.9683ZM81.4085 54.9683C81.4085 54.9683 80.0839 54.4604 78.3644 54.7418C76.6412 55.0229 75.9652 55.3628 74.8086 55.5036L74.7968 55.5231C75.7621 55.8394 77.3409 55.8161 78.2785 55.9803C78.7313 56.0623 79.1971 56.3163 79.568 56.5623L79.0835 58.7266C78.0051 59.3009 76.2582 60.395 74.9215 62.0552C74.8199 62.1798 74.7222 62.3168 74.6327 62.461C74.5896 62.5195 74.5506 62.5821 74.5154 62.6485C74.4642 62.7306 74.4177 62.8127 74.3748 62.8945C74.3202 62.9923 74.2689 63.0938 74.2186 63.1993C74.1678 63.3008 74.1209 63.4024 74.078 63.504C73.8867 63.9332 73.7341 64.3634 73.6209 64.7271L73.5819 64.8518C73.496 65.1365 73.4339 65.3712 73.3944 65.5315L73.3788 65.5937L73.367 65.6408L73.3513 65.715L73.3475 65.735C73.3708 65.6955 73.4921 65.4767 73.6956 65.1604L73.8434 64.9339C74.234 64.348 74.8284 63.5353 75.5358 62.8401C75.6335 62.7424 75.7346 62.6449 75.8367 62.5549C76.0437 62.371 76.2543 62.1993 76.4736 62.047C78.0602 60.9455 78.9003 60.5196 79.3805 60.0707C79.4669 59.9804 79.5372 59.8827 79.5998 59.7852C80.0179 59.2771 80.2054 57.4609 80.2411 57.0743V57.0625L80.2485 56.9961C80.2524 56.9296 80.2524 56.875 80.2524 56.8398V56.8008C80.2249 56.5469 79.717 55.8125 79.4356 55.4767C79.4356 55.4767 80.2524 55.0237 81.409 54.9688L81.4085 54.9683ZM81.4085 54.9683C81.4085 54.9683 80.0839 54.4604 78.3644 54.7418C76.6412 55.0229 75.9652 55.3628 74.8086 55.5036L74.7968 55.5231C75.7621 55.8394 77.3409 55.8161 78.2785 55.9803C78.7313 56.0623 79.1971 56.3163 79.568 56.5623L79.0835 58.7266C78.0051 59.3009 76.2582 60.395 74.9215 62.0552C74.8199 62.1798 74.7222 62.3168 74.6327 62.461C74.5896 62.5195 74.5506 62.5821 74.5154 62.6485C74.4642 62.7306 74.4177 62.8127 74.3748 62.8945C74.3202 62.9923 74.2689 63.0938 74.2186 63.1993C74.1678 63.3008 74.1209 63.4024 74.078 63.504C73.8867 63.9332 73.7341 64.3634 73.6209 64.7271L73.5819 64.8518C73.496 65.1365 73.4339 65.3712 73.3944 65.5315L73.3788 65.5937L73.367 65.6408L73.3513 65.715L73.3475 65.735C73.3708 65.6955 73.4921 65.4767 73.6956 65.1604L73.8434 64.9339C74.234 64.348 74.8284 63.5353 75.5358 62.8401C75.6335 62.7424 75.7346 62.6449 75.8367 62.5549C76.0437 62.371 76.2543 62.1993 76.4736 62.047C78.0602 60.9455 78.9003 60.5196 79.3805 60.0707C79.4669 59.9804 79.5372 59.8827 79.5998 59.7852C80.0179 59.2771 80.2054 57.4609 80.2411 57.0743V57.0625L80.2485 56.9961C80.2524 56.9296 80.2524 56.875 80.2524 56.8398V56.8008C80.2249 56.5469 79.717 55.8125 79.4356 55.4767C79.4356 55.4767 80.2524 55.0237 81.409 54.9688L81.4085 54.9683ZM81.4085 54.9683C81.4085 54.9683 80.0839 54.4604 78.3644 54.7418C76.6412 55.0229 75.9652 55.3628 74.8086 55.5036L74.7968 55.5231C75.7621 55.8394 77.3409 55.8161 78.2785 55.9803C78.7313 56.0623 79.1971 56.3163 79.568 56.5623L79.0835 58.7266C78.0051 59.3009 76.2582 60.395 74.9215 62.0552C74.8199 62.1798 74.7222 62.3168 74.6327 62.461C74.5896 62.5195 74.5506 62.5821 74.5154 62.6485C74.4642 62.7306 74.4177 62.8127 74.3748 62.8945C74.3202 62.9923 74.2689 63.0938 74.2186 63.1993C74.1678 63.3008 74.1209 63.4024 74.078 63.504C73.8867 63.9332 73.7341 64.3634 73.6209 64.7271L73.5819 64.8518C73.496 65.1365 73.4339 65.3712 73.3944 65.5315L73.3788 65.5937L73.367 65.6408L73.3513 65.715L73.3475 65.735C73.3708 65.6955 73.4921 65.4767 73.6956 65.1604L73.8434 64.9339C74.234 64.348 74.8284 63.5353 75.5358 62.8401C75.6335 62.7424 75.7346 62.6449 75.8367 62.5549C76.0437 62.371 76.2543 62.1993 76.4736 62.047C78.0602 60.9455 78.9003 60.5196 79.3805 60.0707C79.4669 59.9804 79.5372 59.8827 79.5998 59.7852C80.0179 59.2771 80.2054 57.4609 80.2411 57.0743V57.0625L80.2485 56.9961C80.2524 56.9296 80.2524 56.875 80.2524 56.8398V56.8008C80.2249 56.5469 79.717 55.8125 79.4356 55.4767C79.4356 55.4767 80.2524 55.0237 81.409 54.9688L81.4085 54.9683ZM78.3644 54.7418C76.6412 55.0229 75.9652 55.3628 74.8086 55.5036L74.7968 55.5231C75.7621 55.8394 77.3409 55.8161 78.2785 55.9803C78.7313 56.0623 79.1971 56.3163 79.568 56.5623L79.0835 58.7266C78.0051 59.3009 76.2582 60.395 74.9215 62.0552C74.8199 62.1798 74.7222 62.3168 74.6327 62.461C74.5896 62.5195 74.5506 62.5821 74.5154 62.6485C74.4642 62.7306 74.4177 62.8127 74.3748 62.8945C74.3202 62.9923 74.2689 63.0938 74.2186 63.1993C74.1678 63.3008 74.1209 63.4024 74.078 63.504C73.8867 63.9332 73.7341 64.3634 73.6209 64.7271L73.5819 64.8518C73.496 65.1365 73.4339 65.3712 73.3944 65.5315L73.3788 65.5937L73.367 65.6408L73.3513 65.715L73.3475 65.735C73.3708 65.6955 73.4921 65.4767 73.6956 65.1604L73.8434 64.9339C74.234 64.348 74.8284 63.5353 75.5358 62.8401C75.6335 62.7424 75.7346 62.6449 75.8367 62.5549C76.0437 62.371 76.2543 62.1993 76.4736 62.047C78.0602 60.9455 78.9003 60.5196 79.3805 60.0707C79.4669 59.9804 79.5372 59.8827 79.5998 59.7852C80.0179 59.2771 80.2054 57.4609 80.2411 57.0743V57.0625L80.2485 56.9961C80.2524 56.9296 80.2524 56.875 80.2524 56.8398V56.8008C80.2249 56.5469 79.717 55.8125 79.4356 55.4767C79.4356 55.4767 80.2524 55.0237 81.409 54.9688C81.409 54.9688 80.0844 54.4609 78.3649 54.7423L78.3644 54.7418ZM88.5592 77.9185C88.0785 77.891 86.6879 77.8833 84.5421 77.6255C82.3969 77.3752 78.5671 77.2738 78.5671 77.2738C80.3963 72.2116 86.7813 69.4571 86.7813 69.4571C86.8946 70.9221 85.7963 73.6015 85.7963 73.6015C85.7963 73.6015 87.2345 73.5199 88.0787 73.8557C88.9268 74.1956 89.4072 74.5042 89.7163 76.2542C90.0247 78.0042 89.0399 77.9457 88.5592 77.9182V77.9185ZM87.1368 79.0084C86.6014 79.083 83.2957 79.1882 79.2748 79.7936C78.5481 79.9029 77.7545 80.0437 76.9303 80.2038C77.1842 79.5163 77.4225 79.0202 77.7191 78.5595L77.7542 78.5552C80.7049 78.5552 85.4525 78.7075 86.6638 78.7422C87.8712 78.7773 88.9845 78.6878 88.9845 78.6878C88.629 78.9725 87.6719 78.9374 87.1366 79.0082L87.1368 79.0084ZM75.148 80.3174C73.8003 88.9815 71.319 92.3057 71.319 92.3057L71.5773 91.4269C72.6205 86.7469 72.4523 84.5477 73.2962 78.9064C74.1442 73.2659 76.6258 69.824 76.6258 69.824C73.5227 71.9964 71.8505 76.6415 71.2643 83.3913C70.6392 90.5986 68.9472 93.3018 68.842 93.4621C69.9202 89.7467 69.459 85.618 69.6309 82.8567C69.7989 80.0909 69.9199 76.3326 71.4714 72.7778C73.0228 69.2229 76.6258 65.7932 80.4079 64.0704C84.1864 62.3517 87.203 63.1993 87.203 63.1993C89.192 65.0665 89.3169 67.0314 89.3169 67.0314C89.3169 67.0314 86.1713 67.8323 82.5295 70.2308C78.8911 72.6249 76.5779 78.3443 76.5779 78.3443C77.5121 72.0003 81.5917 67.5665 81.5917 67.5665C78.5438 69.344 76.3244 72.7426 75.1478 80.3174H75.148ZM68.318 82.4148C67.7827 82.5905 67.3099 82.7624 66.9346 82.9229C64.5511 83.9183 60.1121 86.2703 60.1121 86.2703L59.9597 86.3598C59.5962 83.829 58.7717 81.7545 58.7717 81.7545C58.7717 81.7545 60.3617 77.6137 59.7681 75.0706C58.9865 71.7268 57.7054 69.9494 57.7054 69.9494C57.8457 69.797 57.9861 69.6564 58.1271 69.5158C58.9672 70.6566 60.3857 70.6917 60.3857 70.6917C60.3857 70.6917 61.1712 74.0317 62.3083 75.7037C63.4493 77.3752 64.9771 78.7976 67.4307 78.7976C67.7863 78.7976 68.2087 78.7901 68.6656 78.7776C68.4668 80.0514 68.3649 81.4187 68.318 82.4148ZM57.1421 93.5793C56.8299 94.1496 56.0406 94.8725 55.6415 95.5833C55.3331 95.2395 54.7862 94.7239 53.8679 94.0793C53.6766 93.9462 53.4459 93.802 53.1958 93.6458C54.0359 90.2979 55.9975 86.0284 56.7907 84.9502C57.0444 84.6103 57.4745 83.9423 57.7441 83.5127C58.0019 83.9975 58.6938 85.2275 58.889 86.7705C59.1781 89.0207 58.2951 91.4895 57.1419 93.5793H57.1421ZM57.2011 100.541C56.4582 102.853 54.6259 104.897 54.6259 104.897C54.6259 104.897 53.7702 103.697 53.1015 103.244C53.0432 103.205 52.9768 103.166 52.9104 103.126C53.2269 102.224 53.8677 100.541 54.5792 99.2595C55.5987 97.4235 57.0562 95.4624 57.0562 95.4624C57.0562 95.4624 57.9471 98.2283 57.2008 100.541L57.2011 100.541ZM53.5276 107.365C53.5276 107.365 53.2035 106.49 52.3363 106.049C51.4723 105.611 50.6594 105.232 50.4568 104.357C50.2536 103.482 50.8007 102.744 50.8007 102.744C50.8007 102.744 51.2853 103.357 52.1995 103.791C53.1142 104.228 53.7668 104.838 54.1065 105.557C54.4464 106.275 54.1416 106.935 53.5278 107.365L53.5276 107.365ZM51.9338 109.869C51.9338 109.869 52.0936 109.056 51.2499 108.435C50.023 107.521 49.5892 107.166 50.484 105.634C50.484 105.634 50.9139 106.138 51.5819 106.588C52.2501 107.041 52.9573 108.053 53.0081 108.541C53.0863 109.283 51.9335 109.869 51.9335 109.869H51.9338ZM50.89 110.814C50.613 111.127 50.171 111.174 49.8511 110.799C49.5346 110.424 49.7616 109.166 50.2654 108.545C50.2654 108.545 50.5545 109.068 50.8633 109.486C51.2501 110.006 51.1678 110.502 50.89 110.814ZM52.9652 100.294C52.9652 100.294 52.4968 101.576 52.129 102.732C51.5624 102.439 50.9919 102.04 50.7613 101.27C50.3862 100.013 50.9488 99.5324 51.2692 99.1184C51.2692 99.1184 52.1016 99.8567 52.965 100.294H52.9652ZM49.3312 92.9853C50.5855 93.7079 52.0269 94.4228 52.8675 94.9464C53.7897 95.5166 54.54 96.083 55.0948 96.5558C54.2114 98.1264 53.4108 99.5286 53.4108 99.5286C53.4108 99.5286 51.6329 98.6023 50.3865 96.8059C49.4097 95.3996 49.3232 93.6691 49.3314 92.9855L49.3312 92.9853ZM45.5799 88.1921C44.0013 85.7311 44.0169 82.5043 44.0169 82.5043C44.7985 83.1956 46.8068 84.3169 48.643 85.3366C50.1438 86.1687 52.59 87.9928 53.438 88.6375C52.7346 90.5278 52.2501 92.2783 52.0664 92.9581C49.9756 91.7042 46.7599 90.0283 45.5799 88.1921ZM58.5334 78.0667C57.9042 81.4067 56.3066 82.5474 54.6806 85.7506C54.4028 86.3052 54.1375 86.8913 53.8913 87.4816C52.8793 86.6764 51.0388 85.5318 49.5185 84.5865C49.5849 83.3483 50.0307 81.0198 51.3046 78.125C52.7308 74.8869 56.3687 70.9065 56.3687 70.9065C57.58 72.1603 59.1665 74.7268 58.5334 78.067V78.0667ZM39.957 72.9338C39.8516 70.1212 40.0781 67.5976 40.6058 65.793C40.5198 65.8989 40.4183 66.0195 40.3205 66.1367C34.2639 73.4222 27.3593 72.9304 21.0369 73.5822C20.1029 73.6764 16.5902 74.3869 15.6642 74.5863C17.9187 72.176 21.8146 68.6368 24.3585 66.9024C29.1218 63.6528 37.2885 60.2616 37.7966 60.0546C33.9438 62.1878 30.8335 65.6211 30.8335 65.6211C33.1624 64.0432 41.118 59.4451 41.6105 59.1603C39.3519 61.3123 32.9944 66.9101 29.2197 69.4104C34.0376 67.1369 38.1173 64.191 40.3133 62.1132C43.0603 59.5192 47.1867 57.0153 49.0544 56.0505C49.9688 56.953 51.2973 57.7772 52.4812 58.2654C49.3122 60.4958 47.1982 61.7694 46.2917 64.7851C46.2917 64.7851 48.6126 61.8084 51.9538 59.9841C52.5825 59.6442 53.2628 59.2227 53.9625 58.7417C54.7123 58.9172 56.3458 59.0698 57.1424 59.0698L57.3378 58.9834C57.2093 59.0811 56.8889 59.265 56.756 59.3628C50.3792 64.043 44.541 65.2733 43.9861 74.7697C44.0682 74.2346 45.0217 68.449 49.7067 65.449C52.4889 63.6677 57.4791 61.2962 60.8236 57.8862C63.3831 56.7142 64.9969 54.7102 65.8293 51.9252L65.8488 51.8392C66.6771 51.7572 67.5017 51.6517 68.3652 51.5735C68.2674 52.5814 68.0448 53.9486 67.5564 55.3431C66.9584 57.2141 65.9503 59.2963 64.176 61.4688C60.9801 65.371 57.1233 67.8123 53.1104 73.0392C49.0934 78.262 48.2417 83.5866 48.2417 83.5866C47.3698 77.2659 50.2774 73.1839 50.4377 72.965C49.9532 73.3521 47.9721 75.6959 47.2411 78.5746C46.5733 81.2037 46.6862 81.9497 46.7295 82.6964C44.9008 81.4187 40.1766 79.02 39.9578 72.934L39.957 72.9338ZM38.9959 73.5822C38.9959 73.5822 37.7767 74.0627 36.2919 74.0627C34.8031 74.0627 33.0134 73.1256 33.0134 73.1256L33.1345 73.1131C36.2565 72.3317 39.078 68.9574 39.078 68.9574C38.7496 70.0981 38.9959 73.5822 38.9959 73.5822ZM13.6595 74.9685C11.5925 75.6057 8.97832 76.7038 7.76705 77.2307C10.5962 74.121 16.3285 68.5467 21.0018 65.4061C35.1119 55.9254 46.7799 54.3939 47.6512 54.2182L47.9057 54.4409C48.0222 54.6245 48.1476 54.7964 48.2725 54.9683C42.3644 56.5816 29.7743 61.91 22.4126 67.0625C19.2359 69.2891 15.7698 72.8009 13.6597 74.9688L13.6595 74.9685ZM23.1939 31.7447C21.545 27.51 21.5099 23.674 21.5253 22.7521C21.5292 22.6192 21.5215 22.3693 21.5215 22.2872C21.5605 19.3183 21.9591 16.5683 22.2951 14.5916C22.3108 14.5134 22.3226 14.4315 22.3341 14.3533L22.3418 14.7753C22.33 16.83 22.4708 18.6387 22.5216 19.2013L22.5255 19.2559C22.5332 19.338 22.5881 18.8339 22.6271 18.58C22.7638 17.666 22.92 16.7556 23.01 15.8337C23.1039 14.9156 23.3109 13.8218 23.3499 12.8999C23.3656 12.5443 23.3812 12.1888 23.3694 11.8373C23.4749 11.8958 23.5141 12.2398 23.5374 12.3373C23.6157 12.72 23.7914 15.7319 23.8422 16.7633C23.8655 17.1735 23.8735 17.5837 23.8773 17.9977C23.8812 18.2009 23.885 18.404 23.9204 18.6072C23.9243 18.6618 23.9438 18.7206 23.9556 18.7791C23.9712 18.7791 24.1159 17.4236 24.229 16.7048C24.3267 16.0876 24.4791 15.4625 24.4753 14.8376C24.4753 14.783 24.4596 14.7127 24.4676 14.6619C24.4832 14.5682 24.6199 14.9666 24.6864 15.701C24.7333 16.5332 24.7685 17.3925 24.8662 18.205L24.9403 18.8496C25.6124 24.7444 29.1449 30.1157 33.9199 32.5219C37.7728 34.6821 41.3676 34.2211 45.1774 33.733C45.8846 33.6432 46.6116 33.5493 47.354 33.4713C49.0226 33.2956 50.3862 33.2799 51.6562 33.4205C54.4618 33.6745 57.0564 34.6315 57.9083 35.073C60.7564 36.3505 62.9881 39.2528 63.4565 42.2997V42.3818C63.5781 42.9364 63.6407 43.5108 63.6407 44.1005V44.12C63.6207 44.0066 63.6094 43.9012 63.5856 43.784C63.5704 44.7724 63.3713 45.7138 63.0233 46.5811C63.3046 45.7022 63.3983 44.6749 63.1405 43.4754C63.1287 44.6005 62.867 45.6591 62.4215 46.6162C62.6875 45.7569 62.7965 44.8349 62.7103 43.8856C62.5348 41.9637 61.6006 40.2917 60.2295 39.1197C61.3274 40.2955 61.8625 42.1589 62.0192 43.9051C62.3866 47.9873 59.1198 50.6631 55.6186 51.2685L55.544 51.288C55.8454 51.3388 57.0136 51.503 58.1781 51.1318C58.694 51.0928 59.3817 50.9794 60.0771 50.6395C60.3349 50.5184 60.659 50.3309 61.0111 50.0849C59.5574 51.4288 57.6154 52.2569 55.4776 52.2569C52.6566 52.2569 50.1754 50.8232 48.714 48.6474C50.7497 48.9013 52.7423 49.3036 52.7423 49.3036C50.9062 47.8894 47.8662 46.9987 47.8662 46.9987V47.0105C45.1153 46.1784 41.1647 45.4362 37.6558 44.4402C30.5714 42.4557 25.7065 38.1823 23.1939 31.7447ZM38.5936 25.1741C37.015 21.0059 37.5465 17.0293 37.2728 14.8027C37.1908 14.1622 37.0892 13.3808 36.9642 12.5448C37.3159 13.6971 37.773 15.3458 37.8941 16.4003C37.8941 16.4003 37.7925 13.4119 37.3821 11.5526C37.4406 11.7244 38.4177 14.4864 38.617 16.0879C38.617 16.0879 38.7537 14.4862 38.6013 12.7793C38.7968 13.4354 38.9725 14.127 39.1015 14.8535C39.9142 19.3654 41.2506 22.5178 46.6275 25.8344C45.6702 27.2994 44.2596 29.2954 43.1614 30.8463C41.8329 29.8502 39.6133 27.8735 38.5936 25.1741ZM48.5578 25.178C49.4058 23.381 49.5269 21.9709 49.5269 21.9709C57.3689 22.3342 66.7668 25.7718 74.3667 32.9752C77.7318 36.1589 79.9587 39.9208 81.3967 43.128C79.9938 42.9015 77.0829 42.5578 73.8005 42.5342C70.1195 42.5108 65.7079 43.007 64.8678 43.1085V43.1047C64.8522 42.9757 64.837 42.8469 64.8171 42.7179L64.8014 42.6045C64.7858 42.5029 64.7663 42.4052 64.7468 42.3036H64.7506C64.2817 38.7018 61.6131 35.2564 58.2328 33.8266C57.0177 33.2602 54.4582 32.4085 51.7853 32.1702C50.4329 32.014 48.9836 32.0297 47.2252 32.2172C46.4672 32.2954 45.7364 32.3929 45.0173 32.4829C44.4938 32.5494 43.9818 32.6158 43.4739 32.6743C43.4739 32.6743 43.7317 32.3501 43.7748 32.2798C45.1346 30.225 46.6116 28.1859 47.3506 27.1937C47.8616 26.5024 48.2566 25.8147 48.5575 25.178H48.5578ZM37.6517 48.003C37.7143 47.4286 37.7923 46.8545 37.8823 46.2881C37.9136 46.1319 37.9449 45.9718 37.9801 45.8154C38.6131 45.9677 39.2578 46.1163 39.9026 46.2645C40.4808 46.4013 41.0631 46.538 41.6375 46.6824C41.9266 46.7527 42.2118 46.823 42.4932 46.8974L42.5753 46.9169L42.4581 46.9364C40.8092 47.2255 39.0977 47.6277 37.6517 48.0027V48.003ZM83.7685 50.3273C78.1259 49.5772 73.8082 49.6047 64.6685 50.5969C63.9418 54.5658 60.4678 57.5776 56.2869 57.5776C52.9378 57.5776 50.0466 55.644 48.6516 52.8353C46.6706 53.2024 44.9747 53.5579 43.5485 53.8901C43.5485 53.8901 38.6798 55.1402 37.3629 55.6558C37.3629 55.6558 37.0738 55.9721 37.2887 51.4211C37.2964 51.3118 37.4098 50.0226 37.4842 49.2258C39.0002 48.8313 40.8643 48.386 42.6656 48.0656C43.6424 47.8937 44.5725 47.7608 45.4398 47.6554C45.9556 47.7921 46.4559 47.9288 46.9207 48.0656C46.9715 48.378 49.3825 53.6518 55.9275 53.5541C60.2608 53.4877 64.9148 49.6321 64.9186 44.2257V44.21C65.7826 44.1164 70.166 43.6593 73.8005 43.6865C77.8019 43.7139 81.0219 44.1982 82.0337 44.3858C82.0337 44.3858 83.1785 47.1867 83.7685 50.3273ZM85.5695 51.0422C87.2032 50.6751 87.9379 50.3391 87.9379 50.3391C87.9379 50.3391 87.5431 53.3276 84.3821 53.5502C81.2249 53.7768 80.8029 53.0151 78.4309 52.7065C78.4309 52.7065 79.1381 52.2807 80.4081 52.0306C80.4081 52.0306 78.2044 51.7182 76.5396 52.1399C74.8789 52.5657 74.1989 53.2688 74.1989 53.2688C74.1989 53.2688 74.0034 51.5773 74.8476 51.0148C75.6956 50.4484 78.6574 50.6749 79.6417 50.7883C80.631 50.9017 83.9327 51.4093 85.5695 51.0422ZM86.5037 59.746C86.9493 60.089 87.3946 60.1598 87.6681 60.3632C87.9415 60.5697 87.9415 61.1871 87.8048 61.6991C87.6681 62.2104 87.2889 62.2807 86.8788 62.1791C86.4958 62.0814 84.4947 61.812 82.3187 62.2104C82.2014 61.8079 82.0021 60.8901 82.4359 60.433C82.9987 59.8471 84.0814 59.8979 84.5108 59.98C84.4093 59.933 83.573 59.558 82.8302 59.558C82.0414 59.558 81.3926 60.0972 81.1659 60.6874C80.9979 61.1284 81.1425 62.0347 81.2285 62.4723C78.8644 63.1677 75.4766 65.0155 72.6983 68.5819C69.6855 72.4492 69.006 77.2772 69.006 77.2772C69.006 77.2772 65.8249 77.9026 64.1799 75.461C61.9725 72.1834 62.804 68.34 62.804 68.34C62.804 68.34 61.4954 68.9572 60.4632 68.6873C60.1003 68.5937 59.842 68.3554 59.659 68.0701C61.3818 66.5428 63.2105 65.1091 65.0277 63.0312C65.965 63.2378 66.8092 63.4645 67.2707 63.609C68.2867 63.9176 69.3456 64.7767 69.6309 65.7068C69.9122 66.6364 70.0528 69.7968 70.0528 69.7968C70.6228 67.5974 70.7131 66.492 70.768 65.8669C70.8265 65.2497 70.7603 63.6793 69.5724 62.5934C68.9272 62.0075 67.1106 61.4644 66.3872 61.0656C69.1424 57.2729 69.9005 51.4601 69.9005 51.4601C69.8966 51.4055 69.8966 51.3508 69.8966 51.2959C70.1782 51.2647 70.3612 51.2375 70.3694 51.2062C70.8773 51.1787 72.6788 50.9561 73.179 50.9484C73.179 50.9484 72.4253 53.1711 73.0774 54.8157C73.0774 54.8157 74.7537 53.6867 77.1529 53.8586C79.5483 54.0305 83.385 55.1946 85.0305 54.5422C85.0305 54.5422 85.7496 56.1868 85.7144 57.386C85.6831 58.5814 86.0579 59.4051 86.5037 59.746ZM90.7116 75.1604C90.5557 74.2033 89.5945 73.3478 89.1138 73.2419C88.6331 73.1367 87.4062 72.8165 87.4062 72.8165C88.3127 70.2582 88.3127 68.6563 88.3127 68.6563C89.1138 68.23 90.7114 67.5901 90.7114 67.5901C90.1804 64.7615 88.2578 62.5739 88.2578 62.5739C88.4181 61.988 88.7927 60.9763 88.7927 60.6012C88.7927 60.2262 88.0975 59.5895 87.3513 59.1091C86.6048 58.6286 86.4994 57.7769 86.4994 56.7614C86.4994 55.7496 86.0736 54.4683 85.9132 54.4137C85.7529 54.3629 87.8159 53.7106 88.4571 51.8941C89.0979 50.0815 89.1135 48.6089 89.1135 48.6089C88.2617 49.8512 84.9246 50.3629 84.9246 50.3629C84.6589 47.5348 82.3889 38.4132 73.2136 30.1473C64.0388 21.8814 48.4047 20.3851 48.4047 20.3851C48.428 20.8461 48.3695 21.393 48.2328 21.9945C48.1038 22.7718 47.8773 23.6899 47.4825 24.4322C47.4591 24.4753 47.4279 24.53 47.3966 24.5808C45.2395 23.4128 42.9732 21.8424 41.9338 20.0065C39.9214 16.4516 40.1715 13.3928 39.1047 10.8851C37.3581 6.77945 34.8375 4.54899 34.0875 3.89642C33.6576 3.52139 33.5131 3.39645 33.2902 3.57603C33.0714 3.75175 33.2161 4.0057 33.3957 4.27145C33.5637 4.52155 35.1346 7.54902 35.7207 11.6585C36.3069 15.7641 35.5293 22.2449 37.4517 26.4051C38.6473 28.995 40.6245 31.0459 41.9492 32.2256C41.9961 32.2646 42.0431 32.3077 42.0859 32.3467L42.5158 32.7725C39.7727 33.0303 37.2211 32.9326 34.5092 31.4091C30.1484 29.2138 26.8035 24.108 26.1901 18.7054L26.116 18.0569C25.9441 16.5763 26.0144 15.0959 25.948 13.6114C25.8895 12.2636 25.7409 10.92 25.5065 9.59172C25.4049 9.00582 25.2838 8.42762 25.143 7.84943L25.1392 7.82993C25.0807 7.47825 24.9788 7.13066 24.8773 6.78692C24.8108 6.5604 24.7367 6.33389 24.6623 6.10329C24.4904 5.59947 24.2675 5.11491 23.9823 4.65395C23.6383 4.09934 23.2594 3.56014 22.8179 3.07967C22.5561 2.79443 22.2749 2.52507 21.9584 2.30241C21.9584 2.30241 21.6654 2.11874 21.4661 2.22418C21.4661 2.22418 21.2042 2.40784 21.4817 2.97809C21.4817 2.97809 21.552 3.09147 21.6341 3.28669C21.6811 3.39597 21.7318 3.5327 21.7788 3.68916C21.8219 3.82974 21.857 3.98211 21.8842 4.14628C22.103 5.31832 22.2593 7.84173 21.3332 12.6584L21.3255 12.6741C21.2434 13.3733 21.1537 14.0726 21.0326 14.7678C20.6496 17.0218 20.2784 19.5804 20.2158 22.2369C20.2158 22.3542 20.2315 22.6979 20.2276 22.7682C20.2002 25.1315 20.6534 40.6244 36.6783 45.5034C36.6041 45.8353 36.5336 46.1557 36.4828 46.4643C35.4003 53.2965 35.799 56.1757 35.799 56.1757L35.8066 56.246C32.5281 57.4804 28.8199 59.1444 24.9124 61.379C20.5398 63.7736 15.7961 67.0314 11.1539 71.477C10.2825 72.3168 9.46577 73.141 8.69211 73.9614C8.5046 74.1566 8.31708 74.3559 8.12932 74.5554L8.09418 74.5942C5.64419 77.231 3.79599 79.6608 2.45569 81.6375C9.69637 76.4111 21.0087 74.8443 24.4668 74.6407C28.093 74.43 31.766 73.8095 31.766 73.8095C31.766 73.8095 33.2002 74.5747 34.9117 74.9497C36.8538 75.3794 38.8856 74.7622 38.8856 74.7622C39.6164 78.5202 42.2578 80.9344 42.9494 81.4769C42.7696 82.6064 42.9532 86.3329 44.2232 88.4035C45.591 90.6339 47.8493 92.1379 47.8493 92.1379C47.8493 92.1379 47.6931 94.1575 48.2244 95.603C48.7559 97.0483 49.9905 98.3647 49.9905 98.3647C49.9905 98.3647 49.4277 99.31 49.3536 100.498C49.2794 101.685 49.9905 102.345 49.9905 102.345C49.9905 102.345 49.3459 103.173 49.2363 103.818C49.1304 104.467 49.5293 105.439 49.5293 105.439C49.5293 105.439 49.1386 106.15 49.0252 106.697C48.908 107.248 49.2363 107.924 49.2363 107.924C48.9744 108.435 48.1974 110.838 49.3418 111.803C50.4828 112.767 51.9051 110.967 51.9051 110.967C52.3428 110.838 53.167 110.295 53.5576 109.685C54.0386 108.939 54.0386 108.244 54.0386 108.244C54.0386 108.244 54.6522 107.845 55.1832 106.83C55.6215 106.005 55.5587 105.462 55.5587 105.462C55.5587 105.462 58.04 102.857 58.5558 99.6027C58.9971 96.8292 58.3445 94.2702 58.3445 94.2702C58.3445 94.2702 60.2088 91.4346 60.1229 88.1921C61.3929 87.3051 64.4562 85.3171 68.2701 83.8331C68.3796 86.0202 68.7234 87.9148 68.0395 91.4307C67.1838 95.8059 63.288 99.0055 63.288 99.0055C68.7308 98.4196 72.3613 93.6181 73.7993 90.1496C74.9754 87.321 76.0461 83.3208 76.5425 81.5082C81.8524 80.477 86.7021 80.2036 88.312 79.9616C90.4454 79.641 90.9808 79.1644 91.0316 78.364C91.0862 77.5629 90.8712 76.1213 90.7107 75.1604H90.7116ZM81.4083 54.9683C81.4083 54.9683 80.0836 54.4604 78.3642 54.7418C76.6409 55.0229 75.965 55.3628 74.8084 55.5036L74.7968 55.5231C75.7621 55.8394 77.3407 55.8161 78.2783 55.9803C78.7311 56.0623 79.1968 56.3163 79.5678 56.5623L79.0832 58.7266C78.0048 59.3009 76.258 60.395 74.9213 62.0552C74.8197 62.1798 74.722 62.3168 74.6324 62.461C74.5893 62.5195 74.5503 62.5821 74.5152 62.6485C74.4639 62.7306 74.4175 62.8127 74.3746 62.8945C74.32 62.9923 74.2687 63.0938 74.2184 63.1993C74.1676 63.3008 74.1207 63.4024 74.0778 63.504C73.8864 63.9332 73.7338 64.3634 73.6207 64.7271L73.5819 64.8518C73.496 65.1365 73.4337 65.3712 73.3942 65.5315L73.3785 65.5937L73.367 65.6408L73.3511 65.715L73.3472 65.735C73.3706 65.6955 73.4919 65.4767 73.6953 65.1604L73.8434 64.9339C74.234 64.348 74.8281 63.5353 75.5356 62.8401C75.6333 62.7424 75.7344 62.6449 75.8365 62.5549C76.0435 62.371 76.2543 62.1993 76.4736 62.047C78.0602 60.9455 78.9 60.5196 79.3803 60.0707C79.4667 59.9804 79.5372 59.8827 79.5998 59.7852C80.0179 59.2771 80.2052 57.4609 80.2408 57.0743V57.0625L80.2483 56.9961C80.2521 56.9296 80.2524 56.875 80.2524 56.8398V56.8008C80.2249 56.5469 79.7168 55.8125 79.4354 55.4767C79.4354 55.4767 80.2521 55.0237 81.4088 54.9688L81.4083 54.9683ZM81.4083 54.9683C81.4083 54.9683 80.0836 54.4604 78.3642 54.7418C76.6409 55.0229 75.965 55.3628 74.8084 55.5036L74.7968 55.5231C75.7621 55.8394 77.3407 55.8161 78.2783 55.9803C78.7311 56.0623 79.1968 56.3163 79.5678 56.5623L79.0832 58.7266C78.0048 59.3009 76.258 60.395 74.9213 62.0552C74.8197 62.1798 74.722 62.3168 74.6324 62.461C74.5893 62.5195 74.5503 62.5821 74.5152 62.6485C74.4639 62.7306 74.4175 62.8127 74.3746 62.8945C74.32 62.9923 74.2687 63.0938 74.2184 63.1993C74.1676 63.3008 74.1207 63.4024 74.0778 63.504C73.8864 63.9332 73.7338 64.3634 73.6207 64.7271L73.5819 64.8518C73.496 65.1365 73.4337 65.3712 73.3942 65.5315L73.3785 65.5937L73.367 65.6408L73.3511 65.715L73.3472 65.735C73.3706 65.6955 73.4919 65.4767 73.6953 65.1604L73.8434 64.9339C74.234 64.348 74.8281 63.5353 75.5356 62.8401C75.6333 62.7424 75.7344 62.6449 75.8365 62.5549C76.0435 62.371 76.2543 62.1993 76.4736 62.047C78.0602 60.9455 78.9 60.5196 79.3803 60.0707C79.4667 59.9804 79.5372 59.8827 79.5998 59.7852C80.0179 59.2771 80.2052 57.4609 80.2408 57.0743V57.0625L80.2483 56.9961C80.2521 56.9296 80.2524 56.875 80.2524 56.8398V56.8008C80.2249 56.5469 79.7168 55.8125 79.4354 55.4767C79.4354 55.4767 80.2521 55.0237 81.4088 54.9688L81.4083 54.9683ZM81.4083 54.9683C81.4083 54.9683 80.0836 54.4604 78.3642 54.7418C76.6409 55.0229 75.965 55.3628 74.8084 55.5036L74.7968 55.5231C75.7621 55.8394 77.3407 55.8161 78.2783 55.9803C78.7311 56.0623 79.1968 56.3163 79.5678 56.5623L79.0832 58.7266C78.0048 59.3009 76.258 60.395 74.9213 62.0552C74.8197 62.1798 74.722 62.3168 74.6324 62.461C74.5893 62.5195 74.5503 62.5821 74.5152 62.6485C74.4639 62.7306 74.4175 62.8127 74.3746 62.8945C74.32 62.9923 74.2687 63.0938 74.2184 63.1993C74.1676 63.3008 74.1207 63.4024 74.0778 63.504C73.8864 63.9332 73.7338 64.3634 73.6207 64.7271L73.5819 64.8518C73.496 65.1365 73.4337 65.3712 73.3942 65.5315L73.3785 65.5937L73.367 65.6408L73.3511 65.715L73.3472 65.735C73.3706 65.6955 73.4919 65.4767 73.6953 65.1604L73.8434 64.9339C74.234 64.348 74.8281 63.5353 75.5356 62.8401C75.6333 62.7424 75.7344 62.6449 75.8365 62.5549C76.0435 62.371 76.2543 62.1993 76.4736 62.047C78.0602 60.9455 78.9 60.5196 79.3803 60.0707C79.4667 59.9804 79.5372 59.8827 79.5998 59.7852C80.0179 59.2771 80.2052 57.4609 80.2408 57.0743V57.0625L80.2483 56.9961C80.2521 56.9296 80.2524 56.875 80.2524 56.8398V56.8008C80.2249 56.5469 79.7168 55.8125 79.4354 55.4767C79.4354 55.4767 80.2521 55.0237 81.4088 54.9688L81.4083 54.9683ZM81.4083 54.9683C81.4083 54.9683 80.0836 54.4604 78.3642 54.7418C76.6409 55.0229 75.965 55.3628 74.8084 55.5036L74.7968 55.5231C75.7621 55.8394 77.3407 55.8161 78.2783 55.9803C78.7311 56.0623 79.1968 56.3163 79.5678 56.5623L79.0832 58.7266C78.0048 59.3009 76.258 60.395 74.9213 62.0552C74.8197 62.1798 74.722 62.3168 74.6324 62.461C74.5893 62.5195 74.5503 62.5821 74.5152 62.6485C74.4639 62.7306 74.4175 62.8127 74.3746 62.8945C74.32 62.9923 74.2687 63.0938 74.2184 63.1993C74.1676 63.3008 74.1207 63.4024 74.0778 63.504C73.8864 63.9332 73.7338 64.3634 73.6207 64.7271L73.5819 64.8518C73.496 65.1365 73.4337 65.3712 73.3942 65.5315L73.3785 65.5937L73.367 65.6408L73.3511 65.715L73.3472 65.735C73.3706 65.6955 73.4919 65.4767 73.6953 65.1604L73.8434 64.9339C74.234 64.348 74.8281 63.5353 75.5356 62.8401C75.6333 62.7424 75.7344 62.6449 75.8365 62.5549C76.0435 62.371 76.2543 62.1993 76.4736 62.047C78.0602 60.9455 78.9 60.5196 79.3803 60.0707C79.4667 59.9804 79.5372 59.8827 79.5998 59.7852C80.0179 59.2771 80.2052 57.4609 80.2408 57.0743V57.0625L80.2483 56.9961C80.2521 56.9296 80.2524 56.875 80.2524 56.8398V56.8008C80.2249 56.5469 79.7168 55.8125 79.4354 55.4767C79.4354 55.4767 80.2521 55.0237 81.4088 54.9688L81.4083 54.9683ZM81.4083 54.9683C81.4083 54.9683 80.0836 54.4604 78.3642 54.7418C76.6409 55.0229 75.965 55.3628 74.8084 55.5036L74.7968 55.5231C75.7621 55.8394 77.3407 55.8161 78.2783 55.9803C78.7311 56.0623 79.1968 56.3163 79.5678 56.5623L79.0832 58.7266C78.0048 59.3009 76.258 60.395 74.9213 62.0552C74.8197 62.1798 74.722 62.3168 74.6324 62.461C74.5893 62.5195 74.5503 62.5821 74.5152 62.6485C74.4639 62.7306 74.4175 62.8127 74.3746 62.8945C74.32 62.9923 74.2687 63.0938 74.2184 63.1993C74.1676 63.3008 74.1207 63.4024 74.0778 63.504C73.8864 63.9332 73.7338 64.3634 73.6207 64.7271L73.5819 64.8518C73.496 65.1365 73.4337 65.3712 73.3942 65.5315L73.3785 65.5937L73.367 65.6408L73.3511 65.715L73.3472 65.735C73.3706 65.6955 73.4919 65.4767 73.6953 65.1604L73.8434 64.9339C74.234 64.348 74.8281 63.5353 75.5356 62.8401C75.6333 62.7424 75.7344 62.6449 75.8365 62.5549C76.0435 62.371 76.2543 62.1993 76.4736 62.047C78.0602 60.9455 78.9 60.5196 79.3803 60.0707C79.4667 59.9804 79.5372 59.8827 79.5998 59.7852C80.0179 59.2771 80.2052 57.4609 80.2408 57.0743V57.0625L80.2483 56.9961C80.2521 56.9296 80.2524 56.875 80.2524 56.8398V56.8008C80.2249 56.5469 79.7168 55.8125 79.4354 55.4767C79.4354 55.4767 80.2521 55.0237 81.4088 54.9688L81.4083 54.9683ZM81.4083 54.9683C81.4083 54.9683 80.0836 54.4604 78.3642 54.7418C76.6409 55.0229 75.965 55.3628 74.8084 55.5036L74.7968 55.5231C75.7621 55.8394 77.3407 55.8161 78.2783 55.9803C78.7311 56.0623 79.1968 56.3163 79.5678 56.5623L79.0832 58.7266C78.0048 59.3009 76.258 60.395 74.9213 62.0552C74.8197 62.1798 74.722 62.3168 74.6324 62.461C74.5893 62.5195 74.5503 62.5821 74.5152 62.6485C74.4639 62.7306 74.4175 62.8127 74.3746 62.8945C74.32 62.9923 74.2687 63.0938 74.2184 63.1993C74.1676 63.3008 74.1207 63.4024 74.0778 63.504C73.8864 63.9332 73.7338 64.3634 73.6207 64.7271L73.5819 64.8518C73.496 65.1365 73.4337 65.3712 73.3942 65.5315L73.3785 65.5937L73.367 65.6408L73.3511 65.715L73.3472 65.735C73.3706 65.6955 73.4919 65.4767 73.6953 65.1604L73.8434 64.9339C74.234 64.348 74.8281 63.5353 75.5356 62.8401C75.6333 62.7424 75.7344 62.6449 75.8365 62.5549C76.0435 62.371 76.2543 62.1993 76.4736 62.047C78.0602 60.9455 78.9 60.5196 79.3803 60.0707C79.4667 59.9804 79.5372 59.8827 79.5998 59.7852C80.0179 59.2771 80.2052 57.4609 80.2408 57.0743V57.0625L80.2483 56.9961C80.2521 56.9296 80.2524 56.875 80.2524 56.8398V56.8008C80.2249 56.5469 79.7168 55.8125 79.4354 55.4767C79.4354 55.4767 80.2521 55.0237 81.4088 54.9688L81.4083 54.9683Z" fill="black"/>
<path d="M91.0329 78.3641C90.9821 79.1644 90.4467 79.6411 88.3133 79.9617C86.7034 80.2036 81.8537 80.4771 76.5438 81.5083C76.0475 83.3209 74.977 87.321 73.8006 90.1497C72.3626 93.6181 68.7322 98.4194 63.2894 99.0056C63.2894 99.0056 67.1851 95.8057 68.0408 91.4308C68.7247 87.9149 68.3807 86.0205 68.2714 83.8331C64.4578 85.3171 61.3942 87.3052 60.1242 88.1922C60.2101 91.4346 58.3458 94.2702 58.3458 94.2702C58.3458 94.2702 58.9984 96.8293 58.5572 99.6028C58.0413 102.857 55.56 105.462 55.56 105.462C55.56 105.462 55.6229 106.006 55.1845 106.83C54.6535 107.845 54.0399 108.244 54.0399 108.244C54.0399 108.244 54.0399 108.939 53.559 109.685C53.1683 110.295 52.3441 110.838 51.9065 110.967C51.9065 110.967 50.4841 112.767 49.3431 111.803C48.1985 110.838 48.9758 108.435 49.2377 107.924C49.2377 107.924 48.9093 107.248 49.0266 106.697C49.1399 106.15 49.5306 105.439 49.5306 105.439C49.5306 105.439 49.1317 104.467 49.2377 103.818C49.3472 103.174 49.9918 102.345 49.9918 102.345C49.9918 102.345 49.2808 101.685 49.3549 100.498C49.429 99.3103 49.9918 98.3648 49.9918 98.3648C49.9918 98.3648 48.757 97.0483 48.2257 95.6031C47.6942 94.1578 47.8507 92.138 47.8507 92.138C47.8507 92.138 45.592 90.634 44.2245 88.4035C42.9545 86.3331 42.7709 82.6064 42.9507 81.477C42.2591 80.9344 39.6175 78.5203 38.887 74.7623C38.887 74.7623 36.8551 75.3794 34.913 74.9498C33.2015 74.5747 31.7673 73.8095 31.7673 73.8095C31.7673 73.8095 28.0943 74.4303 24.4682 74.6407C21.0101 74.8441 9.69769 76.4111 2.45701 81.6375C3.79731 79.6608 5.64551 77.231 8.0955 74.5942L8.13065 74.5555C8.31816 74.3559 8.50568 74.1566 8.69343 73.9614C9.46709 73.141 10.2838 72.3168 11.1552 71.477C15.7974 67.0315 20.5412 63.7737 24.9137 61.379C28.8212 59.1445 32.5294 57.4804 35.808 56.246L35.8003 56.1757C35.8003 56.1757 35.4016 53.2968 36.4841 46.4644C36.5349 46.1558 36.6052 45.8354 36.6796 45.5034C20.6548 40.6244 20.2015 25.1315 20.2289 22.7682C20.2328 22.6979 20.2172 22.3542 20.2172 22.237C20.2797 19.5807 20.6509 17.0219 21.0339 14.7678C21.155 14.0724 21.245 13.3731 21.3268 12.6741L21.3345 12.6585C22.2606 7.84177 22.1044 5.31836 21.8855 4.14632C21.8581 3.98215 21.823 3.83002 21.7801 3.6892C21.7332 3.53298 21.6824 3.39626 21.6354 3.28673C21.5534 3.09151 21.4831 2.97813 21.4831 2.97813C21.2055 2.40788 21.4674 2.22422 21.4674 2.22422C21.6667 2.11878 21.9597 2.30245 21.9597 2.30245C22.2762 2.52511 22.5576 2.79471 22.8193 3.07972C23.2607 3.56018 23.6399 4.09938 23.9836 4.65399C24.2689 5.11496 24.4915 5.59927 24.6636 6.10333C24.7378 6.33369 24.8121 6.56044 24.8786 6.78696C24.9802 7.1307 25.0817 7.47829 25.1405 7.82997L25.1443 7.84947C25.2849 8.42766 25.4062 9.00586 25.5078 9.59176C25.7423 10.92 25.8908 12.2637 25.9493 13.6114C26.0157 15.0959 25.9454 16.5763 26.1173 18.057L26.1914 18.7054C26.805 24.108 30.1497 29.2136 34.5105 31.4091C37.2224 32.9326 39.774 33.0303 42.5172 32.7725L42.0872 32.3467C42.0442 32.3077 41.9975 32.2646 41.9505 32.2256C40.6259 31.0459 38.6486 28.995 37.453 26.4052C35.5304 22.2449 36.3082 15.7642 35.722 11.6585C35.1359 7.54906 33.565 4.52159 33.397 4.27149C33.2172 4.00574 33.0727 3.75203 33.2915 3.57607C33.5142 3.39626 33.6589 3.52143 34.0888 3.89646C34.8391 4.5488 37.3594 6.77949 39.106 10.8851C40.1728 13.3931 39.9227 16.4516 41.9351 20.0065C42.9745 21.8424 45.2408 23.4128 47.3979 24.5808C47.4292 24.53 47.4605 24.4754 47.4838 24.4323C47.8786 23.6902 48.1051 22.7721 48.2341 21.9946C48.3709 21.393 48.4296 20.8461 48.406 20.3851C48.406 20.3851 64.0402 21.8812 73.215 30.1473C82.3903 38.4132 84.6602 47.5346 84.926 50.363C84.926 50.363 88.263 49.8512 89.1149 48.6089C89.1149 48.6089 89.0992 50.0816 88.4585 51.8942C87.8172 53.7106 85.7545 54.3629 85.9146 54.4137C86.0749 54.4684 86.5007 55.7497 86.5007 56.7614C86.5007 57.777 86.6062 58.6286 87.3526 59.1091C88.0991 59.5896 88.794 60.2262 88.794 60.6013C88.794 60.9763 88.4192 61.988 88.2591 62.5739C88.2591 62.5739 90.1817 64.7615 90.7127 67.5902C90.7127 67.5902 89.1149 68.23 88.314 68.6563C88.314 68.6563 88.314 70.2582 87.4075 72.8166C87.4075 72.8166 88.6344 73.137 89.1151 73.2419C89.5958 73.3478 90.557 74.2033 90.713 75.1604C90.8735 76.1213 91.0885 77.5627 91.0339 78.3641H91.0329ZM92.0567 74.9729C91.8104 73.4845 90.4624 72.1837 89.411 71.9493C89.3371 71.9336 89.2393 71.9141 89.1339 71.8872C89.4073 70.9024 89.54 70.1167 89.6064 69.5664C90.2125 69.2891 90.9202 69 91.2245 68.8785L92.26 68.4608L92.053 67.367C91.6267 65.1091 90.4431 63.2419 89.7667 62.32C90.0099 61.5504 90.154 61.0504 90.154 60.6251C90.154 59.7576 89.4586 58.8708 88.0909 57.9917C87.9814 57.9219 87.8564 57.7221 87.8564 56.7807C87.8564 56.765 87.8408 55.8821 87.6102 54.9837C88.3525 54.4799 89.2822 53.6516 89.7398 52.3626C90.1969 51.0656 90.369 49.9172 90.4352 49.2492C90.4703 48.886 90.4191 48.0148 90.4191 48.0148L90.2787 46.3351C90.2787 46.3351 89.4348 47.0069 88.9661 47.3663C88.8407 47.46 88.7468 47.5305 88.6958 47.5615C88.6294 47.6123 88.5555 47.6593 88.4852 47.7021C88.141 47.9091 87.7585 48.0733 87.5943 48.1592C87.2265 48.3586 86.6683 48.5694 86.0544 48.7413C85.1717 44.1747 81.9363 36.1861 74.1133 29.139C64.704 20.662 49.1633 19.0918 48.5073 19.0254L47.0498 18.8886C47.0498 18.8886 47.0185 21.0724 46.8813 21.6934L46.8661 21.7637C46.8154 22.0646 46.7566 22.3496 46.6861 22.6154C44.9164 21.5098 43.6815 20.3888 43.0838 19.3301C41.978 17.3769 41.6186 15.5839 41.2746 13.8534C41.0324 12.6267 40.798 11.4626 40.3211 10.3375C39.0629 7.38417 37.2537 4.86461 34.9443 2.85272C34.5262 2.49334 34.1003 2.1183 33.4439 2.1183C33.182 2.1183 32.7913 2.18474 32.3968 2.50104C32.1154 2.7314 31.2715 3.58305 32.2131 4.97775C32.2288 5.0011 33.7646 7.80999 34.3389 11.8335C34.5303 13.1577 34.5695 14.7907 34.6123 16.5173C34.6983 20.0135 34.7999 23.9708 36.1832 26.9708C36.7927 28.2873 37.5782 29.4709 38.3988 30.4983C38.4809 30.5999 38.7936 30.928 38.8482 30.9944C38.9888 31.1586 39.1334 31.3225 39.274 31.4787C37.7619 31.3497 36.4644 30.9513 35.1751 30.2287L35.1205 30.1974C31.1504 28.1973 28.1025 23.5173 27.5399 18.5485L27.4658 17.9C27.3603 17.0212 27.3524 16.1305 27.3409 15.1891C27.337 14.654 27.3291 14.1032 27.3057 13.5484C27.2431 12.1578 27.0907 10.7474 26.8445 9.35682C26.7429 8.77092 26.6177 8.18093 26.481 7.60274L26.4692 7.55965C26.3951 7.13383 26.2779 6.73159 26.1801 6.40735C26.1098 6.16134 26.0316 5.91894 25.9495 5.67678C25.7464 5.06729 25.4768 4.48525 25.1407 3.94244C24.6952 3.21981 24.2732 2.65341 23.8161 2.1573C23.4567 1.76662 23.105 1.45032 22.7454 1.19637L22.6907 1.16122C22.5384 1.05964 22.1241 0.83313 21.6082 0.83313C21.3348 0.83313 21.0729 0.895715 20.8346 1.02065L20.6822 1.11428C20.0843 1.53626 19.7249 2.46204 20.2641 3.5715L20.3149 3.66513C20.3267 3.68463 20.3539 3.73927 20.389 3.81751C20.4203 3.89165 20.4516 3.98167 20.4829 4.07916C20.5103 4.1651 20.5298 4.26283 20.5532 4.39546C20.733 5.36024 20.901 7.66123 20.0258 12.2786L19.9788 12.5169C19.8811 13.3373 19.7952 13.9583 19.6974 14.5365C19.3224 16.7475 18.9276 19.3843 18.8612 22.2047C18.8612 22.2906 18.8651 22.4705 18.8689 22.6187L18.8728 22.7516C18.8533 24.6188 19.1385 40.803 35.1164 46.4165L35.1282 46.4203L35.0774 46.4398C34.3507 51.0923 34.2999 53.9597 34.3466 55.358C30.8806 56.7174 27.4694 58.3504 24.2145 60.2137C19.119 63.0029 14.3909 66.4757 10.1591 70.5305C9.30341 71.3545 8.48281 72.1794 7.65451 73.0541C7.45905 73.2573 7.26769 73.4605 7.09967 73.6444L7.04502 73.7026C4.95057 75.9569 3.05928 78.3082 1.42218 80.6913C1.37139 80.7654 1.22287 81.0037 1.16437 81.1443C0.976857 81.5735 0.777545 82.3982 1.16822 82.832C1.40268 83.0936 1.86365 83.3163 2.73503 82.9453C2.77812 82.9335 2.94614 82.8671 3.00849 82.832C3.1765 82.7383 3.42661 82.5819 3.50869 82.519C8.79959 78.4724 20.9518 76.2376 24.4999 76.0308C27.4735 75.8551 30.4237 75.4211 31.518 75.2495C32.1118 75.5311 33.2725 76.0195 34.5815 76.3081C35.1364 76.4292 35.7343 76.4918 36.3633 76.4918C36.9104 76.4918 37.4222 76.4453 37.8598 76.3825C38.7664 79.2458 40.5717 81.2108 41.5095 82.0898C41.451 83.8165 41.744 87.0553 43.0373 89.1565C44.0924 90.8793 45.6007 92.1957 46.4408 92.8524C46.4408 93.6764 46.5111 95.001 46.9254 96.1218C47.2927 97.1258 47.914 98.036 48.3749 98.6332C48.1951 99.1141 48.0156 99.7513 47.9725 100.466C47.9217 101.27 48.1092 101.919 48.3437 102.403C48.1405 102.77 47.9489 103.212 47.8747 103.653C47.7732 104.259 47.8981 104.919 48.0389 105.403C47.8983 105.712 47.7498 106.107 47.6672 106.482C47.5582 107.021 47.648 107.56 47.7611 107.962C47.3435 109.177 46.8859 111.595 48.4375 112.904C48.9064 113.298 49.4695 113.506 50.0631 113.506C51.2549 113.506 52.2235 112.658 52.689 112.166C53.3806 111.842 54.2087 111.209 54.6783 110.482C55.0336 109.931 55.2055 109.4 55.2914 108.998C55.6041 108.685 56.0022 108.209 56.3616 107.525C56.6668 106.947 56.8036 106.451 56.862 106.076C57.538 105.267 59.0347 103.283 59.683 100.81L59.8358 100.126C59.8515 100.044 59.8671 99.9581 59.8784 99.8683C60.234 97.6255 59.9454 95.5323 59.7617 94.5555C60.2891 93.6102 61.3246 91.4577 61.4498 88.9615C62.5947 88.1997 64.5914 86.9694 67.0298 85.8638C67.1237 87.3559 67.1514 88.8912 66.6976 91.2194C66.1389 94.0632 64.064 96.415 63.0207 97.4462C62.6577 97.8017 61.7625 98.8173 61.7625 98.8173C61.7625 98.8173 61.419 99.1064 61.4855 99.6962C61.4891 99.7313 61.5167 99.8329 61.5437 99.907C61.5555 99.934 61.6178 100.024 61.6453 100.048C62.1416 100.528 63.5053 100.352 63.5053 100.352C69.3782 99.7234 73.3558 94.7897 75.048 90.7153C76.1031 88.1763 77.0565 84.7894 77.6227 82.7229C81.0266 82.1057 84.1759 81.7971 86.3134 81.5865C87.2669 81.4924 88.0211 81.4182 88.5172 81.34C89.8185 81.1486 92.241 80.7854 92.3934 78.4883C92.4442 77.7577 92.3349 76.641 92.0574 74.9724L92.0567 74.9729Z" fill="#FFFFFE"/>
</svg>
