<svg width="106" height="80" viewBox="0 0 106 80" fill="none" xmlns="http://www.w3.org/2000/svg">
<mask id="mask0_2056_26" style="mask-type:alpha" maskUnits="userSpaceOnUse" x="0" y="0" width="106" height="80">
<rect width="105.611" height="80" fill="#D9D9D9"/>
</mask>
<g mask="url(#mask0_2056_26)">
<path d="M104.093 62.8816C104.095 63.0133 104.098 66.2888 104.098 66.4187C104.098 75.3236 98.0938 78.141 95.4688 78.9436C93.5512 79.4862 91.269 79.76 88.8449 79.8849H9.18473V63.515L82.6802 63.5184C84.6754 63.4693 85.9314 62.8203 86.502 61.5849C86.7317 60.936 86.794 60.4153 86.794 59.5823V56.089C85.6209 56.8716 83.5393 57.5271 83.5393 57.5271C79.034 59.1192 70.6865 57.8719 67.2481 55.1475C63.8297 53.204 61.1391 49.0582 60.8589 44.5254V16.9962C60.8589 15.8149 59.9034 14.8565 58.7269 14.8565H54.343V0.778353H78.1054L78.0816 38.3564C78.0748 40.6025 80.0803 42.4127 82.4486 42.4127C83.2724 42.4127 84.037 42.1912 84.6936 41.8128C85.8263 41.1622 86.6197 40.0399 86.7868 38.725C86.8022 38.5595 86.8122 38.3937 86.8172 38.2247C86.841 37.7988 86.8492 37.3645 86.8492 36.9283V0.778353H104.049L104.092 62.8808L104.093 62.8816ZM53.5008 43.4376H57.1504L57.4831 43.4392V56.9816H41.7236C38.6041 56.9816 35.9538 55.0078 34.9241 52.2395C34.6305 51.4519 34.465 50.6036 34.465 49.7112V19.1855C34.4127 16.9832 32.5405 15.2121 30.2348 15.2121C27.8934 15.2121 25.9961 17.0308 25.9961 19.2716H25.9945L25.9911 19.6652V57.0896H9.19159V17.0374C9.19159 15.8577 8.23951 14.8977 7.05799 14.8977H1.32043L1.32545 0.779145H25.9826V3.46641C29.9934 0.397363 35.8931 -0.696235 41.3759 0.691224C44.8415 1.59551 47.4139 3.20766 49.4414 6.16528C50.4119 7.58495 50.8948 9.01967 51.1396 10.1318C51.2829 10.7842 51.3421 11.3249 51.364 11.6816V23.8854L51.3606 27.115C51.3606 27.115 51.364 27.8838 51.364 29.1261V39.3948C51.364 39.9086 51.364 40.419 51.3606 40.9159L51.364 41.0054V41.3011C51.364 42.4824 52.3227 43.4374 53.501 43.4374L53.5008 43.4376Z" fill="#A71930"/>
<path d="M68.418 53.0828C65.5417 51.4468 63.4619 47.9686 63.2322 44.4195V16.997C63.2322 14.5093 61.2116 12.4829 58.7269 12.4829H56.7147V3.15563H75.7323C75.7289 7.32487 75.7069 38.3712 75.7069 38.3778C75.7069 40.0137 76.367 41.5754 77.557 42.7736C78.833 44.0581 80.6157 44.7897 82.4489 44.7897C83.6507 44.7897 84.8357 44.4736 85.8757 43.8754C87.6666 42.8412 88.8887 41.0276 89.1388 39.0215L89.1488 38.9539L89.1892 38.3456L89.2211 36.9294V3.15537H101.681C101.684 7.54771 101.723 66.4187 101.723 66.4187C101.723 73.4849 97.3677 75.878 94.7731 76.6756C93.0867 77.1488 90.992 77.3938 88.7636 77.5105C88.6083 77.5105 16.0093 77.5189 11.5543 77.5105V65.8949H82.6799C86.4037 65.8035 87.9786 64.0443 88.6537 62.5859L88.7044 62.4795L88.7398 62.3712C89.0944 61.3639 89.1636 60.5544 89.1636 59.5826V51.6393L85.472 54.1119C84.8322 54.5447 83.5087 55.0466 82.8217 55.2647L82.7491 55.2866C79.0371 56.603 71.5591 55.5334 68.7182 53.2839L68.578 53.1741L68.4177 53.0828H68.418ZM48.9938 41.3014C48.9938 43.789 51.016 45.8154 53.5007 45.8154H55.1079V54.6054H41.7233C39.6959 54.6054 37.8593 53.3228 37.1488 51.4112C36.9413 50.8567 36.8365 50.2822 36.8365 49.7111V19.1855C36.7572 15.6618 33.7962 12.8377 30.2345 12.8377C26.5901 12.8377 23.6259 15.7243 23.6225 19.2718C23.6209 19.2565 23.619 19.652 23.619 19.652V54.7136H11.5631V17.0373C11.5631 14.5478 9.54404 12.5233 7.05771 12.5233H3.69348L3.69507 3.15537H23.6122V8.27616L27.4236 5.35418C30.9009 2.69411 36.0243 1.78639 40.7945 2.99484C43.8567 3.79431 45.8638 5.14639 47.4825 7.51075C48.1223 8.44197 48.5714 9.4949 48.8227 10.6424C48.8227 10.6424 48.9764 11.7003 48.9933 11.8067V23.8854L48.9899 27.11L48.9933 29.1313V39.3951L48.9899 40.9634L48.9933 41.0648V41.3014H48.9938Z" fill="#FFFFFE"/>
</g>
</svg>
