<svg width="110" height="110" viewBox="0 0 110 110" fill="none" xmlns="http://www.w3.org/2000/svg">
<path fill-rule="evenodd" clip-rule="evenodd" d="M63.7012 23.8928L58.5764 29.2641C66.9712 25.776 85.2769 19.7876 85.2769 19.7876L79.4117 25.5251C95.421 20.7851 107.587 18.5392 107.587 18.5392C107.587 18.5392 104.061 26.7433 98.7947 34.959C99.8135 34.8491 106.463 34.0741 106.463 34.0741C106.463 34.0741 100.475 43.9939 93.56 51.1439L97.4302 52.1068C97.4302 52.1068 91.4001 60.7968 83.4415 67.89C71.9967 78.0891 66.1076 76.5224 66.1076 76.5224C57.6117 82.6757 50.8023 79.5574 50.8023 79.5574C50.8023 79.5574 53.7442 72.1326 50.7047 71.3443C47.965 70.6324 43.7969 72.7745 43.2764 73.6337C42.7356 75.5072 40.4578 80.2649 38.1046 83.1447C33.5925 88.665 28.5891 90.9215 28.5891 90.9215C28.5891 90.9215 24.648 87.5585 24.6222 81.8334C24.6222 81.8334 21.9153 84.7008 17.5087 85.638C14.424 86.2941 10.2142 85.7612 5.90157 82.1606C3.00578 79.7436 2.45251 71.621 2.45251 71.621C2.45251 71.621 5.17363 66.4226 10.4217 61.867C9.26019 60.8704 8.54821 59.6167 8.32478 58.8426C22.2744 52.754 22.2842 46.942 33.3743 39.8763C44.3005 32.9153 51.1667 29.7145 63.7012 23.8928Z" fill="white"/>
<path fill-rule="evenodd" clip-rule="evenodd" d="M56.9057 28.8234L52.523 33.4171C61.1784 29.5859 79.4566 23.3634 79.4566 23.3634L74.1518 28.553C92.8929 22.7507 104.779 20.785 104.779 20.785C104.779 20.785 100.895 29.4423 95.7257 36.7961C98.2287 36.5558 103.449 35.9494 103.449 35.9494C103.449 35.9494 98.2287 44.6961 90.5131 52.105C91.3705 52.2309 94.8719 53.0297 94.8719 53.0297C94.8719 53.0297 90.2188 59.9341 82.1317 67.0157C71.8084 76.0542 67.2289 74.984 67.2289 74.984C67.2289 74.984 67.3282 74.6311 67.3184 74.0823C67.3113 73.7791 67.2466 73.5042 67.244 73.482C59.2969 80.9609 52.6763 78.4375 52.6763 78.4375C52.6763 78.4375 55.6156 71.3213 51.107 69.8849C47.6145 68.773 42.2644 71.6316 41.838 73.1628C41.3742 74.828 39.1559 79.4492 36.9561 82.157C33.14 86.8553 28.916 88.9992 28.916 88.9992C28.916 88.9992 25.0759 86.0449 26.4076 77.3984C26.6985 75.5142 26.3252 74.7783 26.1195 74.4618C25.4891 73.4971 20.5762 74.5495 19.3774 77.2902C18.5316 79.2257 23.4134 80.8616 23.4134 80.8616C23.4134 80.8616 21.1605 83.3469 17.2229 84.1519C14.7465 84.6582 10.9117 84.4969 6.88544 81.0106C4.50302 78.9482 4.00916 71.9694 4.00916 71.9694C4.00916 71.9694 6.95194 66.5786 12.6841 61.9228C11.5528 61.1825 10.6936 59.9278 10.4764 59.4349C22.0267 54.4599 23.6103 47.4252 36.6493 39.5642C42.7264 35.9006 49.1271 32.2955 56.9057 28.8234Z" fill="#004C54"/>
<path fill-rule="evenodd" clip-rule="evenodd" d="M100.566 23.8635C100.566 23.8635 98.1209 31.0524 92.926 38.3504C96.0639 38.1296 99.4464 37.9452 99.4464 37.9452C99.4464 37.9452 95.8094 45.2609 87.5973 53.0962C88.0601 53.192 89.9575 53.5351 91.0144 53.9731C87.0467 60.4084 75.1878 73.0449 68.5601 73.5645C68.4856 72.4562 68.0556 71.511 67.536 70.8593C65.049 75.4052 57.4548 78.1954 54.3019 77.4657C58.1304 63.4407 41.888 68.7846 40.6422 72.6344C37.4086 82.6313 29.2 87.335 29.2 87.335C29.2 87.335 26.5764 84.3461 27.7016 77.6147C28.5315 72.6521 25.3919 72.8064 25.3919 72.8064C24.1399 72.7488 19.3893 73.3215 17.8908 76.6367C16.6823 79.3064 20.9125 81.1808 20.9125 81.1808C20.9125 81.1808 14.8044 86.0573 7.73785 80.0131C6.00446 78.5306 5.35986 72.2709 5.35986 72.2709C8.75838 66.6371 13.2377 63.0542 15.0935 61.7224C13.126 60.9679 12.5133 59.9465 12.5133 59.9465C22.0013 55.5957 25.7226 48.3642 33.8 42.9902C42.701 37.0683 49.5149 34.1601 49.5149 34.1601L46.9436 37.3964C46.9436 37.3964 49.0964 36.476 50.0354 36.0159C58.5117 31.8557 72.8736 27.3223 72.8736 27.3223L68.3952 31.6606C68.3952 31.6606 75.8199 29.1177 85.175 27.1192C90.157 26.0544 100.566 23.8635 100.566 23.8635ZM32.3804 56.5958C32.2333 56.7794 32.0683 56.9886 31.8883 57.2103C32.4203 57.2165 32.8903 57.4248 33.1341 57.8318C33.5659 58.5518 33.1367 59.5998 32.1747 60.1743C31.2127 60.748 30.0831 60.6301 29.6504 59.9092C29.584 59.7993 29.5441 59.6796 29.5175 59.5563C29.3348 59.6858 29.1459 59.8055 28.9509 59.9145C28.9917 60.0546 29.0493 60.1921 29.1256 60.3197C29.7373 61.3367 31.297 61.5274 32.611 60.7427C33.925 59.9598 34.4942 58.5003 33.8833 57.4816C33.5739 56.9673 33.0206 56.6676 32.3804 56.5958Z" fill="black"/>
<path fill-rule="evenodd" clip-rule="evenodd" d="M67.3631 30.7075C67.3631 30.7075 65.2014 32.2547 63.7074 33.246C61.6806 34.591 59.886 35.8909 59.886 35.8909C59.886 35.8909 59.9649 35.8554 60.1112 35.7933C77.1277 30.4601 91.1837 32.1279 91.1837 32.1279C81.9848 33.0146 74.5458 34.763 70.5985 36.5665C70.5985 36.5665 76.0487 35.6302 78.8194 35.6302C81.5299 35.6302 83.7465 35.8935 83.7465 35.8935C66.4082 38.5987 57.0824 43.61 54.809 44.9595C53.863 45.362 53.3673 45.6129 53.3673 45.6129C53.3673 45.6129 56.1949 44.7272 59.7787 43.8388C66.0854 42.8714 75.3145 43.3919 84.2191 46.035C84.2191 46.035 78.0454 45.7078 75.3473 45.7681C67.2904 45.9472 58.9869 49.187 58.9869 49.187C64.2314 47.865 69.9805 48.8386 69.9805 48.8386C67.7452 48.9671 62.2489 50.4354 59.4905 51.5712C55.5166 53.208 51.5001 55.539 48.5732 57.6917C47.3896 58.394 46.7565 58.8568 46.7565 58.8568L46.7597 58.8551C46.8373 58.8137 48.3259 58.0239 50.7863 57.0746C55.0954 55.625 62.3934 54.3314 70.5 57.0542C58.0063 54.5654 48.1361 60.4173 48.1361 60.4173C55.2914 58.0792 59.8292 60.2834 59.8292 60.2834C51.1561 59.2292 44.6888 63.7937 42.4625 66.6407C43.7171 64.1075 45.5684 62.4743 45.5684 62.4743C45.1224 62.6942 44.6818 62.9469 44.2455 63.2262C42.4589 64.2547 35.1423 67.9706 28.7886 64.0233C28.394 63.7786 28.0624 63.5498 27.7752 63.3353C29.888 64.4418 33.3743 64.5358 34.8214 63.1118C29.755 64.4187 28.8551 62.1055 28.7469 60.6664C28.4198 60.7285 27.894 60.6886 27.5012 60.5973C27.5012 60.5973 28.3302 60.2453 28.7416 60.0325C28.8125 59.9961 28.8808 59.9545 28.9509 59.9146C28.9916 60.0547 29.0493 60.1921 29.1255 60.3198C29.7373 61.3368 31.2969 61.5274 32.6109 60.7427C33.9249 59.9598 34.4942 58.5004 33.8833 57.4816C33.5738 56.9674 33.0206 56.6677 32.3804 56.5958C32.8361 56.0665 33.713 54.8961 35.067 53.9226C34.0704 55.1178 33.7521 55.9264 33.7139 56.0284C34.3248 56.1242 34.8604 56.3857 35.1184 56.8707C35.6264 57.8212 35.2806 58.5678 35.0962 58.9499C35.0953 58.949 35.0944 58.949 35.0935 58.949C34.7549 59.6654 34.1253 60.3721 33.2777 60.9067C32.1304 61.6311 30.8731 61.8581 29.9483 61.5974C29.9483 61.5974 30.1141 61.8998 30.3828 62.078C30.8297 62.3768 32.1499 62.8121 34.0588 61.9494C34.7664 61.6293 35.2975 61.2658 35.7027 60.897C37.1382 59.8197 37.2942 58.4418 37.8067 57.2325C39.0152 54.3766 41.5111 51.9037 44.4193 50.877C41.6547 51.2139 38.274 53.7063 38.3724 52.5935C38.4185 52.0757 39.901 47.1415 48.982 43.3662C49.1478 43.3059 49.3118 43.2456 49.4821 43.1862C49.4821 43.1862 45.0728 43.8689 38.4282 47.8305C35.8153 49.3892 33.4674 51.5437 32.2793 53.1805C32.3316 52.105 32.9124 51.0623 33.2653 50.2404C30.7924 51.8328 31.4086 54.0494 29.5458 56.2102C28.7301 57.08 27.8709 57.9125 26.9594 58.5048C21.6937 61.9344 16.4952 59.8002 16.4952 59.8002C23.5521 55.9858 23.341 55.1267 27.9906 50.196C33.2032 44.6704 36.4058 41.8243 45.1783 37.5223C44.6046 38.2618 42.2337 40.3418 41.7221 40.9332C41.7221 40.9332 43.4821 39.9916 46.815 38.4098C58.6358 32.7973 67.3631 30.7075 67.3631 30.7075ZM30.5734 58.6679C30.5486 59.0749 30.6417 59.5918 31.1426 59.9704C31.1426 59.9704 30.5716 60.0174 30.2001 59.7434C29.9891 59.5874 29.8987 59.403 29.8614 59.2966C30.1115 59.098 30.3482 58.8861 30.5734 58.6679Z" fill="white"/>
<path fill-rule="evenodd" clip-rule="evenodd" d="M24.2047 62.383C24.2047 62.383 30.632 70.5029 40.8736 66.4669C40.4028 67.2986 40.1953 68.2172 39.8886 69.3007C37.523 80.3039 29.552 85.0714 29.552 85.0714C28.1006 81.7767 28.9128 78.5927 29.1601 77.4002C29.7223 74.6835 28.418 72.661 28.418 72.661C33.6616 72.9102 28.5208 79.4421 30.4688 82.2865C33.9923 80.2348 36.1176 73.0175 36.6425 70.44C36.6789 70.3434 36.1451 69.9639 35.7133 69.8052C30.6506 68.1773 22.1618 69.5711 19.0931 71.4277C9.48187 77.2441 18.4734 81.234 18.4734 81.234C18.4734 81.234 12.555 83.2122 9.16711 77.8612C8.33632 76.4426 8.12708 73.8554 7.94531 71.8338C11.4688 65.8693 17.0077 63.4984 18.5461 62.438C19.8805 62.7998 22.2984 62.9664 24.2047 62.383ZM44.4911 67.7801C44.4911 67.7801 48.9394 63.4408 58.8229 65.1866C62.6133 65.856 64.7094 67.8563 64.7094 67.8563C63.0194 70.7955 59.6776 72.2328 59.6776 72.2328C59.6776 72.2328 59.8904 67.5557 52.4665 66.3623C47.5987 65.5797 44.6704 67.6493 44.4991 67.7742L44.4911 67.7801ZM50.7863 57.0747C57.2739 54.569 70.5187 50.9479 82.5203 56.9638C81.8066 58.4951 80.0005 60.7702 77.1189 63.6066C74.3747 66.3064 72.5518 67.084 72.0765 67.3421C72.0011 67.3828 71.9613 67.4023 71.9613 67.4023C70.9815 63.6953 62.8279 60.1664 51.0949 63.0773C46.2497 64.2786 44.0893 65.7735 42.1176 67.6093L41.9864 67.7322C42.13 67.3527 42.2914 66.9892 42.4625 66.6407C44.6889 63.7937 51.1561 59.2292 59.8293 60.2835C59.8293 60.2835 55.2914 58.0792 48.1361 60.4173C48.1361 60.4173 58.0063 54.5655 70.5001 57.0543C62.3934 54.3314 55.0954 55.625 50.7863 57.0747ZM21.7877 64.0242C20.5118 64.6857 19.5577 65.1999 19.5577 65.1999C18.8041 66.3295 20.3903 66.1043 21.1244 65.8862C21.7194 65.7088 24.3988 64.9304 24.3988 64.9304C22.9066 64.7876 22.3365 64.4737 21.7877 64.0242ZM48.982 43.3662C39.901 47.1416 38.4185 52.0758 38.3724 52.5936C38.274 53.7063 41.6548 51.2139 44.4193 50.877C41.5111 51.9037 39.0152 54.3766 37.8067 57.2325C37.2942 58.4419 37.1382 59.8197 35.7027 60.897C36.9128 59.7967 36.9583 58.6602 36.9599 58.5545L36.96 58.5465C36.96 58.5465 36.2923 58.949 35.7222 59.0111C35.5342 59.0315 35.3108 58.9996 35.0962 58.9499C35.3862 58.3825 35.3808 57.9791 35.3862 57.8682C36.2684 55.8555 38.4708 53.9909 38.4708 53.9909C38.4708 53.9909 36.842 54.96 36.5982 54.0219C35.951 51.5243 40.3266 46.591 48.6486 43.4859C48.6664 43.4788 48.8889 43.399 48.982 43.3662ZM66.574 42.4335C76.9664 40.8348 91.3194 42.3758 91.3194 42.3758C91.3194 42.3758 90.6553 44.4869 87.5352 47.9085C84.5933 51.1368 83.4886 51.9871 83.4886 51.9871C66.5811 48.3846 53.2583 54.9139 48.5733 57.6918C51.5001 55.539 55.5166 53.208 59.4906 51.5713C62.2489 50.4355 67.7452 48.9672 69.9805 48.8386C69.9805 48.8386 64.2315 47.8651 58.9869 49.1871C58.9869 49.1871 67.2904 45.9473 75.3474 45.7681C78.0454 45.7079 84.2191 46.035 84.2191 46.035C75.3146 43.3919 66.0854 42.8715 59.7787 43.8388C61.9209 43.3095 64.3325 42.7775 66.574 42.4335ZM93.2168 28.8855C93.2168 28.8855 91.4524 34.365 86.9589 38.706C83.8069 39.0199 75.9795 39.3515 69.2428 40.6859C62.1008 42.101 57.1126 43.9833 54.8091 44.9595C57.0824 43.61 66.4082 38.5987 83.7466 35.8936C83.7466 35.8936 81.53 35.6302 78.8195 35.6302C76.0487 35.6302 70.5985 36.5665 70.5985 36.5665C74.5458 34.7631 81.9848 33.0146 91.1838 32.128C91.1838 32.128 77.1277 30.4602 60.1112 35.7934C61.302 35.2889 67.2718 32.8798 76.5089 31.1651C85.3913 29.5168 93.2168 28.8855 93.2168 28.8855Z" fill="#A5ACAF"/>
</svg>
