<svg width="120" height="72" viewBox="0 0 120 72" fill="none" xmlns="http://www.w3.org/2000/svg">
<path d="M60.7859 71.4164C81.0817 71.4164 101.079 64.5356 111.73 53.8837C117.139 48.4749 119.998 42.2288 119.998 35.8169C119.998 29.4521 117.177 23.2678 111.841 17.9315C101.272 7.36399 81.2312 0.535645 60.7859 0.535645C46.4689 0.535645 31.8592 3.90513 20.7024 9.78049C7.95703 16.4914 0.938477 25.7385 0.938477 35.8166C0.938477 42.1367 3.76988 48.308 9.12803 53.6644C14.4829 59.0176 22.2633 63.5226 31.6303 66.6899C40.7718 69.7825 50.8547 71.4159 60.7856 71.4159" fill="#FFFFFE"/>
<path d="M21.5863 11.459C9.49495 17.826 2.83545 26.4769 2.83545 35.8168C2.83545 41.6229 5.47566 47.3297 10.4705 52.3251C15.6194 57.4721 23.1464 61.8189 32.2378 64.8934C41.1869 67.9198 51.0592 69.5201 60.7863 69.5201C80.6036 69.5201 100.075 62.8551 110.389 52.5418C115.434 47.4985 118.101 41.7148 118.101 35.8168C118.101 29.9658 115.473 24.2451 110.5 19.2724C100.269 9.04251 80.7546 2.43292 60.7865 2.43292C46.7688 2.43292 32.4807 5.7222 21.5868 11.4588" fill="black"/>
<path d="M60.7507 66.1583C78.2451 66.1583 94.8241 60.4493 104.015 51.2611C108.65 46.6247 111.1 41.3334 111.1 35.9569C111.1 30.5813 108.65 25.29 104.015 20.6547C94.8229 11.4652 78.2451 5.75745 60.7507 5.75745C47.9049 5.75745 35.1168 8.92804 25.6666 14.4575C15.8221 20.2177 10.3997 27.8527 10.3997 35.9566C10.3997 41.3334 12.8507 46.6245 17.4877 51.2608C26.6772 60.449 43.2552 66.158 60.7507 66.158" fill="#B3995D"/>
<path d="M60.8415 65.0859C86.485 65.0859 107.274 51.8019 107.274 35.7958C107.274 19.7896 86.485 6.81427 60.8415 6.81427C35.1969 6.81427 14.4084 19.7896 14.4084 35.7958C14.4084 51.8019 35.1969 65.0859 60.8415 65.0859Z" fill="#AA0000"/>
<path d="M97.1605 32.1549H97.0324V31.0974H78.6095C78.2142 29.026 77.0229 27.1032 75.321 25.6022C73.6447 23.6761 71.2108 22.2275 68.4382 21.6772L67.2908 21.4401C64.6315 20.8814 62.5309 20.4392 54.0818 20.4829C54.0818 20.4819 52.4567 20.4273 50.8787 20.2179C50.4792 20.1164 50.1298 19.9957 49.8296 19.8654C49.9461 19.1624 51.2313 18.1935 52.6834 18.0066C52.8329 17.9787 61.9776 16.2962 71.3896 22.3918L71.6203 22.5403H77.8065V13.0753H76.7487V12.0177H68.26L66.8292 13.1105C64.3847 12.4984 52.415 9.87884 42.0769 14.4042C37.7325 16.1989 35.037 19.5865 35.2294 23.0273C35.3267 24.7622 36.1568 26.2748 37.5927 27.4478C38.6483 28.766 40.3087 29.7938 42.4712 30.4175C45.5313 31.2987 48.123 31.662 50.6361 31.8063V36.121H51.6929V37.1786H54.9216C56.2582 37.1786 56.6024 37.919 56.6846 38.1946C52.5647 37.9255 46.3005 36.7535 41.689 32.4869L41.5159 32.2999H41.4829C41.2287 32.0563 40.9786 31.8043 40.734 31.5413L40.4574 31.2434H35.8161V44.7156H36.8739V45.7711H40.6605C41.215 45.8106 42.9737 45.6152 44.1884 42.0674C46.1575 42.7542 51.0103 44.2148 56.986 44.3771V52.7589C56.7787 55.5739 50.5775 56.4541 48.4183 56.5395L47.5251 56.5748V60.7421H48.5819V61.7976H75.8067V57.8109L75.1132 57.6271C74.9883 57.5951 74.8686 57.5621 74.7489 57.5288V56.6165L73.8994 56.5438C72.3684 56.4082 71.1909 56.1433 70.2784 55.8172C68.5656 54.858 68.2729 54.0801 68.2356 53.9542V49.4855H76.2146C77.0576 49.6126 77.7799 49.9823 78.392 50.4618C79.5406 51.8762 80.0651 53.4936 80.0728 53.5204L80.2769 54.1752L80.9617 54.1774H80.984C81.0791 54.4178 81.1283 54.5695 81.1315 54.5779L81.3346 55.234L82.0205 55.235H85.6221V39.0237H84.5643V37.9662H80.295L80.1423 38.7066C79.0247 44.0941 72.7935 44.0149 67.2538 43.2074C68.3404 42.9126 69.4312 42.5536 70.519 42.1221C73.485 40.9438 75.7106 39.3413 77.0983 37.4634H89.0574C89.8907 37.4902 90.5991 37.6995 91.1953 38.0894C92.4485 39.9268 92.3236 42.636 92.3213 42.6668L92.2689 43.6476H93.3811L93.3801 43.7224L93.3267 44.7032L94.3085 44.7054H98.0919V32.1551H97.1613" fill="black"/>
<path d="M78.0872 35.4742C78.958 34.4209 78.9985 32.028 78.9985 32.028H96.1019V42.7172H93.2501C93.2501 42.7172 93.6571 35.6559 87.9978 35.4742H78.0872ZM57.9163 44.6026C61.7647 44.6848 65.0289 43.8686 65.0289 43.8686C66.0088 43.6518 79.2595 47.5402 81.0522 38.8968H83.6326V53.247H80.9616C80.9616 53.247 79.3772 48.085 75.2583 47.4965H66.2471V52.9759C66.2471 52.9759 66.2814 56.8174 73.8181 57.4702V59.8119H48.4547V57.4702C48.4547 57.4702 57.624 57.1133 57.9168 52.8115V44.6028L57.9163 44.6026ZM65.829 30.483C64.6024 30.1101 62.8277 30.0301 60.7859 29.9522C53.4801 29.6733 48.8825 30.5439 41.6705 28.4651C33.4852 26.1062 34.9544 18.3549 42.4505 15.2568C53.6028 10.3747 67.034 14.1255 67.034 14.1255L68.5747 12.9483H75.8187V20.5534H70.8378C60.9687 14.1608 51.5056 16.0261 51.5056 16.0261C48.4264 16.4246 45.438 19.8196 50.6894 21.1324C52.3657 21.3589 54.086 21.4135 54.086 21.4135C63.6154 21.3633 64.9358 21.9317 68.2576 22.5897C76.8907 24.301 81.6665 35.2167 69.1178 40.2004C56.163 45.3442 42.5406 39.8009 42.5406 39.8009C41.4091 44.0568 39.6441 43.7856 39.6441 43.7856H36.7464V32.1745H40.0501C47.7942 40.5465 61.0586 39.1141 61.0586 39.1141C61.0586 39.1141 64.9979 39.0138 67.578 36.5791C69.593 34.1199 69.2737 31.4919 65.829 30.4835V30.483ZM55.0069 35.1921H51.5667V32.1089C54.2334 32.1089 59.674 32.1325 63.5235 32.1089C67.3955 32.1089 67.9137 34.3481 66.2811 35.8628C64.7427 37.29 61.5202 38.3058 57.7047 37.6116C57.7047 37.6116 57.3896 35.1921 55.0069 35.1921Z" fill="#FFFFFE"/>
</svg>
