<svg width="75" height="102" viewBox="0 0 75 102" fill="none" xmlns="http://www.w3.org/2000/svg">
<path d="M65.196 46.4718L64.3875 46.2315C60.5133 44.1709 57.3908 40.9348 55.4723 36.9885L55.1009 36.0271L54.0957 36.3548C52.3695 36.9448 40.5263 36.8793 32.7692 36.6826V30.1929H57.5482C60.1965 30.7763 62.1456 33.0357 62.3335 35.743L62.4646 36.6826H74.7667L73.9145 35.0656C71.7316 30.4442 70.5123 25.425 70.331 20.3162L70.4402 18.6556L68.7577 19.2674C66.1574 20.1851 24.2255 21.0373 20.0738 19.6389L18.7846 19.2018L18.6316 20.5785C18.5552 22.8947 17.8843 25.1519 16.6869 27.1337L15.7473 29.0348L17.0365 29.3844C20.8386 30.4114 21.0352 30.9358 21.0571 36.4422L17.0147 36.2893L13.3437 32.6839V15.6401C13.9118 15.1376 16.5995 12.7777 17.1021 12.3625H49.9659L53.9646 16.7327H65.5893L64.9775 15.225C64.016 13.1032 63.7407 10.7368 64.1909 8.45118V7.57714L63.3387 7.31493C60.0392 6.26172 57.216 4.07881 55.3631 1.15297L54.8605 0.453737L54.0302 0.737799C49.9659 2.28922 15.8784 2.31107 12.6008 0.781501L11.683 0.344482L11.1586 1.24037C8.88394 4.61416 5.78548 7.35208 2.15604 9.19411L1.30385 9.60928L1.56606 10.5052C2.85527 14.7443 2.83342 31.9191 1.56606 36.7263L1.3257 37.5785L2.13419 37.9718C5.86196 39.9384 8.98009 42.8861 11.1586 46.4937L11.4864 47.0836L21.0571 46.9744V72.4526H16.6869L13.3437 68.3883V54.3382H0.233154L0.866832 55.8459C1.97467 61.5162 2.2194 67.322 1.58791 73.0644L1.21645 74.0696L2.22159 74.4629C5.99525 76.5147 9.09808 79.6088 11.1586 83.3781L11.5301 84.1866L12.3823 84.0117C15.2666 83.507 18.1946 83.2885 21.1227 83.3562V87.7264C20.5108 90.0229 18.3847 91.5853 16.0095 91.4848H14.2615L15.0918 93.0143C16.4007 95.4638 17.2878 98.1143 17.7139 100.859V101.93H36.0905V100.881C36.5713 98.1362 37.5109 95.4922 38.8656 93.058L39.6523 91.594L37.9916 91.4629C34.8887 91.1789 33.381 90.5233 32.5944 87.4205C32.5944 87.4205 32.5944 84.6891 32.5944 83.3562C36.4183 83.247 50.0752 82.941 53.9865 84.0336L54.8605 84.2521L55.2538 83.4436C57.3056 79.611 60.4456 76.471 64.2783 74.4192L64.9775 74.0914L64.8682 73.3048C63.8412 64.6824 63.8412 55.9682 64.8682 47.3459L65.196 46.4718ZM53.3746 68.3228C52.9376 68.8035 50.4685 71.6878 49.944 72.2778H32.7692V64.4333C35.3258 64.2585 43.8258 63.887 47.7371 65.8973L50.2937 67.2084L49.2667 64.4989C48.751 61.2343 48.751 57.9086 49.2667 54.6441L50.1407 51.869L47.6497 53.3767C44.8965 55.0374 36.7242 54.9718 32.7474 54.7752V46.9744C38.2319 46.9744 46.4042 46.9744 49.2885 47.2803L53.3528 52.0001L53.3746 68.3228Z" fill="#E6D8AF"/>
<path d="M54.2707 37.6877C50.9057 38.5399 32.4198 38.0592 31.6769 38.0373H31.3054V28.7507H57.5265C60.7648 29.3778 63.2231 32.0305 63.6011 35.306H72.3415C70.3137 30.8025 69.1294 25.9669 68.8453 21.0373V20.7095C63.9289 21.8676 24.9686 22.2172 20.0303 21.1029C19.8905 23.489 19.1956 25.8095 17.9982 27.8766L17.8234 28.2044C22.3684 29.5373 22.5213 31.1543 22.5213 37.1633V38.0373H22.0843C22.0843 38.0373 16.4686 37.797 16.2283 37.6877C15.9879 37.5785 11.8581 33.3175 11.7051 33.1427L11.8362 14.8972C11.8362 14.8972 16.2064 11.0077 16.5123 10.9203L50.6653 11.0514C50.6653 11.0514 54.4019 15.2031 54.4019 15.4216H63.4044C62.8232 14.0756 62.5173 12.6269 62.5086 11.1607C62.5086 10.4614 62.5086 9.65296 62.6615 8.71336C59.2003 7.5356 56.2373 5.22595 54.2489 2.15808C49.8787 3.53469 17.1023 3.94986 12.2295 2.15808C9.88929 5.6149 6.72746 8.43804 3.03028 10.374C3.7907 14.5454 4.11409 18.7867 3.99173 23.0257C4.09442 27.656 3.77103 32.2862 3.03028 36.8574C6.84764 38.8218 10.0073 41.8591 12.1203 45.5978H22.5213V73.8073H22.0843L15.7694 73.6762C15.7694 73.6762 11.7707 69.022 11.6833 68.8035C11.5959 68.585 11.6833 56.4795 11.6833 55.6929H2.41846C3.21383 59.6108 3.57437 63.6051 3.48915 67.6017C3.55034 69.4677 3.41049 71.336 3.07399 73.1737C6.99623 75.3391 10.2302 78.5643 12.4043 82.4822C15.6536 81.9599 18.9465 81.748 22.2373 81.8485H22.5869V87.7482C21.9641 90.5998 19.4731 92.656 16.556 92.7302C17.8758 95.1426 18.7914 97.756 19.2655 100.465H34.9108C35.3828 97.7975 36.2831 95.2213 37.5766 92.8395C34.5 92.9684 31.8102 90.7855 31.3054 87.7482V81.9359H31.6769C32.398 81.9359 49.3106 81.3241 54.2926 82.5696C56.3597 78.6386 59.6177 75.4658 63.6011 73.5014C63.057 68.8013 62.7948 64.0727 62.8145 59.342C62.7839 55.3367 63.0461 51.3336 63.6011 47.3677C59.574 45.1717 56.316 41.7935 54.2707 37.6877ZM47.7155 64.4333C47.4642 62.7486 47.368 61.0442 47.4314 59.342C47.4227 57.878 47.5407 56.4162 47.781 54.9718C43.4108 57.004 32.1576 56.3484 31.655 56.3266H31.3054V45.5104H31.6769C37.2707 45.5104 47.1036 45.5104 50.0972 45.9692C50.0972 45.9692 54.7296 51.3664 54.817 51.5849V69.0657C54.817 69.0657 50.8183 73.7199 50.4468 73.851H31.3054V63.0567H31.655C32.1139 62.9911 42.646 62.1826 47.8029 64.4333H47.7155Z" fill="black"/>
<path d="M43.0612 97.2753H41.8813V100.487H41.0728V97.2753H39.8928V96.4886H43.0612V97.2753ZM48.4584 100.487H47.6499V97.3627L46.5137 100.487H45.727L44.6345 97.3627V100.487H43.826V96.4886H45.2245L46.1203 99.1326L47.0599 96.4886H48.4584V100.487Z" fill="black"/>
</svg>
