<svg width="47" height="46" viewBox="0 0 47 46" fill="none" xmlns="http://www.w3.org/2000/svg">
<path d="M38.0481 24.2814C37.6873 24.2814 37.3947 24.574 37.3947 24.9348C37.3947 25.3923 37.0226 25.7644 36.5651 25.7644C36.1077 25.7644 35.7355 25.3923 35.7355 24.9348C35.7355 24.5739 35.4429 24.2814 35.0821 24.2814C34.7212 24.2814 34.4287 24.574 34.4287 24.9348C34.4287 26.1128 35.3872 27.0712 36.5651 27.0712C37.743 27.0712 38.7015 26.1127 38.7015 24.9348C38.7015 24.5738 38.4089 24.2814 38.0481 24.2814Z" fill="white" stroke="white" stroke-width="0.5"/>
<path d="M44.1823 24.3882L42.3433 23.7991C42.1077 23.7236 41.9221 23.5356 41.8468 23.2961C41.4592 22.0638 40.8743 20.9069 40.1083 19.8574C39.7592 19.3791 39.371 18.9223 38.9469 18.4874C39.2183 17.2972 39.3658 15.9502 39.3466 14.7865C39.3193 13.1217 38.9866 12.1453 38.3296 11.8012C37.9758 11.6156 36.899 11.052 31.0705 13.72C30.9325 13.7831 30.8036 13.8609 30.6842 13.95C30.2913 13.8444 29.8897 13.7468 29.4856 13.6591C29.4369 13.6485 29.3867 13.6391 29.3377 13.6287C29.81 12.597 30.0858 11.4764 30.1376 10.3196C30.1538 9.959 29.8747 9.65366 29.5141 9.63762C29.1545 9.61973 28.8482 9.90051 28.8321 10.2611C28.747 12.1632 27.9579 13.9528 26.6105 15.3004C25.8054 16.1054 24.8627 16.6902 23.8581 17.0585C22.1158 16.8141 20.3411 16.8141 18.5988 17.0585C17.5941 16.6902 16.6515 16.1054 15.8464 15.3004C14.4088 13.8628 13.6171 11.9514 13.6171 9.91831C13.6171 7.88514 14.4088 5.97385 15.8464 4.53626C17.284 3.09859 19.1954 2.30684 21.2284 2.30684C23.2614 2.30684 25.1729 3.09859 26.6105 4.53626C27.1882 5.11397 27.6656 5.77322 28.0294 6.49552C28.1917 6.81786 28.5847 6.94764 28.9069 6.78524C29.2293 6.62302 29.359 6.23008 29.1966 5.90782C28.7702 5.06082 28.211 4.28854 27.5347 3.6121C25.8502 1.92767 23.6106 1 21.2285 1C18.8464 1 16.6068 1.92767 14.9224 3.6121C13.238 5.29662 12.3103 7.53613 12.3103 9.91822C12.3103 12.3003 13.238 14.5399 14.9224 16.2243C15.4083 16.7102 15.9369 17.1281 16.496 17.4781C16.4962 17.4781 16.4964 17.478 16.4965 17.478C16.0903 17.5836 15.6871 17.7022 15.2883 17.8355C14.9461 17.9499 14.7614 18.32 14.8759 18.6624C14.9902 19.0046 15.3605 19.1893 15.7027 19.075C19.266 17.8837 23.191 17.8837 26.7544 19.075C26.8231 19.0979 26.8929 19.1088 26.9616 19.1088C27.2349 19.1088 27.4898 18.9359 27.5812 18.6624C27.6957 18.3201 27.511 17.9499 27.1687 17.8355C26.77 17.7022 26.3668 17.5835 25.9605 17.478C25.9607 17.478 25.9609 17.4781 25.9611 17.4781C26.5203 17.1281 27.0488 16.7102 27.5347 16.2243C27.9645 15.7945 28.3439 15.3251 28.6734 14.8262C28.8535 14.8612 29.0323 14.8979 29.2085 14.9361C29.4431 14.987 29.6767 15.0418 29.9082 15.0992C29.901 15.1276 29.8935 15.1559 29.8875 15.1848C29.5688 16.697 29.5895 18.0344 29.9489 19.1598C30.272 20.1713 30.855 20.9907 31.6817 21.5955C32.656 22.3083 33.8323 22.6161 34.8978 22.6161C35.6997 22.6161 36.439 22.4416 36.982 22.1341C37.5962 21.7862 38.1107 21.0532 38.5181 19.9527C38.7063 20.1725 38.8848 20.3976 39.053 20.628C39.7349 21.5623 40.2555 22.5919 40.6003 23.6882C40.8028 24.3321 41.3055 24.8388 41.9448 25.0437L43.7838 25.6328C44.2664 25.7874 44.5906 26.2316 44.5906 26.7383V29.7877C44.5906 30.2943 44.2664 30.7385 43.7838 30.8931L40.8209 31.8422C40.3468 31.9941 39.9456 32.3199 39.6913 32.7596C38.5272 34.7713 36.697 36.4361 34.2513 37.7077C33.9687 37.8548 33.773 38.1178 33.7141 38.4294L32.7651 43.4543C32.7389 43.5928 32.6176 43.6932 32.4767 43.6932H29.3911C29.2502 43.6932 29.1289 43.5927 29.1027 43.4543L28.5771 40.6772C28.4736 40.1309 27.9612 39.7679 27.4096 39.8515C26.0805 40.0525 24.711 40.1543 23.3392 40.1543C22.3187 40.1543 21.3112 40.0974 20.3446 39.985C19.8102 39.9236 19.3123 40.2879 19.2124 40.8156L18.7129 43.4543C18.6867 43.5928 18.5654 43.6932 18.4245 43.6932H15.3389C15.198 43.6932 15.0767 43.5927 15.0502 43.4522L14.1365 38.7062C14.0776 38.4005 13.8856 38.1405 13.6093 37.9929C9.44014 35.7672 7.2365 32.0488 7.2365 27.2399C7.2365 24.8102 7.76807 22.6617 8.8164 20.8539C9.79467 19.1669 11.2235 17.772 13.0631 16.7079C13.3755 16.5271 13.4822 16.1274 13.3016 15.815C13.1209 15.5027 12.7212 15.3961 12.4088 15.5766C8.84166 17.6401 6.69019 20.8236 6.09784 24.867V24.8669C6.03497 24.8612 5.97201 24.8557 5.90931 24.8492C5.92071 24.413 5.84179 23.9728 5.66992 23.5456C5.29083 22.6032 4.51215 21.9231 3.68602 21.8129C3.03502 21.7257 2.41549 22.0021 1.98555 22.5702C1.36216 23.3939 1.46379 24.0458 1.65873 24.4476C1.98783 25.1257 2.83377 25.6054 4.23759 25.907C4.19901 25.9647 4.15657 26.0228 4.11009 26.0811C3.28063 27.1214 2.30342 27.3514 1.6689 27.373C1.29744 27.3856 1 27.6838 1 28.0555V28.0587C1 28.4253 1.28929 28.7243 1.65557 28.7411C1.70248 28.7433 1.7515 28.7444 1.80254 28.7444C2.60542 28.7444 3.89402 28.4483 5.13203 26.8959C5.32749 26.6509 5.48673 26.3924 5.60915 26.1253C5.73244 26.1392 5.85091 26.1512 5.96438 26.1617C5.96438 26.1614 5.96438 26.1613 5.96447 26.161C5.94219 26.5151 5.92983 26.8744 5.92983 27.2399C5.92983 29.9608 6.57847 32.3867 7.8576 34.4507C9.03703 36.3535 10.7257 37.9116 12.8783 39.0833L13.7666 43.6972C13.9094 44.452 14.5707 44.9999 15.3389 44.9999H18.4245C19.1927 44.9999 19.854 44.452 19.9968 43.6972L20.4484 41.3113C21.3864 41.4107 22.3575 41.461 23.3391 41.461C24.6861 41.461 26.0314 41.3672 27.3425 41.182L27.8186 43.6974C27.9615 44.4522 28.6228 45 29.391 45H32.4765C33.2447 45 33.906 44.4521 34.049 43.697L34.9729 38.8047C37.5833 37.4244 39.5509 35.6111 40.8222 33.414C40.9138 33.2556 41.0549 33.1394 41.2194 33.0867L44.1823 32.1377C45.208 31.8089 45.8972 30.8646 45.8972 29.7875V26.7381C45.8972 25.6611 45.208 24.7167 44.1823 24.3882ZM37.9418 16.6226C37.6903 18.7733 37.0157 20.613 36.3378 20.9969C35.5674 21.4334 33.7886 21.5176 32.4531 20.5407C31.116 19.5626 30.671 17.8037 31.166 15.4542C31.2157 15.2182 31.3834 15.014 31.6144 14.9082C34.8856 13.4108 36.7715 12.9211 37.4722 12.9211C37.5779 12.9211 37.6567 12.9322 37.7091 12.9527C37.9196 13.177 38.1956 14.4521 37.9418 16.6226ZM2.83456 23.877C2.76695 23.7376 2.92654 23.4925 3.02774 23.3587C3.18812 23.1468 3.33588 23.1035 3.44751 23.1035C3.4711 23.1035 3.49311 23.1054 3.51328 23.1082C3.8137 23.1482 4.23461 23.4788 4.45761 24.0331C4.51013 24.1636 4.57836 24.3798 4.59432 24.6493C3.6898 24.4619 2.98705 24.1917 2.83456 23.877Z" fill="white" stroke="white" stroke-width="0.5"/>
<path d="M21.8627 9.16936V6.8312C22.669 6.88881 22.9685 7.25737 23.2449 7.25737C23.5905 7.25737 23.7518 6.81971 23.7518 6.60084C23.7518 6.03638 22.6459 5.79453 21.8627 5.77147V5.46035C21.8627 5.32215 21.6898 5.19543 21.5171 5.19543C21.3212 5.19543 21.183 5.32215 21.183 5.46035V5.79436C20.0887 5.90958 18.9944 6.48553 18.9944 7.93688C18.9944 9.41129 20.1463 9.82598 21.183 10.1945V12.9014C20.008 12.8093 19.6971 12.003 19.3169 12.003C19.029 12.003 18.7871 12.3831 18.7871 12.6596C18.7871 13.224 19.7547 13.9957 21.183 14.0188V14.3758C21.183 14.514 21.3213 14.6408 21.5171 14.6408C21.6899 14.6408 21.8627 14.514 21.8627 14.3758V13.9842C23.1067 13.8114 23.9591 13.0281 23.9591 11.6113C23.9591 10.0449 22.8648 9.53792 21.8627 9.16936ZM21.2521 8.95057C20.6416 8.72021 20.1463 8.47836 20.1463 7.82183C20.1463 7.22282 20.607 6.93485 21.2521 6.85426V8.95057ZM21.7935 12.8784V10.448C22.3578 10.6898 22.8071 11.0123 22.8071 11.738C22.8071 12.3947 22.4154 12.7632 21.7935 12.8784Z" fill="white" stroke="white" stroke-width="0.5"/>
</svg>
