<svg width="112" height="50" viewBox="0 0 112 50" fill="none" xmlns="http://www.w3.org/2000/svg">
<path d="M93.4267 40.662C88.3632 39.6503 81.716 39.3818 78.9083 39.3818L12.0952 39.3966C7.93838 39.3966 3.63986 39.3966 1.434 36.0001C-0.803795 32.5545 0.412086 29.1645 4.18588 22.3812C4.46757 21.8771 15.9105 0.374756 15.9105 0.374756C15.9105 0.374756 17.0796 1.82557 18.2582 2.74981C19.422 3.66132 20.6178 4.14739 23.8059 4.14739C29.4687 4.14739 65.9996 4.06754 66.372 4.06522C73.7874 4.06522 81.2774 4.83276 86.1307 10.1525C88.6502 10.4212 96.7834 11.4957 103.486 14.6992C107.409 16.5712 109.996 19.3696 110.974 22.7872C111.27 23.8202 111.417 24.9065 111.417 26.0323C111.417 29.2763 110.202 32.8689 107.819 36.6024C102.785 44.4932 98.1432 47.2511 97.9354 47.3995C95.0747 49.4112 92.3046 49.5049 92.3046 49.5049C92.3046 49.5049 94.7995 46.6692 95.6411 43.8336C96.4839 40.9979 93.4267 40.662 93.4267 40.662Z" fill="#FFFFFE"/>
<path d="M102.66 16.4284C110.299 20.0798 111.638 27.0559 106.205 35.5737C101.331 43.2077 96.4107 46.4465 96.4107 46.4465C96.4107 46.4465 101.152 40.2507 93.8017 38.7804C88.2657 37.6759 81.1758 37.465 78.909 37.465C76.3011 37.465 52.9978 37.5183 50.0901 37.5183C47.1824 37.5183 46.3793 37.1218 45.7414 36.2443C45.1046 35.3701 44.9937 34.1741 46.1862 32.3821C47.3831 30.591 49.2006 27.7852 49.2006 27.7852L41.3447 21.4678C47.9366 14.8936 53.2017 12.6889 57.7979 12.6889C62.4582 12.6889 64.5124 13.3733 72.1838 16.5907C79.8562 19.8101 82.3916 16.387 82.3916 16.387C79.1703 17.7559 76.2935 16.5907 70.8802 14.1962C65.469 11.7987 62.2498 10.7048 57.3882 10.7048C52.5233 10.7048 48.4143 12.0725 43.2668 15.8569C38.4199 19.4196 38.053 20.152 30.7452 20.152H7.52637L16.4681 3.41919C16.4681 3.41919 17.1368 6.06297 23.8066 6.06297C29.5368 6.06297 66.3727 5.98196 66.3727 5.98196C73.6867 5.98196 80.923 6.7569 85.2056 11.9882C85.2056 11.9882 95.0199 12.7771 102.66 16.4284ZM89.1617 17.8005C85.6865 16.9691 88.6571 14.9584 88.6571 14.9584C83.6566 15.968 81.7963 20.0446 81.3665 21.1852C81.2864 21.3398 81.2045 21.4986 81.12 21.666C78.3531 27.2288 75.8613 26.9313 71.1371 26.9313H63.0465C56.4931 26.9313 53.4412 30.1774 50.3 35.7061H54.0014C57.3838 30.6723 59.9373 29.3152 66.6273 28.9377C81.9157 28.9462 94.1033 33.3297 100.544 36.6804C109.704 21.3067 96.1096 18.762 89.1615 17.8005H89.1617ZM60.7067 35.6462C62.4165 33.0631 65.8929 32.1858 71.498 32.5087C85.3303 33.3093 93.2834 36.001 99.4626 38.3015C91.8435 33.8445 78.2649 30.6313 68.8271 30.6611C64.215 30.675 60.1873 31.481 57.8215 35.646H60.7067V35.6462ZM75.5523 20.3952C73.7497 22.9089 71.3753 23.7672 64.6416 23.3078C56.8058 22.7759 58.8283 19.4763 59.7403 17.8528L59.7137 17.8496C59.9632 17.3901 60.39 16.6099 60.8231 15.8241C54.8201 15.4542 50.435 20.0723 50.435 20.0723C54.9106 24.4966 57.8951 24.9593 61.9443 24.9593H69.5132C76.5511 24.9593 78.2512 21.7942 78.8965 20.3869C77.6816 20.5383 76.5884 20.5256 75.5526 20.3955L75.5523 20.3952Z" fill="#002244"/>
<path d="M72.1359 19.6469C71.9928 19.5893 71.8447 19.5286 71.6963 19.4677C71.0061 20.1948 69.8159 20.6158 68.6628 20.4677C67.1448 20.2737 66.2703 19.1712 66.7011 18.0084C66.7629 17.8378 66.8536 17.6778 66.9613 17.5244C66.1838 17.2195 65.4019 16.9263 64.6401 16.6608C63.0808 19.1819 62.1665 20.8526 67.5777 21.3088C70.9482 21.5956 71.8625 21.0188 72.5706 19.8098C72.4254 19.7545 72.2847 19.7064 72.1354 19.6467" fill="#69BE28"/>
<path d="M44.9594 29.2253C42.1679 34.0673 41.0608 35.1793 43.0213 37.4777H12.0959C7.53485 37.4777 4.56956 37.306 3.04421 34.9555C1.56052 32.673 1.86559 30.4961 5.86345 23.3121H32.1576C36.6845 23.3121 37.8481 23.5702 40.3046 25.4752C42.7612 27.3824 44.9596 29.2256 44.9596 29.2256" fill="#A5ACAF"/>
</svg>
