<svg width="73" height="91" viewBox="0 0 73 91" fill="none" xmlns="http://www.w3.org/2000/svg">
<path d="M13.0793 90.4588C11.4843 90.4588 10.1742 89.1486 10.1742 87.5536V81.7433C10.1742 80.4331 11.1426 79.2939 12.3958 79.123C12.7375 79.066 13.0793 79.066 13.4781 79.066C15.0731 79.066 15.244 78.4394 15.244 77.9267V70.6923C13.4781 69.9518 12.1109 69.2682 11.1995 68.8125C10.6299 68.5277 10.1742 68.2998 9.77542 68.072C8.0665 67.2175 7.55383 66.9327 6.18669 66.8757C5.50313 66.8757 4.64867 66.9327 3.50939 67.0466H3.22457C2.31315 67.0466 1.45869 66.7048 0.889048 66.0782C0.433336 65.5656 0.148517 64.882 0.148517 64.1984C0.148517 63.5148 0.376372 62.8313 0.889048 62.2616C1.74351 61.3502 2.48404 60.4958 3.11064 59.8122C3.85117 58.9577 4.47778 58.2742 5.04742 57.5906L5.84491 56.6792C6.41455 56.0526 7.15508 55.7108 8.00954 55.7108H8.12347C8.63614 55.7108 9.14882 55.8817 9.60453 56.1095C10.2311 56.4513 10.9147 56.8501 11.7122 57.3058C12.7945 57.8754 13.9908 58.4451 15.187 58.9577V49.9574C6.35759 48.0207 0.0915527 40.4444 0.0915527 31.3872C0.0915527 22.3299 6.47151 14.4119 15.187 12.3612V10.7662C15.187 10.0257 14.5604 9.39909 13.8199 9.39909H13.0224C11.4274 9.39909 10.1172 8.08892 10.1172 6.49393V2.96217C10.1172 1.36718 11.4274 0.0570068 13.0224 0.0570068H28.8014C30.3964 0.0570068 31.7065 1.36718 31.7065 2.96217V6.49393C31.7065 8.08892 30.3964 9.39909 28.8014 9.39909H28.0039C27.2634 9.39909 26.6368 10.0257 26.6368 10.7662V11.7916C37.6308 11.8485 48.0552 14.1841 52.0996 15.2094C52.6693 15.3803 53.1819 15.4942 53.6377 15.6082C54.9478 15.9499 55.6314 16.1208 56.3719 16.1208C57.1694 16.1208 58.1948 15.9499 60.0746 15.4373C60.3594 15.3803 60.7012 15.3233 60.986 15.3233C62.0683 15.3233 63.0367 15.836 63.5494 16.7474C64.0621 17.6019 64.0051 18.6273 63.4924 19.5387C62.1253 21.9312 61.0999 23.6401 60.2455 25.0072L59.6189 26.0326C59.1062 26.887 58.1378 27.4567 57.1694 27.4567C56.8276 27.4567 56.5428 27.3997 56.201 27.2858C46.802 23.9819 34.8965 22.7287 26.6368 22.6717V39.1343H37.232V37.4254C35.0674 37.5962 33.8712 38.052 33.8712 38.052L33.8142 38.1089L33.7003 38.1659C33.3585 38.2798 33.0737 38.3368 32.7889 38.3368C32.1053 38.3368 31.4217 38.052 30.966 37.5963C30.1116 36.6848 30.1116 35.4886 30.1116 34.9189V30.4188C30.2255 29.0517 31.3078 28.0263 32.6749 28.0263H52.7262C54.0934 28.0263 55.2326 29.1086 55.2896 30.4188L55.3466 34.862C55.3466 35.4316 55.4035 36.6279 54.5491 37.4823C54.0934 37.995 53.4098 38.2229 52.7262 38.2229C52.3844 38.2229 52.0427 38.1659 51.7009 38.052C51.473 37.995 49.992 37.5962 48.1691 37.3684V39.1343C61.4987 40.0457 69.6445 48.7042 69.6445 56.6222C69.6445 68.7555 59.2771 76.2748 42.6436 76.2748C40.6499 76.2748 38.5422 76.1608 36.4915 75.933C33.2446 75.5912 30.2255 75.0216 26.6937 74.1671V77.8128C26.6937 78.8951 27.2064 78.8951 28.3457 78.8951H56.8846C57.796 78.8951 60.929 78.6673 63.7772 75.8191C64.3469 75.2494 65.0874 74.9646 65.8279 74.9646C66.6254 74.9646 67.4229 75.3064 67.9356 75.876L71.98 80.2622C73.0624 81.4015 73.0054 83.1674 71.8661 84.3067C67.8217 88.3511 62.9228 90.3449 56.8276 90.3449H13.0793V90.4588ZM26.6368 63.1161C32.1623 64.5972 37.5738 65.3377 42.4158 65.3377C52.2705 65.3377 58.6505 62.2047 58.6505 57.3058C58.6505 52.4638 52.5553 50.641 48.1691 50.1853V53.831L49.0236 55.7108C49.3654 56.5083 49.3084 57.4197 48.8527 58.1602C48.397 58.9008 47.5425 59.3565 46.6881 59.3565H38.884C38.0295 59.3565 37.232 58.9008 36.7194 58.2172C36.2637 57.4767 36.1497 56.5652 36.4915 55.7678L37.289 53.831V50.0144H26.6368V63.1161ZM15.187 23.754C12.5097 25.2351 10.8008 27.9693 10.8008 30.9884C10.8008 34.5202 12.5097 37.3684 15.187 38.6216V23.754Z" fill="white"/>
<path d="M70.4993 81.8002L66.4549 77.414C66.1131 77.0722 65.5434 77.0722 65.2017 77.414C62.3535 80.2622 59.0496 81.1167 56.8849 81.1167H28.289C26.3522 81.1167 24.6433 80.9458 24.6433 78.952V71.7176C28.9726 72.9138 32.5613 73.6544 36.6627 74.0531C52.7266 75.762 67.5942 70.8062 67.5942 56.7931C67.5942 49.3308 58.9926 41.5267 46.3466 41.2989C46.2327 41.2989 46.1187 41.1849 46.1187 41.071V35.7164C46.1187 35.6025 46.2327 35.4885 46.3466 35.4885C49.5366 35.4885 52.2708 36.343 52.2708 36.343C53.4101 36.7987 53.2392 35.4316 53.2392 34.9759L53.1823 30.7605C53.1823 30.4757 52.8405 30.3048 52.6696 30.3048H32.6183C32.3904 30.3048 32.1056 30.4757 32.1056 30.8175V35.0328C32.1056 35.5455 32.0486 36.6848 33.074 36.4C33.074 36.4 35.2386 35.4885 38.9982 35.5455C39.1122 35.5455 39.2261 35.6594 39.2261 35.7734V41.128C39.2261 41.2419 39.1122 41.3558 38.9982 41.3558H24.8712C24.7573 41.3558 24.6433 41.2419 24.6433 41.128V20.9058C24.6433 20.7918 24.7573 20.6779 24.8712 20.6779C32.3904 20.564 46.0618 21.5893 56.8849 25.349C57.2837 25.4629 57.6824 25.349 57.9103 25.0072C58.8217 23.4691 60.0179 21.5324 61.7838 18.5133C62.1826 17.7727 61.556 17.2031 60.6445 17.431C55.9165 18.6842 55.7456 18.2285 51.5873 17.2031C46.8593 16.0069 35.8083 13.6713 24.8142 13.8422C24.7003 13.8422 24.5294 13.7283 24.5294 13.6144V10.7662C24.5294 8.88638 26.0674 7.34835 27.9472 7.34835H28.7447C29.2004 7.34835 29.5992 6.9496 29.5992 6.49389V2.96213C29.5992 2.50641 29.2004 2.10767 28.7447 2.10767H13.0797C12.6239 2.10767 12.2252 2.50641 12.2252 2.96213V6.49389C12.2252 6.9496 12.6239 7.34835 13.0797 7.34835H13.8771C15.757 7.34835 17.295 8.88638 17.295 10.7662V13.8422C17.295 13.9562 17.1811 14.0701 17.0671 14.0701C8.63646 15.3803 2.14257 22.6716 2.14257 31.3871C2.14257 40.1596 8.63646 46.9953 17.0102 48.1915C17.1241 48.1915 17.238 48.3054 17.238 48.4194V62.0907C15.0164 61.1793 12.8518 60.2109 10.7441 59.1286C10.0036 58.7298 9.26307 58.2741 8.52253 57.8754C8.35164 57.7614 8.18075 57.7614 8.00986 57.7614C7.72504 57.7614 7.49718 57.8184 7.32629 58.0463C6.58576 58.9007 5.67434 59.8691 4.53506 61.1793C3.85149 61.9198 3.16792 62.7173 2.31346 63.6287C2.14257 63.7996 2.08561 64.0275 2.08561 64.1984C2.02864 64.6541 2.48435 65.0528 3.16792 64.9959C4.3072 64.8819 5.27559 64.8819 6.07308 64.825C8.29468 64.9389 9.09217 65.5655 11.9404 66.9326C13.1936 67.5592 15.0164 68.3567 17.1241 69.2682V78.7242C17.1241 81.4584 13.7632 80.9458 12.453 81.0597C12.1682 81.1167 12.0543 81.4015 12.0543 81.6293V87.4397C12.0543 87.8954 12.453 88.2941 12.9088 88.2941H56.8849C62.4674 88.2941 66.8536 86.4713 70.4993 82.8825C70.7841 82.6547 70.8411 82.142 70.4993 81.8002ZM24.6433 48.3624C24.6433 48.2485 24.7573 48.1345 24.8712 48.1345H39.0552C39.1691 48.1345 39.2831 48.2485 39.2831 48.3624V53.9449C39.2831 54.2297 39.2261 54.4575 39.1122 54.7424L38.3147 56.6791C38.1438 57.0209 38.4286 57.4766 38.8274 57.4766H46.6314C47.0302 57.4766 47.315 57.0779 47.1441 56.6791L46.2896 54.7993C46.1757 54.5145 46.1187 54.2297 46.1187 53.9449V48.4194C46.1187 48.3054 46.2327 48.1345 46.3466 48.1915C51.4734 48.2485 60.6445 50.2422 60.6445 57.4197C60.6445 66.9896 44.125 70.3505 24.5864 64.768C24.5864 64.768 24.5294 64.768 24.5294 64.711V48.3624H24.6433ZM16.9532 41.2989C11.9404 40.5014 8.80735 36.2291 8.80735 30.9884C8.80735 26.1465 12.2822 22.045 16.9532 20.9058C17.1241 20.8488 17.295 20.9627 17.295 21.1336V41.014C17.238 41.1849 17.1241 41.2989 16.9532 41.2989Z" fill="#C41E3A"/>
<path d="M69.2463 88.8067H68.7906C68.7336 88.8067 68.7336 88.7497 68.7336 88.7497V88.4649C68.7336 88.408 68.7906 88.408 68.7906 88.408H70.3286C70.3856 88.408 70.3856 88.4649 70.3856 88.4649V88.7497C70.3856 88.8067 70.3286 88.8067 70.3286 88.8067H69.8729C69.816 88.8067 69.816 88.8637 69.816 88.8637V90.3447C69.816 90.4017 69.759 90.4017 69.759 90.4017H69.4172C69.3602 90.4017 69.3602 90.3447 69.3602 90.3447V88.8637C69.3033 88.8637 69.3033 88.8067 69.2463 88.8067ZM70.8413 88.408H71.1831C71.1831 88.408 71.2401 88.408 71.2401 88.4649L71.6958 89.2055H71.7527L72.2084 88.4649L72.2654 88.408H72.6072C72.6642 88.408 72.6642 88.4649 72.6642 88.4649V90.3447C72.6642 90.4017 72.6072 90.4017 72.6072 90.4017H72.3224C72.2654 90.4017 72.2654 90.3447 72.2654 90.3447V89.2624C72.2654 89.2055 72.2084 89.2055 72.2084 89.2624L71.6958 90.003L71.1831 89.2624C71.1831 89.2055 71.1261 89.2624 71.1261 89.2624V90.3447C71.1261 90.4017 71.0692 90.4017 71.0692 90.4017H70.7843C70.7274 90.4017 70.7274 90.3447 70.7274 90.3447V88.4649C70.7274 88.4649 70.7843 88.408 70.8413 88.408Z" fill="white"/>
</svg>
