<svg width="91" height="92" viewBox="0 0 91 92" fill="none" xmlns="http://www.w3.org/2000/svg">
<path d="M0.319336 45.7091C0.319336 70.689 20.6413 91.0107 45.621 91.0107C70.5997 91.0107 90.9226 70.6888 90.9226 45.7091C90.9226 20.7304 70.5997 0.408447 45.621 0.408447C20.6411 0.408447 0.319336 20.7304 0.319336 45.7091Z" fill="black"/>
<path d="M45.6208 90.0172C70.09 90.0172 89.9279 70.1792 89.9279 45.7091C89.9279 21.2399 70.09 1.40198 45.6208 1.40198C21.1505 1.40198 1.31274 21.2399 1.31274 45.7091C1.31274 70.1795 21.1507 90.0172 45.6208 90.0172Z" fill="#A5ACAF"/>
<path d="M45.6213 82.7793C66.0339 82.7793 82.5824 66.2308 82.5824 45.8182C82.5824 25.4055 66.0339 8.85608 45.6213 8.85608C25.2077 8.85608 8.65918 25.4058 8.65918 45.8182C8.65918 66.2308 25.2077 82.7793 45.6213 82.7793Z" fill="#FFFFFE"/>
<path d="M45.8129 45.8681C46.2399 30.7289 60.5404 27.1745 64.1335 27.5005C55.2763 27.0196 46.5354 23.2767 45.8597 9.27063C44.7929 22.2955 39.5665 25.9986 27.5217 27.5444C36.1252 27.9804 44.8335 31.3849 45.8127 45.8681" fill="#FFB612"/>
<path d="M64.1844 64.6063C64.6113 49.4671 78.6603 45.7313 82.2543 46.0573C73.3676 45.7292 64.808 41.5053 64.1335 27.5002C63.0667 40.5261 57.8575 44.322 45.813 45.8678C54.4165 46.3038 63.2042 50.1231 64.1846 64.6063" fill="#C60C30"/>
<path d="M46.0349 82.6254C46.4609 67.484 60.5904 64.2802 64.1844 64.6065C55.3272 64.1244 46.4884 59.8753 45.8127 45.868C44.7459 58.8939 39.6744 62.807 27.6306 64.3516C36.2329 64.7898 45.0545 68.1432 46.0347 82.6254" fill="#00539B"/>
<path d="M35.5148 42.6316L36.9577 42.6163L36.9639 43.3123C37.1809 42.9302 37.3114 42.7018 37.8026 42.5917H38.1613V44.2803C36.9191 44.1927 37.0016 44.6278 36.9854 44.9619V48.1747H35.515V42.6314L35.5148 42.6316ZM42.0159 44.4392L40.7279 44.433C40.7279 44.2996 40.731 44.1824 40.7064 44.0805C40.6708 43.9378 40.4801 43.8022 40.2866 43.8003C40.0584 43.8003 39.882 43.8736 39.8057 44.0948C39.714 44.3619 39.7567 44.7552 40.4517 44.8337L40.8054 44.9213C41.1997 45.0538 41.5808 45.1638 41.8775 45.7294C41.9274 45.8263 41.9355 45.8578 42.0149 46.1349C42.183 46.7096 42.072 47.1478 41.8844 47.4903C41.7703 47.695 41.4901 47.9499 41.3901 48.012C40.845 48.3482 40.1092 48.3838 39.4408 48.1812C39.1126 48.0814 38.7551 47.8306 38.5778 47.4862C38.3942 47.1306 38.3902 46.8392 38.3668 46.358L39.6121 46.3499C39.5866 46.5447 39.7069 46.7697 39.8995 46.8432C40.0942 46.9196 40.5801 46.9227 40.6658 46.7046C40.7259 46.5506 40.7646 46.4671 40.6312 46.2664C40.3878 45.8986 39.867 45.8385 39.4095 45.7232C38.5911 45.5163 38.3926 44.7235 38.4281 44.1223C38.4455 43.838 38.4964 43.5099 38.6758 43.2886C39.0539 42.8209 39.219 42.8442 39.4453 42.7354C40.1983 42.3695 41.1348 42.6294 41.634 43.1359C41.9142 43.4182 42.0056 43.9378 42.0159 44.4392ZM18.1305 42.6641H17.1095L16.5542 42.6681C16.5408 42.4247 16.5043 42.1087 16.3432 41.961C16.1048 41.744 15.5647 41.8641 15.4219 42.1657C15.1632 42.7077 15.4943 43.2173 16.3279 43.4834L16.5573 43.5975C17.3448 43.9817 17.563 44.1702 17.8575 44.586C17.946 44.7113 18.1193 45.0385 18.1897 45.4378C18.3396 46.2917 18.1245 46.8215 17.9319 47.2893C17.9319 47.2893 17.8587 47.5105 17.6558 47.6988C16.8284 48.4711 15.6821 48.5048 14.8322 48.1015C14.4408 47.9139 14.1394 47.7325 13.9243 47.2497C13.7124 46.7759 13.6644 46.3459 13.7255 45.6468L15.3122 45.6378C15.2826 45.86 15.3477 46.4213 15.4966 46.5774C15.6444 46.7323 16.2456 46.8831 16.4768 46.4733C16.5584 46.3296 16.5787 45.7051 16.326 45.4645C15.8501 45.007 15.4394 44.9612 14.879 44.6106C14.079 44.1113 13.6542 43.2156 13.705 42.3657C13.7294 41.9631 13.8396 41.6829 14.0351 41.3304C14.2308 40.982 14.5079 40.6641 14.9083 40.4887C15.9742 40.0209 17.2766 40.2879 17.8503 41.3008C18.0011 41.5657 18.152 41.961 18.1305 42.6641ZM18.9405 42.6354V42.124L20.4262 41.3087L20.4324 42.6538L20.998 42.6416L21.0042 43.9531L20.4326 43.944V46.1268C20.4326 46.4253 20.3787 46.5447 20.9777 46.5354L20.9768 48.1964C20.2696 48.179 18.9307 48.4196 18.9245 46.8576L18.9133 43.9156L18.3589 43.934L18.3527 42.654L18.9408 42.6357L18.9405 42.6354ZM29.4382 40.4109L30.9351 40.4149V48.2225H29.4382V40.4109ZM32.6022 46.6065C32.6043 47.1039 33.6905 47.2058 33.717 46.579V46.4211L34.9399 46.4148L34.942 47.0681C34.9542 47.5022 34.774 47.974 34.0401 48.2268C33.2616 48.4692 32.7754 48.3237 32.3201 48.2268C31.722 48.0077 31.4315 47.5318 31.4041 46.8614V44.1569C31.3766 43.6495 31.6587 43.2072 32.149 42.8851C32.9845 42.5201 33.4411 42.618 34.0687 42.8352C34.6668 43.1612 34.937 43.5648 34.943 44.1282V45.8442H32.5972L32.6022 46.6065ZM32.6552 44.6857L33.7618 44.6898C33.99 43.7208 32.4697 43.5953 32.6552 44.6857ZM26.6462 46.6065C26.6493 47.1039 27.7354 47.2058 27.7631 46.579V46.4211L28.9848 46.4148L28.9879 47.0681C28.9982 47.5022 28.8187 47.974 28.085 48.2268C27.3065 48.4692 26.8204 48.3237 26.365 48.2268C25.7669 48.0077 25.4765 47.5318 25.449 46.8614V44.1569C25.4216 43.6495 25.7049 43.2072 26.1939 42.8851C27.0294 42.5201 27.487 42.618 28.1127 42.8352C28.712 43.1612 28.981 43.5648 28.9881 44.1282V45.8442H26.6485L26.6464 46.6065H26.6462ZM26.7001 44.6857L27.8068 44.6898C28.0349 43.7208 26.5147 43.5953 26.7001 44.6857ZM22.5904 46.6065C22.5935 47.1039 23.6796 47.2058 23.7073 46.579V46.4211L24.929 46.4148L24.9321 47.0681C24.9433 47.5022 24.7629 47.974 24.0292 48.2268C23.2507 48.4692 22.7636 48.3237 22.3092 48.2268C21.7111 48.0077 21.4207 47.5318 21.3932 46.8614V44.1569C21.3658 43.6495 21.6491 43.2072 22.1381 42.8851C22.9727 42.5201 23.4312 42.618 24.0569 42.8352C24.6562 43.1612 24.9252 43.5648 24.9323 44.1282V45.8442H22.5927L22.5906 46.6065H22.5904ZM22.6443 44.6857L23.751 44.6898C23.9791 43.7208 22.4589 43.5953 22.6443 44.6857Z" fill="black"/>
</svg>
