<svg width="115" height="82" viewBox="0 0 115 82" fill="none" xmlns="http://www.w3.org/2000/svg">
<path d="M37.3682 47.5612C37.4803 48.9066 37.9584 51.5836 39.5054 54.5707C41.417 58.2594 45.4218 63.178 53.6816 65.9636C54.9925 68.0223 56.535 69.9467 58.2813 71.6879C64.56 77.9518 72.9007 81.3952 81.7667 81.3811C90.6339 81.3685 98.9641 77.9019 105.224 71.6185C111.484 65.3374 114.927 56.9917 114.913 48.1204C114.899 39.2468 111.434 30.9118 105.157 24.6479C100.182 19.6842 93.9417 16.4909 87.0764 15.3831C77.7822 6.96218 66.9318 9.97957 66.4666 10.1149C66.3103 10.1588 66.0778 10.2261 65.7886 10.3139C62.449 11.4254 60.7225 10.1519 59.6037 9.27433C58.3643 8.30178 57.0116 7.31421 55.7064 6.58008C51.2732 4.08489 44.9726 3.99587 39.666 6.13665C36.1703 7.32805 34.4078 5.78702 33.3653 5.06674C26.4423 0.287319 17.9302 -0.853241 8.89975 1.136C2.81891 2.47679 0.386719 3.71449 0.386719 3.71449C0.386719 3.71449 4.55254 4.31877 8.90452 6.13904C12.4777 7.63258 15.3185 9.54998 17.4696 12.9934C17.4696 12.9934 18.8235 14.9826 17.944 15.5695C16.9593 16.226 15.934 14.6189 15.934 14.6189C15.9004 15.7754 15.9004 16.9265 15.9768 17.8005C16.4767 26.9856 18.3488 32.5025 22.7762 36.7182C24.7907 38.6356 28.1893 40.5007 33.4405 42.5651C35.8357 43.5238 37.1319 44.7522 37.3679 47.561" fill="#FFFFFE"/>
<path d="M103.659 26.1484C98.8435 21.3434 92.7302 18.3122 86.1136 17.3814C77.4872 9.12259 67.0553 12.1493 67.0553 12.1493C69.2655 12.4782 70.7338 13.7968 70.1679 15.2581C69.7918 16.2237 68.1868 16.2745 67.4532 16.2817C65.1226 16.3072 63.1105 14.8772 61.5043 13.5712C59.8346 12.2121 57.1094 9.80014 54.6679 8.42713C50.1226 5.8694 42.9055 6.18801 37.6821 9.52473C40.8053 9.73666 44.5637 10.6362 46.8049 12.4934C48.0558 13.5309 49.6515 15.6161 48.3462 16.5898C47.1995 17.4466 44.3818 17.0044 42.9494 16.1741C40.6721 14.8552 38.6206 12.8557 37.3917 11.4061C29.124 1.66062 17.4113 1.11647 7.75146 3.50404C14.0915 5.28468 18.322 8.89825 20.9348 15.1275C23.5489 21.3566 25.5785 24.0081 29.8841 25.6961C32.5803 26.752 33.3094 26.9477 33.0987 28.1438C32.7886 29.8944 29.5949 29.0539 27.1591 28.1021C24.1911 26.9431 20.2812 23.7417 17.9528 17.7373C18.3764 25.5062 19.8575 31.0152 24.2339 35.1834C26.0935 36.9526 29.508 38.7831 34.8519 40.8406C38.263 42.1547 40.964 42.9501 43.505 45.2277C46.4684 47.8837 45.2059 49.6379 43.2401 49.3054C41.016 48.9302 39.4284 46.6575 39.4284 46.6575C39.4284 46.6575 39.432 59.3148 55.0683 64.1869C56.3702 66.3475 57.9437 68.362 59.7757 70.1878C65.6539 76.0533 73.4624 79.2755 81.7625 79.2628C90.0639 79.2502 97.8631 76.0058 103.725 70.1231C109.586 64.2413 112.809 56.4282 112.795 48.1221C112.783 39.817 109.538 32.0133 103.659 26.1489" fill="#002244"/>
<path d="M102.008 27.7231C97.3438 23.0571 91.3568 20.1962 84.8953 19.4886C79.3352 13.9438 73.7878 14.2044 73.7878 14.2044C76.2223 15.7316 74.967 19.1309 69.5515 19.88C64.1881 20.6211 57.376 18.802 54.0586 14.935C50.6393 10.9498 48.0577 10.7679 48.0577 10.7679C51.0236 12.6216 51.2341 14.8469 53.0345 18.2371C54.835 21.6284 58.5414 22.8451 61.7698 23.0571C65.1707 23.2804 65.254 24.8205 62.5115 26.4484C59.5204 28.2222 56.8727 26.5458 54.9484 24.6492C51.9097 21.6504 48.8838 21.0762 44.7019 21.1294C40.5201 21.1826 34.9923 21.7327 30.3255 19.9855C25.6587 18.2371 22.5819 12.0925 22.5819 12.0925C24.8893 20.2504 30.0167 24.1177 34.7758 25.052C41.0626 26.2852 45.4089 27.7821 48.068 29.9369C50.6646 32.0441 52.0474 34.1457 53.0228 37.0459C53.7761 39.2817 53.9104 42.2504 53.1675 42.4287C52.3007 42.6349 52.1226 41.4399 51.1009 39.3559C49.9728 37.0543 48.6258 35.2479 45.9088 33.7985C42.2268 31.8336 38.6235 31.9472 34.9495 31.998C32.0393 32.0386 30.3327 31.7052 30.3327 31.7052C30.3327 31.7052 30.4541 32.0987 35.1961 33.1641C40.4796 34.3498 45.5907 37.3299 48.9926 44.5952C51.8866 50.7746 50.3766 55.1233 43.9647 53.155C43.9647 53.155 46.9594 59.8161 56.7407 62.1884C58.0032 64.4091 59.5722 66.4735 61.4261 68.3293C66.8461 73.7515 74.0517 76.7374 81.7165 76.7374C89.3814 76.7374 96.5858 73.7512 102.008 68.3293C107.427 62.905 110.411 55.6951 110.411 48.0246C110.411 40.3564 107.427 33.1462 102.008 27.7231Z" fill="#4B92DB"/>
<path d="M81.7163 20.7172C89.0062 20.7172 95.8601 23.5572 101.015 28.7154C106.171 33.8736 109.01 40.7312 109.01 48.0245C109.01 63.083 96.766 75.3351 81.7163 75.3351C74.4264 75.3351 67.5726 72.4939 62.4163 67.3357C57.2612 62.1775 54.4229 55.3199 54.4229 48.0245C54.4229 40.7312 57.2612 33.8736 62.4163 28.7154C67.5726 23.5572 74.4262 20.7172 81.7163 20.7172Z" fill="#FFFFFE"/>
<path d="M81.7512 72.9789C67.98 72.9997 56.7973 61.8442 56.7765 48.0637C56.7569 34.2822 67.9072 23.0941 81.6793 23.0745C95.4517 23.0537 106.634 34.2104 106.654 47.9909C106.675 61.7724 95.5257 72.9605 81.7512 72.9789Z" fill="#002244"/>
<path d="M75.6183 42.9773H68.2277L65.792 47.3226L62.5161 38.0302H100.846L97.5763 47.3226L95.1601 42.9773H87.8946L81.7409 69.9143L75.6183 42.9773Z" fill="#FFFFFE"/>
<path d="M100.846 38.0302H62.5161L63.1373 39.7912H81.4145L75.6183 42.9773L81.7409 69.9107V39.7912H100.227L100.846 38.0302Z" fill="#A5ACAF"/>
<path d="M62.8989 16.4772C57.3412 16.3185 55.0754 14.113 51.6227 11.3388C47.3979 7.94291 42.7116 8.88897 42.7116 8.88897C45.5177 7.28182 51.036 7.21595 55.0109 10.7033C58.5622 13.819 60.3049 15.5094 62.8992 16.4774L62.8989 16.4772ZM15.4548 4.22744C21.6514 3.08116 26.8468 5.01932 30.7754 11.9861C34.6195 18.8022 41.6445 18.9838 41.6445 18.9838C36.3112 20.496 29.0225 19.1227 25.2015 12.2627C20.6562 4.10119 15.4548 4.22744 15.4548 4.22744ZM44.8972 43.7427C41.8435 39.5177 37.0484 38.5118 30.5127 36.7588C21.1548 34.2486 21.082 26.0826 21.082 26.0826C21.082 26.0826 22.4834 31.7455 33.3582 33.9593C44.1612 36.1593 44.8972 43.743 44.8972 43.743V43.7427ZM85.4619 35.6299L81.7161 32.9393L78.0109 35.6879L79.4123 31.2916L75.6551 28.6169L80.2663 28.5613L81.6491 24.1883L83.0977 28.5613H87.7101L83.9922 31.2555L85.4619 35.6299ZM69.0074 51.0961L68.5504 55.6891L72.7821 57.5242L68.2762 58.5072L67.8399 63.1015L65.5106 59.1185L61.0104 60.1223L64.0767 56.6755L61.7323 52.7018L65.9547 54.5555L69.0072 51.0959L69.0074 51.0961ZM90.6194 57.624L94.8234 55.7228L94.2969 51.1379L97.4014 54.55L101.594 52.6326L99.3119 56.6409L102.43 60.0392L97.9152 59.106L95.6484 63.1248L95.1415 58.5387L90.6194 57.624Z" fill="#C60C30"/>
</svg>
