<svg width="110" height="89" viewBox="0 0 110 89" fill="none" xmlns="http://www.w3.org/2000/svg">
<path d="M0.0357322 44.2184C0.672945 68.4325 25.5243 88.1861 55.4733 88.1861C85.4223 88.1861 109.636 68.4325 108.999 44.2184C108.362 20.0043 83.5106 0.250732 53.5616 0.250732C23.6126 0.250732 -0.601481 20.0043 0.0357322 44.2184Z" fill="white"/>
<path d="M15.3287 67.1581C14.0543 67.7953 12.7798 67.1581 12.7798 67.1581C10.231 63.972 8.31935 61.4232 7.04493 58.8743C7.04493 58.8743 5.7705 56.9627 7.04493 55.6882C7.68214 55.051 8.31935 54.4138 9.59378 54.4138H31.8962C32.5335 54.4138 32.5335 54.4138 33.1707 55.051C33.1707 55.6882 32.5335 56.3255 32.5335 56.3255L15.3287 67.1581Z" fill="#005BAA"/>
<path d="M21.7012 65.8836L27.4361 62.6976L38.2687 56.3255C38.9059 55.6882 40.1804 55.051 41.4548 55.051H46.5525H47.1897V55.6882L41.4548 65.8836C41.4548 66.5209 40.1804 67.1581 38.9059 67.1581H21.7012C21.7012 67.1581 21.064 67.1581 21.064 66.5209L21.7012 65.8836Z" fill="#005BAA"/>
<path d="M64.3944 62.6976L65.6688 65.2464C65.6688 65.8836 65.6688 65.8836 65.6688 66.5209C65.6688 67.1581 65.0316 67.1581 64.3944 67.1581H57.385C56.7478 67.1581 56.1106 66.5209 56.1106 65.8836V56.3255C56.1106 55.6882 56.7478 55.051 57.385 55.051H59.2967C59.9339 55.051 60.5711 55.6882 60.5711 56.3255C59.9339 55.6882 64.3944 62.6976 64.3944 62.6976Z" fill="#005BAA"/>
<path d="M62.4824 55.051C63.1196 55.051 63.1196 55.051 62.4824 55.051H68.2173C69.4918 55.051 70.129 55.6882 71.4034 56.3255L84.7849 64.6092L87.9709 66.5209C88.6082 66.5209 88.6082 67.1581 88.6082 67.1581L87.9709 67.7953H70.7662C69.4918 67.7953 68.2173 67.1581 68.2173 66.5209L62.4824 55.051C62.4824 55.6882 62.4824 55.6882 62.4824 55.051Z" fill="#005BAA"/>
<path d="M54.1988 65.8837C54.1988 66.5209 53.5616 67.1581 52.9244 67.1581H45.915C45.2778 67.1581 45.2778 67.1581 44.6406 66.5209C44.6406 65.8837 44.6406 65.8837 44.6406 65.2464C45.2778 63.972 49.1011 56.3255 49.7383 55.6882C49.7383 55.051 50.3755 54.4138 51.0128 54.4138H52.9244C52.9244 54.4138 54.1988 55.051 54.1988 55.6882V65.8837Z" fill="#005BAA"/>
<path d="M30.6222 79.9023C26.1617 77.9907 21.7012 75.4418 17.2407 72.2558C16.6035 71.6185 16.6035 71.6185 16.6035 70.9813C16.6035 70.3441 17.2407 70.3441 17.8779 70.3441H36.3571C37.6315 69.7069 38.2688 69.7069 38.2688 70.3441C38.2688 70.3441 38.2688 70.9813 38.2688 71.6185L33.8083 79.9023C33.8083 79.9023 33.1711 80.5395 30.6222 79.9023Z" fill="#005BAA"/>
<path d="M52.2875 84.3628C47.827 84.3628 42.7293 83.7256 37.6316 81.814C36.9944 81.814 36.3572 81.1768 36.3572 80.5395C36.3572 79.9023 36.3572 79.2651 36.3572 78.6279L40.1805 70.9814L40.8177 69.7069C41.4549 69.0697 42.0921 68.4325 43.3665 68.4325H52.2875C52.9247 68.4325 53.5619 69.0697 53.5619 69.7069V81.814C53.5619 82.4512 53.5619 82.4512 52.9247 83.0884C53.5619 84.3628 52.9247 84.3628 52.2875 84.3628Z" fill="#005BAA"/>
<path d="M72.6781 82.4512C67.5804 83.7256 63.1199 84.3628 58.0222 84.3628C57.385 84.3628 57.385 84.3628 56.7478 83.7256C56.1106 83.0884 56.1106 83.0884 56.1106 82.4512V70.3441C56.1106 69.7069 56.7478 69.0697 57.385 69.0697H66.306C67.5804 69.0697 68.2176 69.7069 68.8549 70.3441C69.4921 70.9813 73.3154 77.9907 73.9526 78.6279C73.9526 79.2651 74.5898 79.9023 73.9526 80.5395C73.9526 81.814 73.3153 81.814 72.6781 82.4512Z" fill="#005BAA"/>
<path d="M93.069 72.2558C88.6086 75.4418 84.7853 77.9907 80.3248 79.9023C78.4131 80.5395 77.7759 80.5395 77.1387 79.9023L75.2271 76.079L72.6782 71.6185V70.9813C72.6782 70.9813 72.6782 70.9813 72.6782 70.3441C72.6782 69.7069 73.3154 69.7069 73.9527 69.7069H92.4318C93.069 69.7069 93.7063 70.3441 93.7063 70.3441C93.069 70.9813 93.069 71.6186 93.069 72.2558Z" fill="#005BAA"/>
<path d="M100.716 55.051C101.99 55.051 102.627 55.051 103.264 56.3255C103.902 57.5999 103.264 59.5115 103.264 59.5115C101.99 62.0604 100.078 65.2464 98.1667 67.7953C98.1667 67.7953 96.8923 69.0697 95.6179 67.7953L77.7759 57.5999C77.7759 57.5999 77.1387 56.9627 77.1387 56.3255C77.1387 55.6882 77.7759 55.6882 78.4131 55.6882L100.716 55.051Z" fill="#005BAA"/>
<path d="M8.95706 32.7488C7.68263 32.7488 7.04542 32.7488 6.40821 31.4744C5.77099 30.1999 6.40821 28.9255 6.40821 28.9255C7.68263 25.7394 9.59427 23.1906 11.5059 20.6417C11.5059 20.6417 12.7803 19.3673 14.0548 20.6417L31.8967 30.8371C31.8967 31.4744 32.5339 31.4743 31.8967 32.1116C31.8967 32.7488 31.8967 32.7488 31.2595 32.7488H8.95706Z" fill="#EE1C25"/>
<path d="M52.9247 32.1116C52.9247 32.7488 52.2874 33.386 51.6502 33.386H49.7386C49.7386 32.7488 49.1014 32.1116 49.1014 32.1116L43.3665 22.5534C43.3665 21.9161 43.3665 21.9161 43.3665 21.2789C43.3665 20.6417 44.0037 20.6417 44.6409 20.6417H51.6502C52.2874 20.6417 52.9247 21.2789 52.9247 21.9162V32.1116Z" fill="#EE1C25"/>
<path d="M56.1106 20.6417H63.1199C63.7572 20.6417 63.7572 20.6417 64.3944 21.2789C64.3944 21.9161 64.3944 21.9161 64.3944 22.5534L63.1199 25.1022L59.2967 32.1116C59.2967 32.7488 58.6595 33.386 58.0222 33.386H56.1106C56.1106 33.386 54.8362 32.7488 54.8362 32.1116V22.5534C55.4734 21.2789 55.4734 20.6417 56.1106 20.6417Z" fill="#EE1C25"/>
<path d="M46.5527 32.1117C46.5527 32.7489 46.5527 32.7489 45.9155 32.7489H40.8178C39.5434 32.7489 38.269 32.1117 37.6318 32.1117L28.0736 26.3768L21.0642 21.9163C20.427 21.9163 20.427 21.2791 20.427 21.2791H21.0642H38.269C39.5434 21.2791 40.8178 21.9163 40.8178 22.5535C40.1806 21.9163 46.5527 32.1117 46.5527 32.1117Z" fill="#EE1C25"/>
<path d="M78.4132 7.89749C82.8736 9.80913 87.3341 12.9952 91.1574 16.1813C91.7946 16.8185 91.7946 16.8185 91.7946 17.4557C91.7946 18.0929 91.1574 18.0929 90.5202 18.0929H72.041C71.4038 18.0929 70.7666 17.4557 70.7666 17.4557C70.7666 17.4557 70.7666 16.8185 70.7666 16.1813L72.041 13.6324L75.2271 8.5347C75.2271 7.89749 75.8643 7.26027 78.4132 7.89749Z" fill="#EE1C25"/>
<path d="M56.7478 3.43689C61.2083 3.43689 66.306 4.0741 71.4037 5.98574C72.0409 5.98574 72.6781 6.62296 72.6781 7.26017C72.6781 7.89738 72.6781 8.53459 72.6781 9.17181C72.6781 9.80902 69.4921 14.2695 68.8549 16.8184L68.2177 18.0928C67.5804 18.73 66.9432 19.3672 65.6688 19.3672H56.7478C56.1106 19.3672 55.4734 18.73 55.4734 18.0928V5.98574C55.4734 5.34853 55.4734 5.34853 56.1106 4.71132C55.4734 3.43689 56.1106 3.43689 56.7478 3.43689Z" fill="#EE1C25"/>
<path d="M36.3572 5.98586C41.4549 4.71143 45.9154 4.07422 51.0131 4.07422C51.6503 4.07422 51.6503 4.07422 52.2875 4.71143C52.9247 5.34864 52.9247 5.34864 52.9247 5.98586V18.0929C52.9247 18.7301 52.2875 19.3673 51.6503 19.3673H42.7293C41.4549 19.3673 40.8177 18.7301 40.1805 18.0929C39.5433 16.1813 35.0828 9.17192 35.0828 8.53471C35.0828 7.8975 35.0828 7.8975 35.0828 7.26028V6.62307C35.0828 5.98586 35.72 5.98586 36.3572 5.98586Z" fill="#EE1C25"/>
<path d="M32.5338 8.53455L37.6315 16.8183C37.6315 17.4555 37.6315 17.4555 37.6315 18.0927C37.6315 18.73 36.9943 18.73 36.3571 18.73H17.8779C17.2407 18.73 16.6035 18.0927 16.6035 18.0927C16.6035 17.4555 16.6035 17.4555 17.2407 16.8183C21.7012 13.6323 25.5245 11.0834 29.985 9.17177C31.2594 7.26013 31.8966 7.89734 32.5338 8.53455Z" fill="#EE1C25"/>
<path d="M93.7065 21.2789C94.9809 20.6417 96.2553 21.2789 96.2553 21.2789C98.167 23.8278 100.079 26.3766 101.353 29.5627C101.353 29.5627 102.627 31.4743 101.353 32.7488C100.716 33.386 100.079 34.0232 98.8042 34.0232H76.5017C75.8645 34.0232 75.8645 34.0232 75.2273 33.386C75.2273 32.7488 75.8645 32.1116 75.8645 32.1116L93.7065 21.2789Z" fill="#EE1C25"/>
<path d="M87.3342 21.9163L81.5993 25.7395L70.7667 32.1117C70.1295 32.7489 68.8551 33.3861 67.5806 33.3861H62.4829H61.8457V32.7489L66.9434 23.8279L67.5806 22.5535C67.5806 21.9163 68.855 21.2791 70.1295 21.2791H87.3342H87.9714L87.3342 21.9163Z" fill="#EE1C25"/>
<path d="M101.353 39.1209C100.716 39.7581 84.148 49.9535 83.5108 50.5907C82.8736 50.5907 82.2363 51.2279 81.5991 50.5907C80.9619 49.9535 80.9619 49.3163 80.9619 48.0419C80.9619 46.7674 80.9619 45.493 80.9619 45.493C80.3247 43.5814 77.7758 41.0325 73.9526 41.0325C70.1293 41.0325 68.2176 42.9442 66.9432 44.8558C66.306 46.7674 66.9432 48.6791 66.9432 49.3163C66.9432 49.9535 67.5804 50.5907 66.9432 51.8651C66.306 52.5024 65.6688 52.5024 65.0316 52.5024C64.3944 52.5024 33.1709 52.5024 33.1709 52.5024C32.5337 51.8651 31.8965 51.2279 31.8965 49.9535C32.5337 48.0419 32.5337 46.7674 31.8965 44.8558C31.8965 42.9442 29.3476 41.0325 25.5244 41.0325C21.7011 41.0325 19.7894 42.3069 19.1522 44.8558C18.515 46.7674 19.1522 48.0419 19.1522 48.6791C19.1522 49.3163 19.7894 49.9535 19.1522 51.2279C18.515 51.8651 17.8778 51.8651 17.2406 51.8651C16.6034 51.8651 7.6824 51.8651 7.04519 51.8651C5.13355 51.8651 5.13355 49.3163 6.40797 48.6791C7.6824 48.0419 12.7801 44.2186 15.329 42.9442C21.7011 39.1209 26.1616 39.1209 26.1616 39.1209C26.1616 39.1209 51.0129 38.4837 52.2873 38.4837C53.5617 38.4837 53.5617 38.4837 53.5617 38.4837L57.385 36.572C57.385 36.572 58.0222 35.9348 59.2967 35.9348C59.9339 35.9348 100.716 35.9348 100.716 35.9348C101.99 35.9348 102.627 37.8465 101.353 39.1209Z" fill="black"/>
<path d="M101.99 83.7256C101.353 84.3629 100.078 85.0001 99.441 85.0001C98.1665 85.0001 97.5293 84.3629 96.8921 83.7256C95.6177 83.0884 95.6177 82.4512 95.6177 81.1768C95.6177 79.9024 96.2549 79.2652 96.8921 78.6279C97.5293 77.9907 98.8037 77.3535 99.441 77.3535C100.715 77.3535 101.353 77.9907 101.99 78.6279C102.627 79.2652 103.264 80.5396 103.264 81.1768C103.264 82.4512 102.627 83.0884 101.99 83.7256ZM96.8921 78.6279C96.2549 79.2652 96.2549 79.9024 96.2549 81.1768C96.2549 81.814 96.2549 83.0884 96.8921 83.7256C97.5293 84.3629 98.1665 84.3629 98.8037 84.3629C99.441 84.3629 100.078 84.3629 100.715 83.7256C101.353 83.0884 101.353 82.4512 101.353 81.1768C101.353 80.5396 101.353 79.2652 100.715 78.6279C100.078 77.9907 99.441 77.3535 98.8037 77.3535C98.1665 77.9907 97.5293 77.9907 96.8921 78.6279ZM97.5293 83.0884V78.6279C97.5293 78.6279 98.1665 78.6279 98.8037 78.6279C99.441 78.6279 99.441 78.6279 99.441 78.6279C100.078 78.6279 100.078 78.6279 100.078 78.6279C100.715 78.6279 100.715 79.2652 100.715 79.9024C100.715 80.5396 100.715 80.5396 100.715 80.5396C100.715 80.5396 101.353 81.1768 101.353 81.814V82.4512H100.078V81.814V81.1768C100.078 81.1768 100.078 81.1768 99.441 81.1768V82.4512L97.5293 83.0884ZM99.441 79.9024H98.8037V81.1768H99.441H100.078C100.078 80.5396 100.078 80.5396 99.441 79.9024C100.078 79.9024 100.078 79.9024 99.441 79.9024Z" fill="black"/>
</svg>
