<svg width="47" height="38" viewBox="0 0 47 38" fill="none" xmlns="http://www.w3.org/2000/svg">
<path d="M45.8894 12.8155L34.5482 1.47435C33.9154 0.841726 32.8896 0.841916 32.257 1.47473C31.9533 1.77851 31.7827 2.19032 31.7826 2.61988V7.48034H20.4415C19.5467 7.48034 18.8213 8.20571 18.8213 9.10053C18.8213 9.99535 19.5467 10.7207 20.4415 10.7207H33.4028C34.2976 10.7207 35.023 9.99535 35.023 9.10053V6.53084L42.4531 13.9609L35.023 21.391V18.8214C35.023 17.9265 34.2976 17.2012 33.4028 17.2012H15.581V12.3407C15.5808 11.4459 14.8553 10.7207 13.9606 10.7209C13.5311 10.721 13.1192 10.8916 12.8154 11.1953L1.47439 22.5364C0.841869 23.1691 0.841869 24.1946 1.47439 24.8273L12.8155 36.1684C13.1193 36.4723 13.5313 36.643 13.9609 36.6431C14.1739 36.6438 14.3849 36.6019 14.5814 36.52C15.1867 36.269 15.5812 35.6783 15.581 35.0229V30.1625H26.9222C27.817 30.1625 28.5423 29.4371 28.5423 28.5423C28.5423 27.6475 27.817 26.9221 26.9222 26.9221H13.9609C13.0661 26.9221 12.3408 27.6475 12.3408 28.5423V31.1119L4.9107 23.6818L12.3408 16.2518V18.8214C12.3408 19.7162 13.0661 20.4416 13.9609 20.4416H31.7826V25.302C31.7828 26.1968 32.5084 26.922 33.4031 26.9218C33.8326 26.9217 34.2445 26.7511 34.5482 26.4475L45.8894 15.1063C46.5218 14.4736 46.5218 13.4481 45.8894 12.8155Z" fill="white" stroke="#243D5B" stroke-width="1.2"/>
</svg>
